<svg xmlns="http://www.w3.org/2000/svg" width="32.324" height="30.459" viewBox="0 0 32.324 30.459">
  <path id="Path_14010" data-name="Path 14010" d="M25.276.011A37.719,37.719,0,0,0,14.958,1.358a1.47,1.47,0,0,0-1.08,1.048c-.056.509.436.606.834.5a40.4,40.4,0,0,1,7.55-1.188A223.515,223.515,0,0,0,.6,17.382c-.293.24-.808.74-.512,1.159.272.386.983.138,1.264-.094A222.373,222.373,0,0,1,24.111,2.1c-.284.334-.667.711-.743.8a26.872,26.872,0,0,1-3.011,2.874c-.293.237-.808.743-.512,1.159.272.389.98.138,1.264-.094a30.893,30.893,0,0,0,3.9-3.752A4.927,4.927,0,0,0,26.3,1.188C26.476.442,26,.035,25.276.011Z" transform="matrix(0.819, 0.574, -0.574, 0.819, 10.75, 0)" fill="#d2e8df"/>
</svg>
