<svg xmlns="http://www.w3.org/2000/svg" width="46.439" height="43.76" viewBox="0 0 46.439 43.76">
  <path id="Path_20391" data-name="Path 20391" d="M36.313.016A54.191,54.191,0,0,0,21.489,1.95a2.111,2.111,0,0,0-1.551,1.505c-.08.732.626.87,1.2.723A58.045,58.045,0,0,1,31.983,2.472a321.119,321.119,0,0,0-31.12,22.5c-.42.345-1.16,1.064-.736,1.665.391.555,1.413.2,1.816-.135A319.479,319.479,0,0,1,34.64,3.01c-.408.479-.959,1.022-1.068,1.144a38.606,38.606,0,0,1-4.326,4.129c-.42.341-1.16,1.068-.736,1.665.391.559,1.408.2,1.816-.135a44.384,44.384,0,0,0,5.6-5.39,7.078,7.078,0,0,0,1.854-2.716C38.037.634,37.36.05,36.313.016Z" transform="matrix(0.819, 0.574, -0.574, 0.819, 15.445, 0)" fill="#114048"/>
</svg>
