<svg xmlns="http://www.w3.org/2000/svg" version="1.2" viewBox="0 0 47 44" width="47" height="44"><style>.a{fill:#DC6B50}</style><path class="a" d="m1.8 20.9q1.6-1.1 3.1-2.1 1.6-1 3.3-1.9 1.7-0.8 3.4-1.6 1.7-0.7 3.5-1.4 0.2-0.1 0.5-0.1 0.3 0 0.6 0 0.3 0.1 0.5 0.2 0.3 0.1 0.5 0.3c0.5 0.5 0 1-0.6 1.3q-1.2 0.4-2.5 1-1.3 0.5-2.5 1.1-1.2 0.6-2.4 1.3-1.2 0.7-2.4 1.4 4.8-0.2 9.6-0.3 4.8-0.1 9.6 0 4.8 0.1 9.6 0.3 4.8 0.2 9.6 0.5c0.5 0.1 1.5 0.3 1.5 1 0 0.7-1 1-1.5 0.9q-5-0.4-10.1-0.6-5-0.2-10-0.3-5.1 0-10.1 0.1-5.1 0.1-10.1 0.3c0.6 0.2 1.4 0.3 1.5 0.4q0.8 0.1 1.5 0.3 0.7 0.1 1.5 0.2 0.7 0.1 1.5 0.2 0.7 0.1 1.5 0.2c0.5 0 1.5 0.2 1.5 0.9 0 0.7-1 1-1.5 0.9q-1 0-2-0.1-1-0.1-1.9-0.3-1-0.1-1.9-0.3-1-0.2-1.9-0.5-0.4 0-0.8-0.1-0.4-0.1-0.8-0.3-0.4-0.1-0.8-0.3-0.4-0.2-0.7-0.4c-0.8-0.7-0.6-1.6 0.2-2.2z"/></svg>