<svg xmlns="http://www.w3.org/2000/svg" width="13.487" height="12.855" viewBox="0 0 13.487 12.855">
  <g id="Group_3282" data-name="Group 3282" transform="translate(-147.031 -148)">
    <g id="Group_3210" data-name="Group 3210" transform="translate(147.031 148)">
      <g id="Group_3209" data-name="Group 3209" transform="translate(0 0)">
        <path id="Path_20387" data-name="Path 20387" d="M161.144,153.808a.293.293,0,0,1,.534,0l1.751,3.856a.322.322,0,0,0,.257.187l4.208.474a.293.293,0,0,1,.165.508l-3.126,2.857a.321.321,0,0,0-.1.3l.85,4.149a.293.293,0,0,1-.432.314l-3.683-2.09a.322.322,0,0,0-.317,0l-3.683,2.09a.293.293,0,0,1-.432-.314l.85-4.149a.321.321,0,0,0-.1-.3l-3.126-2.857a.293.293,0,0,1,.165-.508l4.208-.474a.322.322,0,0,0,.257-.187Z" transform="translate(-154.668 -153.636)" fill="#dc6b50" fill-rule="evenodd"/>
      </g>
    </g>
  </g>
</svg>
