<svg xmlns="http://www.w3.org/2000/svg" width="119.654" height="160.988" viewBox="0 0 119.654 160.988">
  <g id="Layer_1-2" transform="translate(20.455 -6.53) rotate(7)">
    <g id="Group_3194" data-name="Group 3194" transform="translate(0 0)">
      <path id="Path_13237" data-name="Path 13237" d="M146.08,342.668a.583.583,0,0,1,.1-.47c.369-.369.269-.94.571-1.31l-.034.034c1.41-1.242,1.41-2.988,1.612-4.634a.859.859,0,0,0-.537-.638c-1.007-.2-1.645.873-2.653.672a5.486,5.486,0,0,0-.739-.067,9.987,9.987,0,0,1-1.444.168c-.235-.034-.47-.067-.739-.1a3.006,3.006,0,0,0-.772-.067c-.134.034-.269.067-.369.1-1.041.6-2.418.672-2.988,2.015a4,4,0,0,0-.3,1.209c-.134,1.276-.3,2.72,1.108,3.223,1.31.47,2.384-.369,3.123-1.511.235-.336.369-.739.739-.907,1.578,1.377-.1,3.962,2.015,5.137,1.041-.705.806-1.947,1.31-2.854Z" transform="translate(-92.457 -222.988)" fill="#e49171" fill-rule="evenodd"/>
      <path id="Path_13238" data-name="Path 13238" d="M79.042,102.456c.2.672.034,1.444.537,2.015.369.571.134-1.343.672-.168a2.044,2.044,0,0,0,1.175.94,1.914,1.914,0,0,0,.437.034c.134-.034.269-.1.4-.134a3.517,3.517,0,0,0,.269-.369c.269-2.619,1.746-4.835,2.384-7.32.235-.94.974-1.981-.437-2.653a2.377,2.377,0,0,0-1.612.638,23.152,23.152,0,0,0-2.25,3.223c-.839,1.847-.739-.739-1.209-.168-.907.537-.6,1.276-.369,2.015a18.84,18.84,0,0,1,0,1.947Z" transform="translate(-9.671 -63.025)" fill="#df6a3e" fill-rule="evenodd"/>
      <path id="Path_13239" data-name="Path 13239" d="M51.917,161.377c.437-.034.873-.1,1.276-.134,1.511-1.074,1.276-1.88-.5-1.947a3.494,3.494,0,0,1-3.223-1.813c-.974-1.578-2.82-.705-4.264-.907a1.241,1.241,0,0,0-.873.94,16.962,16.962,0,0,0,6.48,3.727c.369.067.739.1,1.108.134Z" transform="translate(33.033 -104.016)" fill="#e1845f" fill-rule="evenodd"/>
      <path id="Path_13240" data-name="Path 13240" d="M3.072,97.53a.366.366,0,0,1,.1-.437c.369-2.753.839-5.54-.067-8.294-2.048,1.007-.873,3.123-1.578,4.567-.1.3-.067.705-.269.873-1.813,1.914-1.41,3.794-.034,5.742a3.745,3.745,0,0,0,.437.806.492.492,0,0,0,.772-.067l-.034.067C3.239,99.881,2.669,98.6,3.072,97.53Z" transform="translate(98.466 -59.04)" fill="#d17446" fill-rule="evenodd"/>
      <path id="Path_13241" data-name="Path 13241" d="M262.379,479.168a1.66,1.66,0,0,1,1.276-.6c.235-.235.47-.47.705-.672a.394.394,0,0,0,.134-.437c-.034-.134-.1-.235-.134-.235a1.581,1.581,0,0,0-1.444-.2c-.437.369-.47.134-.47-.269a1.079,1.079,0,0,0-1.444,0c-1.108,1.007-2.015,2.384-3.828,1.947a7.019,7.019,0,0,0-3.324.537c-.5.2-1.007.436-1.511.638a9.021,9.021,0,0,1-2.518.2c-1.612.336-3.66-.5-4.6,1.679.873,1.78,2.518.873,3.828,1.074,1.142.168,2.149-.705,3.324-.537a7.3,7.3,0,0,1,2.787-1.276c2.485-.2,4.8-1.242,7.219-1.847Z" transform="translate(-244.751 -316.543)" fill="#e07843" fill-rule="evenodd"/>
      <path id="Path_13242" data-name="Path 13242" d="M281.4,493.551c.168-.839.336-1.645.537-2.451.034.034.034.067.067.134,1.612,1.108,3.358.739,5.07.369.739-.168,1.41-.4,1.948.369l-.034.1a1.906,1.906,0,0,0-.6.4c-1.41,1.142-3.291.168-4.768,1.209a1.526,1.526,0,0,1-2.216-.134Z" transform="translate(-281.4 -326.258)" fill="#bd6712" fill-rule="evenodd"/>
      <path id="Path_13243" data-name="Path 13243" d="M282.1,493.99a.506.506,0,0,0-.6.4C281.836,494.46,282,494.292,282.1,493.99Z" transform="translate(-274.516 -328.175)" fill="#e4916e" fill-rule="evenodd"/>
      <path id="Path_13244" data-name="Path 13244" d="M171.815,166.746c.034.436.034.873.034,1.276-.437.6-.369,1.108.369,1.41.4-.168.705-.336.369-.839.369.1.269.369.168.6a5.888,5.888,0,0,0-.47,2.015c1.175,5.775,1.041,11.584.839,17.393.571,2.115,1.746.638,2.585.336,1.007-.336,1.612-1.242.974-2.216-1.477-2.317-.369-3.828,1.242-5.406,1.175-1.142.873-3.794-.4-3.794-2.955,0-1.41-1.78-1.377-2.888.034-.974.907-1.645,1.142-2.552a3.817,3.817,0,0,0,.2-.839c-.3-1.545-.436-3.123-2.048-4.13-.772-.47.537-.806.638-1.31.4-3.022.1-6.111.6-9.133-.537-.672-1.813-.839-1.444-2.115.739-2.619-.571-4.634-1.88-6.648-.034-.269-.034-.5-.067-.772a6.328,6.328,0,0,1,.47-1.41,2.308,2.308,0,0,0-.168-.806c-.672-.873-.369-2.317-1.679-2.82-1.712,1.41-.806,3.492-1.31,5.238.537,3.458,1.88,6.883.269,10.409-.269,1.377-.537,2.787.537,4,.537.1,1.041.168.739-.672.537.1.2.537.134.705-.4,1.377-.034,2.854-.47,4.231a.658.658,0,0,0,0,.739Z" transform="translate(-133.839 -94.443)" fill="#e06c3e" fill-rule="evenodd"/>
      <path id="Path_13245" data-name="Path 13245" d="M186.476,243.546a4.027,4.027,0,0,1,.4.369c.47-.705,1.074-1.444-.235-1.947a.649.649,0,0,0-.3-.168c.034.2.034.436.067.638-.168.168-.2.3-.134.437s.134.2.2.2a.4.4,0,0,1,0,.47Z" transform="translate(-147.862 -160.667)" fill="#e06c3e" fill-rule="evenodd"/>
      <path id="Path_13246" data-name="Path 13246" d="M144.533,189.676a1.2,1.2,0,0,0,.5-1.276,1.018,1.018,0,0,1-.2-.873c.369-2.384-.235-4.1-2.552-4.331.94-1.679,3.626,1.377,3.761-1.679a1.994,1.994,0,0,0,.5-1.914c-1.78-2.552-1.477-6.111-4-8.327-.269-.235.2-.739.4-1.108,1.041-1.746.705-3.358-.2-5.07-.739-1.41-1.242-2.921-.437-4.5.168-.235.3-.47.47-.705.067-.134.134-.235.2-.369a45.27,45.27,0,0,0,.739-5.272,3.539,3.539,0,0,0-.806-1.477c-.806-.672-.772-1.712-1.074-2.619a1.465,1.465,0,0,0-.537-.571c-.907-.3-1.377.47-1.981.839a.989.989,0,0,1-.537-.336c-.067-.638.537-.705.873-1.007a5,5,0,0,0,.672-.5c1.578-.705,3.526-1.108,3.022-3.593-.772-2.216-1.209-4.734-4.432-4.8-.6-.034-1.041-.672-.3-1.612,2.921-3.727,2.619-6.111-.806-9.066,1.947-.6,3.324-1.612,2.72-4a4.5,4.5,0,0,0-.907-1.477,2.053,2.053,0,0,0-.739-.437c-1.444-.638-.638-1.746-.47-2.653.336-1.578.5-3.156-1.041-4.13-1.444-.907-2.753-.1-3.929.806a2.418,2.418,0,0,0-.638,3.089c.537,1.074-.034,1.981-.1,2.988a3.82,3.82,0,0,0,.806,1.444,7.547,7.547,0,0,1,.4.705c-.6,2.283-2.485,4.3-1.477,6.917,1.175,3.257,2.149,6.48,1.679,10.073-.269,1.813,1.343,3.223,4.1,3.694-2.72.739-4.13,1.914-3.693,4.667.3,1.981-2.149,3.022-2.418,4.936a1.668,1.668,0,0,0,1.444,2.015c1.041-.235,2.183-1.41,3.123-.2.806,1.074.269,2.451-.134,3.593-.47,1.343-2.149,2.317-.974,4.164.4.638-.571.571-.94.839-1.175.839-.772,1.914.2,2.115,2.25.47,1.914,2.082,1.947,3.593.034.134.034.3.067.437a3.937,3.937,0,0,0,.3.806c1.31,1.914-.168,2.72-1.444,3.559-.336,1.31-.168,3.089.873,3.794,1.209.839,1.679-1.477,2.619-1.545-1.276,1.712-5.137,1.88-3.626,5.607,1.511.1,3.526-.705,2.585,2.451-.369,1.209.94,2.854,2.619,3.425.974.873,2.048.672,3.19-.6.168-.067.134-.537.571-.5Z" transform="translate(-88.828 -77.383)" fill="#e79979" fill-rule="evenodd"/>
      <path id="Path_13247" data-name="Path 13247" d="M130.316,36.407a3.72,3.72,0,0,0,.067-.638c0-2.653,1.477-4.5,3.324-6.178a1.785,1.785,0,0,0,.6-1.31,2.941,2.941,0,0,0-.235-1.074,1,1,0,0,0-.571-.4,1.25,1.25,0,0,0-.672.235c-.5,0,.067-.168-.034-.235.2-.369-.1.1.067-.269-.336-1.242,1.477-2.72-.437-3.895-.4-.235.47-.739.705-1.108a8.182,8.182,0,0,0,1.343-3.089c.369-2.183-1.108-3.693-2.015-5.44a2.384,2.384,0,0,0-.235-1.175,2,2,0,0,0-.705-.47,7.266,7.266,0,0,1-2.082-.5c-1.108-.705-1.746-2.686-3.526-1.746-2.216,1.209-4.734,2.183-5.507,5.037a2.261,2.261,0,0,0,1.41,2.115c2.048,1.108,3.828-1.377,5.842-.369.369-.067.5-.437.772-.6-.034.235-.134.336-.4.336a2.345,2.345,0,0,0-.269.672c.1,1.074.034,2.082-1.343,2.25a3.813,3.813,0,0,0-1.31,2.048c-1.41,3.156-3.19,3.425-5.339.6-.94-1.242-1.746-1.981-3.291-1.343a2.948,2.948,0,0,0-.772.235,1.385,1.385,0,0,0-.571.5,3.955,3.955,0,0,0-.369.638,2.99,2.99,0,0,1-.873.705c-1.108.739-1.88,1.914-3.156,2.451a1.091,1.091,0,0,0-.537,1.074c.1.739.134,1.477.806,1.947.235.168.369.168.437.067-.47.4-1.108-.369-1.679-.034a1.34,1.34,0,0,0-.94.806,16.741,16.741,0,0,0,1.41,4.9,1.357,1.357,0,0,0,1.242.1c.739-.47,1.343-1.377,2.451-.873a3.786,3.786,0,0,0,.806.269c.134-.034.269-.034.437-.067,1.377-1.511,2.048-2.485.336-3.559,2.183-.571,2.988-.672,4.13.437.47.235,1.31.269,1.31-.1-.067-1.947,1.645-.806,2.25-1.41a.484.484,0,0,1,.437-.269.321.321,0,0,0-.1.5,2.167,2.167,0,0,0,1.477,1.074,1.29,1.29,0,0,1,1.209,1.712c-.3,1.545-1.041.134-1.545.2-.873.134-1.175.739-1.41,1.444a4.15,4.15,0,0,1-.437,1.679,1.261,1.261,0,0,1-.705.47c-.3,0-.6-.034-.907-.034-.5.034-.134-.537-.437-.638-1.242-.571-2.418-2.183-3.761-.168a2.308,2.308,0,0,0-.168.806,2.981,2.981,0,0,0,.672,1.477,1.46,1.46,0,0,0,.705.3,3.952,3.952,0,0,1,1.511.235,5.221,5.221,0,0,0,.772.269c1.78.839,3.593-1.444,5.339.1a4.1,4.1,0,0,0,4.466-.705Z" transform="translate(-68.971 -5.942)" fill="#e16c3e" fill-rule="evenodd"/>
      <path id="Path_13248" data-name="Path 13248" d="M136.331,82.334a4.282,4.282,0,0,1-.638-.034.9.9,0,0,0-1.276-.034h-.638c-.5-.269-.369-.873-.6-1.276v-.638c-.336-1.276-1.679-1.242-2.485-1.947h0a.582.582,0,0,0-.806-.067,3.6,3.6,0,0,0-.5.739,5.683,5.683,0,0,1-2.787,3.828c-1.142.6-1.31,2.015-1.947,3.056a2.257,2.257,0,0,0-.134.806,5.838,5.838,0,0,1-.134,2.015c-.369,2.384,2.283,2.686,3.056,4.4-2.015-.94-2.787.2-3.291,1.78a7.446,7.446,0,0,0-.1,1.242,11.483,11.483,0,0,1-.134,1.511c-.067.235-.134.437-.2.672a4.939,4.939,0,0,0-.269,1.007v.336c.269,1.108-.839,2.72,1.209,3.156,1.947,1.914,2.653-.336,3.66-1.175a3.021,3.021,0,0,0,.806-3.156c.772-1.074,1.813-2.048.336-3.458a1.494,1.494,0,0,1,.369-2.216c1.981-1.679,2.518-3.593,1.242-6.01-.369-.705-.806-1.847.269-2.552a2.346,2.346,0,0,1,2.115-.034c1.242.47.873,1.511.839,2.418a9.451,9.451,0,0,1-.235,2.183c-.571,2.25.269,3.626,2.485,4.264,1.41.772,2.585.94,2.888-.839-.336.47.806,2.317-1.444,1.746-.672-.168-1.175.6-1.108,1.242a29.834,29.834,0,0,0,.672,5.2c.4,1.477,2.888,1.377,4.5-.067.705-.638.974-1.612,1.612-2.317.2-.2.4-.4.638-.6a.837.837,0,0,0,.1-.571c-.94-1.813.3-3.391.638-5.037.974-1.612.47-3.391.571-5.1a.606.606,0,0,0-.739.1,7.608,7.608,0,0,0-.067,1.746c.067.437-.537-.034-.134.067s-.067.134.067-.235a3.432,3.432,0,0,0,.034-1.175.974.974,0,0,0-.4-.739c-.134-.034-.3-.034-.436-.067-.134.034-.3.067-.436.1-1.712,2.25-2.619,2.015-4.6.336,1.88-.705,1.041-1.813-.47-3.559-.739-.269-1.746-.067-2.082-1.041Z" transform="translate(-84.958 -52.003)" fill="#e38660" fill-rule="evenodd"/>
      <path id="Path_13249" data-name="Path 13249" d="M138.679,122.263c-.94,0-1.175.638-1.41,1.377-.2.571-.537,1.578-1.041,1.377-1.175-.4-1.813,1.612-2.787.571a1.6,1.6,0,0,1,.067-2.384c.3-.269-.134-.974-.47-1.377a2.253,2.253,0,0,1-.4-2.317c1.209-.571,1.444,1.175,2.72.839-.1-1.545-.571-3.257.806-4.9-1.477-.269-2.25.168-2.35,1.242-.269,2.518-1.31.4-1.981.369-3.19,1.511-1.444,4.063-1.377,6.279.4.336.235.94.6,1.276.269,2.619-.369,3.156-4.533,3.458,1.645.739,1.88,2.518,3.66,2.619a.7.7,0,0,1,.369,1.209c-.705.672-.974,1.041.269,1.31.436.1.638.772.269,1.007-1.007.705.168,3.291-2.384,2.72-.336-.067-.839.94-.6,1.242.6.739.336,2.115,1.612,2.35a3.763,3.763,0,0,0,1.209.1c1.142-.2,1.813.067,1.78,1.377,0,.907.873,1.377,1.175,2.183.269,1.377.3,2.888,2.485,2.585a2.606,2.606,0,0,1,1.88.94,2.352,2.352,0,0,0,.638.5.758.758,0,0,0,.739-.2c.2-4.835-.873-9.6-.571-14.472-1.813-.974-3.929-.873-5.842-1.477-.437.067-.6.47-.806.772a1.777,1.777,0,0,1,.772-.873c1.578-.974-.638-1.981,0-2.955a1.534,1.534,0,0,1,.369.537c.436.739.436,1.947,1.78,1.712.907-.134,1.007-.873,1.142-1.612.3-1.41,1.377-2.485,1.813-3.861a3.786,3.786,0,0,0,.269-.806c.067-.4.235-.806.336-1.209.034-.47.269-1.041-.2-1.511Z" transform="translate(-80.02 -76.688)" fill="#e48c67" fill-rule="evenodd"/>
      <path id="Path_13250" data-name="Path 13250" d="M63.786,12.435c-.436,1.477-.772,2.988-2.317,3.761-.5.235-.94.537-.772,1.142.269.94.974.369,1.511.369.168,0,.336.168.739.369-1.612,1.074-.907,2.451-.571,3.794h0c.437-.2.839-.4,1.276-.6.873-2.418,2.552-3.391,5.07-2.82a1.858,1.858,0,0,0,2.552-1.41A4.4,4.4,0,0,0,74.5,14.852q.151,2.015-3.324,2.216c-.571.907.168,1.343.638,1.88a4.287,4.287,0,0,0,1.947,1.074c1.712-.134,3.358-.907,5.1-.437a1.656,1.656,0,0,0,1.444-.873,2.44,2.44,0,0,0,.134-.839c.5-1.813.235-3.19-2.048-3.056-.907.034-1.31-.47-.907-1.041,1.914-2.787-.067-5.1-.705-7.588-.94-.839-.705-2.283-1.645-3.19C74.9,2.764,76.21,1.623,75.27.75,72.55.38,69.83-.258,67.077.582c-1.276,1.276-.571,2.552,0,3.794a1.484,1.484,0,0,0,.672-.067c.034-.2.2-.3.437-.3,0,0-.168.2-.2.2-.2.067-.369.134-.571.2a3.391,3.391,0,0,0-.537.437,2.322,2.322,0,0,0-.269,2.283c.705,1.007,1.444.806,2.25.134.1-.336.571-.672-.034-.974.6.1.3.6.437.907,1.612.1,3.19.2,3.123,2.451-4.7-2.25-4.566.873-5.641,3.929-1.645,4.567-.034.134-.168.2-.2.1-.3-.034-.336-.3a.981.981,0,0,0-.067-.3A2.338,2.338,0,0,0,65.8,12.4a1.545,1.545,0,0,0-1.242-.336,1.5,1.5,0,0,0-.772.369Z" transform="translate(1.085 -0.168)" fill="#d75d21" fill-rule="evenodd"/>
      <path id="Path_13251" data-name="Path 13251" d="M129.547,242.288c-2.216,1.712-.571,3.761,0,5.238,1.377,3.526,1.545,3.962-1.108,6.145,2.585,1.41,4.13,3.425,3.828,6.514-.134,1.545,1.007,1.511,1.981,1.712a3.094,3.094,0,0,0,.705-2.451c.2-2.182.974-4.466-1.981-5.675-1.041-.436-.034-1.578-.1-1.88-.067.369-.638,1.545.638,1.78,1.142.2,1.813-.839,1.914-2.015.067-.806-.134-1.645-.034-2.485.705-3.223-1.712-5.44-2.72-8.092-.806-2.048-1.645.369-2.518.537h0a2.887,2.887,0,0,1-.6.672Z" transform="translate(-76.528 -159.644)" fill="#e28460" fill-rule="evenodd"/>
      <path id="Path_13252" data-name="Path 13252" d="M125.5,232.2c.806.235,1.108-.907,1.914-.739.034,3.156,3.324,5.137,2.988,8.394.134.034.3.067.47.1.94-.873.336-2.015.537-3.022.1-.705-.235-1.511.4-2.115,0-2.72.034-5.44.034-8.159-3.291-1.242-3.727-.839-3.358,2.988-1.209-.4-.47-2.619-2.283-2.451-.034,1.712-1.142,3.257-.705,5Z" transform="translate(-71.845 -150.19)" fill="#e6865d" fill-rule="evenodd"/>
      <path id="Path_13253" data-name="Path 13253" d="M136.318,205.294a5.441,5.441,0,0,0-.739.034h0c-.1-.537.1-1.712-.47-1.444-1.31.638-1.981-2.082-3.291-.4-.3.369-.571-.3-.6-.672a1.494,1.494,0,0,0-.6-1.31c.067,1.477-.134,2.686-2.082,2.518-.739-.067-1.041.537-1.142,1.209a3.745,3.745,0,0,1-1.074.47c-1.813.235-.4.907-.2,1.377.4.436.839.839,1.242,1.276.839-.4.537-2.015,1.914-1.847h0c.269,1.108-.806,2.72,1.209,3.156a.711.711,0,0,0,.2-.638c-.1-.168-.269-.235-.4-.369a2.887,2.887,0,0,0,.537.034,3.807,3.807,0,0,0,.873-.537,2.379,2.379,0,0,1,.94-.3c.369-.034.705-.034,1.074-.034a6.48,6.48,0,0,0,1.142,0,5.512,5.512,0,0,0,.772-.067,1.7,1.7,0,0,0,1.007-.571,2.213,2.213,0,0,0-.3-1.88Z" transform="translate(-76.685 -133.898)" fill="#e6865d" fill-rule="evenodd"/>
      <path id="Path_13254" data-name="Path 13254" d="M129.551,148.323c-.067-.369-.1-1.041-.537-.772-1.209.772-1.41,2.048-.2,2.888,1.142.772.067,1.142.067,1.679,1.276.839,2.552,1.679,4.164,1.242.5-.134.638,0,.873.4.638,1.175.739-.437,1.209-.269a4.062,4.062,0,0,0,.034-.638,1.514,1.514,0,0,1,0-1.88c0-.235-.034-.47-.034-.672-.5-1.276-.1-2.619-.2-3.895-.034-.571.034-1.276-.907-1.142-.705,1.645-2.418,2.82-2.149,4.9a.594.594,0,0,1-.537.638c-.47.067-.772-.067-.806-.6a2.168,2.168,0,0,0-.974-1.88Z" transform="translate(-76.029 -96.536)" fill="#e2774f" fill-rule="evenodd"/>
      <path id="Path_13255" data-name="Path 13255" d="M74.771,76.563a1.927,1.927,0,0,1-.806,1.108c-.034.5-.067,1.007-.6,1.31-.3,1.175-.6,2.35-.907,3.559.067.5.168.974.3,1.88,1.108-1.813,3.223-2.518,3.022-4.835.034-.134.067-.235.1-.369A4.106,4.106,0,0,1,76.987,77.7a7.745,7.745,0,0,0,.638-.47,5.012,5.012,0,0,0,1.679-1.78,3.321,3.321,0,0,0,.3-.806c.2-1.276,1.007-2.485.3-3.794a.61.61,0,0,0-.772-.067l-.034.067a1.222,1.222,0,0,0-.47.537c-1.477,1.612-2.216,3.727-3.861,5.171Z" transform="translate(-2.413 -47.004)" fill="#d06823" fill-rule="evenodd"/>
      <path id="Path_13256" data-name="Path 13256" d="M128.85,218.334c-.4,0-.839,0-1.276-.034-.336.369-.94.235-1.276.6-.2.2-.437.4-.638.6-.134.134-.2.269-.134.4.034.134.1.2.134.2v.638c.2.436.4.839.6,1.276a2.137,2.137,0,0,1,.907,1.545c.3,1.545.3,1.545,2.283,2.183-.034-1.007.3-1.813-.369-2.854-.705-1.074-.235-1.444,1.343-1.041.571.134.974-.2,1.444-.336v-.638c-.47-.369-.3-.873-.269-1.377-.067-.571-.5-.839-.907-1.175h-.638c-.369.4-.772.369-1.209,0Z" transform="translate(-71.904 -145.057)" fill="#e3784f" fill-rule="evenodd"/>
      <path id="Path_13257" data-name="Path 13257" d="M95.184,49.8c-.806.772-1.712,1.914-3.022.772-.907-.839-2.115.839-3.056-.269-.705.839-1.511,1.612-2.115,2.485-.3.437.235.974.369,1.444h0a1.593,1.593,0,0,0,1.242.6c.672-.1,1.007-.638,1.444-1.074a5.551,5.551,0,0,1,5.507-1.847c-.2-.672-.168-1.377-.369-2.048l-.235-.034Z" transform="translate(-22.623 -33.135)" fill="#dd6939" fill-rule="evenodd"/>
      <path id="Path_13258" data-name="Path 13258" d="M68.6,55.447c-1.914-.839-3.526-.2-5.037,1.041.672.705,1.343,1.41,2.015,2.082.134.6.034,1.31.739,1.679,2.283,1.377,2.955.067,3.123-1.914A3.826,3.826,0,0,0,68.6,55.447Z" transform="translate(11.317 -36.633)" fill="#d05513" fill-rule="evenodd"/>
      <path id="Path_13259" data-name="Path 13259" d="M129.875,267.2a1.178,1.178,0,0,0-.437,1.645c.571,1.142-.067,1.746-1.108,2.451-.436-1.276,0-2.485.034-4.029a6.31,6.31,0,0,0-1.645,3.593c-.134.5,0,1.31.47,1.377,3.257.537,1.914,3.291,2.552,5.1,1.007-1.746.571-3.66.739-5.507.2-1.612,1.007-3.257-.6-4.634Z" transform="translate(-71.282 -177.538)" fill="#e6865d" fill-rule="evenodd"/>
      <path id="Path_13260" data-name="Path 13260" d="M139.173,310.4c-.739.034-.739,2.082-2.183.638-.873-.873-3.291.672-3.291,2.015a.8.8,0,0,0,1.041.839,9.316,9.316,0,0,1,2.72-.537,5.6,5.6,0,0,1-.034,3.156c-.134.537.235.705.705.772.2-.47.235-1.007.739-1.276C139.005,314.127,139.072,312.247,139.173,310.4Z" transform="translate(-81.958 -206.233)" fill="#e28a6a" fill-rule="evenodd"/>
      <path id="Path_13261" data-name="Path 13261" d="M125.664,95.184a2.541,2.541,0,0,1,.5-.034c.235-1.477.47-2.921.705-4.4a5.915,5.915,0,0,0-2.72.4,1.206,1.206,0,0,1-1.612-.437c-.6-.168-.873.2-1.041.672.3,1.746.638,3.458,2.854,3.761h0a.362.362,0,0,1,.6.034h0q.4.4.705,0Z" transform="translate(-65.56 -60.287)" fill="#d06626" fill-rule="evenodd"/>
      <path id="Path_13262" data-name="Path 13262" d="M115.123,70.583c-1.712-.47-1.645,2.015-3.156,1.88.4,1.444-1.511,2.82-.2,4.3,1.209-2.048,2.653-3.929,3.358-6.178Z" transform="translate(-50.386 -46.9)" fill="#d06626" fill-rule="evenodd"/>
      <path id="Path_13263" data-name="Path 13263" d="M127.685,118.881c-.3-.269-.6-.2-.638.2a7.251,7.251,0,0,1-1.847,4.164c.705.269,1.276.47,1.847.705,1.007-1.612.437-3.391.638-5.07Z" transform="translate(-67.615 -78.914)" fill="#e27d5a" fill-rule="evenodd"/>
      <path id="Path_13264" data-name="Path 13264" d="M127.3,138.956c.873.672.537,1.645.6,2.485.067.873-.269,1.813.537,2.518.067-2.72.134-5.44.235-8.159h-.638c-.034.638-.034,1.242-.067,1.88-.2.2-.4.437-.6.638A2.066,2.066,0,0,0,127.3,138.956Z" transform="translate(-69.312 -90.258)" fill="#e27d5a" fill-rule="evenodd"/>
      <path id="Path_13265" data-name="Path 13265" d="M125.7,260.574c.873,1.444.47,3.056.6,4.634,1.074-2.518.571-5.171.672-7.756q-.3-.453-.6,0C126.207,258.493,126.778,259.735,125.7,260.574Z" transform="translate(-67.112 -170.912)" fill="#e4886c" fill-rule="evenodd"/>
      <path id="Path_13266" data-name="Path 13266" d="M108.842,63.6A1.249,1.249,0,0,0,107.6,63a1.242,1.242,0,0,0,.638,1.276C108.439,64.041,108.641,63.839,108.842,63.6Z" transform="translate(-42.863 -41.903)" fill="#d75d21" fill-rule="evenodd"/>
      <path id="Path_13267" data-name="Path 13267" d="M125.264,254.114h.6a3.714,3.714,0,0,0,.1-1.914C125.163,252.637,125.264,253.375,125.264,254.114Z" transform="translate(-66 -167.575)" fill="#d8602c" fill-rule="evenodd"/>
      <path id="Path_13268" data-name="Path 13268" d="M125.677,221.776c-.3.638-.6,1.242.537,1.276,0-.4,0-.839-.034-1.276-.168-.269-.336-.3-.5,0Z" transform="translate(-66.211 -147.224)" fill="#e6865d" fill-rule="evenodd"/>
      <path id="Path_13269" data-name="Path 13269" d="M126,219.676h.537c-.034-.4-.034-.839-.067-1.276H125.4c.2.437.4.873.6,1.276Z" transform="translate(-66.539 -145.124)" fill="#e48c67" fill-rule="evenodd"/>
      <path id="Path_13270" data-name="Path 13270" d="M128.2,162.2c-.806.6-.839,1.242,0,1.88A3.26,3.26,0,0,0,128.2,162.2Z" transform="translate(-69.074 -107.794)" fill="#d86020" fill-rule="evenodd"/>
      <path id="Path_13271" data-name="Path 13271" d="M73.947,66.675c-.034-.437-.034-.907-.47-1.175-.067.638-.134,1.242-.2,1.88h.571a.426.426,0,0,0,.2-.437.53.53,0,0,0-.1-.269Z" transform="translate(3.449 -43.563)" fill="#e47f55" fill-rule="evenodd"/>
      <path id="Path_13272" data-name="Path 13272" d="M75.8,71.837c.168-.2.3-.369.47-.537A.543.543,0,0,0,75.8,71.837Z" transform="translate(0.387 -47.416)" fill="#e47f55" fill-rule="evenodd"/>
      <path id="Path_13273" data-name="Path 13273" d="M121.289,7.09c0,.4,0,.839-.034,1.276,1.78.235,2.25-1.142,2.82-2.35a1.921,1.921,0,0,0-.034-.873c-.134-.47-.571-.94-.4-1.444.839-2.317-.806-1.914-2.048-1.947-.739,0-1.477-.4-2.149.235a.416.416,0,0,1-.47.1,22.259,22.259,0,0,0-7.051,2.854c-.2.168-.4.336-.6.537a1.022,1.022,0,0,0-.269.269c-.2.134-.4.3-.6.437l-.6.4a8.476,8.476,0,0,0-.839.705c-.269.235-.537.5-.806.772a2.554,2.554,0,0,0-.4.638v.369a1.007,1.007,0,0,0,1.142.672c.336-.034.537-.4.907-.336a18.737,18.737,0,0,1,5.238-4.365c.672-.369,1.444-.705,1.813.3.873,2.317,2.653,1.947,4.4,1.746Z" transform="translate(-58.198 -1.137)" fill="#d65d20" fill-rule="evenodd"/>
      <path id="Path_13274" data-name="Path 13274" d="M191.291,123.6c-.6,2.283,0,4.667-.739,6.917-.034.638-.034,1.242-.067,1.88.134.134.134.269,0,.369.47.436-.2,1.679,1.074,1.545a53.238,53.238,0,0,0,1.007-7.622C192.634,125.547,192.97,124.07,191.291,123.6Z" transform="translate(-154.49 -82.155)" fill="#b65410" fill-rule="evenodd"/>
      <path id="Path_13275" data-name="Path 13275" d="M192.068,110.1a2.054,2.054,0,0,1-.4.168c-.067.4-.1.806-.168,1.209l.2.6c1.31-.437,1.074-1.175.369-1.981Z" transform="translate(-154.831 -73.188)" fill="#e38660" fill-rule="evenodd"/>
      <path id="Path_13276" data-name="Path 13276" d="M184.63,96.441a1.885,1.885,0,0,1-.4,1.981c0,.235-.034.437-.034.672a.5.5,0,0,1,0,.6c0,.437-.034.873-.034,1.276a21.693,21.693,0,0,1-.2,10.678,21.341,21.341,0,0,0,0,5.07c.369.134.638.034.739-.369-.034-1.142.437-2.283-.2-3.391a6.448,6.448,0,0,0,.705-3.19c0-.873-.235-1.847.672-2.485h0a2.425,2.425,0,0,0,.034-1.813c-.537-1.477.772-.974,1.242-1.343,0-.4.034-.839.034-1.242-.034-.974-1.645-1.377-.907-2.619.1-.269.2-.5.3-.772.47-1.914.269-3.895.47-5.842.47-1.377,1.444-2.753-.1-4.1-2.115-.269-.369,2.082-1.645,2.418-.839,1.377-.47,2.955-.672,4.466Z" transform="translate(-147.393 -59.529)" fill="#d57032" fill-rule="evenodd"/>
      <path id="Path_13277" data-name="Path 13277" d="M193.876,118.5a1.737,1.737,0,0,0,.2-.437c0-.034-.134-.1-.2-.168A.642.642,0,0,0,193.876,118.5Z" transform="translate(-157.041 -78.369)" fill="#e38660" fill-rule="evenodd"/>
      <path id="Path_13278" data-name="Path 13278" d="M157.5,324.308c-.6-.94-1.209-1.914-1.813-2.854-.369-.537-.638-1.007,0-1.612.571-.5.974-.873,0-1.612-1.645-1.242-1.545-1.377-3.123.3-1.612.235-3.593,2.283-4.365,4.5a3.386,3.386,0,0,0,.168.839c-.369,4.365,2.72,8.529.739,12.961a2.085,2.085,0,0,0,1.511,1.981c2.082-.839,2.585,1.813,4.231,1.947a42.181,42.181,0,0,0,3.022-5.876l.1-1.813c-.705-1.511-.168-3.223-.806-4.8-.235-.537.168-1.41-.739-1.645-1.041-.269-1.041.772-1.41,1.31-.47.638-.638,1.511-1.477,1.88-1.108.47-1.78.2-1.88-1.007a18.532,18.532,0,0,1,.2-2.72c-.369-1.545,1.343-2.183,1.444-4,.705.94.806,1.948,1.712,2.183h0a5.43,5.43,0,0,1,.6.638h.638c.336-.369.907-.235,1.242-.6Z" transform="translate(-105.624 -210.806)" fill="#e99d80" fill-rule="evenodd"/>
      <path id="Path_13279" data-name="Path 13279" d="M160.829,331.4c-.638-1.007-.5-2.451-1.612-3.223-.537-.369-1.31-.034-1.108.3.839,1.343-.3,1.981-.739,2.888-.336.705-.47,1.343.269,1.88.907-.907,2.552-.537,3.19-1.847Z" transform="translate(-111.47 -217.936)" fill="#e79979" fill-rule="evenodd"/>
      <path id="Path_13280" data-name="Path 13280" d="M138.838,334.261c-.94-.537-.47.336-.638.6h.47a5.6,5.6,0,0,1,.168-.6Z" transform="translate(-83.133 -221.968)" fill="#e28a6a" fill-rule="evenodd"/>
      <path id="Path_13281" data-name="Path 13281" d="M150.876,338.2a1.3,1.3,0,0,0-1.276.6A1.272,1.272,0,0,0,150.876,338.2Z" transform="translate(-98.999 -224.698)" fill="#e79979" fill-rule="evenodd"/>
      <path id="Path_13282" data-name="Path 13282" d="M155.8,338.738c-.2-.2-.4-.436-.6-.638C155.4,338.3,155.6,338.5,155.8,338.738Z" transform="translate(-105.808 -224.632)" fill="#e79979" fill-rule="evenodd"/>
      <path id="Path_13283" data-name="Path 13283" d="M185.4,383.685v-.638c.168-1.276-.839-.873-1.41-.873-2.552.034-3.056-.5-2.585-2.955.2-1.007.739-1.947.537-3.022,0-.5-2.015-.5-.336-1.41,1.007-1.377.672-2.485-.739-3.324a5.349,5.349,0,0,1-4.2-1.31c.437-.806,1.847-1.074,1.477-2.317a2.8,2.8,0,0,0-2.048-1.712c-2.686-.369-2.082,2.015-2.753,3.324,1.175,2.451,1.88,4.969,1.175,7.689a2.262,2.262,0,0,0,.4,1.209c.6,1.108,1.343,2.048,2.988,1.88-1.242,1.209-2.955,1.88-1.545,3.694,1.209.436,1.645,1.679,2.619,2.384,1.142.235,2.216,1.175,3.492.537.94-1.041,1.947-2.115,2.921-3.156Z" transform="translate(-141.513 -243.221)" fill="#e6835d" fill-rule="evenodd"/>
      <path id="Path_13284" data-name="Path 13284" d="M204.313,448.182a1.275,1.275,0,0,1,1.242.638h1.88a38.687,38.687,0,0,1,3.895-2.35c.873-.571,1.276-1.847,2.585-1.78v-.034a.4.4,0,0,1,.537-.3h.5c.235-.168.5-.336.739-.47,1.41-1.914,3.727-2.888,5.2-4.734a3,3,0,0,0,.436-1.679c-.336-.772-.067-1.679-.436-2.418a2.594,2.594,0,0,0-2.787-1.511c-1.645.2-.571,1.41-.672,2.183a.809.809,0,0,1-.5.705,1.7,1.7,0,0,1-.6-.3c-.806-.672-.839-1.88-1.813-2.418a8.8,8.8,0,0,0-3.895,3.257c-.3.839.369,1.31.705,1.947.839,1.712-.034,2.082-1.545,1.78-1.645-.336-2.317.47-1.746,1.88,1.041,2.552.2,3.761-2.384,4.063a1.572,1.572,0,0,0-1.377,1.142.827.827,0,0,0,.034.4Z" transform="translate(-187.827 -288.008)" fill="#da7541" fill-rule="evenodd"/>
      <path id="Path_13285" data-name="Path 13285" d="M198.134,408.853c.235.4.806,1.175,1.007.672.47-1.074,1.578-2.35.134-3.694,1.175.571,3.526-.134,2.317,2.552-.168.336.537.5.94.571.47.2.806.638,1.343.705.806-.873,1.612-1.712,2.418-2.585.336-1.343-.839-1.645-1.545-2.25-1.074-.672-2.384-.705-3.559-1.142-.269-.1-.537-.168-.772-.235-1.612-1.914.672-3.123.839-4.7a1.7,1.7,0,0,0-.134-.806c-.067-.235-.235-.269-.47-.235.168-.168.3-.134.437.134a1.324,1.324,0,0,0,.806-.034,1.652,1.652,0,0,0,.705-1.007c.638-2.149-2.485-2.854-1.947-4.969a1.206,1.206,0,0,0-.5-.705,2.222,2.222,0,0,0-1.712.436,2.191,2.191,0,0,0-.537.705,5.028,5.028,0,0,1-2.115,3.223c-.907.638-1.78,1.41-1.343,2.787,3.291.47,3.391.672,2.283,3.929a3.079,3.079,0,0,0-.3.772c-.168.672-.3,1.343-.437,2.015a.854.854,0,0,0,.269.739,3.014,3.014,0,0,0,1.88,3.123Z" transform="translate(-169.492 -259.826)" fill="#d9602a" fill-rule="evenodd"/>
      <path id="Path_13286" data-name="Path 13286" d="M193.6,422.371c.4.806,1.545.907,1.813,1.847a1.684,1.684,0,0,0,1.343-1.007c.6-1.242.974-2.451-.6-3.324-.638-1.041-.47-2.888-2.485-2.552-.705-.134-1.276,2.048-2.183.134a.979.979,0,0,0-1.612-.168c-.772,1.175-1.578,2.518-.067,3.794h0c1.074.94,3.123-.839,3.794,1.276Z" transform="translate(-158.614 -277.005)" fill="#e89974" fill-rule="evenodd"/>
      <path id="Path_13287" data-name="Path 13287" d="M182.2,424.947a6.014,6.014,0,0,1,.6,3.324c1.142-.638,1.813-1.746,2.753-2.585a1.723,1.723,0,0,1-1.31-.537c-.638-.94-1.343-.537-2.048-.2Z" transform="translate(-144.627 -282.065)" fill="#e58766" fill-rule="evenodd"/>
      <path id="Path_13288" data-name="Path 13288" d="M203.143,444.422c-.369-.4-.4-1.41-1.343-.705v2.048A1.772,1.772,0,0,0,203.143,444.422Z" transform="translate(-168.794 -294.624)" fill="#ba5d1a" fill-rule="evenodd"/>
      <path id="Path_13289" data-name="Path 13289" d="M160.274,377.865a13.949,13.949,0,0,1-.94,2.317c-1.276,2.082.4,3.593,1.007,5.272.2.537.705.4.974-.034.705-1.108,1.578-1.108,2.619-.571l.5-.1a3.8,3.8,0,0,1,1.242-1.88c.067-.336.168-.672.235-1.007a.527.527,0,0,0-.034-.739c-3.257.168-.269-1.712-.907-2.384.705.6.168,1.511.672,2.183a.689.689,0,0,0,.739.235,1.1,1.1,0,0,0,.134-.571,3.193,3.193,0,0,0,.5-.672c1.209-1.41,1.242-3.324,2.216-4.835a6.24,6.24,0,0,0-2.988-2.888c-.705-.3-.839.235-.907.772-.369.739.134,1.074.638,1.377.269-.134.369-.034.3.269-.034.168-.134.235-.2.235-1.746,1.242-2.485-.034-3.458-1.175-1.343-1.612.873-1.545.974-2.418a1.206,1.206,0,0,0,.1-.839,4.267,4.267,0,0,0-4.2-1.511c-.873,1.444-3.526,2.72-.47,4.567a2.181,2.181,0,0,1,.6,3.156c.168.437,1.175.47.638,1.242Z" transform="translate(-120.049 -245.022)" fill="#e79472" fill-rule="evenodd"/>
      <path id="Path_13290" data-name="Path 13290" d="M164.559,401.8c-.168.235-.336.436-.5.672.168-.067.336-.1.5-.168a2.525,2.525,0,0,0,0-.5Z" transform="translate(-117.551 -266.943)" fill="#e99f83" fill-rule="evenodd"/>
      <path id="Path_13291" data-name="Path 13291" d="M237.228,471.9a4.928,4.928,0,0,0-3.828,2.451v.5a25.835,25.835,0,0,0,3.861-2.451,2.03,2.03,0,0,1,.269-.269,1.179,1.179,0,0,1-.3-.235Z" transform="translate(-213.791 -313.505)" fill="#df7c54" fill-rule="evenodd"/>
      <path id="Path_13292" data-name="Path 13292" d="M229.053,466.079c-2.082-1.343-1.88.94-2.653,1.679l.034.034a.314.314,0,0,0,.537,0,7.283,7.283,0,0,0,2.082-1.712Z" transform="translate(-202.963 -309.363)" fill="#dc754c" fill-rule="evenodd"/>
      <path id="Path_13293" data-name="Path 13293" d="M225.437,465.656c-.369-.269-.5-.067-.537.3A.57.57,0,0,0,225.437,465.656Z" transform="translate(-198.844 -309.276)" fill="#dc754c" fill-rule="evenodd"/>
      <path id="Path_13294" data-name="Path 13294" d="M233.237,472H232.7v.47a6.723,6.723,0,0,1,.537-.47Z" transform="translate(-209.263 -313.572)" fill="#da7541" fill-rule="evenodd"/>
      <path id="Path_13295" data-name="Path 13295" d="M165.9,405.45a5.2,5.2,0,0,1,.034.739,3.145,3.145,0,0,1,.537-.134,1.859,1.859,0,0,0-.067-.6,1.259,1.259,0,0,0-.5,0Z" transform="translate(-120.067 -269.351)" fill="#e99f83" fill-rule="evenodd"/>
      <path id="Path_13296" data-name="Path 13296" d="M74.457,128.615a8.864,8.864,0,0,0,1.813,3.123,1.282,1.282,0,0,0,.839-.772c.2-1.209,1.947-.772,2.115-1.981.739-2.585-.839-4.2-2.485-5.775-.907-.873-1.612-.672-2.216.336l-.034.034c-2.485,1.612.269,3.358-.034,5.037Z" transform="translate(-1.964 -81.529)" fill="#df6a3e" fill-rule="evenodd"/>
      <path id="Path_13297" data-name="Path 13297" d="M88.025,126.186c1.276-.034,1.007-1.142.6-1.477-1.343-1.108-1.041-2.283-.571-3.593a3.649,3.649,0,0,0-.6-.034h0c-.537-.672-1.108-1.343-1.712-2.082-.1.537-.235,1.041-.336,1.511A10.212,10.212,0,0,0,88.025,126.186Z" transform="translate(-15.532 -79.1)" fill="#c96826" fill-rule="evenodd"/>
      <path id="Path_13298" data-name="Path 13298" d="M71.882,147.9c-.235.2-.437.4-.672.6a8.019,8.019,0,0,0,3.022,3.324c.269-.235.5-.47.739-.705.4-1.175-.537-1.612-1.175-2.183l-.6-.4-.3-.2a3.954,3.954,0,0,0-.638-.369,1.733,1.733,0,0,0-.369-.067Z" transform="translate(3.129 -98.296)" fill="#cd6b39" fill-rule="evenodd"/>
      <path id="Path_13299" data-name="Path 13299" d="M11.623,90.328c.638-.134,1.343-.907,1.813.2.134.269.134.772.3.839,2.283.873,1.78,2.988,2.183,4.7.067.94.4,1.746,1.511,1.477.907-.2.705-1.108.806-1.813.168-1.108-.974-1.847-.638-2.955a3.577,3.577,0,0,0-.5-2.485c-1.108-1.813-.772-3.861-.873-5.842-.034-.94.6-2.082,1.679-1.914,1.511.235.269,1.276.235,1.947,0,.907.1,1.679,1.074,2.015,1.612.4,1.813-1.545,3.156-1.914.839,1.343,1.511,2.418-.571,3.391-1.679.806-2.183,2.753-3.223,4.164a2.926,2.926,0,0,0-.873.94c1.813,1.914,2.787,1.914,4.4,0,1.914-2.216,1.41-1.78,3.022.235,1.31,1.578,2.082,4.164,4.7,4.533a3.382,3.382,0,0,0,.839.1c1.511-.369,1.914,1.074,2.787,1.712,1.074.2,1.645-.839,2.485-1.142a1.346,1.346,0,0,0,.437-1.041c-.772-1.007.772-.034.537-.6.134-.94.705-1.88.134-2.854-1.343-1.511-2.283,1.343-3.559.3-1.175-.067-1.645-.47-1.444-1.847.537-3.861.47-3.962-3.123-5.07-1.88-.571-1.78-2.183-2.283-3.492A14.861,14.861,0,0,0,27.3,82.4a3.853,3.853,0,0,0,.2-1.242,3.733,3.733,0,0,0-.638-1.947,7.561,7.561,0,0,1-.672-2.552,1.76,1.76,0,0,0-.369-.638,4.963,4.963,0,0,0-1.41-.235,2.252,2.252,0,0,0-.672,0,1.42,1.42,0,0,1-.907-.235,4.1,4.1,0,0,1-.067-1.108,3.15,3.15,0,0,0-2.25-1.746.921.921,0,0,0-.638,1.343,1.028,1.028,0,0,1,.437,1.007,3.739,3.739,0,0,0-.067.571c-.168-.269.067-.47.067-.705a1.765,1.765,0,0,0-.134-.571c-2.518-1.242-3.66.269-4.566,2.25h0c-.2.235-.4.571-.3.839.571,1.578.067,1.545-1.074.772-.134-.1-.369.067-.537.235h0a1.279,1.279,0,0,0-.3,1.578l.3.3c.571.437.6.907.3,1.612-.907,2.082-1.645,4.231-2.518,6.313-.369.739.168,1.377.134,2.082Z" transform="translate(61.004 -48.346)" fill="#e47f55" fill-rule="evenodd"/>
      <path id="Path_13300" data-name="Path 13300" d="M81.8,95.38a1.3,1.3,0,0,0,1.276-.6h0c-.705-.437-1.31-.571-1.276.6Z" transform="translate(-8.435 -62.8)" fill="#e47f55" fill-rule="evenodd"/>
      <path id="Path_13301" data-name="Path 13301" d="M100.072.867c-.1.168-.168.336-.269.5.5.067.974.134,1.477.2a2.248,2.248,0,0,0,.571,3.089c.4.235,1.041-.5,1.142.034.1.47-.571.705-1.142.6-.907.772-1.276,2.082-2.552,2.485.369,1.78,2.082,3.056,1.813,5.07h.638c3.257-.772,2.384-3.425,2.585-5.607a4.442,4.442,0,0,1,.672-2.518,11.949,11.949,0,0,1-.571-3.761c-1.41-.4-2.888.067-4.365-.1Z" transform="translate(-36.242 -0.587)" fill="#da642e" fill-rule="evenodd"/>
      <path id="Path_13302" data-name="Path 13302" d="M68.006,1.7c.269,1.746-.739,1.813-2.25,1.444,1.209,1.041,2.552,1.645,2.317,3.358-.067.571.6.739,1.142.839a.47.47,0,0,0,.638-.067,5.086,5.086,0,0,0,.336-1.41c.067-.2.1-.437.168-.638.168-.47.6-.034.839-.269a1.465,1.465,0,0,0,.4-.638c.067-.772-.067-1.377-.974-1.612-.974-.235.336-.235.034-.47-.067-.168-.134-.3-.2-.47-.806,0-1.645-.034-2.451-.067Z" transform="translate(8.416 -1.186)" fill="#de6a3c" fill-rule="evenodd"/>
      <path id="Path_13303" data-name="Path 13303" d="M42.264,134.772a3.627,3.627,0,0,0-.437-1.41c-.705-1.343-1.545-1.645-2.686-.537h0c-1.175-.739-3.123-.907-2.317-3.156.067-.168-.571-.873-.806-.839-3.089.6-1.847-1.007-1.074-2.082-.806-1.142-1.914-.168-2.753-.907-.4-.369-1.108.6-1.511,1.343-1.175,2.25-1.511,2.283-4.1,1.041a.362.362,0,0,0-.6-.034c-.638,1.377.537,2.753.3,4.1-1.007.168-1.041-.806-1.645-.974-.269.1-.571.2-.839.3-.571.168-.974-.974-1.511-.336-.5.638.235,1.276.437,1.914h0c.235.2.4.437.6.638h0c.2.235.437.4.6.638a4.5,4.5,0,0,1,1.88,1.914,3.136,3.136,0,0,0,2.35.6c1.142-.3,1.41-.2,1.712,1.209.336,1.679,2.149,1.477,3.626,1.377,1.545-.134.537.739.437,1.276h1.276c1.545-.47,3.056-1.108,4.566-1.645.168-.2.369-.369.537-.571-.134-.537.369-.47.6-.672h-.034c1.041-.839,1.914-1.712,1.377-3.19Z" transform="translate(52.255 -83.589)" fill="#e78863" fill-rule="evenodd"/>
      <path id="Path_13304" data-name="Path 13304" d="M15.71,150.062c-.437,1.041-.873,2.115-1.31,3.156,1.746-.034,2.216-1.545,3.089-2.585.034-.2.067-.369.1-.537a3.19,3.19,0,0,0,.537-.638l.067-.067a2.025,2.025,0,0,1,.269-.269,1.845,1.845,0,0,0-.235-.3C17.053,148.585,16.415,149.424,15.71,150.062Z" transform="translate(78.81 -98.88)" fill="#d47447" fill-rule="evenodd"/>
      <path id="Path_13305" data-name="Path 13305" d="M34.367,165.628c-1.813-.235-3.19.705-4.566,1.645C31.546,167.407,33.225,167.239,34.367,165.628Z" transform="translate(57.736 -110.047)" fill="#d47642" fill-rule="evenodd"/>
      <path id="Path_13306" data-name="Path 13306" d="M27.273,162.1c-.3.034-.6.1-.873.134.1.168.168.336.269.5.3-.1.6-.269.6-.638Z" transform="translate(65.971 -107.728)" fill="#d47447" fill-rule="evenodd"/>
      <path id="Path_13307" data-name="Path 13307" d="M8.04,34.315C7.033,33.878,6.764,32.6,5.656,32.3c-2.988,0-2.82,2.35-3.156,4.264a8.5,8.5,0,0,1,1.847,4.5,9.775,9.775,0,0,0,.705,1.612c-.067,1.746,1.78,1.108,2.619,2.015,2.384,2.552,2.25,5.675,3.056,8.562.168.6.94-.705.873.235-.067,1.041-.369,2.082.537,2.888,1.175-1.612.235-3.526.806-5.2-.034-2.216-.067-4.432-.067-6.648l-.4-.1c-1.175-2.82-3.391-5.1-3.861-8.226-.2-.638-.4-1.276-.571-1.88Z" transform="translate(88.326 -21.511)" fill="#d15819" fill-rule="evenodd"/>
      <path id="Path_13308" data-name="Path 13308" d="M4.814,43.9c-.537.5-1.142,1.007-.6,1.813,1.444,2.149,2.485,4.6,4.432,6.413C8.037,49.071,7.164,46.15,4.814,43.9Z" transform="translate(92.124 -29.216)" fill="#c56317" fill-rule="evenodd"/>
      <path id="Path_13309" data-name="Path 13309" d="M12.786,83.427a30.131,30.131,0,0,0-.034-3.022c-.2-1.712-.806-.034-1.209-.134-1.108-1.712-.672-3.828-1.578-5.641-.907-1.78-1.813-2.183-3.257-.672a1.83,1.83,0,0,0-.4.806c-.067.571.672,1.242-.168,1.746-.2.2-.369.4-.537.6-1.477,3.223-1.108,4.2,2.283,5,1.377.336,1.578.974,1.545,2.149-.034,1.847-.269,3.727.638,5.473a1.909,1.909,0,0,0,1.242.537,1.96,1.96,0,0,0,1.276-.5c.4-1.477-.5-2.35-1.477-3.19,1.108-.772,1.914-1.679,1.679-3.156Z" transform="translate(87.677 -48.564)" fill="#e47b51" fill-rule="evenodd"/>
      <path id="Path_13310" data-name="Path 13310" d="M8.591,122.834c-.4,0-.839-.034-1.242-.034a2.993,2.993,0,0,0-1.511,1.914,4.19,4.19,0,0,0,.168,2.485c-.134,1.041.369,2.25-.672,3.123l-.034.034V131.6h0a.285.285,0,0,0,.5,0c.873-.638.739-1.78,1.343-2.552a10.917,10.917,0,0,1,1.477-5.507,4.959,4.959,0,0,0-.034-.705Z" transform="translate(91.704 -81.624)" fill="#cd6a2f" fill-rule="evenodd"/>
      <path id="Path_13311" data-name="Path 13311" d="M41.9,8.489h-.638a.378.378,0,0,0-.6,0c0,.2-.034.4-.034.6A3.3,3.3,0,0,0,41.9,10.6c.772.269,1.276,1.074,2.048,1.209,1.074.2,2.418.4,1.578-1.545-.168-.336.134-.672.134-.235,0,.067.336.168.5.3.3.369,0,.6-.168.907-.168.739-.772,1.377-.6,2.183a.94.94,0,0,0,.537.537A2,2,0,0,0,46.7,14a2.517,2.517,0,0,0,.672-.336c.1-.067.168-.168.269-.235.168-.134.336-.3.5-.437.1-.067.168-.134.269-.2a4.06,4.06,0,0,1,.6-.168,2.307,2.307,0,0,0,1.343-.168,1.073,1.073,0,0,0,.4-1.31h-.034a2.035,2.035,0,0,1-.638-.672c-1.108-1.545-3.056-1.947-4.4-3.123-.4-.034-.806-.067-1.175-.1C43.24,6.877,42.7,7.918,41.9,8.489Z" transform="translate(37.613 -4.819)" fill="#d05818" fill-rule="evenodd"/>
      <path id="Path_13312" data-name="Path 13312" d="M26.873,30.555c.47-1.746.672-3.626,2.686-4.432a12.09,12.09,0,0,1-2.619-2.451c-.4-.235-.839-.437-1.242-.672-.134,0-.3.034-.437.034-1.947,1.007-.6,2.585-.672,3.929.235.772.034,1.612.2,2.384.269,1.074.739,1.947,2.082,1.209Z" transform="translate(64.424 -15.334)" fill="#d66028" fill-rule="evenodd"/>
      <path id="Path_13313" data-name="Path 13313" d="M39.593,19c-.235.437-.47.839-.705,1.276a13.82,13.82,0,0,0-1.947.772c-1.914,1.343-1.511,2.115.5,2.653a1.571,1.571,0,0,0,.873-.168c1.142-.839,1.074-2.82,2.854-3.056l.168-.134A4.027,4.027,0,0,0,39.593,19Z" transform="translate(48.782 -12.677)" fill="#d7632a" fill-rule="evenodd"/>
      <path id="Path_13314" data-name="Path 13314" d="M41,17a.822.822,0,0,0,.638.672A.824.824,0,0,0,41,17Z" transform="translate(46.704 -11.348)" fill="#d7632a" fill-rule="evenodd"/>
      <path id="Path_13315" data-name="Path 13315" d="M14.137,148.95a1.271,1.271,0,0,0-.5,0,3.258,3.258,0,0,0-.034.571c.2-.2.369-.4.537-.571Z" transform="translate(83.404 -98.976)" fill="#e47f55" fill-rule="evenodd"/>
      <path id="Path_13316" data-name="Path 13316" d="M15.837,150.9c-.168.2-.369.437-.537.638l.5-.1a2.714,2.714,0,0,1,.034-.537Z" transform="translate(81.134 -100.288)" fill="#e47f55" fill-rule="evenodd"/>
      <path id="Path_13317" data-name="Path 13317" d="M61.749,5.919c1.209.3,1.847-.6,2.585-1.276-.437-.369-.907-.772-1.343-1.142-.571-.067-1.108-.134-1.679-.2-.571.168-1.276.067-1.712,1.041C60.809,4.274,62.185,4.106,61.749,5.919Z" transform="translate(17.762 -2.248)" fill="#d75d21" fill-rule="evenodd"/>
      <path id="Path_13318" data-name="Path 13318" d="M178.291,335.8c-.436-.6-1.242-1.041-.571-2.015A22.849,22.849,0,0,0,179,331.4c.4-2.25,3.391-4.365.2-6.883-.739-.571.638-1.477.94-2.216,1.31-.168,3.291.369,2.216-2.183h0c-1.108-1.679.4-2.988.638-4.466.2-1.276.638-2.518-.739-3.291-1.209-.672-1.88.3-2.418,1.209-1.175,1.981-1.41-.873-2.283-.437-.235.839-.437,1.645-.672,2.485,1.578,2.686-1.343,4.566-1.242,7.118A8.4,8.4,0,0,1,174.5,326.9c-.2,1.276-2.418,2.283-.47,3.828a2.707,2.707,0,0,0,.4.47c.437.369,1.31.5,1.041,1.276a1.3,1.3,0,0,1-1.645,1.007c-.3-.067-.6-.168-.705.269,2.753,3.324,2.854,3.358,5.171,2.048Z" transform="translate(-139.241 -207.385)" fill="#e27249" fill-rule="evenodd"/>
      <path id="Path_13319" data-name="Path 13319" d="M147.793,294.8c.739.47.436,1.343.638,2.015,1.007-.638,2.585-.336,2.619-2.048,0-.4.6-.571,1.041-.4a1.313,1.313,0,0,1,.873,1.477,9.6,9.6,0,0,0-.739,2.888c-.034,1.712-.336,1.712.4,3.056.034-.3-.1-.739.067-.94,1.242-1.377,2.753-2.988,4.029-4.331.134-2.821.839-3.861,3.492-4.667.705-.2,1.511-.168,1.78-1.007.2-.638-.4-.873-.839-1.142-1.175-.672-1.377.47-1.914,1.007a20.138,20.138,0,0,0-1.578,1.645c-.47-1.78-.739-2.653-1.041-3.794.537-1.209,2.216-2.015,1.343-3.761h-.034c-2.082-1.041-2.149,1.41-3.324,1.914-.235.067-.47.168-.672.235a5.739,5.739,0,0,1-1.074,0,1.8,1.8,0,0,0-.705.168,1.672,1.672,0,0,0-.336.638,2.489,2.489,0,0,0,.034.705,3.6,3.6,0,0,1,0,1.041,5.217,5.217,0,0,0-.134.705,6.114,6.114,0,0,0,.034,1.108c-.839,1.847-1.847-.47-2.72.1a1.16,1.16,0,0,0-.336.705,3.905,3.905,0,0,0,.034,1.276c-.4-.168.034-.772-.1-1.175a.746.746,0,0,0-.336-.672,5.77,5.77,0,0,0-.5,3.257Z" transform="translate(-109.548 -189.056)" fill="#e6926e" fill-rule="evenodd"/>
      <path id="Path_13320" data-name="Path 13320" d="M239.04,428.238a7.033,7.033,0,0,0,2.115.1c-1.31-1.276.47-2.25.235-3.458.5-.672,1.007-1.343,1.545-2.015,2.216-.907,4.365-2.048,6.548-3.056.94-.168,1.78-.739,2.753-.571a1.978,1.978,0,0,1,1.142.5c.6,1.142.806,1.847-.739,2.653-1.477.772-3.391.839-4.5,2.35.974,1.175,2.82.839,3.257,2.418a3.808,3.808,0,0,1-1.41,1.679,3.547,3.547,0,0,1-1.612.739c-1.242.437-2.753-1.679-3.257-.6-1.377,2.955-4.768,2.988-6.48,5.238-1.511-.537-.873-2.216-1.276-3.358.5-.839,1.108-1.712,1.679-2.619Z" transform="translate(-231.418 -278.507)" fill="#e69578" fill-rule="evenodd"/>
      <path id="Path_13321" data-name="Path 13321" d="M272.94,434.2a1.51,1.51,0,0,1,.873.705c.235.47.436,1.209-.269,1.209-1.444,0-1.209.638-.94,1.545a2.324,2.324,0,0,1-.537,2.552,3.264,3.264,0,0,0-2.518-1.276c1.074-1.612,2.182-3.19,3.391-4.734Z" transform="translate(-262.43 -288.464)" fill="#e38c6b" fill-rule="evenodd"/>
      <path id="Path_13322" data-name="Path 13322" d="M285.47,451.5c.907.6,1.175,1.477.2,2.955-.134.2.269.739.4,1.142.47.672.269,1.377-.47,1.242-1.142-.2-2.183.369-3.257.3a61.625,61.625,0,0,1,3.123-5.641Z" transform="translate(-279.023 -299.955)" fill="#e38c6b" fill-rule="evenodd"/>
      <path id="Path_13323" data-name="Path 13323" d="M217.832,402.545c.839,1.175,1.645-.235,2.485,0,.638-.839,1.679-.537,2.485-.873,1.007-.369,2.216-.672,1.981-2.182a4,4,0,0,1,1.947-2.25,3.451,3.451,0,0,0,1.947-4c-1.78-.537-2.25,1.847-3.861,1.712v.034a2.5,2.5,0,0,1-1.175,1.31l-.034.034c-.2.168-.4.369-.6.571l-.067.067a2.176,2.176,0,0,0-.537.571c-1.511,1.679-3.056,3.324-4.566,5Z" transform="translate(-199.767 -261.207)" fill="#d2591b" fill-rule="evenodd"/>
      <path id="Path_13324" data-name="Path 13324" d="M198.6,369.85c.638.4,1.175.6,1.847-.034a16.515,16.515,0,0,1,2.048-1.679h0c.436-.336.94-.638,1.007-1.276-.067-1.847,1.545-2.888,2.25-4.331.47-1.343.336-3.19,2.552-3.089.235-.672-.772-1.645.571-2.082.2-.067.1-1.108.134-1.712a.57.57,0,0,0-.907-.1,37.4,37.4,0,0,0-2.82,4.13A96.5,96.5,0,0,1,198.6,369.85Z" transform="translate(-173.585 -236.101)" fill="#d77541" fill-rule="evenodd"/>
      <path id="Path_13325" data-name="Path 13325" d="M183.931,253.44c0-.2.034-.4.034-.6,1.477-1.947,1.242-4.1.839-6.279a2.834,2.834,0,0,0-.739-1.31c.067-6.313.6-12.625-.3-18.9-.2-.3-.369-.3-.6-.034a29.566,29.566,0,0,0,.1,5.171c.571.6.369,1.276.235,1.947-.067,6.447-.168,12.86-.235,19.307.067.2.134.437.2.672.134.336.3.336.47.034Z" transform="translate(-144.478 -150.246)" fill="#e07a4b" fill-rule="evenodd"/>
      <path id="Path_13326" data-name="Path 13326" d="M187.789,333.681l.907.1c1.981-1.175.839-3.358,1.511-5,.4-1.007.067-2.283,1.712-2.283a.387.387,0,0,0,.369-.6c-.705-1.041.47-2.888-1.477-3.391q-1.461,5.591-3.022,11.181Z" transform="translate(-153.306 -214.27)" fill="#d0713f" fill-rule="evenodd"/>
      <path id="Path_13327" data-name="Path 13327" d="M229.579,399.91a1.078,1.078,0,0,0,1.175-1.31A2.254,2.254,0,0,0,229.579,399.91Z" transform="translate(-205.739 -264.817)" fill="#d77541" fill-rule="evenodd"/>
      <path id="Path_13328" data-name="Path 13328" d="M233.1,403.171c.2-.2.4-.369.6-.571A.715.715,0,0,0,233.1,403.171Z" transform="translate(-209.865 -267.474)" fill="#d77541" fill-rule="evenodd"/>
      <path id="Path_13329" data-name="Path 13329" d="M235.1,405.071c.168-.2.369-.369.537-.571A.611.611,0,0,0,235.1,405.071Z" transform="translate(-212.469 -268.736)" fill="#d77541" fill-rule="evenodd"/>
      <path id="Path_13330" data-name="Path 13330" d="M258,472.945c1.31.2,2.418-.806,3.727-.638a4.261,4.261,0,0,0,2.955-1.914,2.351,2.351,0,0,0-.067-1.847c-1.343-1.477-2.552-3.526-4.969-1.511a2.69,2.69,0,0,0-.1.873,1.739,1.739,0,0,1-1.142,2.35,5.19,5.19,0,0,0-.739.4c-.067.4-.235-.2-.2.235l-.235,2.082a.569.569,0,0,0,.772-.034Z" transform="translate(-249.106 -309.715)" fill="#e69475" fill-rule="evenodd"/>
      <path id="Path_13331" data-name="Path 13331" d="M286.9,485.422q.4-1.511.907-3.022c.1.067.2.1.3.168a2.239,2.239,0,0,1,.3.705c-.034.168-.067.2-.134.2-.134-.067-.067,0,0,0,.034,0,.034.034.067.034.2.134.4-.1.6-.168a1.539,1.539,0,0,1,.672-.034c.336.1.672.168,1.007.269a3.718,3.718,0,0,1,1.343.437l.2.3c-1.545,1.175-3.626-.134-5.137,1.108-.067.034-.1,0-.134,0Z" transform="translate(-286.396 -320.48)" fill="#e38c6b" fill-rule="evenodd"/>
      <path id="Path_13332" data-name="Path 13332" d="M257.585,477.584c-.94.5-2.048.772-2.585,1.813,2.082.5,2.686.1,3.861-2.384l-.034-.034C258.123,476.61,257.921,477.248,257.585,477.584Z" transform="translate(-242.375 -316.805)" fill="#da7541" fill-rule="evenodd"/>
      <path id="Path_13333" data-name="Path 13333" d="M281.434,485.978c.638.134,1.242.873,1.88,0-.034-.134-.1-.269-.134-.4-.705-.571-1.477-1.31-1.78.336l.034.067Z" transform="translate(-275.692 -322.144)" fill="#e4916e" fill-rule="evenodd"/>
      <path id="Path_13334" data-name="Path 13334" d="M278.947,486.127c-.235,0-.47-.034-.672-.034-.537-.168-.705.067-.672.571l.067.1a1.692,1.692,0,0,0,1.276-.638Z" transform="translate(-270.049 -322.897)" fill="#e4916e" fill-rule="evenodd"/>
      <path id="Path_13335" data-name="Path 13335" d="M251.639,479.1c-.1.034-.269.1-.235.134.034.235.134.2.235-.134Z" transform="translate(-233.944 -318.288)" fill="#da7541" fill-rule="evenodd"/>
      <path id="Path_13336" data-name="Path 13336" d="M155.968,188.569c.672-.4.739-1.31,1.276-1.712a3.415,3.415,0,0,0,1.377-4.5c-.336-.839.034-1.477,1.142-1.712a9.964,9.964,0,0,0,2.753-1.343,1.018,1.018,0,0,0,.336-1.377c-.269-.47-.705-.369-1.074-.134-.705.4-1.914,1.242-2.082.369-.235-1.276-2.015-1.343-1.545-3.123A11.646,11.646,0,0,0,156.3,165.3c-.134.034-.3.1-.436.134-3.089,3.19-3.257,4.4-.94,6.783-.067.705.269,1.78-.369,2.082-2.283,1.041-1.142,2.686-.571,3.861a3.156,3.156,0,0,1,.168,2.888c-.537.638-.3,1.074.3,1.545a3.273,3.273,0,0,1,.873,4.164,4.282,4.282,0,0,1-.034.638,1.5,1.5,0,0,0,.672,1.175Z" transform="translate(-112.318 -109.853)" fill="#e58d6a" fill-rule="evenodd"/>
      <path id="Path_13337" data-name="Path 13337" d="M163.829,232.076a1.272,1.272,0,0,0-.6-1.276c-1.981,1.209-1.209,3.693-2.418,5.339-.5.672.47,1.31,1.578,1.074.537-.1,1.78-.873,1.645.134-.1.705,1.41,2.216-.672,2.518-1.545.235-1.175,2.015-1.981,2.988-1.007,1.209.839,2.317,1.578,3.626-1.108.672-2.115,1.276-3.156,1.88V249.6c1.511,2.384,2.552-.336,3.895-.369-.4,1.142-.134,1.981,1.108,2.35.839.47,1.578.436,1.813-.638.269-1.108.772-1.813,1.981-1.847,0-.2.034-.4.034-.638-.168-1.242-1.175-1.847-1.947-2.686-1.041-1.108-1.746-1.813-.6-3.861a11.564,11.564,0,0,0,.974-7.018c-.168-1.007-.772-1.712-1.981-1.007a1.726,1.726,0,0,1-1.242-1.813Z" transform="translate(-120.179 -153.36)" fill="#e47c55" fill-rule="evenodd"/>
      <path id="Path_13338" data-name="Path 13338" d="M170.878,138.9c-.3.034-.873.034-.772.3.772,2.585-1.41,3.223-2.854,4.3-.134.1-.571-.168-.873-.269v.6c-.47.3-.3.907-.638,1.242h0c.2,3.66,3.19,2.015,5,2.619h0c0-2.149-.134-4.231,1.981-5.742,1.041-.739.067-1.343-.6-1.78h0a2.122,2.122,0,0,0-1.242-1.276Z" transform="translate(-126.724 -92.318)" fill="#e58d6a" fill-rule="evenodd"/>
      <path id="Path_13339" data-name="Path 13339" d="M178.489,160.019c-.168-.1-.4-.168-.5-.336-.907-1.511-1.847-1.645-2.82.168-.672-.974-1.175-1.712-1.679-2.451-1.074.873-.1,1.511.369,2.048a4.88,4.88,0,0,1,1.242,5.1c-.672,2.082.5,2.317,2.048,2.35-1.276-1.914-1.545-3.66.47-5.305.436-.369.571-1.041.873-1.578Z" transform="translate(-134.47 -104.606)" fill="#e38660" fill-rule="evenodd"/>
      <path id="Path_13340" data-name="Path 13340" d="M187.543,159.3c-.034,1.242-.067,2.518-.1,3.761a.976.976,0,0,0-.067,1.309,14.84,14.84,0,0,0,.705,4.365c.571-.3,1.074-.672.806-1.444a4.13,4.13,0,0,1,.269-2.686c.235-.705,1.377-2.015-.739-2.048-.336,0-.2-.705-.067-1.108a1.864,1.864,0,0,0-.806-2.149Z" transform="translate(-150.407 -105.868)" fill="#cc621b" fill-rule="evenodd"/>
      <path id="Path_13341" data-name="Path 13341" d="M177.3,217.608a3.768,3.768,0,0,0-.873-4.835c-.2-.168-.2-.571-.3-.873a5.747,5.747,0,0,0-1.343.739c-.772.672-.3,1.444.269,1.813,1.746,1.142,1.813,1.108,2.25,3.156Z" transform="translate(-134.253 -140.806)" fill="#e47c55" fill-rule="evenodd"/>
      <path id="Path_13342" data-name="Path 13342" d="M188.134,197.181a13.783,13.783,0,0,0,.168,4.231c1.511-.269.369-1.31.537-1.981a6.528,6.528,0,0,0-.336-4.231,15.262,15.262,0,0,1-.369,1.981Z" transform="translate(-150.125 -129.714)" fill="#cc6f35" fill-rule="evenodd"/>
      <path id="Path_13343" data-name="Path 13343" d="M187.073,221.752c.2,0,.4.034.6.034-.067-.839.269-1.746-.2-2.585-.571.369-.3.974-.537,1.41.034.369.067.772.134,1.142Z" transform="translate(-148.392 -145.655)" fill="#ba5713" fill-rule="evenodd"/>
      <path id="Path_13344" data-name="Path 13344" d="M186.215,154.94a1.22,1.22,0,0,0,.638-1.242C185.779,153.664,185.913,154.234,186.215,154.94Z" transform="translate(-147.199 -102.145)" fill="#e38660" fill-rule="evenodd"/>
      <path id="Path_13345" data-name="Path 13345" d="M194.237,171.743c.034-.436.034-.873.067-1.31-.134,0-.3-.034-.436-.034-.034.369-.034.739-.067,1.142.168.067.3.134.437.2Z" transform="translate(-157.268 -113.241)" fill="#e06c3e" fill-rule="evenodd"/>
      <path id="Path_13346" data-name="Path 13346" d="M155.407,108.577a2.167,2.167,0,0,1,.705-1.914,1.05,1.05,0,0,0,.47-1.041,13.432,13.432,0,0,1,.168-3.291c-2.317-.839-2.317-.839-1.947-3.156.134-1.041.034-2.082.269-3.089s.336-2.115-.705-2.384c-1.074-.3-2.115-1.007-3.526-.3-2.183,1.074.067,2.653-.772,3.794,1.981,1.981.772,3.828-.269,5.675a.675.675,0,0,0,.269-.134c.94-.638,1.88-1.612,3.022-.806s1.242,2.015.6,3.324a8.047,8.047,0,0,0-.4,1.78c-.5,2.149-.369,2.25,2.115,1.545Z" transform="translate(-104.941 -61.894)" fill="#e69371" fill-rule="evenodd"/>
      <path id="Path_13347" data-name="Path 13347" d="M158.358,237.552c.638.067,1.679.571,1.444.806-1.142,1.209.168,2.585-.5,4-.6,1.31-.336,3.19-1.007,4.8-.571,1.377.6,2.619,1.679,3.425.672.47,1.276,1.007,1.914,1.511.437-.672,0-1.477.168-2.082.638-2.082.034-2.72-2.048-2.149a.741.741,0,0,1-.94-.638c-.067-.772.47-.772,1.007-.537a1.072,1.072,0,0,0,1.545-.537c.3-.638-.235-.907-.638-1.209-1.242-1.041-.974-1.545.437-2.317,1.276-.705.5-2.518.806-3.794.134-.6.772-2.216-.437-2.317-1.041-.1-2.854-1.175-3.425,1.041Z" transform="translate(-113.499 -156.922)" fill="#e69371" fill-rule="evenodd"/>
      <path id="Path_13348" data-name="Path 13348" d="M157.609,285.5a3.309,3.309,0,0,1-.907,1.88c-.336.537-1.108,1.075-.436,1.88.907.5,1.746.705,2.149-.571.4-1.209,1.209-2.585-.806-3.19Z" transform="translate(-109.191 -189.693)" fill="#eaa388" fill-rule="evenodd"/>
      <path id="Path_13349" data-name="Path 13349" d="M167.891,158.967c.1.4.168.739.571.5a1.114,1.114,0,0,0,.437-.705c.034-.336-.2-.6-.571-.4a1.845,1.845,0,0,0-.437.6Z" transform="translate(-123.166 -105.199)" fill="#f0b89c" fill-rule="evenodd"/>
      <path id="Path_13350" data-name="Path 13350" d="M154.542,219.276A1.141,1.141,0,0,0,153.3,218,1.156,1.156,0,0,0,154.542,219.276Z" transform="translate(-103.908 -144.858)" fill="#e48c67" fill-rule="evenodd"/>
      <path id="Path_13351" data-name="Path 13351" d="M156.6,172.651c.067.034.2.1.235.067.067-.067.067-.168.1-.269-.067-.034-.2-.1-.235-.067a.536.536,0,0,0-.1.269Z" transform="translate(-107.41 -114.551)" fill="#e48c67" fill-rule="evenodd"/>
      <path id="Path_13352" data-name="Path 13352" d="M152.6,140.476a1.3,1.3,0,0,0-.6-1.276A1.272,1.272,0,0,0,152.6,140.476Z" transform="translate(-101.534 -92.517)" fill="#e69371" fill-rule="evenodd"/>
      <path id="Path_13353" data-name="Path 13353" d="M143.731,290.7c-.034.067-.134.168-.134.235s.1.168.168.235c.2-.2.168-.336-.034-.47Z" transform="translate(-90.008 -193.147)" fill="#e28460" fill-rule="evenodd"/>
      <path id="Path_13354" data-name="Path 13354" d="M144.3,245.1c.2-.2.437-.4.638-.6C144.737,244.7,144.5,244.9,144.3,245.1Z" transform="translate(-91.282 -162.46)" fill="#e6865d" fill-rule="evenodd"/>
      <path id="Path_13355" data-name="Path 13355" d="M145.646,68.684c.067,1.645,1.712,1.209,2.485,1.947,1.612-1.645,2.585.134,3.761.705h0c.436.2.839.437,1.276.638a1.69,1.69,0,0,0-.269-2.451c-1.242-1.041-1.511-2.552-2.183-3.895-.067-1.712-.873-2.451-2.619-1.914-.5.134-1.175.4-1.511.2-1.746-1.142-1.78.47-2.384,1.242.739,1.007,1.88.907,2.888,1.276a4.236,4.236,0,0,1-1.444,2.25Z" transform="translate(-99.881 -42.248)" fill="#e3774c" fill-rule="evenodd"/>
      <path id="Path_13356" data-name="Path 13356" d="M131.3,63.689a5.479,5.479,0,0,0,.907,3.593c.806.739,1.746,1.41,1.511,2.753.2-.2.437-.4.638-.638A2.873,2.873,0,0,0,135,67.55c.6-2.283,1.847-.806,2.921-.5.4-.3.2-.739.3-1.108.5-2.283.537-2.35-1.746-3.022-.672-.2-1.142-.4-1.377-1.041h0c-1.477.839-2.082-.705-3.089-1.276-.571,1.007,1.578,2.619-.705,3.089Z" transform="translate(-80.467 -40.309)" fill="#d8602c" fill-rule="evenodd"/>
      <path id="Path_13357" data-name="Path 13357" d="M131.346,33.645c.369.134.772.437,1.142.134.571-.5,1.074-.772,1.343.2A3.712,3.712,0,0,0,135.207,36c2.384,2.149,4.466,1.645,5.607-1.276.369-.94.436-2.048,1.276-2.753a.708.708,0,0,0,0-.806c-1.477-.839-1.981.336-2.653,1.242-.47.672-1.074,1.511-1.981,1.209-1.041-.336-.537-1.41-.571-2.183a3.32,3.32,0,0,0-.705-2.082,2.134,2.134,0,0,0-.739-.47c-1.545-.638-1.007,1.645-2.183,1.545-.168,1.41-2.921,1.175-1.914,3.223Z" transform="translate(-84.137 -19.163)" fill="#da632a" fill-rule="evenodd"/>
      <path id="Path_13358" data-name="Path 13358" d="M170.213,83.3c1.041,1.477-.437,2.955-.067,4.432.2.3.4.3.6.034.437-.638,1.343-.974,1.343-1.947a1.11,1.11,0,0,1,.806-1.175c2.384-.5,2.585-2.518,3.022-4.331-.839-.5-1.679-.134-2.518-.034-.4,0-.839,0-1.242-.034-.672-.235-1.343-.47-1.88.269-.3.907-.873,1.847-.067,2.787Z" transform="translate(-130.827 -53.203)" fill="#e3774c" fill-rule="evenodd"/>
      <path id="Path_13359" data-name="Path 13359" d="M162.871,34.147c.067-.739.2-1.511,1.074-1.545,1.209-.067.705-.974.873-1.545-.034-.134-.034-.269-.067-.4a3.031,3.031,0,0,0-.47-.672c-.437-.336-.873-.672-1.444-.3-1.914,1.78-2.72,4.331-4.365,6.346A10.283,10.283,0,0,0,158.3,37.1a1.98,1.98,0,0,1-.4.739c-.067.2-.134.4-.2.638a2.683,2.683,0,0,0,2.451-1.511,1.724,1.724,0,0,1,1.444-.94,5.431,5.431,0,0,1,.638-.6v-.6c-.3-.235-.437-.437.034-.638a3.452,3.452,0,0,1,.6-.034Z" transform="translate(-115.661 -19.664)" fill="#d55d1f" fill-rule="evenodd"/>
      <path id="Path_13360" data-name="Path 13360" d="M131.607,29.991v.638c1.41.94,1.78.034,1.78-1.108a8.754,8.754,0,0,0-.47-2.015h0c-1.343-.5-2.653-1.477-4.029.134-.537.6-1.578-.168-2.283.4-.1.1-.2.235-.3.336a1.771,1.771,0,0,0,.269,1.679,4.185,4.185,0,0,0,3.156-.806c1.108-.739,1.309.3,1.88.739Z" transform="translate(-73.653 -17.826)" fill="#d96129" fill-rule="evenodd"/>
      <path id="Path_13361" data-name="Path 13361" d="M121.7,51.761a4.828,4.828,0,0,0,3.66,2.35c-.638-1.242-1.712-2.317-.839-3.626,1.074-1.578-.436-1.746-1.477-2.485.067,1.477,1.813,3.559-1.343,3.761Z" transform="translate(-64.115 -31.939)" fill="#d1692f" fill-rule="evenodd"/>
      <path id="Path_13362" data-name="Path 13362" d="M139.337,89.319c.2-.2.436-.4.638-.6-.436-.772-.839-1.511-1.88-.705a3.785,3.785,0,0,1-3.794.6c.034,1.276.974,1.276,1.88,1.276a1.926,1.926,0,0,0,3.156-.571Z" transform="translate(-82.961 -58.283)" fill="#e3774c" fill-rule="evenodd"/>
      <path id="Path_13363" data-name="Path 13363" d="M169.123,77.259c.839,1.142,1.679.369,2.518.034a3.65,3.65,0,0,1,.034-.6c.168-.134.235-.269.168-.4s-.1-.2-.168-.2c-1.612-.94-1.88-.806-2.552,1.175Z" transform="translate(-126.548 -50.219)" fill="#d8612c" fill-rule="evenodd"/>
      <path id="Path_13364" data-name="Path 13364" d="M180.708,71.965c.4.067.839.672,1.242,0,.739-1.712-.638-2.921-1.041-4.365-.067.3-.134.571-.2.873a4.654,4.654,0,0,0,0,3.492Z" transform="translate(-140.616 -44.958)" fill="#d8612c" fill-rule="evenodd"/>
      <path id="Path_13365" data-name="Path 13365" d="M177.573,58.1c-.2.235-.4.5-.6.739-.1.571-.168,1.175-.269,1.746a4.44,4.44,0,0,0,2.082-.168L177.573,58.1Z" transform="translate(-136.005 -38.648)" fill="#c96a2f" fill-rule="evenodd"/>
      <path id="Path_13366" data-name="Path 13366" d="M147.807,24.152c-.2-.437-.4-.437-.638,0-1.746,1.242-.067,1.41.6,1.914h0a.9.9,0,0,0,1.276.034h0c-.4-.672-.839-1.31-1.242-1.947Z" transform="translate(-96.098 -15.882)" fill="#da632a" fill-rule="evenodd"/>
      <path id="Path_13367" data-name="Path 13367" d="M140.035,61.174a1,1,0,0,0,.571-.94.568.568,0,0,0-.47-.638c-.571-.034-.6.369-.47.772a8.585,8.585,0,0,0,.369.806Z" transform="translate(-85.371 -39.641)" fill="#d8602c" fill-rule="evenodd"/>
      <path id="Path_13368" data-name="Path 13368" d="M140.818,81.3c-.739.437-.638,1.175-.638,1.847C140.852,82.677,141.926,82.374,140.818,81.3Z" transform="translate(-86.255 -54.058)" fill="#e3774c" fill-rule="evenodd"/>
      <path id="Path_13369" data-name="Path 13369" d="M166.409,42.773c-.336-.034-.839-.537-.974-.067-.2.672.5.6.94.705a3.855,3.855,0,0,0,.034-.638Z" transform="translate(-119.838 -28.29)" fill="#da632a" fill-rule="evenodd"/>
      <path id="Path_13370" data-name="Path 13370" d="M158.938,86.6c-.336.672-.5,1.276.6,1.276A1.219,1.219,0,0,0,158.938,86.6Z" transform="translate(-110.721 -57.579)" fill="#e3774c" fill-rule="evenodd"/>
      <path id="Path_13371" data-name="Path 13371" d="M153,89.462c.4,0,.839,0,1.276.034C153.873,88.824,153.437,88.824,153,89.462Z" transform="translate(-103.541 -59.164)" fill="#e3774c" fill-rule="evenodd"/>
      <path id="Path_13372" data-name="Path 13372" d="M123.679,28.9c.134.269.537.6.6.47.3-.705-.4-.269-.6-.47Z" transform="translate(-63.777 -19.253)" fill="#d96129" fill-rule="evenodd"/>
      <path id="Path_13373" data-name="Path 13373" d="M126.405,27.406c-.034-.3.034-.772-.3-.806-.336,0-.369.6-.4.907l.067-.034a3.719,3.719,0,0,1,.638-.067Z" transform="translate(-66.503 -17.725)" fill="#d96129" fill-rule="evenodd"/>
      <path id="Path_13374" data-name="Path 13374" d="M166.138,47c-.2.2-.437.4-.638.6A3.6,3.6,0,0,0,166.138,47Z" transform="translate(-119.6 -31.275)" fill="#da632a" fill-rule="evenodd"/>
      <path id="Path_13375" data-name="Path 13375" d="M115.369,64.8c-.1.034-.269.1-.269.134.067.2.168.168.269-.134Z" transform="translate(-51.908 -43.098)" fill="#d75d21" fill-rule="evenodd"/>
      <path id="Path_13376" data-name="Path 13376" d="M167.8,77v.638h.638L167.8,77Z" transform="translate(-122.672 -51.202)" fill="#e3774c" fill-rule="evenodd"/>
      <path id="Path_13377" data-name="Path 13377" d="M149.469,86.7c-.1.034-.269.1-.269.134.067.235.168.168.269-.134Z" transform="translate(-97.458 -57.645)" fill="#e3774c" fill-rule="evenodd"/>
      <path id="Path_13378" data-name="Path 13378" d="M133.837,92.6a4.912,4.912,0,0,1-3.156.571c-.168,1.074.873,1.511,1.343,2.418-.907.067-1.712.067-2.485.2-.6.1-.739.638-.739,1.175,0,.739.4.772,1.007.672.806-.134,1.511-.269,1.88.873.47,1.41,1.645-.134,2.653.369,1.545.772.907-.907,1.175-1.612.134-.369.537-.6.806-.907-1.343-.907-1.746-2.418-2.485-3.761Z" transform="translate(-77.461 -61.564)" fill="#dc7746" fill-rule="evenodd"/>
      <path id="Path_13379" data-name="Path 13379" d="M176.621,103.034a3.649,3.649,0,0,1-.6-.034c-.235,1.88-.47,3.761-.739,5.641h0a1.878,1.878,0,0,0-.638,1.981c.1,1.142,1.712.067,1.847,1.209a2.287,2.287,0,0,1,1.612-2.149c.369.571.772,1.175,1.175,1.78.6-.437,1.041-1.041.806-1.578-.437-1.007-.907-2.082-2.149-2.451-1.276-.369-1.377-1.377-1.31-2.485a.873.873,0,0,0,0-1.276v-.638Z" transform="translate(-136.664 -68.472)" fill="#e06c3e" fill-rule="evenodd"/>
      <path id="Path_13380" data-name="Path 13380" d="M187.6,132.666c-1.309-.369-2.216-.235-1.847,1.444a14.107,14.107,0,0,0,.571,1.679,1.275,1.275,0,0,0,.638-1.242h0c.772-.437.638-1.175.638-1.88Z" transform="translate(-147.848 -88.064)" fill="#e06c3e" fill-rule="evenodd"/>
      <path id="Path_13381" data-name="Path 13381" d="M125.805,104.1h-.638c-.034,1.007-.034,2.015-.067,3.056C125.939,106.182,125.7,105.107,125.805,104.1Z" transform="translate(-65.702 -69.203)" fill="#dc7746" fill-rule="evenodd"/>
      <path id="Path_13382" data-name="Path 13382" d="M183.75,104.9v1.276C184.354,105.739,184.354,105.337,183.75,104.9Z" transform="translate(-143.793 -69.734)" fill="#e3774c" fill-rule="evenodd"/>
      <path id="Path_13383" data-name="Path 13383" d="M127.6,103.443c-.2-.369-.4-.369-.6-.034A3.649,3.649,0,0,0,127.6,103.443Z" transform="translate(-68.139 -68.579)" fill="#dc7746" fill-rule="evenodd"/>
      <path id="Path_13384" data-name="Path 13384" d="M146.867,165.869c-.134.269-.067.4.2.437.034,0,.134-.134.168-.235a3.309,3.309,0,0,0,.067-.571A2.311,2.311,0,0,1,146.867,165.869Z" transform="translate(-94.487 -109.986)" fill="#e2774f" fill-rule="evenodd"/>
      <path id="Path_13385" data-name="Path 13385" d="M129.6,142.038c.2-.2.4-.4.6-.638A5.431,5.431,0,0,1,129.6,142.038Z" transform="translate(-71.612 -93.978)" fill="#e2774f" fill-rule="evenodd"/>
      <path id="Path_13386" data-name="Path 13386" d="M42.357,18.534h-.638c-.034,1.108.94,2.115.235,3.324-.336.6.168.907.672,1.142.907.437.638.907,0,1.31a1.934,1.934,0,0,0-.974,2.115c.2.907.1,2.048,1.847,1.175,1.142-.6,1.612.269,1.041,1.712-.235.6.4.537.772.6a7.627,7.627,0,0,0,.94.873,2.533,2.533,0,0,0,.806.269c.2.034.571,0,.571.034.873,3.66,2.787,2.115,4.634.94-.336-2.518-2.72-4-3.291-6.413-.269-1.847-.94-3.257-2.888-3.962C44.606,21.119,44.438,19,42.793,18.5a2.065,2.065,0,0,1-.437.034Z" transform="translate(35.878 -12.345)" fill="#e27348" fill-rule="evenodd"/>
      <path id="Path_13387" data-name="Path 13387" d="M83.452,16.91c-.537.4-1.074.806-1.645,1.276.067.806,1.41.806,1.377,1.746-.034.974-1.242.571-1.545,1.242-.235.47-.5.907-.739,1.343.4,0,.839.034,1.242.034.134.168.5.1.47.4,0,.134-.269.168-.437.235-.1.4-.2.806-.269,1.242-.134.806.369,1.142,1.074,1.175a.87.87,0,0,0,.974-.974,12.2,12.2,0,0,1,.705-3.66c.537-1.612.806-1.746,2.082-.974a3.887,3.887,0,0,0,3.526.134c-.5-1.477-2.115-2.518-1.645-4.4.1-.336-.772-.638-1.209-.067-.4.537-.1,1.813-1.444,1.31-.2-.3-.4-.336-.638-.034-.6.168-1.242.974-1.88-.034Z" transform="translate(-15.324 -10.251)" fill="#e16c3e" fill-rule="evenodd"/>
      <path id="Path_13388" data-name="Path 13388" d="M58.577,63.914a7.167,7.167,0,0,1,4.432-2.451h0a1.336,1.336,0,0,1,.638-1.242,1.757,1.757,0,0,0,.672-1.142c.47-1.712-.638-3.425.067-5.137h0a.862.862,0,0,0-1.242-.034,1.356,1.356,0,0,1-1.276.638c0,.839-.034,1.645,0,2.485.134,2.451.1,2.485-2.552,1.813l-.1.705c.134,1.477-.873,2.82-.638,4.365Z" transform="translate(18.012 -35.698)" fill="#e26f42" fill-rule="evenodd"/>
      <path id="Path_13389" data-name="Path 13389" d="M75.092,42.362c.94.705,2.183.571,3.223,1.007.806.336,1.477-.47,1.276-.772-.806-1.276.336-2.854-1.007-4.2-.5,1.981-2.149,2.787-3.492,3.962Z" transform="translate(-2.734 -25.563)" fill="#d2520b" fill-rule="evenodd"/>
      <path id="Path_13390" data-name="Path 13390" d="M84.289,33.8c-1.276.269-2.149.437-3.089.6C82.577,35.747,83.584,35.546,84.289,33.8Z" transform="translate(-9.446 -22.507)" fill="#e16c3e" fill-rule="evenodd"/>
      <path id="Path_13391" data-name="Path 13391" d="M101.494,37.05c.437.1.537.94,1.074.638.2-.1.235-.772.1-1.074-.235-.739-.772-.235-1.209-.168,0,.168.034.369.034.6Z" transform="translate(-34.709 -24.112)" fill="#ea8c64" fill-rule="evenodd"/>
      <path id="Path_13392" data-name="Path 13392" d="M58.6,53.1c.4,0,.839.034,1.242.034A1.275,1.275,0,0,0,58.6,52.5Z" transform="translate(22.59 -34.928)" fill="#e47b52" fill-rule="evenodd"/>
      <path id="Path_13393" data-name="Path 13393" d="M93.767,18.406a4.281,4.281,0,0,1,.638.034,6.141,6.141,0,0,1-.269-.839c-.705.034-.336.537-.369.806Z" transform="translate(-23.759 -11.747)" fill="#da642e" fill-rule="evenodd"/>
      <path id="Path_13394" data-name="Path 13394" d="M96.3,8.737c.1-.235.034-.4-.2-.437-.034,0-.134.134-.168.235a3.308,3.308,0,0,0-.067.571C96.033,8.972,96.167,8.837,96.3,8.737Z" transform="translate(-26.427 -5.57)" fill="#da642e" fill-rule="evenodd"/>
      <path id="Path_13395" data-name="Path 13395" d="M97.944,10.6c-.2.2-.705.269-.638.638h.638Z" transform="translate(-28.507 -7.097)" fill="#da642e" fill-rule="evenodd"/>
      <path id="Path_13396" data-name="Path 13396" d="M96.522,12.5c.034.1.1.269.134.269.2-.067.168-.134-.134-.269Z" transform="translate(-27.084 -8.359)" fill="#da642e" fill-rule="evenodd"/>
      <path id="Path_13397" data-name="Path 13397" d="M145.2,214.366c.369-.134.739-.336.806-.739,0-.067-.269-.269-.336-.235-.4.134-.4.571-.47.974Z" transform="translate(-92.652 -141.795)" fill="#e48c67" fill-rule="evenodd"/>
      <path id="Path_13398" data-name="Path 13398" d="M138.2,218.9a1.328,1.328,0,0,0,1.276-.6A1.272,1.272,0,0,0,138.2,218.9Z" transform="translate(-83.771 -145.057)" fill="#e48c67" fill-rule="evenodd"/>
      <path id="Path_13399" data-name="Path 13399" d="M130.7,218.4c.4.638.839.638,1.276.034C131.539,218.4,131.137,218.4,130.7,218.4Z" transform="translate(-73.753 -145.124)" fill="#e48c67" fill-rule="evenodd"/>
      <path id="Path_13400" data-name="Path 13400" d="M128.969,212.8c-.1.034-.269.1-.269.134.034.2.134.168.269-.134Z" transform="translate(-70.074 -141.404)" fill="#e48c67" fill-rule="evenodd"/>
      <path id="Path_13401" data-name="Path 13401" d="M152.322,212.4c.034.1.1.269.134.269C152.658,212.6,152.624,212.5,152.322,212.4Z" transform="translate(-101.62 -141.138)" fill="#e48c67" fill-rule="evenodd"/>
      <path id="Path_13402" data-name="Path 13402" d="M144.174,222.538V221.9c-.235.067-.336.235-.235.436.034.1.134.134.235.2Z" transform="translate(-90.383 -147.448)" fill="#e48c67" fill-rule="evenodd"/>
      <path id="Path_13403" data-name="Path 13403" d="M144.969,154.4c-.1.034-.269.1-.269.134.067.2.168.168.269-.134Z" transform="translate(-91.447 -102.613)" fill="#e48c67" fill-rule="evenodd"/>
      <path id="Path_13404" data-name="Path 13404" d="M71.185,86.047c1.108,0,1.142.94,1.477,1.645.369.739.94.638,1.545.269.739-.47.6-1.074.034-1.444A2.209,2.209,0,0,1,73.1,84.2c-.638.6-1.276,1.242-1.914,1.847Z" transform="translate(3.49 -55.984)" fill="#df6a3e" fill-rule="evenodd"/>
      <path id="Path_13405" data-name="Path 13405" d="M82.1,92.218a1.272,1.272,0,0,1,1.276-.6c0-.638,0-1.276.034-1.914C82.1,90.069,81.122,90.64,82.1,92.218Z" transform="translate(-8.729 -59.638)" fill="#df6a3e" fill-rule="evenodd"/>
      <path id="Path_13406" data-name="Path 13406" d="M154.733,25.219c-.369-.571-1.377-.974-.6-1.914a1.341,1.341,0,0,1-1.31-.705,6.565,6.565,0,0,0-2.619,2.451c.437.235.907.5,1.343.739.2.235.436.4.638.638h0c.6-.1,1.712.437,1.209-1.041,0-.168.907-.134,1.343-.168Z" transform="translate(-103.058 -15.068)" fill="#da7946" fill-rule="evenodd"/>
      <path id="Path_13407" data-name="Path 13407" d="M103.1,10.414c.1.5.168,1.041.772,1.142a.833.833,0,0,0,1.041-.806c.067-.705.034-1.41.067-2.25a3.829,3.829,0,0,0-1.88,1.31A1.825,1.825,0,0,1,103.1,10.414Z" transform="translate(-37.49 -5.702)" fill="#e3784c" fill-rule="evenodd"/>
      <path id="Path_13408" data-name="Path 13408" d="M114.709,16.528c.269-.134.6-.537.47-.6-.705-.336-.3.369-.47.6Z" transform="translate(-51.617 -10.574)" fill="#da642e" fill-rule="evenodd"/>
      <path id="Path_13409" data-name="Path 13409" d="M145.038,14a.619.619,0,0,0-.638.47C144.635,14.3,144.837,14.168,145.038,14Z" transform="translate(-91.415 -9.356)" fill="#da632a" fill-rule="evenodd"/>
      <path id="Path_13410" data-name="Path 13410" d="M147.006,15.4a.929.929,0,0,0-.806.537A.824.824,0,0,0,147.006,15.4Z" transform="translate(-93.988 -10.286)" fill="#da632a" fill-rule="evenodd"/>
      <path id="Path_13411" data-name="Path 13411" d="M150.872,17.6a2.267,2.267,0,0,0-.47-.067V17.5a2.171,2.171,0,0,1-.3.269,2.351,2.351,0,0,0,.269.336C150.536,17.97,150.7,17.769,150.872,17.6Z" transform="translate(-99.163 -11.68)" fill="#da632a" fill-rule="evenodd"/>
      <path id="Path_13412" data-name="Path 13412" d="M151.768,19.641c.235-.2.437-.4.672-.6l-.067-.067a.57.57,0,0,0-.772.235,1.687,1.687,0,0,0,.168.437Z" transform="translate(-101.234 -12.613)" fill="#da632a" fill-rule="evenodd"/>
      <path id="Path_13413" data-name="Path 13413" d="M153.767,20.507c-.034.2-.034.369-.067.571.235-.168.47-.336.705-.537l-.067-.1c-.2-.269-.4-.235-.571.067Z" transform="translate(-103.905 -13.512)" fill="#da632a" fill-rule="evenodd"/>
      <path id="Path_13414" data-name="Path 13414" d="M186.849,73.692V70.2a26.564,26.564,0,0,0-2.149,8.932c.369.4.672.369.739-.2.134-.739-.134-1.612.705-2.149a5.017,5.017,0,0,1,.705-3.089Z" transform="translate(-146.758 -46.685)" fill="#c96c30" fill-rule="evenodd"/>
      <path id="Path_13415" data-name="Path 13415" d="M177.19,52.739a.7.7,0,0,0,.4-.739A.7.7,0,0,0,177.19,52.739Z" transform="translate(-134.984 -34.596)" fill="#e16c3e" fill-rule="evenodd"/>
      <path id="Path_13416" data-name="Path 13416" d="M172.1,335.9c-.034,1.276-.168,2.418-1.78,1.074a.524.524,0,0,0-.772.134c-.705.873,0,1.545.3,2.283a7.622,7.622,0,0,1,.806,4.533,4.388,4.388,0,0,0,1.847,4.6v.638c.2.235.4.235.638,0,.034-.5-.168-1.31.1-1.511,1.645-1.276.067-3.223,1.041-4.634.067-.1-.067-.5-.2-.537-2.216-.772-1.41-2.216-1.041-3.761a3,3,0,0,0-.94-2.82Z" transform="translate(-129.022 -223.17)" fill="#e89674" fill-rule="evenodd"/>
      <path id="Path_13417" data-name="Path 13417" d="M168.658,375.4h-.638c-.806.5-1.578,1.108-2.72.47,1.007,1.746,1.209,3.962,3.526,4.734,1.712.571,2.317.134,2.317-1.981h0a2.122,2.122,0,0,1-1.242-1.276A2.031,2.031,0,0,1,168.658,375.4Z" transform="translate(-124.537 -249.407)" fill="#e5815b" fill-rule="evenodd"/>
      <path id="Path_13418" data-name="Path 13418" d="M195.721,410.535c-.5-1.276.1-2.384.369-3.492,1.679-.168,1.276,1.511,2.25,2.25.067-1.142.839-1.712,1.242-2.518-.6-1.276.235-2.015,1.142-2.317,1.88-.638.1-1.477,0-1.477-1.444.168-1.645-1.175-2.35-1.88-.873.6-.369,1.88-1.276,2.485-.2.2-.437.4-.638.638a1.932,1.932,0,0,0-.638.638c-.672,1.377-1.377,2.686-1.947,4.1-.6,1.444-.034,1.914,1.847,1.578Z" transform="translate(-164.494 -266.478)" fill="#e37b52" fill-rule="evenodd"/>
      <path id="Path_13419" data-name="Path 13419" d="M205.819,376.6c-1.947.839-3.19,2.048-2.585,4.4.269.5.907.269,1.242.6h0c.94.739.436,2.854,2.451,2.585.2-.235.6-.47.6-.672-.168-2.384.772-5.07-1.712-6.917Z" transform="translate(-173.652 -250.204)" fill="#e2835b" fill-rule="evenodd"/>
      <path id="Path_13420" data-name="Path 13420" d="M206.138,394.185a2.087,2.087,0,0,1-1.209-1.578,1.174,1.174,0,0,0-1.242-1.007c-.3,1.377-1.343,2.888,1.041,3.559.839.235.739,1.343.739,2.149,1.679-.168,1.175-1.477,1.276-2.485-.2-.235-.4-.437-.6-.638Z" transform="translate(-172.863 -260.168)" fill="#d2591b" fill-rule="evenodd"/>
      <path id="Path_13421" data-name="Path 13421" d="M181.77,392.712c.672.235,1.444.705,1.645-.47.134-.705-.537-.739-1.041-.772-.4-.034-.806-.034-1.209-.067-.907-.4-1.712-.436-1.813.772-.067,1.276.772.907,1.477.672C181.132,392.779,181.467,392.779,181.77,392.712Z" transform="translate(-141.544 -259.87)" fill="#e27249" fill-rule="evenodd"/>
      <path id="Path_13422" data-name="Path 13422" d="M229.5,454.492c.4-.2.839-.4,1.276-.6a1.529,1.529,0,0,1,1.444-.873c3.794-.4,4.331-1.545,2.653-5.037a4.478,4.478,0,0,1-.134-1.175c1.612.235,3.223,1.444,4.6-.2a7.817,7.817,0,0,0-2.048-3.929l-.3-.3a2.135,2.135,0,0,0-2.921.907,2.947,2.947,0,0,0-.4.705c-.2.5-.336,1.007-.537,1.511a5.19,5.19,0,0,0-.235.772,6.768,6.768,0,0,1-.6,2.283,11.659,11.659,0,0,0-1.242,1.914,7.585,7.585,0,0,1-.537.873,6.2,6.2,0,0,0-.47.47,5.292,5.292,0,0,0-.4.5c-.034.1-.034.2-.067.336a16.666,16.666,0,0,0-.067,1.847Z" transform="translate(-214.29 -293.714)" fill="#e48b68" fill-rule="evenodd"/>
      <path id="Path_13423" data-name="Path 13423" d="M227.219,424.287c0-.2.034-.4.034-.638-.269-.638-.705-.974-1.41-.672a2.195,2.195,0,0,0-.437.772c.134,2.35-2.182,3.156-3.089,4.869a1.535,1.535,0,0,0,.369,1.242l.034.034a12.585,12.585,0,0,0,3.794-3.089c0-.2.034-.4.034-.6.6-.537.1-1.444.672-1.914Z" transform="translate(-199.787 -280.935)" fill="#e48b68" fill-rule="evenodd"/>
      <path id="Path_13424" data-name="Path 13424" d="M224.139,414.053c.4.2.839.436,1.242.672,1.545-.739,1.343-2.149,1.209-3.458a2.583,2.583,0,0,0-1.511-1.813c-.806-.4-1.242.974-2.149.806a3.438,3.438,0,0,1-3.559,1.645c-1.276-.2-.772.839-.94,1.377.436,0,.839,0,1.276.034,1.477.436,2.753,1.847,4.432.739Z" transform="translate(-197.916 -271.977)" fill="#e3784f" fill-rule="evenodd"/>
      <path id="Path_13425" data-name="Path 13425" d="M201.142,429.711c.369-.067,1.074-.134.772-.571a2.367,2.367,0,0,0-2.686-1.041,16.289,16.289,0,0,1-1.847.3C198.355,429.61,199.967,429.04,201.142,429.711Z" transform="translate(-166.155 -284.344)" fill="#e37b52" fill-rule="evenodd"/>
      <path id="Path_13426" data-name="Path 13426" d="M214.214,390.4a1.2,1.2,0,0,0-1.242-.6c-.235.4-.436.806-.672,1.209a4.91,4.91,0,0,0,1.914-.6Z" transform="translate(-183.39 -258.972)" fill="#d2591b" fill-rule="evenodd"/>
      <path id="Path_13427" data-name="Path 13427" d="M223.029,427.1c-.739.47-.638,1.209-.638,1.88C223.13,428.51,223.029,427.772,223.029,427.1Z" transform="translate(-195.596 -283.748)" fill="#e3784f" fill-rule="evenodd"/>
      <path id="Path_13428" data-name="Path 13428" d="M211.061,409.869c-.034-.1-.1-.269-.134-.269-.2.034-.168.134.134.269Z" transform="translate(-179.734 -272.124)" fill="#d2591b" fill-rule="evenodd"/>
      <path id="Path_13429" data-name="Path 13429" d="M208.9,411.038l.638-.638h-.6A3.857,3.857,0,0,0,208.9,411.038Z" transform="translate(-177.573 -272.655)" fill="#d2591b" fill-rule="evenodd"/>
      <path id="Path_13430" data-name="Path 13430" d="M218,443.483c.1-.034.269-.1.269-.134-.067-.2-.168-.168-.269.134Z" transform="translate(-189.359 -294.456)" fill="#da7541" fill-rule="evenodd"/>
      <path id="Path_13431" data-name="Path 13431" d="M180.14,350.883a8.428,8.428,0,0,1-1.007-5.171c.2-1.545.47-3.861-1.612-5.07-.269-.168-.235-.739-.369-1.142-.47.2-1.074.571-.907,1.074.47,1.41-.806,1.377-1.645,1.847.94.6,1.679,1.041,2.384,1.477.47.3.94.907.571,1.242-1.309,1.276-.739,2.988-1.175,4.432C177.656,350.01,178.9,350.446,180.14,350.883Z" transform="translate(-136.658 -225.562)" fill="#e5815b" fill-rule="evenodd"/>
      <path id="Path_13432" data-name="Path 13432" d="M168.769,398.02c-.2-.94.537-1.813.168-2.753a1.361,1.361,0,0,0-1.712-.974c-1.041.269-.168.94-.269,1.31a25.2,25.2,0,0,0-.269,4c1.041-.1,1.108-1.477,2.082-1.578Z" transform="translate(-122.902 -261.921)" fill="#e99f83" fill-rule="evenodd"/>
      <path id="Path_13433" data-name="Path 13433" d="M164.6,384.369l.235-.168-.1-.1Z" transform="translate(-117.995 -255.186)" fill="#e99d80" fill-rule="evenodd"/>
      <path id="Path_13434" data-name="Path 13434" d="M90.069,125.2c-.1.034-.269.1-.269.134.067.235.168.168.269-.134Z" transform="translate(-18.113 -83.218)" fill="#df6a3e" fill-rule="evenodd"/>
      <path id="Path_13435" data-name="Path 13435" d="M79.5,148.538c-.2-.2-.4-.437-.6-.638C79.1,148.1,79.3,148.3,79.5,148.538Z" transform="translate(-3.889 -98.296)" fill="#df6a3e" fill-rule="evenodd"/>
      <path id="Path_13436" data-name="Path 13436" d="M77.7,150.438c-.2-.2-.4-.437-.6-.638C77.3,150,77.5,150.237,77.7,150.438Z" transform="translate(-1.484 -99.558)" fill="#df6a3e" fill-rule="evenodd"/>
      <path id="Path_13437" data-name="Path 13437" d="M24.264,91.079c.034-2.552.1-5.137.067-7.689,0-.806-.47-.6-1.175-.638-1.276-.067-3.123.571-3.626-1.612-.3-1.276.806-1.813,1.175-2.753-.4-.5-1.31-.437-1.242-1.545.067-1.276-1.108-1.645-2.183-1.78-1.242-.168-1.578.806-1.947,1.645C13.989,79.7,15,83.322,17.447,84.162c-.806,2.082-2.552.638-3.761,1.041a2.391,2.391,0,0,0-.94,1.209c-.3.6-.269.974.571.839,1.175-.2,1.511-.168.4.873-.873.772-.235,1.242.672,1.377,6.548,1.041,4.734,1.074,3.861,6.447-.034.3-.3.537-.1.873.974-.235,1.914-.5,2.888-.739.1-.1.168-.235.269-.336.336-1.31-1.545-3.056.806-3.962a5.534,5.534,0,0,1,1.511-.369,1.428,1.428,0,0,1,.369-.067.687.687,0,0,1,.269-.269Z" transform="translate(73.547 -49.902)" fill="#e78963" fill-rule="evenodd"/>
      <path id="Path_13438" data-name="Path 13438" d="M25.943,60.93c2.216,1.41,4.432.94,4.869-1.041a1.381,1.381,0,0,0-.537-1.41c-.5-.4-.571.3-.873.537-.269.2-.705.4-.739.1-.067-.772-1.41-1.142-.6-2.082.3-.336.571-.806.3-1.108-1.477-1.746-.034-3.089.47-4.533,1.645.4,2.216,1.31,1.679,2.72.806.47,1.612-.2,2.384.034v-.638c.47-.4,0-.839.034-1.276V51.6c.168-1.511.638-3.156-1.209-4.063-1.477-.269-2.955-.571-2.619-2.686.907-.638,1.242.94,2.082.537.873-1.88-.2-2.955-1.645-3.727A31.657,31.657,0,0,1,25.037,39c-.1-.1-.235-.168-.336-.269a1.856,1.856,0,0,0-.839-.235,1.388,1.388,0,0,0-.772.369c.067,1.175-.47,2.619,1.41,2.921.134.034.369.336.336.437-.6,1.813,1.444,1.88,1.914,2.988-1.377.739-1.511,1.914-1.209,3.291a12.808,12.808,0,0,0,1.108,1.847c1.041,1.31-.839.907-.94,1.545-.336.437-.705.907-.369,1.511h0c.974.907-.034,2.183.571,3.156a4.276,4.276,0,0,1,.6,1.914c.336.437.537.839-.034,1.242a1.309,1.309,0,0,0-.537,1.209Z" transform="translate(61.257 -25.629)" fill="#e28a67" fill-rule="evenodd"/>
      <path id="Path_13439" data-name="Path 13439" d="M66.3,102.875c-1.578-1.612,0-2.216.974-2.988.134-.571-.3-.806-.672-.907-.873-.3-1.712-1.679-2.686-.5-.839,1.041-2.35,2.048-1.578,3.693a3.1,3.1,0,0,1,.235,2.048,3.183,3.183,0,0,0,1.142,3.056l.3-.3c-.1-1.78,1.746-1.847,2.552-2.854a1.375,1.375,0,0,0-.269-1.242Z" transform="translate(13.948 -65.157)" fill="#e78860" fill-rule="evenodd"/>
      <path id="Path_13440" data-name="Path 13440" d="M50.774,107.121c0,.4-.034.839-.034,1.242a7.284,7.284,0,0,0-1.041,4.063,2.575,2.575,0,0,0,.94,1.612c.47-.3.5-.839.705-1.31.907-2.25,1.746-2.988,4.6-4.2-.134-.94-.974-1.712-.806-2.787.1-.705-.5-1.074-1.108-1.276-.739-.269-1.108.336-1.545.772C51.883,105.845,52.084,107.188,50.774,107.121Z" transform="translate(29.475 -69.403)" fill="#de653a" fill-rule="evenodd"/>
      <path id="Path_13441" data-name="Path 13441" d="M14.782,129.258a2.067,2.067,0,0,0,.067-2.518,3.568,3.568,0,0,0-.3-.369,2.086,2.086,0,0,0-1.31-.47c-2.283.6-.907,2.686-1.612,3.929h0c.034.5-.134,1.041.3,1.444,1.343-.067,1.343-2.115,2.854-2.015Z" transform="translate(82.961 -83.683)" fill="#e27145" fill-rule="evenodd"/>
      <path id="Path_13442" data-name="Path 13442" d="M49,73.9c.2-.4.437-.839.638-1.242A9.784,9.784,0,0,0,44.034,69.4c0,.4-.034.839-.034,1.242.269,1.007,1.41,1.142,1.88,1.947.134,1.108,1.276.772,1.847,1.276.4.739.839.1,1.276.034Z" transform="translate(37.693 -46.154)" fill="#e8895f" fill-rule="evenodd"/>
      <path id="Path_13443" data-name="Path 13443" d="M60.974,76.9c.067.907-.873,1.645-.47,2.619a1.165,1.165,0,0,0,.705.437c.336.067.638-.168.5-.5-.235-.873.168-1.914-.739-2.552Z" transform="translate(20.082 -51.136)" fill="#e26f42" fill-rule="evenodd"/>
      <path id="Path_13444" data-name="Path 13444" d="M67.951,127.861a1.272,1.272,0,0,0-.6-1.276c-.4-.739-.672-1.679-1.847-1.276h0l.6,2.518c.2,0,.4.034.6.034Z" transform="translate(12.164 -83.226)" fill="#dd6434" fill-rule="evenodd"/>
      <path id="Path_13445" data-name="Path 13445" d="M43.356,85.956c.571-.672.034-1.545.437-2.317.269-.571-.47-.772-1.007-.839.134,1.074-.47,2.25.571,3.156Z" transform="translate(43.911 -55.054)" fill="#e8895f" fill-rule="evenodd"/>
      <path id="Path_13446" data-name="Path 13446" d="M52.392,80.176c-.4-.705-1.209-.907-1.847-1.276-.369.134-.806.336-.839.739-.067.571.47.47.806.537a.863.863,0,0,0,1.242.034,4.064,4.064,0,0,1,.638-.034Z" transform="translate(33.028 -52.464)" fill="#e26f42" fill-rule="evenodd"/>
      <path id="Path_13447" data-name="Path 13447" d="M39.261,99.142c.369.034.873.571,1.041.067.235-.705-.47-1.007-1.007-1.31,0,.4-.034.839-.034,1.242Z" transform="translate(48.576 -65.084)" fill="#e78963" fill-rule="evenodd"/>
      <path id="Path_13448" data-name="Path 13448" d="M52.842,82.634c-.4,0-.839,0-1.242-.034C52,83.272,52.439,83.272,52.842,82.634Z" transform="translate(31.94 -54.922)" fill="#e8895f" fill-rule="evenodd"/>
      <path id="Path_13449" data-name="Path 13449" d="M15.286,144.669a1.868,1.868,0,0,0-.134-.269c-.235.067-.2.168.134.269Z" transform="translate(81.786 -95.971)" fill="#cd6a2f" fill-rule="evenodd"/>
      <path id="Path_13450" data-name="Path 13450" d="M69.14,14.276A1.141,1.141,0,0,0,67.9,13c-1.007.6-.2,1.276-.034,1.88h0c.705.336,1.041-.067,1.276-.6Z" transform="translate(10.337 -8.691)" fill="#d75d21" fill-rule="evenodd"/>
      <path id="Path_13451" data-name="Path 13451" d="M69.2,10.427h.6C69.6,9.991,69.4,9.957,69.2,10.427Z" transform="translate(9.068 -6.757)" fill="#d75d21" fill-rule="evenodd"/>
      <path id="Path_13452" data-name="Path 13452" d="M31.722,146.8c-.4.235-.672.537-.3.974.067.067.235.134.3.067.571-.3,0-.672,0-1.041Z" transform="translate(59.641 -97.565)" fill="#e47f55" fill-rule="evenodd"/>
      <path id="Path_13453" data-name="Path 13453" d="M75.386,147.469c-.034-.1-.1-.269-.134-.269-.235.067-.2.168.134.269Z" transform="translate(1.506 -97.831)" fill="#df6a3e" fill-rule="evenodd"/>
      <path id="Path_13454" data-name="Path 13454" d="M74.322,148c.034.1.1.269.134.269.2-.067.168-.168-.134-.269Z" transform="translate(2.57 -98.362)" fill="#df6a3e" fill-rule="evenodd"/>
      <path id="Path_13455" data-name="Path 13455" d="M6.676,62.985c.2.772,1.41,1.31.3,2.418-.47.437.739.839.907,1.41.806.067,1.175-.705,2.048-1.007.839,1.712,1.813,3.291,1.679,5.339a1.183,1.183,0,0,0,1.242,1.41c.369-1.746-1.142-3.66.571-5.272.168-.134.067-.6-.4-.47a1.166,1.166,0,0,1-1.511-1.242C11.78,64.059,9.9,65.3,10,64.193a15.39,15.39,0,0,0,.134-2.149c0-.235-.336-.5-.6-.638-.3-.134-.5.034-.739.3-.6.739-.638.739-1.41-.034-.134.067-.269.1-.4.168-.336.336-.537.672-.3,1.142Z" transform="translate(86.4 -40.813)" fill="#dd794b" fill-rule="evenodd"/>
      <path id="Path_13456" data-name="Path 13456" d="M26.317,34.147c.839,2.048,2.888,2.384,4.566,3.156,1.511.672,2.35,1.578,2.25,3.257-.2.6.134.772.672.772a.569.569,0,0,0,0-.772c-.034-1.712.168-3.526-1.847-4.4-.974-.134-1.78-.369-1.377-1.679a1.753,1.753,0,0,0-.437-2.149c-.974.336-1.343-1.645-2.518-.672h-.638a2.423,2.423,0,0,0-.672,2.485Z" transform="translate(59.339 -20.907)" fill="#e27348" fill-rule="evenodd"/>
      <path id="Path_13457" data-name="Path 13457" d="M24.891,58.7a3.855,3.855,0,0,1-.034.638c-.168.537.034.739.571.672l.1-.067a1.4,1.4,0,0,0-.638-1.242Z" transform="translate(68.252 -39.047)" fill="#dd794b" fill-rule="evenodd"/>
      <path id="Path_13458" data-name="Path 13458" d="M20.592,79.4c-.705.4-.067.839-.034,1.276.336.034.873.571,1.041.067.235-.705-.47-1.041-1.007-1.343Z" transform="translate(73.659 -52.796)" fill="#dd794b" fill-rule="evenodd"/>
      <path id="Path_13459" data-name="Path 13459" d="M9.474,124.68c.705-.437.907-1.209,1.276-1.88H9.507a1.327,1.327,0,0,0-.034,1.88Z" transform="translate(88.303 -81.624)" fill="#e27145" fill-rule="evenodd"/>
      <path id="Path_13460" data-name="Path 13460" d="M50.588,22.614c.94-.638.571-1.645.672-2.518-.269-.6-1.007-.571-1.477-.974,1.007-.806,1.914-1.477,2.787-2.183-.4-.2-.839-.4-1.242-.6-.235.2-.437.4-.638.6h0a5.432,5.432,0,0,1-.638.6h0l-.638.638h-.638a.393.393,0,0,1-.638-.034,4.334,4.334,0,0,0,.672-2.485c.4-.3,1.007-.537.6-1.242a3.112,3.112,0,0,0-2.619-.2c-.4,1.142,1.31.5,1.108,1.477-.873.369-1.679.47-2.216-.6-.336-.705-.839-.269-1.31-.168-.4.2-.839.4-1.276.6a13.315,13.315,0,0,1,1.88,2.418c.4.672,1.074,1.645,1.679,1.679,1.88.1,2.015,1.276,2.115,2.653,0,.1.336.2.5.3h.6c.269-.2.269-.5.336-.772a1.626,1.626,0,0,0,.369.806Z" transform="translate(35.068 -9.374)" fill="#de6a3c" fill-rule="evenodd"/>
      <path id="Path_13461" data-name="Path 13461" d="M51.207,15.2c-.2.4-.4.839-.6,1.242.369.067.806.5,1.074.034.3-.5.067-.974-.47-1.276Z" transform="translate(33.306 -10.153)" fill="#d7632a" fill-rule="evenodd"/>
      <path id="Path_13462" data-name="Path 13462" d="M46.8,21.5c.235-.2.437-.4.638-.6C47.237,21.1,47,21.3,46.8,21.5Z" transform="translate(38.956 -13.939)" fill="#d7632a" fill-rule="evenodd"/>
      <path id="Path_13463" data-name="Path 13463" d="M48.7,23.3c.2-.2.437-.4.638-.6C49.137,22.9,48.9,23.1,48.7,23.3Z" transform="translate(36.418 -15.134)" fill="#d7632a" fill-rule="evenodd"/>
      <path id="Path_13464" data-name="Path 13464" d="M50.6,25.138c.2-.2.437-.4.638-.638C51.036,24.735,50.8,24.937,50.6,25.138Z" transform="translate(33.88 -16.33)" fill="#d7632a" fill-rule="evenodd"/>
      <path id="Path_13465" data-name="Path 13465" d="M54.3,26.3c.168.437.4.47.638.034C54.7,26.334,54.5,26.3,54.3,26.3Z" transform="translate(28.938 -17.526)" fill="#d7632a" fill-rule="evenodd"/>
      <path id="Path_13466" data-name="Path 13466" d="M36.2,26.25c.336.168.974.269,1.007.47.336,1.612.94.571,1.511.2.3-1.175-.638-2.518.47-3.626-2.048-.067-2.82,1.175-2.988,2.955Z" transform="translate(50.765 -15.528)" fill="#ce4e0b" fill-rule="evenodd"/>
      <path id="Path_13467" data-name="Path 13467" d="M175.608,286.562a2.116,2.116,0,0,1,.269-2.653c-1.175-.6-2.283-.873-3.156.436-.638.974-1.343.672-2.115.235.6,2.115-.168,4.231-.1,6.346.47.369.974.739,1.444,1.175.5.437,1.041.839,1.645.336.739-.638.94-1.377.067-2.082a.738.738,0,0,1,.034-1.242h0a.9.9,0,0,0,.034-1.276V287.2c-.168-.134-.2-.269-.134-.4s.134-.2.168-.2h.6a.893.893,0,0,0,1.242-.034Z" transform="translate(-131.017 -188.304)" fill="#dd794b" fill-rule="evenodd"/>
      <path id="Path_13468" data-name="Path 13468" d="M178.093,300.2c-.369.034-.873.067-.974.47-.134.672.47.672.94.772.034-.4.034-.806.034-1.242Z" transform="translate(-135.45 -199.457)" fill="#e47c55" fill-rule="evenodd"/>
      <path id="Path_13469" data-name="Path 13469" d="M187.167,307.434a2.215,2.215,0,0,1-.47-.034c-.067.47-.235.974.134,1.41C187.268,308.441,187.1,307.937,187.167,307.434Z" transform="translate(-147.714 -204.24)" fill="#dd794b" fill-rule="evenodd"/>
      <path id="Path_13470" data-name="Path 13470" d="M175.659,296.4c0,.4-.034.839-.034,1.276C176.3,297.273,176.263,296.837,175.659,296.4Z" transform="translate(-132.982 -196.933)" fill="#e47c55" fill-rule="evenodd"/>
      <path id="Path_13471" data-name="Path 13471" d="M172.576,292.8H171.3C171.7,293.4,172.139,293.438,172.576,292.8Z" transform="translate(-127.985 -194.542)" fill="#e47c55" fill-rule="evenodd"/>
      <path id="Path_13472" data-name="Path 13472" d="M177.207,292.8c-.269.067-.369.2-.269.4.034.067.168.134.235.2A3.65,3.65,0,0,1,177.207,292.8Z" transform="translate(-134.497 -194.542)" fill="#e47c55" fill-rule="evenodd"/>
      <path id="Path_13473" data-name="Path 13473" d="M251.748,450.226c1.074-.4,2.082-1.175,3.324-.369a3.9,3.9,0,0,1,.134-.6c1.074-1.41,1.78-3.257,4.1-3.19.974.034,1.209-.974,1.545-1.712.3-.705-.168-1.679.839-2.35,1.007,1.074,2.048,2.25,3.694,2.35,2.015,1.712-.067,2.518-.974,2.619-2.384.269-2.585,4.3-5.641,3.19a2.209,2.209,0,0,0,.2,1.645h0c.3,1.343-.839,2.082-1.31,3.123h-.6c-1.981,2.115-3.929,2.048-5.91-.034a4.445,4.445,0,0,0-1.074-.672,31.541,31.541,0,0,1,1.679-4Z" transform="translate(-248.088 -293.645)" fill="#ecab92" fill-rule="evenodd"/>
      <path id="Path_13474" data-name="Path 13474" d="M236.577,421.095a2.8,2.8,0,0,1-2.216-.672c-.739-.772-1.444-.369-2.182-.034-.705.336.772,2.485-1.377,1.679-.806,1.511-2.283,1.276-3.626,1.612-.974.235-.907,1.477-1.175,2.317a19.848,19.848,0,0,1,4.2,1.914.9.9,0,0,0-.067,1.276,3.308,3.308,0,0,1,3.19-1.175c0-.4.034-.839.034-1.242-.638-.739-2.82-1.578.067-2.183,1.645-.336,2.418-1.545,3.156-2.82v-.672Z" transform="translate(-210.353 -279.019)" fill="#e99d81" fill-rule="evenodd"/>
      <path id="Path_13475" data-name="Path 13475" d="M254.282,447.838a.774.774,0,0,1,.134,1.31,4.005,4.005,0,0,1-2.35,1.175c-3.324-1.007-1.645,1.612-2.115,2.82-1.041-.5-2.317-1.444-3.223-.3-.974,1.175.6,1.679,1.108,2.451.1-.907.571-1.444,1.444-1.041A32.511,32.511,0,0,1,252.234,456h0c.2-.235.436-.4.638-.6h0c.336-.4.907-.269,1.242-.638-.067-1.074.974-1.612,1.31-2.485.839-.907-.336-2.25.672-3.123h0c.537-.672.269-1.209-.2-1.78-.134-.067-.235-.1-.369-.168a1.37,1.37,0,0,0-1.242.638Z" transform="translate(-237.024 -297.099)" fill="#e9a188" fill-rule="evenodd"/>
      <path id="Path_13476" data-name="Path 13476" d="M246.309,444.663c.034-.437.034-.839.067-1.276-.907-.067-1.276.4-1.242,1.242H245.1a.722.722,0,0,0,1.209.034Z" transform="translate(-226.565 -294.562)" fill="#e08865" fill-rule="evenodd"/>
      <path id="Path_13477" data-name="Path 13477" d="M278.238,476.5c1.041.1,1.612.974,2.317,1.578,1.679,1.444,1.947,1.343,3.223-.638.638-.974.873.034,1.209.4-.134.672.3,1.511-.672,1.88-.2.2-.437.369-.672.571-.638-.168-1.242-.94-1.847,0-.6,0-1.242,0-1.847-.034-.2-.2-.437-.369-.638-.6h-.638a.438.438,0,0,1-.638-.034,7.255,7.255,0,0,1-.436-1.377c.2-.571.4-1.142.638-1.746Z" transform="translate(-276.089 -316.561)" fill="#e9a188" fill-rule="evenodd"/>
      <path id="Path_13478" data-name="Path 13478" d="M272.458,471.3c-.571.974-1.578,1.78-1.343,3.123C272.592,473.617,273.029,472.576,272.458,471.3Z" transform="translate(-261.612 -313.107)" fill="#e9a188" fill-rule="evenodd"/>
      <path id="Path_13479" data-name="Path 13479" d="M297.138,485.934c-.2,0-.4-.034-.638-.034C296.7,486.269,296.937,486.269,297.138,485.934Z" transform="translate(-294.586 -322.804)" fill="#e4916e" fill-rule="evenodd"/>
      <path id="Path_13480" data-name="Path 13480" d="M169.4,142.7c-.269.134-.6.537-.47.6.739.336.3-.4.47-.6Z" transform="translate(-124.004 -94.842)" fill="#e79979" fill-rule="evenodd"/>
      <path id="Path_13481" data-name="Path 13481" d="M157.309,100.228c.269-.134.6-.571.47-.6-.739-.336-.3.369-.47.6Z" transform="translate(-108.521 -66.17)" fill="#e38660" fill-rule="evenodd"/>
      <path id="Path_13482" data-name="Path 13482" d="M159.069,101.6c-.1.034-.269.1-.269.134.067.2.134.168.269-.134Z" transform="translate(-110.281 -67.542)" fill="#e38660" fill-rule="evenodd"/>
      <path id="Path_13483" data-name="Path 13483" d="M137.732,32.781c-.1-1.578-.537-2.451-2.283-1.31A20.126,20.126,0,0,1,132.7,32.68q-.3-.453-.6,0a5.88,5.88,0,0,0-.571,1.444,1.8,1.8,0,0,0,.806,1.88,1.765,1.765,0,0,0,2.25-.47c.571-.705,1.477-1.108,1.645-2.183.134-.94.974-.47,1.511-.571Z" transform="translate(-79.778 -20.615)" fill="#d55512" fill-rule="evenodd"/>
      <path id="Path_13484" data-name="Path 13484" d="M147.138,32.314h.6c.034-.638.034-1.242.034-1.88-.4,0-.839,0-1.276-.034a5.6,5.6,0,0,0,.638,1.914Z" transform="translate(-94.858 -20.249)" fill="#e16c3e" fill-rule="evenodd"/>
      <path id="Path_13485" data-name="Path 13485" d="M158.338,32.738,157.7,32.1C157.9,32.335,158.137,32.537,158.338,32.738Z" transform="translate(-109.181 -21.378)" fill="#da632a" fill-rule="evenodd"/>
      <path id="Path_13486" data-name="Path 13486" d="M184.831,119.056c.067.5.1,1.142.806.94.47-.134.873-.739.537-1.175-.369-.5-.873.134-1.343.235Z" transform="translate(-146.251 -78.854)" fill="#e38660" fill-rule="evenodd"/>
      <path id="Path_13487" data-name="Path 13487" d="M187.861,138.169c-.034-.1-.1-.269-.134-.269-.2.034-.168.134.134.269Z" transform="translate(-148.744 -91.653)" fill="#e38660" fill-rule="evenodd"/>
      <path id="Path_13488" data-name="Path 13488" d="M39.542,58.108a15.2,15.2,0,0,0,5.607,3.257c.672-.437,2.048-.437,1.276-1.88a3.31,3.31,0,0,0-1.545-.739c-.2-.067-.907,0-.5-.638a.789.789,0,0,0,.806.1,6.57,6.57,0,0,1,.672-3.761c-.4.034-.806.067-1.209.067-.839,0-1.477,1.645-2.317.571-.672-.873.571-1.578,1.074-2.686-1.276.1-2.115,1.007-3.19.705-1.276,1.511-.336,3.358-.672,5Z" transform="translate(42.185 -34.862)" fill="#e47b52" fill-rule="evenodd"/>
      <path id="Path_13489" data-name="Path 13489" d="M67.735,73.9a1.422,1.422,0,0,1,.235-.168c-.067-.034-.168-.134-.235-.134s-.134.1-.235.168a1.927,1.927,0,0,1,.235.134Z" transform="translate(11.473 -48.944)" fill="#e47f55" fill-rule="evenodd"/>
      <path id="Path_13490" data-name="Path 13490" d="M248.013,453c-1.813.705-.3,2.115-.672,3.123C248.383,455.25,247.812,454.041,248.013,453Z" transform="translate(-228.874 -300.951)" fill="#e69578" fill-rule="evenodd"/>
      <path id="Path_13491" data-name="Path 13491" d="M246.4,447.2h-1.209c.2.638.369,1.276.571,1.948.739-.47.638-1.242.638-1.948Z" transform="translate(-226.618 -297.099)" fill="#e69578" fill-rule="evenodd"/>
      <path id="Path_13492" data-name="Path 13492" d="M235.4,449.8l-.2.1c.1.067.2.168.3.235.034-.067.1-.134.1-.2a2.057,2.057,0,0,1-.2-.134Z" transform="translate(-212.468 -298.826)" fill="#da7541" fill-rule="evenodd"/>
      <path id="Path_13493" data-name="Path 13493" d="M254.342,469.7a1.336,1.336,0,0,0-1.242.638,1.336,1.336,0,0,0,1.242-.638Z" transform="translate(-237.218 -312.044)" fill="#e69475" fill-rule="evenodd"/>
      <path id="Path_13494" data-name="Path 13494" d="M257.438,471.6c-.2.2-.436.4-.638.6C257,472,257.2,471.8,257.438,471.6Z" transform="translate(-241.556 -313.306)" fill="#e69475" fill-rule="evenodd"/>
      <path id="Path_13495" data-name="Path 13495" d="M231.707,425.1c-1.477.537-2.082,2.619-4.164,2.149-.4-.067-1.947.537-1.645,1.78.336,1.343,1.612.974,2.585,1.074,1.78-1.209,3.727-2.317,3.223-5Z" transform="translate(-205.517 -282.419)" fill="#edac95" fill-rule="evenodd"/>
      <path id="Path_13496" data-name="Path 13496" d="M17.277,127.7c.739-.437.638-1.209.672-1.88a2.006,2.006,0,0,1,1.276-1.88c.034-.134.1-.269.134-.369a1.288,1.288,0,0,0-.739-.873c-2.518.6-2.955,1.41-1.847,3.559A3.239,3.239,0,0,1,17.277,127.7Z" transform="translate(77.31 -81.557)" fill="#e47f55" fill-rule="evenodd"/>
      <path id="Path_13497" data-name="Path 13497" d="M14.042,124.614c0-.638.034-1.242.034-1.88a4.281,4.281,0,0,1-.638-.034c-.5.269-.269.907-.638,1.242A1.272,1.272,0,0,0,14.042,124.614Z" transform="translate(83.734 -81.557)" fill="#e47b51" fill-rule="evenodd"/>
      <path id="Path_13498" data-name="Path 13498" d="M15.3,123.292a1.275,1.275,0,0,0,.638-1.242c-.4-.705-.839-.067-1.242,0,.2.4.4.839.6,1.242Z" transform="translate(81.23 -80.907)" fill="#e27145" fill-rule="evenodd"/>
      <path id="Path_13499" data-name="Path 13499" d="M29.343,55.758c-.2-.235-.369-.437-.571-.672-.2-.2-.4-.437-.6-.638-.806-.537-.94-1.679-2.048-2.149-.806,1.175-1.511,2.317-.571,3.794.806,1.242,1.813,1.679,3.19.873l.6-1.209Z" transform="translate(64.337 -34.796)" fill="#eaa07e" fill-rule="evenodd"/>
      <path id="Path_13500" data-name="Path 13500" d="M42.385,66.844a5.846,5.846,0,0,1-.47-.4c-.3-.4-.4-1.041-1.007-1.041-.168,0-.437.369-.571.6-.4.739.168,1.142.6,1.578.772.739,1.746.5,2.653.571a1.143,1.143,0,0,0-1.209-1.31Z" transform="translate(45.016 -43.497)" fill="#e8895f" fill-rule="evenodd"/>
      <path id="Path_13501" data-name="Path 13501" d="M49.638,37.939c-.1-.269-.2-.571-.3-.839-.336.168-.3.5-.336.806a4.282,4.282,0,0,0,.638.034Z" transform="translate(36.017 -24.699)" fill="#e27348" fill-rule="evenodd"/>
      <path id="Path_13502" data-name="Path 13502" d="M65.645,119.423c.6.437,1.242.839,1.847,1.276.907-1.343.638-2.888.705-4.4-.839.739-1.813-.269-2.753.2-.5.974.5,1.914.2,2.921Z" transform="translate(11.985 -77.306)" fill="#e47f55" fill-rule="evenodd"/>
      <path id="Path_13503" data-name="Path 13503" d="M54.394,112.686a1.928,1.928,0,0,0,.638.437c.2.034.336-.269.2-.47a1.376,1.376,0,0,0-.672-.571c-.168-.067-.3.235-.168.6Z" transform="translate(28.575 -74.498)" fill="#e47f55" fill-rule="evenodd"/>
    </g>
  </g>
</svg>
