<svg xmlns="http://www.w3.org/2000/svg" xmlns:xlink="http://www.w3.org/1999/xlink" width="140.931" height="140.93" viewBox="0 0 140.931 140.93">
  <defs>
    <clipPath id="clip-path">
      <rect id="Rectangle_1234" data-name="Rectangle 1234" width="140.931" height="140.93" transform="translate(357.695 114.173)" fill="#114048"/>
    </clipPath>
  </defs>
  <g id="Group_3274" data-name="Group 3274" transform="translate(-357.695 -114.173)">
    <g id="Group_3203" data-name="Group 3203">
      <g id="Group_3202" data-name="Group 3202" clip-path="url(#clip-path)">
        <path id="Path_13504" data-name="Path 13504" d="M415.557,215.317l-.08-.1c-.633-.333-1.611.132-2.029-.683-.077-.151-.129-.311-.278-.688.851.182,1.544.275,2.189.487.525.174.28.565.121.881l.08.1Zm16.235-3.948c.363-.05.73-.1,1.211-.16-.1.215-.134.408-.209.422-.338.063-.691.074-1.038.1l.033-.366Zm-11.04,9.19a44.944,44.944,0,0,0,7.354-.223,32.111,32.111,0,0,0,6.976-1.594,23.907,23.907,0,0,0,7.376-4.044c-1-.526-.969-1.355-1.38-2.018-.685.005-1.365.049-1.993-.006-.68-.058-.622-.4-.322-.713a3.506,3.506,0,0,1,.873-.033c-.033-.273.107-.713-.135-.782a15.953,15.953,0,0,0-2.662-.512,10.345,10.345,0,0,0-1.815.135c-.19-.452-.327-.876-.479-1.272a11.6,11.6,0,0,1-2.012.743c-.364.1-.727.19-1.093.27-.108.176-.2.336-.3.5l-.438.308-.174-.493-.118-.1q-.74.132-1.481.223a1.317,1.317,0,0,1-1.33.134.079.079,0,0,1-.025-.005c-.311.025-.625.044-.939.061.174.556,1.165.982-.011,1.6-.669-.487-1.307-1.016-1.979-1.547-.653,0-1.3-.006-1.952-.036-.713.341-1.049.187-1.286-.083-.347-.027-.694-.058-1.038-.1-1.084-.121-2.164-.264-3.246-.413-.074.11-.148.22-.209.33l1.176.639-.058.165a2.56,2.56,0,0,0-.807-.016c-.237.074-.556.292-.572.459s.253.471.468.524a6.876,6.876,0,0,0,1.373.03l-.589.628h0c.757.476,1.176-.262,1.845-.38v-.953c.586-.377,1.005-.1,1.432.149a1.137,1.137,0,0,0,1.5-.072l.052.355c-.132.2-.209.455-.41.57a3.6,3.6,0,0,1-1.288.529,1.255,1.255,0,0,0-1.289,1.321l-.809-.691-1.074,1.344c-.787-.138-.842-.526-.619-.994.192-.4.437-.788.658-1.178l-1.476-.014c-.479-.008-.939-.011-1.4.025-1.537.118-2.007-.19-2.175-1.606a2.069,2.069,0,0,0-.909-.1.865.865,0,0,0-.647.561c-.019.039-.041.077-.063.116a.589.589,0,0,0-.052.118,2.188,2.188,0,0,1-1.446,1.5,2.5,2.5,0,0,0,.1.443,2,2,0,0,0,.27.364c-.386.492-.771.985-1.11,1.42l-1.588-1.423-.135.22c.1.168.212.331.319.5a2.565,2.565,0,0,1,.27.512.774.774,0,0,1-.154.694,12.2,12.2,0,0,0,1.817,1.236,20.686,20.686,0,0,0,6.508,2.166,36.206,36.206,0,0,0,4.717.513Z" fill="#114048"/>
        <path id="Path_13505" data-name="Path 13505" d="M443.317,213.937c.275-.262.542-.529.8-.807-.358.094-.715.188-1.076.281.094.179.187.353.278.526" fill="#114048"/>
        <path id="Path_13506" data-name="Path 13506" d="M406.191,215.064a9.374,9.374,0,0,0,1.063,1.176c-.32-.752-.661-1.129-1.063-1.176" fill="#114048"/>
        <path id="Path_13507" data-name="Path 13507" d="M445.662,210.782l.143.063c.1-.165.2-.325.3-.495.025-.044.044-.091.066-.138a1.944,1.944,0,0,0-.5.567Z" fill="#114048"/>
        <path id="Path_13508" data-name="Path 13508" d="M438.094,155.1c-.036-.95-.061-.925-1.2-1.754-.005-.022,0-.036-.005-.058-.3.138-.6.273-.889.413a.708.708,0,0,0,.228.339c.6.5,1.228,1.319,1.861,1.057Z" fill="#114048"/>
        <path id="Path_13509" data-name="Path 13509" d="M435.668,153.867c-.14.066-.278.135-.416.2.2.157.41.314.617.465a1.556,1.556,0,0,0-.2-.669" fill="#114048"/>
        <path id="Path_13510" data-name="Path 13510" d="M433.97,155.246c.463.083.911.052,1.382.121a2.127,2.127,0,0,1,.771.4,7.914,7.914,0,0,1,.672.619c.459-.286.3-.746-.149-1.236a5.907,5.907,0,0,0-.776-.609c-.014.7-.466.331-.777.042a1.432,1.432,0,0,1-.242-.311l-.369.181c-.311.154-.625.292-.942.422C433.689,155.026,433.843,155.221,433.97,155.246Z" fill="#114048"/>
        <path id="Path_13511" data-name="Path 13511" d="M444.266,150.794a2.121,2.121,0,0,0-.5.036c-.044.008-.088.019-.132.027.168.105.336.21.5.32C444.194,151.02,444.238,150.9,444.266,150.794Z" fill="#114048"/>
        <path id="Path_13512" data-name="Path 13512" d="M441.153,151.518c-.2.069-.407.141-.608.218l-.124.05a.651.651,0,0,0,.732-.268" fill="#114048"/>
        <path id="Path_13513" data-name="Path 13513" d="M411.741,210.565a.154.154,0,0,1,.1-.049.072.072,0,0,1,.044.019,1.782,1.782,0,0,1,.127.149,1.7,1.7,0,0,1-.157.126.105.105,0,0,1-.05.014c-.03,0-.06-.03-.088-.063s-.055-.077-.08-.108c.033-.024.066-.06.1-.091Zm-4.463,4.375.135-.22a1.965,1.965,0,0,0,.272-1.809c-.352-1.046.592-1.726,1.68-1.363l1.935.636a.854.854,0,0,1,.647-.562,2.041,2.041,0,0,1,.909.1l.641-.005.92-1.046.4-.57c-.389-.108-.777-.221-1.165-.333a4.428,4.428,0,0,1-3.29-4.229,4.708,4.708,0,0,1,.986-3.188c-.031-.031-.058-.055-.088-.088-.435.165-.84.319-1.358.514-.22-.616-.426-1.189-.636-1.773a15.247,15.247,0,0,0-3,3.133,9.74,9.74,0,0,0-1.872,5.884c0,.1,0,.19.006.286l.253-.115c-.027-.54-.052-1.044-.08-1.548l.342-.1c.415.694.828,1.387,1.247,2.084.823-1.569.936-1.619,2.579-1.013-.093.743-.759.559-1.327.682.391.813-.209,1.165-.765,1.515-1.162-.8-1.5-1.033-2.158-.545a7.334,7.334,0,0,0,.333,1.283,2.515,2.515,0,0,0,.564-.259c.8.815.752,2.139,1.892,2.64Z" fill="#114048"/>
        <path id="Path_13514" data-name="Path 13514" d="M434.35,203.643h0c-.008-.038-.038-.082-.014-.113s.105-.046.16-.068l-.143.184Zm-5.341-2.307c-.179.041-.358.075-.542.1a2.2,2.2,0,0,1-1.3-.217,2.173,2.173,0,0,0-1.985-.311c.334-.477.669-.953,1.047-1.495.669.225,1.327.473,2.012.658a2.123,2.123,0,0,0,.862-.006,3.435,3.435,0,0,1,.862-.091c.184.025.289.122.4.334a6.228,6.228,0,0,1,.248.586c-.54.151-1.066.322-1.6.443Zm-4.3-3.562c-.03-.02-.074-.033-.09-.058s.011-.053.016-.08h.11Zm-4.317-1.069c-.112-.121-.225-.242-.327-.371a.785.785,0,0,1,.121-.1c.019-.014.039-.031.055-.042l.328.383-.179.132Zm-1.748,4.612q-1.192-.7-1.123-1.58l.919.391c.168-.248.325-.479.51-.749.093.1.264.2.245.261-.157.545-.35,1.082-.554,1.677Zm19.14,3.155c-.171.834,1.008,1.126,2.147,1.432a16.732,16.732,0,0,0,4.048-.386c-.758-.644-.747-.616-2.547-.143.118-.383.217-.705.319-1.027.35-.146.7-.3,1.041-.457-.344.154-.691.311-1.041.457.35-.146.7-.3,1.041-.457.895-.977.8.041,1.184.113.393.03.79.069,1.184.091a1.574,1.574,0,0,1,.289-.209,1.741,1.741,0,0,1,.567-.218,3.365,3.365,0,0,1,.933-.027,8.754,8.754,0,0,0-.388-1.088.374.374,0,0,1-.1-.253.079.079,0,0,0-.008-.022c-.1-.212-.206-.419-.319-.622-.51-.08-.785-.273-.449-.755a11.123,11.123,0,0,0-1.52-1.842.665.665,0,0,1-.2.193,2.893,2.893,0,0,1-1.193.132.3.3,0,0,1-.242-.165c-.217-1.027-1.22-1.06-2.626-.735.187-.749.344-1.4.479-2.015a18.768,18.768,0,0,0-4.235-1.36,49.134,49.134,0,0,0-6.893-.78c0,.413.082.824.1,1.168-1.164.275-2.312.542-3.461.812-.465.168-.5-.9-1.291-.193.13.185.276.388.466.658l-1.6.964c-.267-.925-.493-1.7-.71-2.456-.837.061-1.616.116-2.39.171-.35-1.707-.8-1.388-2.943-1.5.052.295.1.564.157.873.652.113,1.368-.5,1.908.272-.138.526-.152,1.159-1.124,1.157-.187,0-.435.308-.55.52a10.3,10.3,0,0,0-.474,1.236c-.27-.093-.537-.19-.8-.283s-.529-.182-.79-.262c-.132-.039-.264-.077-.4-.11a5.934,5.934,0,0,0-1.214-.193l-.732.237.118.344c.127.154.254.306.562.683a1.849,1.849,0,0,0-1.971.677c.278.226.57.438.864.642a2.316,2.316,0,0,1,.328-.587c.1-.132.625.019.867.036-.146.443-.259.782-.361,1.093.113.069.223.14.336.206a20.6,20.6,0,0,0,4.582,1.939,4.62,4.62,0,0,1,2.574-2.5c.209.349.418.694.66,1.1a3.229,3.229,0,0,1,3.034,1c-.809.207-1.439.366-2.411.611a6.216,6.216,0,0,1,1.784.832c.388.041.779.077,1.167.113.085-.094.171-.187.256-.278a.667.667,0,0,1,1.082-.02c-.113.13-.217.256-.328.38q.657.05,1.314.094c.735.047,1.47.06,2.208.066a.621.621,0,0,1,.044-.055.571.571,0,0,1,.3-.2.549.549,0,0,1,.443.055.505.505,0,0,1,.166.2l.005.014h.27a8.1,8.1,0,0,1,2.692.41l1.817.126c.647.042,1.289.077,1.974.1Z" fill="#114048"/>
        <path id="Path_13515" data-name="Path 13515" d="M443.127,198.151c-.1-.077-.2-.151-.3-.229-.025.009-.047.017-.069.023.143.077.264.145.372.2Z" fill="#114048"/>
        <path id="Path_13516" data-name="Path 13516" d="M436.315,187c.063.1.132.2.2.3.045-.027.089-.052.13-.08.239-.157.465-.325.694-.493C437.089,186.64,436.835,186.75,436.315,187Z" fill="#114048"/>
        <path id="Path_13517" data-name="Path 13517" d="M420.89,180.509a7.52,7.52,0,0,1-.683.5c-.553.339-.82.2-1.682-.344-.22-.14-.465-.239-.7-.361l-.641-.344c.429-.374.828-.721,1.233-1.071.333-.283.672-.57,1.159-.327.625.3.157.738.119,1.219a1.429,1.429,0,0,1,.611.011.771.771,0,0,1,.311.168.742.742,0,0,1,.118.141,1.114,1.114,0,0,1,.152.4Zm14.093,7.062.16-.223c-.278-.187-.521-.5-.832-.545a2.2,2.2,0,0,1-2.153-1.883c-.041-.267-.294-.507-.495-.84a1.059,1.059,0,0,1,1.28.534,1.367,1.367,0,0,0,1.748.587c.642-.234.628-.537.014-.8-1.121-.127-1.178-.187-1.335-1.313.4.063.76.121,1.117.176.279-.33.554-.663.868-1.06a3.743,3.743,0,0,1-.683-.977,1.48,1.48,0,0,1-.008-1.184c-.061-.088-.124-.176-.188-.27s-.132-.19-.206-.294c-.325.137-.644.269-1.013.426-.13-.173-.314-.311-.309-.44.025-.5.108-1,.179-1.688.449.113.857.22,1.264.311-.072-.187-.1-.506-.217-.539-.634-.174-.738-.716-.967-1.168l-.589-.187A9.845,9.845,0,0,1,431.1,179.1a6.685,6.685,0,0,1-2.178,1.87,2.341,2.341,0,0,0,1.7,1.294c.044.509-.13.881-.793.713a1.58,1.58,0,0,1-.735-.311c-.336-.353-.562-.7-1.206-.507-.185.058-.537-.372-.824-.586l.02-.017a6.6,6.6,0,0,1-2.079-.038,6.53,6.53,0,0,1-2.7-1.118c-.151,0-.3.005-.481.008.044-.116.068-.215.093-.3a8.761,8.761,0,0,1-2.423-3.1c-.049-.107-.088-.22-.137-.327h-.047c-.314.468-.5.693-.743.762a1.86,1.86,0,0,1-.97-.151l-.264-.683a3.879,3.879,0,0,1-.432-.209,1.05,1.05,0,0,0-.143-.055.513.513,0,0,0-.143-.022c-.144,0-.287.077-.427.305.468.482.936.967,1.489,1.537-1.467.187-.908,1.844-1.965,2.516l-.559-.8-.835.011-.132.256c.859.846,1.724,1.688,2.66,2.561.322-.4.531-.661.834-1.035.931.586,1.834,1.175,2.811,1.753.3-.272.584-.531.975-.889.195.446.371.848.564,1.286.931-.022.961-.917,1.379-1.349.562.4,1.088.768,1.625,1.115a3.369,3.369,0,0,0-2.99,1.288q.589.483,1.167.953a1.1,1.1,0,0,0,.782-1.561c.823.088,1.531.132,2.324.2-.053.856.41,1.181,1.233,1.228a6.753,6.753,0,0,1,1.25.292c.625.848.121,1.668,0,2.662.639-.281,1.1-.507,1.542-.716a2.623,2.623,0,0,1,.633-.223,1.769,1.769,0,0,1,.62-.022,1.575,1.575,0,0,1,1.021.628c.176.217.361.435.537.655.529-.2,1.049-.424,1.558-.672a11.483,11.483,0,0,1-1.305-.7c.644,0,1.11-.024,1.58-.035Z" fill="#114048"/>
        <path id="Path_13518" data-name="Path 13518" d="M411.848,200.133l-.039-.011c.149.187.3.366.457.531a.645.645,0,0,0-.418-.52" fill="#114048"/>
        <path id="Path_13519" data-name="Path 13519" d="M438.4,206.438c-.556-.424-1.11-.848-1.743-1.357-.228.135-.46.264-.7.4a2.692,2.692,0,0,1,.65,1.5,1.606,1.606,0,0,1-.174,1.011c0,.005-.005.008-.008.014a4.73,4.73,0,0,1,1.264.209c.258-.647.481-1.2.71-1.773Z" fill="#114048"/>
        <path id="Path_13520" data-name="Path 13520" d="M411.837,193.795c-.333.273-.573.468-.928.757-.385-.63-.727-1.186-1.068-1.745l.228-.289a3.951,3.951,0,0,0,1.729.961,2.993,2.993,0,0,1,1.7,1.2c-.424.25-.818.484-1.341.8-.113-.6-.2-1.063-.322-1.685Zm3.257,1.225a1.792,1.792,0,0,1,.87-.06,6.265,6.265,0,0,1,1.269.317,1.221,1.221,0,0,1-1.6.261c-.082.259-.085.592-.231.661a5.052,5.052,0,0,1-1.14.25c.108-.787.367-1.25.835-1.429Zm2.417-2.684c.129-.066.355.025.611.052l-1.509,1.41a2.006,2.006,0,0,1,.9-1.459Zm-4.785-17.078c-1,.32-1.4,1.193-1.847,1.977q-1.014-.237-.854-1.065l-1.817.187c-.4-.226-.336-.647.091-1.2,1.013.367,2.059.658,2.475-.735.765.044,1.468.086,2.269.13-.121.283-.171.655-.32.7Zm4.38,8.252c.35.275.678.531,1.005.79-.839.922-1.308-.4-2.043-.331.339-.148.675-.3,1.036-.457Zm6.437,12.237c.066-.055.135-.151.2-.148a.083.083,0,0,1,.047.019,1.327,1.327,0,0,1,.135.143c-.016.014-.033.03-.049.047-.05.049-.1.1-.149.1a.112.112,0,0,1-.047-.017,1.327,1.327,0,0,1-.135-.143Zm-10.9.829s.008.138.011.212l-.5.017c-.243.481.124.652.479.831l.9.1-.118-.345a.741.741,0,0,1-.1-.272c-.027-.245.149-.41.46-.468.083-.017.243.327.366.5a5.953,5.953,0,0,1,1.215.192c.132.033.264.072.4.111.264.079.526.167.79.261s.532.19.8.284a10.455,10.455,0,0,1,.474-1.237c.116-.212.366-.52.551-.52.971,0,.985-.63,1.123-1.156-.54-.777-1.256-.16-1.908-.273-.055-.308-.1-.578-.157-.872,2.139.11,2.593-.21,2.943,1.5l2.39-.17c.217.754.443,1.53.71,2.455l1.6-.963c-.19-.27-.336-.474-.466-.658.791-.711.826.36,1.292.192l3.46-.812c-.022-.344-.1-.754-.1-1.167l-.24-.017c-.446-.024-.895-.052-1.341-.085-1.049-.08-2.1-.184-3.146-.242a15.211,15.211,0,0,1-2.952-.4,8.008,8.008,0,0,1-3.714-2.048c-.658-.011-1.338-.025-2.037-.036.038-.614.074-1.151.107-1.7l1.068-.1a.965.965,0,0,1,.091-.327c-.223-.331-.4-.6-.564-.843,1.008-.793,1.451-.842,2.238-.267.13.094.174.3.24.468a1.4,1.4,0,0,1,.143.047,21.118,21.118,0,0,0,6.957,1.468c.107.005.215,0,.319,0l-.5-.221c.744-.8.8-.87,1.826.157.727-.074,1.448-.192,2.166-.316a17.988,17.988,0,0,0,3.235-.876c-.176-.22-.36-.438-.537-.655a1.594,1.594,0,0,0-1.021-.628,1.919,1.919,0,0,0-.619.022,2.615,2.615,0,0,0-.634.223c-.443.212-.9.438-1.541.716.123-.994.627-1.814,0-2.662a6.793,6.793,0,0,0-1.25-.292c-.823-.047-1.285-.375-1.233-1.228-.793-.069-1.5-.113-2.324-.2a1.1,1.1,0,0,1-.782,1.561c-.382-.314-.773-.631-1.167-.953a3.369,3.369,0,0,1,2.99-1.288c-.534-.35-1.06-.711-1.624-1.115-.416.432-.449,1.327-1.38,1.349-.192-.438-.366-.84-.564-1.286-.394.358-.677.617-.975.889-.977-.578-1.88-1.17-2.811-1.753-.3.374-.512.636-.834,1.035-.936-.87-1.8-1.715-2.659-2.561l.132-.256.834-.011a14.682,14.682,0,0,0-.162-1.712c-.152-.735,0-1.162.817-1.231.135-.014.254-.2.38-.311.141-.228.284-.306.427-.306a.508.508,0,0,1,.143.023.9.9,0,0,1,.143.055,4.075,4.075,0,0,0,.433.209l.264.683a1.859,1.859,0,0,0,.969.151c.248-.069.432-.295.743-.763l.025-.052c-.038-.085-.071-.173-.107-.259l-.278-.14c-.815.528-1.322-.1-2.12-.562l1.14-.3c-.358-.2-.581-.322-.892-.5a4.343,4.343,0,0,1,.418-.446c.4-.333.8-.655.259-1.382a2.4,2.4,0,0,1-.309.721c-.446.441-.611,1.272-1.555,1.085-.3-.055-.68.278-1.093.463.143.3.261.545.377.787-.113.063-.209.154-.248.132-.9-.449-.93-.523-.762-1.583l.738-.066c.03,0,.052-.063.151-.193l-2.7-1.126a1.014,1.014,0,0,1-1.5.443c-.237-.121-.616.011-.922.072a6.315,6.315,0,0,0-.829.311c.055-.611.1-1.079.141-1.544l-.105.068.105-.074c.322-.493.663-.617,1.093-.1a2.277,2.277,0,0,0,.52.35c.515-.471,1.024-.95,1.553-1.454.848.171.41,1.5,1.522,1.693a5.922,5.922,0,0,1-.4-1.585,5.579,5.579,0,0,1,.539-1.5c-.041-.077-.154-.294-.291-.553l.542-.388c-.118-.24-.24-.49-.35-.716.273-.391.512-.735.755-1.079l-.678-.353c-.363.446-.729.895-1.09,1.336-.534-.069-.556-.466-.289-.708a13.566,13.566,0,0,1,1.589-1.1l.121-.229.446-.938-.631.129-.6.124c-.19.289-.377.322-.565.264a.91.91,0,0,1-.137-.058c-.094-.046-.185-.107-.278-.157-.047-.024-.094-.049-.138-.068l-.341.123a2.241,2.241,0,0,1-.777,1.969c-.275,0-.548,0-.815,0s-.534,0-.8,0v.011c.614.234,1.129.81,1.958.584.033.366.066.716.11,1.184.429-.179.746-.314,1.057-.443.507.922.322,1.269-.9,1.775-.6-.324-.242-1.4-1.159-1.541-.583.495.24,1.569-.856,1.888a3.083,3.083,0,0,1,.292-2.315c-.581.168-1.008.289-1.539.443.215.507.407.967.6,1.424-.771,1.869-1.208,2.439-2.067,2.23,0,.071-.006.146-.006.217a12.715,12.715,0,0,0,.273,2.684,13.548,13.548,0,0,0,.5,1.7c.33-.017.583-.028.837-.039-.212.422-.427.529-.686.444a17,17,0,0,0,1.4,2.714,1.143,1.143,0,0,1,.432.658,24.226,24.226,0,0,0,1.558,2.024.45.45,0,0,0,.064.038c.134-1.115-1.154-2.279.228-3.353.1.154.2.308.3.465.118.176.239.355.4.6l.906-.419c.1.79.19,1.492.281,2.194a1.242,1.242,0,0,0,.126.042h.011a.705.705,0,0,0,.218.022.369.369,0,0,0,.182-.069.465.465,0,0,0,.154-.311,8.546,8.546,0,0,0-.025-1.17c.325.377.545.517.578.694a15.253,15.253,0,0,1,.141,1.536c-.573-.017-1.157-.03-1.74-.047-.378.1-.568.35-.309.661a19.143,19.143,0,0,0,1.594,1.707,2.111,2.111,0,0,1,.865,1.541.627.627,0,0,1-.8-.179,12.057,12.057,0,0,0-1.321.636c1.354.435,1.456,1.548,1.492,2.7.019.6.1,1.2.135,1.624-.4.546-.711.967-1.035,1.407a1.11,1.11,0,0,1-.884-1.156,1.421,1.421,0,0,0-.763-1.379,2.559,2.559,0,0,1-.366-.389l.275-.19c.287.011.573.022.923.039.055-.231.11-.474.184-.79-.515-.163-1.01-.32-1.553-.49-.914.856-2.062,1.519-2.037,2.968a2.715,2.715,0,0,1-.383.024,5.377,5.377,0,0,0-.234,1.063l.036.017-.038.008a5.293,5.293,0,0,0,.162,1.968,6.1,6.1,0,0,0,.432,1.132c.826.08,1.644.173,2.5.253a2.849,2.849,0,0,1,.369-.005Z" fill="#114048"/>
        <path id="Path_13521" data-name="Path 13521" d="M407.867,215.947a2.917,2.917,0,0,0-.27-.512c-.1-.165-.217-.328-.319-.5-1.14-.5-1.093-1.825-1.892-2.64a2.588,2.588,0,0,1-.564.259,9.383,9.383,0,0,0,.776,1.646,8.744,8.744,0,0,0,.592.862c.4.05.744.424,1.063,1.176.149.137.3.272.457.4a.764.764,0,0,0,.154-.694Z" fill="#114048"/>
        <path id="Path_13522" data-name="Path 13522" d="M406.65,211.818c.556-.35,1.156-.7.765-1.514.568-.124,1.234.058,1.327-.683-1.64-.606-1.753-.553-2.579,1.013-.419-.7-.832-1.393-1.247-2.084l-.342.1c.025.5.052,1.007.08,1.547l-.253.116a6.753,6.753,0,0,0,.088.958c.658-.488,1-.259,2.158.545Z" fill="#114048"/>
        <path id="Path_13523" data-name="Path 13523" d="M414.6,210.8c.061.044.107.088.1.127-.069.633-.179,1.266-.314,2.147-.4-.617-.65-.988-.892-1.363l-.641.006c.165,1.415.635,1.723,2.174,1.605.466-.036.928-.033,1.4-.025l1.475.014c.165-.174.328-.35.589-.628a6.875,6.875,0,0,1-1.373-.03c-.215-.052-.485-.35-.468-.523s.335-.386.572-.46a2.562,2.562,0,0,1,.807.017l.058-.166-1.176-.633c-.226.364-.429.807-1.142.589a.842.842,0,0,1,1.142-.592c.061-.11.135-.22.209-.33-.192-.028-.385-.052-.578-.077a13.288,13.288,0,0,1-1.729-.377l-.4.57c.049.044.123.088.184.132Z" fill="#114048"/>
        <path id="Path_13524" data-name="Path 13524" d="M425.005,202.033a3.236,3.236,0,0,0-3.034-1c-.245-.4-.451-.752-.661-1.1a4.628,4.628,0,0,0-2.574,2.5,28.712,28.712,0,0,0,4.375.9c.421.055.845.1,1.269.146a6.2,6.2,0,0,0-1.784-.832c.972-.247,1.6-.407,2.412-.611Z" fill="#114048"/>
        <path id="Path_13525" data-name="Path 13525" d="M428.931,210.942c-.449.055-.9.1-1.355.129a.071.071,0,0,1,.025.006,1.317,1.317,0,0,0,1.33-.135" fill="#114048"/>
        <path id="Path_13526" data-name="Path 13526" d="M426.638,211.132c-.438.022-.878.041-1.316.05-.223,0-.449,0-.672,0,.672.534,1.311,1.063,1.98,1.548,1.173-.617.184-1.047.011-1.6Z" fill="#114048"/>
        <path id="Path_13527" data-name="Path 13527" d="M422.7,211.148c-.43-.018-.856-.046-1.286-.082.237.27.573.424,1.286.082" fill="#114048"/>
      </g>
    </g>
    <path id="Path_13528" data-name="Path 13528" d="M417.908,213.315v0l0,0Z" fill="#114048"/>
    <g id="Group_3205" data-name="Group 3205">
      <g id="Group_3204" data-name="Group 3204" clip-path="url(#clip-path)">
        <path id="Path_13529" data-name="Path 13529" d="M431.139,211.008c.1-.16.2-.319.3-.5-.341.078-.685.144-1.03.207l.119.105.611.187Z" fill="#114048"/>
        <path id="Path_13530" data-name="Path 13530" d="M439.776,208.235h0l.286-.058.058-.011.012.276c-.032,0-.062,0-.1.005a.545.545,0,0,1-.242-.005.064.064,0,0,1-.028-.039.77.77,0,0,1,.009-.17Zm.622-1.431c.2.151.393.314.583.476l-.514.215a5.751,5.751,0,0,1-.364-.551,1.378,1.378,0,0,1,.3-.14m-3.559,3.832a15.9,15.9,0,0,1,2.661.512c.243.072.1.512.135.782q.636.075,1.272.146c.424.047.851.088,1.28.127.355-.174.7-.424,1.052-.57a1.522,1.522,0,0,1,.358-.1,1.371,1.371,0,0,0,1.214-.8c-.8-.619-.754-.8.419-1.079a7.9,7.9,0,0,0,1.384-.435,9.04,9.04,0,0,0,.639-3.48c-.617.141-1.343.141-2.084.248.237-.369.383-.8.534-.826a2.938,2.938,0,0,0,1.457-.548,8.425,8.425,0,0,0-.2-.944c-.732.795-.958.845-1.8.421-.394-.022-.79-.058-1.184-.091l-1.184-.113c-.344.157-.691.311-1.04.457-.1.322-.2.645-.32,1.027,1.8-.476,1.79-.5,2.547.143a16.864,16.864,0,0,1-4.047.386c-1.137-.308-2.316-.6-2.148-1.432-.685-.025-1.327-.06-1.974-.1l-1.817-.126a6.014,6.014,0,0,1,.953.426,3.772,3.772,0,0,1,1.013.8c.24-.132.468-.261.7-.4.634.509,1.187.933,1.743,1.357-.228.57-.452,1.126-.71,1.773a4.731,4.731,0,0,0-1.264-.209,2.9,2.9,0,0,1-.889.925,7.221,7.221,0,0,1-1,.573c.154.4.292.82.479,1.272a10.339,10.339,0,0,1,1.814-.135Z" fill="#114048"/>
        <path id="Path_13531" data-name="Path 13531" d="M409.365,211.548c-1.087-.363-2.029.319-1.679,1.363a1.961,1.961,0,0,1-.273,1.809L409,216.143c.338-.432.724-.928,1.109-1.421a1.968,1.968,0,0,1-.27-.363,2.5,2.5,0,0,1-.1-.443,2.182,2.182,0,0,0,1.446-1.5.494.494,0,0,1,.052-.118c.022-.039.044-.077.063-.116l-1.935-.636" fill="#114048"/>
        <path id="Path_13532" data-name="Path 13532" d="M417.872,215.487c.341-.43.7-.872,1.074-1.344.278.241.471.4.809.692a1.257,1.257,0,0,1,1.289-1.322,3.546,3.546,0,0,0,1.288-.529c.2-.114.278-.373.41-.57l-.052-.354a1.141,1.141,0,0,1-1.5.072c-.427-.248-.846-.527-1.432-.149v.953c-.669.117-1.088.856-1.845.379-.22.392-.465.776-.658,1.178-.223.465-.168.855.62.994Z" fill="#114048"/>
      </g>
    </g>
    <path id="Path_13533" data-name="Path 13533" d="M417.908,213.318h0v0Z" fill="#114048"/>
    <g id="Group_3207" data-name="Group 3207">
      <g id="Group_3206" data-name="Group 3206" clip-path="url(#clip-path)">
        <path id="Path_13534" data-name="Path 13534" d="M442.188,212.2h0c-.427-.039-.853-.08-1.28-.127s-.851-.093-1.272-.146a3.608,3.608,0,0,0-.873.033c-.3.312-.358.656.322.714.628.052,1.308.011,1.994.005.407.661.382,1.492,1.379,2.018.14-.116.283-.228.421-.35s.292-.275.438-.413c-.094-.176-.185-.349-.278-.525.36-.094.718-.185,1.076-.281a13.5,13.5,0,0,0,1.038-1.278l-.355.215C443.653,212.745,443.628,212.734,442.188,212.2Z" fill="#114048"/>
        <path id="Path_13535" data-name="Path 13535" d="M415.359,214.331a22.211,22.211,0,0,0-2.189-.487c.152.374.2.537.278.688.416.815,1.4.352,2.029.683.16-.32.4-.708-.121-.884Z" fill="#114048"/>
        <path id="Path_13536" data-name="Path 13536" d="M433.006,211.206c-.485.063-.848.113-1.211.16l-.033.366c.347-.03.7-.041,1.038-.1.074-.014.107-.206.209-.421Z" fill="#114048"/>
      </g>
    </g>
    <path id="Path_13537" data-name="Path 13537" d="M430.7,211.316l.438-.308-.611-.187Z" fill="#114048"/>
    <path id="Path_13538" data-name="Path 13538" d="M415.48,215.215l.08.1-.08-.105Z" fill="#114048"/>
    <g id="Group_3209" data-name="Group 3209">
      <g id="Group_3208" data-name="Group 3208" clip-path="url(#clip-path)">
        <path id="Path_13539" data-name="Path 13539" d="M446.562,202.553c-.036-.085-.066-.171-.105-.253a.374.374,0,0,0,.105.253" fill="#114048"/>
        <path id="Path_13540" data-name="Path 13540" d="M445.169,205.989c.741-.107,1.47-.11,2.084-.248,0-.165-.005-.327-.019-.495-.017-.212-.044-.422-.077-.628a2.932,2.932,0,0,1-1.457.548c-.151.022-.294.454-.534.826Z" fill="#114048"/>
        <path id="Path_13541" data-name="Path 13541" d="M444.812,210.733l.851.05a1.9,1.9,0,0,1,.5-.568q.251-.49.448-.993a8.617,8.617,0,0,1-1.385.435c-1.172.275-1.216.459-.418,1.079Z" fill="#114048"/>
        <path id="Path_13542" data-name="Path 13542" d="M445.662,210.782l-.851-.05a1.371,1.371,0,0,1-1.214.8,1.536,1.536,0,0,0-.358.1c-.352.146-.7.393-1.051.57,1.439.531,1.464.542,2.61-.135l.355-.215c.234-.325.448-.661.652-1.008Z" fill="#114048"/>
        <path id="Path_13543" data-name="Path 13543" d="M432.69,158.71l.1.71-.132-.005-.152-.708.185.006Zm-3.659-2.365c.05.314.1.636.154.955.064.229.143.325.234.281a.267.267,0,0,0,.1-.091c.355-.435.707-.87,1.065-1.31.041-.05.187.093.289.148-.129.559-.239,1.049-.347,1.509-.088.41-.311.287-.537.171a1.741,1.741,0,0,0-.019.432c.008.152.028.311.036.463.005.077.005.151,0,.223a.722.722,0,0,1-.218.548l-.1.8c.181.146.349.3.514.457l.171.091,1.36.495c.4-.468.8-.944,1.319-1.632-.253.848.625,1.5.2,2.1.3.592.583,1.129.87,1.688.949-.281.041-1.778.49-2.483.418.393-.031,1.478.941,1.363q-.206-.739-.4-1.443c.138-.3.273-.6.375-.826.575.206,1.129.374,1.7.545a1.937,1.937,0,0,1,.559.146c.471.311.939.677,1.5,1.063l-.457.611c.421.581.834,1.137,1.3,1.748-.187.121-.347.223-.542.35.162.688.661.639,1.087.754.091-.325.171-.669.245-.974.8-.43,1.649-.047,2.511.253.6.718-.1.784-.424,1.242a5.494,5.494,0,0,1,1.11,0c-.174-.446-.355-.892-.554-1.33a1.654,1.654,0,0,1-.066-1.269c.174-.5.331-1.013.49-1.525.273-.881.54-1.765.812-2.646.16-.512.35-1.019.482-1.539.2-.793.372-1.594.543-2.395.063-.306.088-.62.129-.931a5.279,5.279,0,0,0-.08-2.282,1.675,1.675,0,0,0-1.6-1.308,3.669,3.669,0,0,1-.129.383c-.168-.11-.336-.218-.5-.32a18.484,18.484,0,0,0-2.481.664.652.652,0,0,1-.732.267c-1.2.46-2.37.969-3.53,1.506a.472.472,0,0,0,.006.058c1.137.828,1.162.8,1.2,1.753-.634.262-1.261-.553-1.862-1.057a.7.7,0,0,1-.228-.338c-.11.052-.22.107-.333.162a1.557,1.557,0,0,1,.2.669,5.9,5.9,0,0,1,.776.608c.454.49.609.95.149,1.237a7.467,7.467,0,0,0-.672-.62,2.108,2.108,0,0,0-.771-.4c-.473-.069-.922-.039-1.382-.121-.127-.028-.281-.221-.429-.375a11.226,11.226,0,0,1-3.83.834l.069.207C429.54,156.056,429.3,156.2,429.031,156.345Z" fill="#114048"/>
        <path id="Path_13544" data-name="Path 13544" d="M430.366,161.086c0-.022.006-.044.008-.066l-.17-.091c.055.052.11.1.162.16Z" fill="#114048"/>
        <path id="Path_13545" data-name="Path 13545" d="M428.689,159.819a6.139,6.139,0,0,1,.54.322v-.011a2.332,2.332,0,0,1,.057-.729c-.291-.075-.586-.163-.867-.248.083.212.174.426.275.666Z" fill="#114048"/>
        <path id="Path_13546" data-name="Path 13546" d="M410.929,159.777c0-.034.005-.076,0-.112l.181-.047h.009l.024.282c-.068-.009-.159.011-.2-.032a.113.113,0,0,1-.019-.087Zm3.031-5.06c.162,0,.336.343.5.53-.193.151-.386.424-.578.421-.243,0-.485-.231-.945-.479.471-.235.741-.464,1.016-.472Zm1.6,6.342c.082.514.154.955.209,1.3-.82.247-1.511.419-2.213.613.192-1.23,1.376-1.142,2-1.912m1.407-.317c.19.237.363.457.608.763a1.38,1.38,0,0,1,1.446-.57,1.886,1.886,0,0,0,1.505-.3c.056.632-.038.914-.426.914-.306,0-.611-.134-.914-.117a3.963,3.963,0,0,0-.837.223,7.87,7.87,0,0,0,.283.885c.061.138.229.224.471.447-.751.16-1.36.54-2.034-.261l.68-.576c-.009-.088,0-.151-.02-.166-.443-.3-.886-.594-1.442-.965l.68-.281m-7.877.233,2.37-.6c-.368.736.017,1.482-.746,1.818l-.077.154-.038.077.336.468c.2.056.41.108.616.16.622.159,1.261.325,1.969.507a1.906,1.906,0,0,0,.124.454c.305.625.619.7,1.175.332a8.683,8.683,0,0,1,1.022-.643c.468-.212.63.117.718.574-.589.323-1.142.642-1.726.937l-.446.938c.019.009.041.017.063.029.066.033.138.07.168.048.879-.643,2.318-.456,2.464-2.014.471.1.859.193,1.248.277.366.084.446.326.333.675.057.1.146.207.209.312.055-.174.11-.347.173-.518a10.587,10.587,0,0,1,1.8-3.238,8.8,8.8,0,0,1,.906-.933l-.446-.5c.063-.165.148-.388.278-.725a6.372,6.372,0,0,0-.969-.481,6.519,6.519,0,0,0-1.206-.1c.38-.438.564-.649.776-.889-.03-.182-.063-.391-.1-.6-.163-.952-.16-.935-1-.852a.937.937,0,0,1-.627-.3c-.419.186-.821.791-1.432.1.05-.315.1-.677.16-1.041-.069-.045-.174-.129-.188-.115-.228.255-.446.522-.718.853-.088-.077-.292-.259-.5-.441l-.572-.515c.113-.261.217-.509.38-.886-.689-.027-1.341-.077-2.021-.116.124-.875.6-.89,1.076-.908a2.218,2.218,0,0,0,.6-.129q-.886-.4-1.784-.791c-.333-.144-.669-.28-1-.415.074.267.145.52.2.707-.468.532-.76-.8-1.253.149l1.079.432c-.583.331-1.12.647-1.836,1.018-.107-.052-.308-.839-.768-.1-.022.378-.044.751-.074,1.25a4.032,4.032,0,0,0-.656.178,1.13,1.13,0,0,0-.583,1.348,1.342,1.342,0,0,1,.03.649c-.218.74-.234.735.655,1a1.517,1.517,0,0,1,1.162-1.5c1.049-.263,0,0,0,0l.1-.066-.1.07c.019.45.041.9.063,1.375-.958.223-.55,1.214-.7,2.192-.382-.595-.619-.961-.853-1.322-.9-.016-.281.815-.658,1.25-.039-.066-.08-.121-.121-.18.088.3.176.6.264.9a1.39,1.39,0,0,1,.526.229c.069-.226.113-.37.162-.538Z" fill="#114048"/>
        <path id="Path_13547" data-name="Path 13547" d="M427.869,159.456a2.4,2.4,0,0,1-.05-1.021,1.041,1.041,0,0,0-.145-.446c-.025-.055-.05-.111-.069-.163-.039.069-.072.141-.108.212a1.92,1.92,0,0,1-.437.617c-.044.044-.256-.163-.389-.251a1.2,1.2,0,0,1-.4-.258c-.085-.113-.091-.276.077-.551a.742.742,0,0,0-.019-.556.583.583,0,0,0-.551-.061c-.506.336-1.1.611-1.186,1.462-.323.017-.612.028-.964.044-.091.267-.2.567-.292.848.154.218.449.052.65.143a5.653,5.653,0,0,1,.617-.168,6.021,6.021,0,0,1,3.257.146Z" fill="#114048"/>
        <path id="Path_13548" data-name="Path 13548" d="M441.535,174.273a2.337,2.337,0,0,1,.79,1.008,19.138,19.138,0,0,0-2.971-1.091,16.551,16.551,0,0,0-3.2.223c.636-.559,1.649-.286,1.558-1.23l-.094-.088.1.082a8.772,8.772,0,0,1,2.9.578,4.892,4.892,0,0,1,.917.521Zm-6.382.088c-.388-.6-.7-1.093-1.082-1.723.1-.086.2-.237.339-.27a.523.523,0,0,1,.446.107c.479.611,1.5-.146,1.822,1.011-.459.283-.972.561-1.525.872Zm7.852-8.342c.328-.457,1.021-.523.424-1.242-.862-.3-1.707-.682-2.511-.253-.074.306-.154.65-.245.975.138.4.273.809.424,1.255.95.306,2.029.308,2.759,1.289l-.1.3c-.559-.278-1.109-.559-1.759-.909-.193.163-.471.534-.967.044a2.1,2.1,0,0,0-1.046-.548l.766.609-.223.192c-.042.056-.077.16-.124.155a7.034,7.034,0,0,0-1.258-.141,11.166,11.166,0,0,0-2.024.355c-.168.047-.173.537-.308.989-.394-.262-.8-.543-1.393-.975.1.554.168.884.236,1.25a.844.844,0,0,1-.231.187c-.1.039-.264.075-.333.014a5.265,5.265,0,0,0-1.729-.84c.061.749.1,1.5.091,2.255a18.271,18.271,0,0,1-.135,2.161,2.6,2.6,0,0,1,.575.237c.678.4.466,1.085.4,1.674l-.264.072c-.089-.207-.179-.413-.3-.7q-.332.132-.669.256a14.027,14.027,0,0,1-.4,1.431c-.008.028-.022.056-.03.083l.589.187c.061-.14.122-.278.188-.435s.137-.327.22-.534a3,3,0,0,1,.416.5,1.65,1.65,0,0,0,1.715,1.266c.071-.006.162.179.245.273l.537.143.267.063.424-.308.121.437,1.407.058c.151,0,.3.006.47.006s.347,0,.557,0c-.028.35-.05.655-.075.964.507.049,1.016.1,1.608.154-.088.157-.162.292-.273.49a2.991,2.991,0,0,1,1.383,1.869c.005.025.011.044.016.066a19.958,19.958,0,0,0,1.368-2.312q.133-.266.256-.529a8.042,8.042,0,0,1,.108-1.049c.11,0,.226-.005.341-.008a15.018,15.018,0,0,0,.479-1.451c-.413.217-.826.451-1.274.663-.155-.275-.339-.6-.521-.916.6-.818.537-1.165-.4-1.515a3.086,3.086,0,0,1-1.638-1.272c.52-.049,1.046-.079,1.8-.167.341.379.823.9,1.4,1.494a4.286,4.286,0,0,0,.5-2.6c-.061-.357.228-.726.344-1.106-.642-.2-1.1-.488-.884-1.264a2.289,2.289,0,0,0-.118-.931c.1-.126.2-.245.3-.36l.228-.278c-.179-.6-.385-1.192-.611-1.773a5.644,5.644,0,0,0-1.11,0Z" fill="#114048"/>
        <path id="Path_13549" data-name="Path 13549" d="M428.488,156.592c-.03-.329-.052-.583-.08-.875h-.672a4.84,4.84,0,0,1,.752.875" fill="#114048"/>
        <path id="Path_13550" data-name="Path 13550" d="M428.777,156.32c-.058.515.077.812.4.98-.053-.319-.105-.641-.154-.955.264-.143.506-.289.748-.432l-.068-.207c-.168.006-.336.014-.5.011h-.7c.226.039.309.27.273.606Z" fill="#114048"/>
        <path id="Path_13551" data-name="Path 13551" d="M418.423,154.77c.044-.024.082-.046.121-.071a.483.483,0,0,0,.033.08.464.464,0,0,1,.063.234c-.011.066-.14.107-.217.159-.044-.1-.088-.19-.146-.319.055-.033.1-.061.146-.085Zm-4.854-.6c.68.039,1.333.088,2.021.116-.16.377-.267.625-.38.886l.573.515c.2.182.41.363.5.44.275-.33.493-.6.719-.853.013-.017.118.072.187.116-.055.363-.113.726-.16,1.04.609.7,1.013.094,1.432-.093a.939.939,0,0,0,.628.3c.836-.083.836-.1,1,.854.033.212.066.418.1.6-.209.243-.393.452-.776.89a6.029,6.029,0,0,1,1.206.1,6.156,6.156,0,0,1,.969.482c-.13.336-.215.559-.278.724l.446.5a6.363,6.363,0,0,1,2.246-1.314c-.2-.091-.495.075-.649-.143.1-.283.2-.581.291-.848l.964-.044c.091-.851.68-1.126,1.187-1.462a.575.575,0,0,1,.55.061.742.742,0,0,1,.02.556c-.171.275-.163.438-.078.551a1.3,1.3,0,0,0,.4.258l.008-.024.072-.226.261-.143q-.2-1.152-.393-2.294c-.535,0-1.069,0-1.6,0-1.071-.008-2.142-.011-3.21-.066a6.779,6.779,0,0,1-2.651-.688c-.746-.364-1.495-.724-2.249-1.068q-.831-.381-1.663-.757a2.209,2.209,0,0,1-.6.129c-.473.019-.952.033-1.076.908Z" fill="#114048"/>
        <path id="Path_13552" data-name="Path 13552" d="M409.108,152.27l-.066-.1.069.1c.177.121.271.242.251.39a.071.071,0,0,1-.009.028.525.525,0,0,1-.11.22,2.153,2.153,0,0,1-.311.309c.089-.471.132-.708.176-.945m.051,1.487c.186-.055.474.248.712.383.464-.744.664.044.768.1.716-.372,1.253-.688,1.838-1.019l-1.081-.432c.491-.95.782.383,1.254-.149-.052-.187-.125-.44-.2-.707-.419-.168-.844-.328-1.268-.482-.142-.052-.288-.1-.431-.149l.541,1.242c-1.252-.248-1.316-.294-.715-1.3-.545-.187-1.093-.366-1.644-.531a2,2,0,0,0-.787-.075,1.22,1.22,0,0,0-1,.873,5.378,5.378,0,0,0-.4,1.861,3.6,3.6,0,0,0,2.4.394Z" fill="#114048"/>
        <path id="Path_13553" data-name="Path 13553" d="M435.869,154.536h0c-.206-.151-.413-.308-.617-.465l-.4.2a1.705,1.705,0,0,0,.243.311c.311.286.759.655.776-.041Z" fill="#114048"/>
        <path id="Path_13554" data-name="Path 13554" d="M437.906,178.526c-.033-.019-.091-.041-.091-.055a.374.374,0,0,1,.061-.1c.03.02.091.042.091.055a.359.359,0,0,1-.061.1m3.125.931c.11-.2.184-.333.273-.49-.592-.055-1.1-.1-1.608-.154l.79,1.872c-.688.625-1.245.413-1.787-.248-.184.275-.311.474-.523.777-.559-.224-1.145-.458-1.729-.689l.006-.289c.82-.3,1.632-.6,2.428-.922l-.138-1.468-1.407-.057-.545-.13-.267-.063a.968.968,0,0,1-.438.729,1.09,1.09,0,0,1-.908-.03l-.256-.055c.036.16.014.372.115.468.967.9.97.966-.374,1.338a1.491,1.491,0,0,0,.008,1.184,3.681,3.681,0,0,0,.683.977c-.311.4-.586.73-.867,1.06l.217,1.137c.617.262.631.565-.013.8a1.369,1.369,0,0,1-1.749-.587,1.059,1.059,0,0,0-1.28-.534,3.1,3.1,0,0,1,.5.84,2.2,2.2,0,0,0,2.153,1.883c.311.044.553.358.831.545l-.16.223c-.47.014-.936.036-1.58.036a10.6,10.6,0,0,0,1.3.7,17.9,17.9,0,0,0,1.8-1.013c-.063-.1-.132-.2-.2-.3.52-.248.774-.358,1.019-.273a19.563,19.563,0,0,0,3.4-3.141,25.98,25.98,0,0,0,1.691-2.194c-.006-.022-.011-.042-.017-.066a2.993,2.993,0,0,0-1.382-1.87Z" fill="#114048"/>
        <path id="Path_13555" data-name="Path 13555" d="M442.524,199.216a.281.281,0,0,0,.242.166,2.9,2.9,0,0,0,1.192-.132.67.67,0,0,0,.2-.193,12.413,12.413,0,0,0-1.032-.905c-.108-.061-.229-.127-.372-.2.025-.008.047-.017.069-.022-.141-.106-.281-.21-.424-.309a14.279,14.279,0,0,0-2.026-1.148c-.138.609-.292,1.264-.479,2.015,1.409-.324,2.409-.291,2.626.736Z" fill="#114048"/>
        <path id="Path_13556" data-name="Path 13556" d="M418.241,172.354c-.058-.617-.083-1.239-.121-1.858a18.95,18.95,0,0,1,.479-4.053c-.289-.193-.573-.383-.851-.567-.674.5-.619,1.649-1.674,1.732-.121-.353-.245-.711-.366-1.066h-.2c-.058.275-.116.548-.193.9l-.589-.234c-.24.344-.482.688-.755,1.079.111.228.232.476.35.716-.215.154-.374.27-.542.388.137.261.253.476.292.553a5.661,5.661,0,0,0-.54,1.5,5.937,5.937,0,0,0,.4,1.586c-1.112-.192-.674-1.522-1.522-1.693-.531.5-1.038.983-1.553,1.454.391.066.782.11,1.162.2.124.03.22.182.33.278l2.7,1.126c-.1.129-.121.19-.151.193l-.738.066c-.165,1.06-.135,1.131.763,1.583.041.019.135-.069.248-.132-.116-.242-.232-.485-.378-.788.413-.184.8-.517,1.093-.462.945.187,1.11-.644,1.556-1.085a2.429,2.429,0,0,0,.308-.721c.54.727.146,1.049-.259,1.382a4.686,4.686,0,0,0-.418.446c.314.173.537.3.892.495-.424.113-.672.182-1.14.306.8.465,1.3,1.09,2.12.562a1.839,1.839,0,0,0,.19-.072,13.875,13.875,0,0,1-.9-3.813Z" fill="#114048"/>
        <path id="Path_13557" data-name="Path 13557" d="M411.265,202.267l.088.088a5.5,5.5,0,0,1,.388-.465,1.8,1.8,0,0,0,.537-1.071.634.634,0,0,0-.011-.163c-.157-.165-.308-.344-.457-.531a1.294,1.294,0,0,0-.716-.047,4.631,4.631,0,0,0-1.652.8c-.057.042-.11.091-.168.135.21.584.416,1.157.636,1.773l1.358-.515Z" fill="#114048"/>
        <path id="Path_13558" data-name="Path 13558" d="M414.087,198.424l-.562-.683-.9-.1c-.215.3-.284.894-.815.682-.314-.124-.443-.619-.686-.988-.393-.036-.512.091-.536.273a8.967,8.967,0,0,0,.87.933c.211.2.429.385.652.567a1.843,1.843,0,0,1,1.971-.677Z" fill="#114048"/>
        <path id="Path_13559" data-name="Path 13559" d="M427.092,181.558a.231.231,0,0,1-.019.017c.289.217.638.644.823.586.644-.2.87.154,1.206.506a1.571,1.571,0,0,0,.735.312c.663.168.837-.2.793-.713a2.337,2.337,0,0,1-1.7-1.294,5.7,5.7,0,0,1-1.371.506c-.154.036-.308.055-.462.077Z" fill="#114048"/>
        <path id="Path_13560" data-name="Path 13560" d="M421.925,180.112c-.025.083-.05.182-.094.3.177,0,.331-.005.482-.009-.1-.069-.195-.126-.292-.2-.035-.028-.063-.06-.1-.089Z" fill="#114048"/>
        <path id="Path_13561" data-name="Path 13561" d="M417.679,178.172l-1.489-1.536c-.127.107-.245.3-.38.311-.815.069-.97.5-.818,1.23a14.578,14.578,0,0,1,.162,1.713l.559.8c1.057-.672.5-2.33,1.966-2.517Z" fill="#114048"/>
        <path id="Path_13562" data-name="Path 13562" d="M420.62,179.964a.759.759,0,0,0-.311-.168,1.428,1.428,0,0,0-.611-.011c.038-.484.509-.917-.119-1.22-.49-.242-.826.042-1.159.328-.4.352-.8.7-1.233,1.071.193.1.416.223.641.344s.477.22.7.361c.859.545,1.129.683,1.682.344a8.154,8.154,0,0,0,.683-.5,1.109,1.109,0,0,0-.152-.4.8.8,0,0,0-.118-.14Z" fill="#114048"/>
        <path id="Path_13563" data-name="Path 13563" d="M430.36,200.307a.513.513,0,0,0-.4-.333,3.212,3.212,0,0,0-.862.091,2.159,2.159,0,0,1-.862.005c-.685-.187-1.34-.432-2.012-.658l-1.046,1.495a2.186,2.186,0,0,1,1.985.311,2.189,2.189,0,0,0,1.3.218c.182-.025.363-.061.542-.1.537-.121,1.06-.292,1.6-.444-.1-.256-.177-.446-.248-.586Z" fill="#114048"/>
        <path id="Path_13564" data-name="Path 13564" d="M433.127,177.778c-.072.683-.154,1.184-.179,1.688-.005.129.179.267.308.44.369-.154.689-.289,1.014-.427.074.1.14.2.206.295s.127.182.187.27c1.344-.369,1.341-.438.375-1.338-.1-.1-.08-.309-.116-.468l-.531-.152c-.411-.091-.818-.195-1.264-.311Z" fill="#114048"/>
        <path id="Path_13565" data-name="Path 13565" d="M434.173,177.549c.113.03.146.352.217.54l.532.151.256.055c.275-.278.545-.556.809-.842-.082-.1-.173-.278-.245-.273a1.648,1.648,0,0,1-1.715-1.266c-.055-.138-.2-.243-.416-.5-.082.207-.154.38-.22.534s-.127.295-.187.435c.228.452.336.994.966,1.168Z" fill="#114048"/>
        <path id="Path_13566" data-name="Path 13566" d="M418.951,199.379c-.182.27-.339.5-.509.749-.353-.149-.617-.262-.92-.391q-.066.878,1.123,1.58c.2-.592.394-1.131.554-1.676.016-.061-.152-.166-.245-.262Z" fill="#114048"/>
        <path id="Path_13567" data-name="Path 13567" d="M413.31,199.159a2.192,2.192,0,0,0-.328.586c.273.19.551.369.835.543.1-.311.214-.65.36-1.093-.245-.017-.762-.168-.867-.036" fill="#114048"/>
        <path id="Path_13568" data-name="Path 13568" d="M414.389,213.078c.138-.883.245-1.513.314-2.146.005-.039-.041-.083-.1-.127s-.135-.089-.184-.132l-.92,1.046c.245.372.487.743.892,1.363Z" fill="#114048"/>
        <path id="Path_13569" data-name="Path 13569" d="M434.7,184.4l-.217-1.137c-.358-.058-.714-.113-1.118-.176.157,1.126.214,1.186,1.335,1.313" fill="#114048"/>
        <path id="Path_13570" data-name="Path 13570" d="M425.8,203.31c-.085.094-.171.184-.256.278.336.03.674.055,1.013.083.107-.127.215-.251.328-.38a.666.666,0,0,0-1.082.019Z" fill="#114048"/>
        <path id="Path_13571" data-name="Path 13571" d="M430.861,203.624a.546.546,0,0,0-.443-.055.577.577,0,0,0-.3.2.409.409,0,0,0-.044.055c.32,0,.639,0,.956,0,0-.005,0-.008-.006-.013a.545.545,0,0,0-.165-.2Z" fill="#114048"/>
        <path id="Path_13572" data-name="Path 13572" d="M446.128,201.653c-.141-.259-.289-.512-.45-.754-.333.481-.06.674.45.754" fill="#114048"/>
        <path id="Path_13573" data-name="Path 13573" d="M446.015,203.668a1.761,1.761,0,0,0-.567.217,1.56,1.56,0,0,0-.289.21c.845.424,1.071.374,1.8-.421l-.011-.034a3.4,3.4,0,0,0-.933.028Z" fill="#114048"/>
        <path id="Path_13574" data-name="Path 13574" d="M418.954,176.239l.278.14c-.027-.071-.061-.14-.088-.212a1.638,1.638,0,0,1-.19.072" fill="#114048"/>
        <path id="Path_13575" data-name="Path 13575" d="M413.773,196.656c-.311.061-.487.223-.46.468a.728.728,0,0,0,.1.273l.732-.237c-.124-.179-.286-.521-.366-.5Z" fill="#114048"/>
        <path id="Path_13576" data-name="Path 13576" d="M419.342,176.635l-.025.052h.047c-.008-.019-.014-.035-.022-.055Z" fill="#114048"/>
        <path id="Path_13577" data-name="Path 13577" d="M442.791,203.894l1.184.113c-.38-.072-.286-1.088-1.184-.113" fill="#114048"/>
        <path id="Path_13578" data-name="Path 13578" d="M420.243,196.194c-.017.011-.033.028-.055.041a.58.58,0,0,0-.121.1c.1.13.215.251.327.372l.179-.132-.327-.383Z" fill="#114048"/>
        <path id="Path_13579" data-name="Path 13579" d="M411.719,210.76c.028.033.055.061.088.063a.085.085,0,0,0,.05-.013c.049-.028.1-.089.157-.127a1.405,1.405,0,0,0-.127-.151.073.073,0,0,0-.044-.02.164.164,0,0,0-.1.05c-.036.03-.069.066-.1.091.027.03.052.071.08.107Z" fill="#114048"/>
        <path id="Path_13580" data-name="Path 13580" d="M424.637,197.636c-.005.028-.028.063-.017.08s.061.038.091.058l.036-.135h-.11Z" fill="#114048"/>
        <path id="Path_13581" data-name="Path 13581" d="M434.347,203.641h0l.143-.184c-.055.022-.135.038-.16.068s.006.077.014.116Z" fill="#114048"/>
        <path id="Path_13582" data-name="Path 13582" d="M409.792,192.113c-.025-1.448,1.123-2.112,2.037-2.968.543.171,1.035.328,1.553.49-.074.317-.129.559-.184.79-.35-.013-.636-.024-.923-.038l-.275.19a2.6,2.6,0,0,0,.366.388,1.422,1.422,0,0,1,.763,1.379,1.11,1.11,0,0,0,.884,1.157c.324-.441.633-.862,1.035-1.407-.039-.427-.116-1.024-.135-1.625-.039-1.159-.138-2.271-1.492-2.7-.16.088-.32.182-.477.275a8.441,8.441,0,0,0-3.108,3.139,5.766,5.766,0,0,0-.424.958,3.06,3.06,0,0,0,.383-.025Z" fill="#114048"/>
        <path id="Path_13583" data-name="Path 13583" d="M409.569,180.5c.124.2.253.394.385.589.017.022.033.044.047.066a1.148,1.148,0,0,0-.432-.658Z" fill="#114048"/>
        <path id="Path_13584" data-name="Path 13584" d="M415.532,187.309a2.122,2.122,0,0,0-.864-1.542,19.6,19.6,0,0,1-1.6-1.707c-.256-.311-.066-.561.309-.66l.355-.7c-.091-.7-.179-1.407-.281-2.194l-.906.418c-.162-.242-.28-.421-.4-.6-.1-.157-.2-.311-.3-.465-1.382,1.073-.1,2.238-.228,3.353a.523.523,0,0,1-.064-.039c.3.355.606.705.923,1.047a20.584,20.584,0,0,0,2.7,2.546c.041.03.088.055.132.083-.011.019-.025.038-.036.058a1.158,1.158,0,0,1-.107.052c-.146.052-.287.11-.43.168a.626.626,0,0,0,.8.179Z" fill="#114048"/>
        <path id="Path_13585" data-name="Path 13585" d="M415.323,167.443c.074-.35.132-.622.193-.895h.2c.121.353.245.708.366,1.063,1.052-.083,1-1.231,1.674-1.732l.851.567c.077-.322.168-.644.27-.963-.064-.1-.149-.209-.209-.311l-.094.074-.022-.066.116-.008c.115-.35.033-.592-.334-.675-.388-.085-.779-.173-1.247-.278-.146,1.558-1.586,1.371-2.464,2.015-.03.022-.1-.016-.168-.049a.471.471,0,0,0-.063-.028l-.121.229-.209.473.677.353.589.234Z" fill="#114048"/>
        <path id="Path_13586" data-name="Path 13586" d="M409.318,170.545c-.193-.454-.385-.914-.6-1.423.531-.155.958-.276,1.539-.444a3.082,3.082,0,0,0-.292,2.316c1.1-.32.273-1.393.856-1.889.917.138.562,1.217,1.159,1.542,1.22-.507,1.4-.854.9-1.776l-1.057.443c-.044-.468-.075-.82-.111-1.183-.828.225-1.343-.35-1.954-.584-.08.283-.163.564-.278.974-.2-.178-.449-.3-.449-.418,0-.46.209-.741.724-.564.267,0,.531,0,.8,0s.54,0,.815,0a2.241,2.241,0,0,0,.776-1.968c-.757-.245-.36-.719-.093-1.22l-1.225-.644a1.359,1.359,0,0,0-.267,1.1,1.24,1.24,0,0,0,.245.41c.256.3.239.843.366,1.355-1.112-.053-.289-1.057-.818-1.25-.674-.248-.3-.854-.534-1.267l.776-.49.336-.677c-.085-.179-.6-.027-.336-.471l.039-.077.077-.154a1.516,1.516,0,0,0-.35-.217c-.162-.058-.322-.014-.754.1.556.9.386,1.6-.586,2.015a.29.29,0,0,0-.055.041,4.021,4.021,0,0,1-.287,1.272c-.044.292-.091.587-.137.9a.688.688,0,0,1-.188-.055c-.112.283-.214.567-.308.856a.6.6,0,0,1,.16.226,1.015,1.015,0,0,1-.4,1.354,1.209,1.209,0,0,0-.182.135c-.069.363-.124.727-.174,1.093a1.286,1.286,0,0,1,.122.765,1.567,1.567,0,0,1-.265.631c-.033.49-.052.98-.055,1.473.859.209,1.3-.361,2.068-2.23Z" fill="#114048"/>
        <path id="Path_13587" data-name="Path 13587" d="M407.443,169.907q-.094.694-.143,1.4a1.581,1.581,0,0,0,.264-.631,1.328,1.328,0,0,0-.121-.765" fill="#114048"/>
        <path id="Path_13588" data-name="Path 13588" d="M415.821,191.494c.7.014,1.379.025,2.037.036a.319.319,0,0,0-.038-.036,2.767,2.767,0,0,1-.779-1.322,1.53,1.53,0,0,1-.042-.479l-1.068.1c-.036.55-.069,1.09-.107,1.7Z" fill="#114048"/>
        <path id="Path_13589" data-name="Path 13589" d="M416.523,188.523c.16.24.341.509.564.842a.919.919,0,0,1,.276-.33,1.789,1.789,0,0,1,1.638-.308c-.066-.168-.11-.375-.24-.468-.787-.576-1.23-.529-2.238.267Z" fill="#114048"/>
        <path id="Path_13590" data-name="Path 13590" d="M416.559,164.282c-.088-.457-.251-.787-.719-.575a8.6,8.6,0,0,0-1.021.644c-.556.369-.87.292-1.176-.333a1.8,1.8,0,0,1-.123-.455c-.711-.181-1.349-.346-1.969-.506-.206-.052-.413-.108-.617-.16l-.336.677.232.141c.388.2.779.407,1.225.644-.267.5-.664.975.093,1.22l.342-.124.215-.446-.094-.859-.005-.063c.074.03.145.063.214.1l.328,1.038.46.247.6-.124.631-.129c.58-.295,1.134-.611,1.726-.936Z" fill="#114048"/>
        <path id="Path_13591" data-name="Path 13591" d="M410.025,176.17h0l.008,0,.452-.207.036.113-.488.094h0Zm-1.726-1.01c-.427.551-.49.972-.091,1.2.755-.077,1.286-.133,1.817-.188q-.159.83.854,1.066c.451-.788.85-1.658,1.847-1.977.149-.047.2-.418.319-.7-.8-.047-1.5-.085-2.268-.129-.416,1.39-1.462,1.1-2.475.735Z" fill="#114048"/>
        <path id="Path_13592" data-name="Path 13592" d="M425.922,190.018c.171.074.333.146.5.22a11.705,11.705,0,0,0,1.324-.063c-1.021-1.027-1.082-.958-1.825-.157" fill="#114048"/>
        <path id="Path_13593" data-name="Path 13593" d="M411.13,197.331c.242.372.372.867.686.988.531.212.6-.382.814-.682-.352-.179-.721-.35-.479-.832l.119-.226c-.856-.079-1.677-.173-2.5-.253a6.981,6.981,0,0,0,.823,1.278c.025-.185.143-.309.537-.273" fill="#114048"/>
        <path id="Path_13594" data-name="Path 13594" d="M411.8,193.482a3.958,3.958,0,0,1-1.729-.961l-.228.289c.341.556.682,1.112,1.068,1.746.355-.289.594-.488.928-.757.118.622.206,1.087.322,1.685.523-.312.916-.546,1.34-.8a2.973,2.973,0,0,0-1.7-1.2Z" fill="#114048"/>
        <path id="Path_13595" data-name="Path 13595" d="M412.025,172.993c-.38-.088-.772-.132-1.163-.2a2.277,2.277,0,0,1-.52-.35c-.43-.517-.77-.394-1.093.1-.041.471-.086.936-.141,1.547a6.506,6.506,0,0,1,.829-.311c.306-.06.687-.193.922-.071a1.015,1.015,0,0,0,1.5-.444c-.11-.1-.206-.247-.33-.278Z" fill="#114048"/>
        <path id="Path_13596" data-name="Path 13596" d="M415.634,195.538a1.22,1.22,0,0,0,1.6-.262,6.329,6.329,0,0,0-1.27-.316,1.766,1.766,0,0,0-.87.06c-.468.179-.726.642-.834,1.429a5.015,5.015,0,0,0,1.14-.25c.146-.069.149-.4.231-.661Z" fill="#114048"/>
        <path id="Path_13597" data-name="Path 13597" d="M409.175,193.2v.025l.039-.008-.036-.017Z" fill="#114048"/>
        <path id="Path_13598" data-name="Path 13598" d="M413.382,183.4c.584.017,1.167.03,1.74.047a15.2,15.2,0,0,0-.14-1.536c-.033-.177-.256-.317-.579-.694a8.551,8.551,0,0,1,.025,1.17.46.46,0,0,1-.154.311.333.333,0,0,1-.182.069.626.626,0,0,1-.217-.022h-.011a1.255,1.255,0,0,1-.127-.042Z" fill="#114048"/>
        <path id="Path_13599" data-name="Path 13599" d="M418.112,184.3c-.328-.259-.655-.515-1.005-.79l-1.035.457c.732-.069,1.2,1.253,2.043.33Z" fill="#114048"/>
        <path id="Path_13600" data-name="Path 13600" d="M414.266,166.383a13.734,13.734,0,0,0-1.589,1.1c-.267.243-.242.642.29.708q.54-.665,1.09-1.335Z" fill="#114048"/>
        <path id="Path_13601" data-name="Path 13601" d="M417.512,192.336a2.018,2.018,0,0,0-.9,1.459c.479-.449.944-.881,1.508-1.409-.256-.028-.481-.119-.611-.053Z" fill="#114048"/>
        <path id="Path_13602" data-name="Path 13602" d="M408.853,177.34c-.251.011-.507.025-.837.039.05.134.1.269.151.4.259.086.474-.019.686-.443Z" fill="#114048"/>
        <path id="Path_13603" data-name="Path 13603" d="M413.605,165.469l-.46-.248L412.7,165l-.215.446a1.185,1.185,0,0,1,.138.069c.093.052.184.11.278.157a1.037,1.037,0,0,0,.138.057C413.225,165.791,413.412,165.758,413.605,165.469Z" fill="#114048"/>
        <path id="Path_13604" data-name="Path 13604" d="M423.681,195.891a.082.082,0,0,0,.047.017c.047,0,.1-.053.148-.1.017-.017.033-.033.05-.047-.047-.044-.091-.11-.135-.143a.114.114,0,0,0-.047-.02c-.063,0-.132.1-.2.149.047.044.091.11.135.143Z" fill="#114048"/>
        <path id="Path_13605" data-name="Path 13605" d="M412.638,196.576a2.682,2.682,0,0,0-.369.006l-.118.225.5-.016a1.181,1.181,0,0,0-.011-.212Z" fill="#114048"/>
      </g>
    </g>
    <path id="Path_13606" data-name="Path 13606" d="M409.145,172.619l.1-.069v0Z" fill="#114048"/>
    <g id="Group_3211" data-name="Group 3211">
      <g id="Group_3210" data-name="Group 3210" clip-path="url(#clip-path)">
        <path id="Path_13607" data-name="Path 13607" d="M415.777,211.479c.716.217.92-.226,1.143-.589a.839.839,0,0,0-1.143.589" fill="#114048"/>
        <path id="Path_13608" data-name="Path 13608" d="M440.985,207.28c-.19-.16-.38-.322-.584-.476a1.37,1.37,0,0,0-.294.14,5.943,5.943,0,0,0,.363.551Z" fill="#114048"/>
        <path id="Path_13609" data-name="Path 13609" d="M439.771,208.4a.066.066,0,0,0,.028.039.576.576,0,0,0,.242.005c.033,0,.066-.005.093-.005l-.011-.276-.057.011-.287.055a.719.719,0,0,0-.008.171" fill="#114048"/>
        <path id="Path_13610" data-name="Path 13610" d="M435.473,167.225l-.669.2c.025-.645.017-.642.669-.2m.892-4.058c.127.785-.182.716-.68.51.27-.19.441-.325.68-.51m.848-1.382a.954.954,0,0,1,.471.548c.041.76-.565.267-.851.611-.2-.831-.143-1.233.38-1.159m1.723,3.026.086.118-.033.025-.033.025-.053-.088.031-.077Zm-8.57-3.725a9.273,9.273,0,0,1,1.787,2.709,13.878,13.878,0,0,1,.864,2.629,1.628,1.628,0,0,1,.609-1.057c.173-.151.3-.4.5-.473a.581.581,0,0,1,.537.2.822.822,0,0,1,.038.663,3.565,3.565,0,0,1-.694.688c-.09.512-.19,1.033-.313,1.614a4.016,4.016,0,0,1-.5-.782c.061.371.111.746.146,1.123.011.11.014.22.022.333a5.122,5.122,0,0,1,1.729.84c.069.06.232.025.334-.014a.954.954,0,0,0,.231-.187c-.069-.366-.132-.7-.237-1.25.6.432,1,.713,1.393.975.135-.452.141-.942.308-.989a11.166,11.166,0,0,1,2.024-.355,6.788,6.788,0,0,1,1.258.141c.047,0,.083-.1.124-.155l.223-.192-.765-.609a2.09,2.09,0,0,1,1.046.548c.5.493.776.121.966-.044.65.347,1.2.63,1.759.909l.105-.3c-.729-.98-1.809-.982-2.759-1.288-.151-.446-.289-.851-.423-1.255-.424-.119-.926-.067-1.088-.755l.542-.349c-.465-.612-.875-1.168-1.3-1.749.182-.245.328-.44.457-.611-.559-.385-1.03-.752-1.5-1.063a1.972,1.972,0,0,0-.558-.146c-.57-.17-1.126-.338-1.7-.545-.1.223-.237.523-.374.826q.193.7.4,1.443c-.971.116-.523-.969-.941-1.363-.449.705.46,2.2-.49,2.483-.289-.558-.565-1.1-.87-1.687.424-.6-.457-1.253-.2-2.1-.518.688-.922,1.165-1.319,1.633l-1.36-.5a.443.443,0,0,1-.008.066Z" fill="#114048"/>
        <path id="Path_13611" data-name="Path 13611" d="M427.015,158.008h0c.088-.05.19-.1.264-.146l.185-.138-.113-.415c.179-.232.372-.477.589-.752.193.278.421.551.677.873-.091.366-.165.672-.256,1.049.411-.116.741-.231,1.069-.339l.132.253-.278,1,.509.276a.713.713,0,0,0,.217-.548c0-.072,0-.149,0-.223-.009-.154-.028-.311-.036-.463a1.746,1.746,0,0,1,.019-.432l-.473-.518a.259.259,0,0,1-.1.091c-.091.044-.17-.055-.234-.281-.33-.167-.465-.462-.4-.98.038-.336-.047-.564-.273-.605h-.1c.027.291.049.545.08.875a4.805,4.805,0,0,0-.752-.875h-1.118c.13.759.262,1.525.394,2.293" fill="#114048"/>
        <path id="Path_13612" data-name="Path 13612" d="M430.526,157.834c.1-.46.216-.95.346-1.509-.105-.055-.251-.2-.289-.148-.358.44-.709.875-1.066,1.31l.474.518c.226.113.449.239.538-.171Z" fill="#114048"/>
        <path id="Path_13613" data-name="Path 13613" d="M429.226,160.13v.011c.146.1.295.2.438.311.008.006.014.014.022.019l.1-.8-.509-.27a2.428,2.428,0,0,0-.058.73Z" fill="#114048"/>
      </g>
    </g>
    <path id="Path_13614" data-name="Path 13614" d="M432.656,159.411l.13.009-.1-.711-.182,0Z" fill="#114048"/>
    <g id="Group_3213" data-name="Group 3213">
      <g id="Group_3212" data-name="Group 3212" clip-path="url(#clip-path)">
        <path id="Path_13615" data-name="Path 13615" d="M444.054,178.549q.243-.521.449-1.054c-.116,0-.232.005-.342.008a8.761,8.761,0,0,0-.107,1.049Z" fill="#114048"/>
        <path id="Path_13616" data-name="Path 13616" d="M445.282,170.617s-.028.011-.041.014c-.157.371-.449.738-.386,1.1a4.284,4.284,0,0,1-.5,2.6c-.572-.594-1.054-1.115-1.4-1.5-.757.088-1.283.119-1.8.168a3.073,3.073,0,0,0,1.638,1.272c.934.35,1,.7.4,1.514.182.322.366.645.52.917.449-.215.862-.446,1.275-.663a13.342,13.342,0,0,0,.363-5.424l-.063.025v-.025Z" fill="#114048"/>
        <path id="Path_13617" data-name="Path 13617" d="M444.2,168.428a2.294,2.294,0,0,1,.118.931c-.22.776.243,1.065.925,1.272a6.686,6.686,0,0,0-.008-.749c-.082-.471-.187-.942-.311-1.41-.061-.231-.129-.457-.2-.685l-.229.278c-.1.115-.2.236-.3.36Z" fill="#114048"/>
        <path id="Path_13618" data-name="Path 13618" d="M408.914,159.307c.231.361.47.727.853,1.322.151-.978-.257-1.966.7-2.192-.022-.474-.043-.922-.065-1.374a1.514,1.514,0,0,0-1.162,1.5c-.889-.264-.872-.261-.654-1a1.394,1.394,0,0,0-.03-.649,1.125,1.125,0,0,1,.583-1.347,4.311,4.311,0,0,1,.655-.179c.03-.5.052-.872.074-1.25-.238-.137-.526-.44-.712-.382a3.6,3.6,0,0,1-2.4-.394c0,.083-.01.165-.009.248.007.278.021.556.037.831.2-.071.493-.176.876-.311.008.3.107.625,0,.738a4.782,4.782,0,0,1-.771.619,11.787,11.787,0,0,0,.3,1.526c.3,1.126.621,2.246.949,3.364a1.8,1.8,0,0,1,.121.179c.378-.435-.242-1.269.659-1.25" fill="#114048"/>
      </g>
    </g>
    <path id="Path_13619" data-name="Path 13619" d="M410.4,157.066v0Z" fill="#114048"/>
    <g id="Group_3215" data-name="Group 3215">
      <g id="Group_3214" data-name="Group 3214" clip-path="url(#clip-path)">
        <path id="Path_13620" data-name="Path 13620" d="M408.2,167.324a.611.611,0,0,0-.16-.226c-.03.091-.066.179-.091.27-.129.479-.239.964-.333,1.448a1.084,1.084,0,0,1,.182-.135,1.015,1.015,0,0,0,.4-1.354Z" fill="#114048"/>
        <path id="Path_13621" data-name="Path 13621" d="M408.677,165.4c-.061.165-.124.328-.19.493-.044.115-.091.231-.138.349a.643.643,0,0,0,.188.056c.046-.309.093-.606.137-.9Z" fill="#114048"/>
        <path id="Path_13622" data-name="Path 13622" d="M409.6,162.071c.432-.113.592-.157.754-.1a1.563,1.563,0,0,1,.35.217c.763-.338.38-1.082.746-1.817l-2.37.6c-.05.168-.094.309-.163.537a1.38,1.38,0,0,0-.526-.228c.086.289.168.575.254.864a6.937,6.937,0,0,1,.322,1.867c0,.038-.008.074-.008.113a.347.347,0,0,1,.055-.042c.974-.418,1.145-1.115.586-2.015" fill="#114048"/>
        <path id="Path_13623" data-name="Path 13623" d="M428.411,159.15h0l-.058-.1Zm-.807-1.327a1.449,1.449,0,0,0,.069.162,1.109,1.109,0,0,1,.146.446,2.49,2.49,0,0,0,.049,1.022,5.672,5.672,0,0,1,.821.363c-.1-.239-.193-.454-.276-.666.281.088.579.173.868.245l.278-1.005-.132-.253c-.331.107-.661.223-1.069.338.091-.377.168-.682.256-1.048-.253-.323-.484-.6-.677-.873-.215.275-.407.523-.589.751.047.177.08.3.113.416l.143.1Z" fill="#114048"/>
        <path id="Path_13624" data-name="Path 13624" d="M438.881,179.314c-.8.325-1.608.622-2.428.922l-.006.289c.584.234,1.17.466,1.729.689.212-.3.339-.5.523-.777.543.661,1.1.873,1.787.248q-.4-.937-.79-1.872c.025-.306.047-.614.074-.964-.209,0-.391.006-.556,0s-.319,0-.471-.005Z" fill="#114048"/>
        <path id="Path_13625" data-name="Path 13625" d="M433.716,174.424c.124.29.215.5.3.706l.264-.072c.069-.589.281-1.274-.4-1.674a2.642,2.642,0,0,0-.576-.236q-.095.771-.264,1.533C433.273,174.6,433.5,174.513,433.716,174.424Z" fill="#114048"/>
        <path id="Path_13626" data-name="Path 13626" d="M437.714,173.177h0l-.008.006c.091.944-.923.671-1.559,1.23a16.561,16.561,0,0,1,3.2-.223,19.157,19.157,0,0,1,2.971,1.09,2.335,2.335,0,0,0-.79-1.007,4.955,4.955,0,0,0-.917-.521,8.849,8.849,0,0,0-2.9-.578Z" fill="#114048"/>
        <path id="Path_13627" data-name="Path 13627" d="M417.746,162.154c-.19.16-.4.336-.681.575.675.8,1.284.422,2.035.262-.246-.223-.411-.308-.471-.446a7.906,7.906,0,0,1-.284-.887,4.275,4.275,0,0,1,.837-.223c.3-.016.61.116.914.119.388,0,.482-.284.427-.914a1.884,1.884,0,0,1-1.506.294,1.375,1.375,0,0,0-1.444.57c-.246-.3-.419-.526-.609-.762-.184.074-.361.148-.68.28.552.372,1,.672,1.443.967.019.014.01.077.019.165" fill="#114048"/>
        <path id="Path_13628" data-name="Path 13628" d="M434.853,172.478a.525.525,0,0,0-.446-.107c-.135.033-.237.181-.339.269.386.631.694,1.121,1.082,1.724.551-.311,1.066-.589,1.526-.873-.32-1.156-1.344-.4-1.823-1.01Z" fill="#114048"/>
        <path id="Path_13629" data-name="Path 13629" d="M413.55,162.969c.7-.195,1.393-.366,2.214-.614-.056-.344-.127-.782-.21-1.3-.627.77-1.814.682-2,1.913" fill="#114048"/>
        <path id="Path_13630" data-name="Path 13630" d="M414.461,155.243c-.168-.187-.341-.534-.5-.529-.275.009-.545.237-1.016.471.46.248.7.476.945.479.192,0,.385-.272.578-.421Z" fill="#114048"/>
        <path id="Path_13631" data-name="Path 13631" d="M435.178,178.295a1.1,1.1,0,0,0,.909.03.962.962,0,0,0,.437-.729l-.537-.143C435.723,177.739,435.453,178.017,435.178,178.295Z" fill="#114048"/>
        <path id="Path_13632" data-name="Path 13632" d="M427.062,158.652a1.924,1.924,0,0,0,.438-.617c.036-.071.071-.143.107-.212l-.143-.1-.185.138c-.074.047-.176.1-.264.146l-.261.143-.072.226-.008.024c.132.091.344.295.388.251" fill="#114048"/>
      </g>
    </g>
    <path id="Path_13633" data-name="Path 13633" d="M427.012,158.007h0Z" fill="#114048"/>
    <path id="Path_13634" data-name="Path 13634" d="M436.792,177.66l.545.129-.121-.438Z" fill="#114048"/>
    <g id="Group_3217" data-name="Group 3217">
      <g id="Group_3216" data-name="Group 3216" clip-path="url(#clip-path)">
        <path id="Path_13635" data-name="Path 13635" d="M411.146,159.893l-.025-.28h-.008l-.182.05c0,.036,0,.077,0,.113s0,.07.019.087c.038.039.132.022.2.03Z" fill="#114048"/>
        <path id="Path_13636" data-name="Path 13636" d="M410.6,162.424c-.267.443.251.292.336.468Z" fill="#114048"/>
      </g>
    </g>
    <path id="Path_13637" data-name="Path 13637" d="M410.405,157.061l0,0,.1-.072Z" fill="#114048"/>
    <path id="Path_13638" data-name="Path 13638" d="M437.706,173.181l.008,0-.1-.082Z" fill="#114048"/>
    <g id="Group_3219" data-name="Group 3219">
      <g id="Group_3218" data-name="Group 3218" clip-path="url(#clip-path)">
        <path id="Path_13639" data-name="Path 13639" d="M418.64,155.015a.469.469,0,0,0-.063-.234c-.011-.028-.022-.055-.033-.08-.039.022-.08.047-.121.072s-.091.052-.146.085c.057.129.1.223.146.319.077-.052.209-.093.217-.159Z" fill="#114048"/>
        <path id="Path_13640" data-name="Path 13640" d="M411.3,152.54c-.2-.454-.361-.826-.542-1.242-.058-.019-.116-.041-.174-.06-.6,1.007-.537,1.054.716,1.3" fill="#114048"/>
        <path id="Path_13641" data-name="Path 13641" d="M409.244,152.909a.545.545,0,0,0,.11-.22c0-.009.008-.02.008-.028.02-.148-.074-.27-.25-.391-.044.24-.088.477-.176.947a2.207,2.207,0,0,0,.311-.308Z" fill="#114048"/>
      </g>
    </g>
    <path id="Path_13642" data-name="Path 13642" d="M409.108,152.27h0l-.07-.1Z" fill="#114048"/>
    <g id="Group_3221" data-name="Group 3221">
      <g id="Group_3220" data-name="Group 3220" clip-path="url(#clip-path)">
        <path id="Path_13643" data-name="Path 13643" d="M437.816,178.472l.091.055c.022-.033.055-.063.06-.1,0-.011-.057-.036-.09-.055-.022.033-.055.063-.061.1" fill="#114048"/>
      </g>
    </g>
    <path id="Path_13644" data-name="Path 13644" d="M418.544,165.177l.022.066.093-.074Z" fill="#114048"/>
    <g id="Group_3223" data-name="Group 3223">
      <g id="Group_3222" data-name="Group 3222" clip-path="url(#clip-path)">
        <path id="Path_13645" data-name="Path 13645" d="M410.827,163.709l-.231-.14c-.245.154-.49.308-.777.49.226.413-.14,1.021.534,1.266.526.193-.294,1.2.818,1.25-.127-.512-.11-1.057-.366-1.355a1.23,1.23,0,0,1-.245-.41,1.356,1.356,0,0,1,.267-1.1" fill="#114048"/>
        <path id="Path_13646" data-name="Path 13646" d="M409.032,168.1c0,.121.248.24.449.418.115-.407.2-.691.278-.974v-.011c-.518-.176-.727.1-.727.564Z" fill="#114048"/>
        <path id="Path_13647" data-name="Path 13647" d="M413.145,165.221l-.328-1.038c-.071-.036-.143-.069-.214-.1l.005.063.094.857Z" fill="#114048"/>
      </g>
    </g>
    <path id="Path_13648" data-name="Path 13648" d="M410.034,176.168l.488-.1-.036-.114Z" fill="#114048"/>
    <path id="Path_13649" data-name="Path 13649" d="M410.026,176.168v0l.008,0Z" fill="#114048"/>
    <g id="Group_3225" data-name="Group 3225">
      <g id="Group_3224" data-name="Group 3224" clip-path="url(#clip-path)">
        <path id="Path_13650" data-name="Path 13650" d="M434.005,166.446a3.483,3.483,0,0,0,.694-.688.817.817,0,0,0-.039-.664.579.579,0,0,0-.537-.2c-.2.075-.327.322-.5.474a1.624,1.624,0,0,0-.608,1.057c.063.284.126.567.173.856a4.1,4.1,0,0,0,.5.782c.122-.578.223-1.1.314-1.613Z" fill="#114048"/>
        <path id="Path_13651" data-name="Path 13651" d="M437.684,162.333a.977.977,0,0,0-.471-.548c-.523-.074-.581.328-.38,1.159.287-.344.895.146.851-.611" fill="#114048"/>
        <path id="Path_13652" data-name="Path 13652" d="M434.8,167.423l.669-.2c-.65-.443-.641-.446-.669.2" fill="#114048"/>
        <path id="Path_13653" data-name="Path 13653" d="M436.362,163.167c-.242.182-.41.319-.68.509.5.207.809.278.68-.509" fill="#114048"/>
      </g>
    </g>
    <path id="Path_13654" data-name="Path 13654" d="M438.906,164.888l.049.088.034-.025.033-.022-.088-.118Z" fill="#114048"/>
    <g id="Group_3227" data-name="Group 3227">
      <g id="Group_3226" data-name="Group 3226" clip-path="url(#clip-path)">
        <path id="Path_13655" data-name="Path 13655" d="M445.282,170.642l.063-.025c-.03-.237-.066-.471-.107-.707.011.234.036.47.041.71v.022Z" fill="#114048"/>
        <path id="Path_13656" data-name="Path 13656" d="M407.658,154.134c-.383.135-.677.242-.875.311.022.35.06.7.107,1.044a4.625,4.625,0,0,0,.771-.62c.1-.113,0-.435,0-.738Z" fill="#114048"/>
      </g>
    </g>
    <path id="Path_13657" data-name="Path 13657" d="M428.411,159.153l0,0-.061-.1Z" fill="#114048"/>
    <g id="Group_3229" data-name="Group 3229">
      <g id="Group_3228" data-name="Group 3228" clip-path="url(#clip-path)">
        <path id="Path_13658" data-name="Path 13658" d="M363.286,151.953a.592.592,0,0,1,.058-.475.493.493,0,0,1,.292-.281,2.487,2.487,0,0,1,.878.168c.479.14,1.01.325,1.6.558q2.193.893,2.582,1.087a.656.656,0,0,1,.152.092.478.478,0,0,1,.079.27.619.619,0,0,1-.055.322.215.215,0,0,1-.049.069.535.535,0,0,1-.485.206,7.2,7.2,0,0,1-1.3-.482c-.661-.28-1.148-.477-1.462-.583l-.336-.124.432.506a10.192,10.192,0,0,0,.961,1,3.11,3.11,0,0,1,.521.6.63.63,0,0,1,.024.464.325.325,0,0,1-.035.1c-.042.083-.218.171-.532.268a8.27,8.27,0,0,1-1.544.245,5.649,5.649,0,0,0-1.1.129c-.014.025.181.138.578.338.212.107.38.188.506.24.513.237.788.366.829.388a.985.985,0,0,1,.432.324.548.548,0,0,1,.036.568.482.482,0,0,1-.476.277,3.789,3.789,0,0,1-.986-.4,14.158,14.158,0,0,0-1.588-.694c-.584-.213-.983-.375-1.2-.48a1.341,1.341,0,0,1-.333-.207.605.605,0,0,1-.13-.272.74.74,0,0,1-.016-.573.539.539,0,0,1,.22-.225,7.386,7.386,0,0,1,1.272-.267q1.107-.182,1.889-.247a2.507,2.507,0,0,0,.515-.078l-.08-.085a2.858,2.858,0,0,0-.223-.272c-.108-.123-.2-.227-.276-.318-.388-.44-.748-.877-1.076-1.312a4.38,4.38,0,0,1-.562-.857Z" fill="#114048"/>
        <path id="Path_13659" data-name="Path 13659" d="M368.376,143.289a.5.5,0,0,1,.052-.314.5.5,0,0,1,.273-.16.687.687,0,0,1,.341-.024.309.309,0,0,1,.108.057,8.8,8.8,0,0,1,1.417,1.779q.554.806,1.317,1.924a6.469,6.469,0,0,1,.784,1.3.471.471,0,0,1-.088.338.492.492,0,0,1-.65.193.259.259,0,0,0-.038-.019.153.153,0,0,1-.039-.02,6.2,6.2,0,0,1-.845-1.076l-.721-1.038-.68.138q-1.434.309-1.944.36a1.1,1.1,0,0,1-.732-.107.6.6,0,0,1-.251-.352.427.427,0,0,1,.058-.369.218.218,0,0,1,.066-.069,4.183,4.183,0,0,1,1.173-.295,10.37,10.37,0,0,0,1.335-.264l.308-.083L369,144.36a3.089,3.089,0,0,1-.628-1.074Z" fill="#114048"/>
        <path id="Path_13660" data-name="Path 13660" d="M377.949,132.626a1.418,1.418,0,0,1,.336-.442l.066-.05.077-.058a1.455,1.455,0,0,1,.564-.3,3.16,3.16,0,0,1,.81-.062.741.741,0,0,1,.567.191c.228.259.231.488.006.686a1.194,1.194,0,0,1-.7.237,1.186,1.186,0,0,0-.619.183.924.924,0,0,0-.223.491,1.992,1.992,0,0,0,.14,1.1,3.635,3.635,0,0,0,.669,1.118,2.277,2.277,0,0,0,.7.564,1.619,1.619,0,0,0,.564.145,1.349,1.349,0,0,0,.567-.037,1.531,1.531,0,0,0,.493-.309,1.6,1.6,0,0,0,.487-.667,3.5,3.5,0,0,1,.493-1.089.321.321,0,0,1,.141-.069.619.619,0,0,1,.4,0,.4.4,0,0,1,.2.119c.126.142.118.465-.022.963a3.122,3.122,0,0,1-.906,1.528c-.019.02-.055.043-.1.08s-.083.062-.1.08a2.463,2.463,0,0,1-2.607.284,3.131,3.131,0,0,1-1.005-.75c-.025-.027-.06-.063-.1-.108s-.078-.076-.1-.095a4.731,4.731,0,0,1-.955-1.741,2.638,2.638,0,0,1-.132-1,2.866,2.866,0,0,1,.294-1Z" fill="#114048"/>
        <path id="Path_13661" data-name="Path 13661" d="M386.657,128.053s.165.375.479,1.1.482,1.106.507,1.145a2.793,2.793,0,0,0,.537-.325c.355-.237.523-.394.506-.468a.156.156,0,0,0-.033-.074,4.435,4.435,0,0,0-1.338-1.074,2.311,2.311,0,0,0-.669-.341c-.008.005,0,.019.011.041Zm-1.335-.947a.411.411,0,0,1,.184-.289,1.064,1.064,0,0,1,.738-.1,5.238,5.238,0,0,1,2.219,1.054,8.285,8.285,0,0,1,2.04,2.043l.166.25a1.649,1.649,0,0,1,.181.322.288.288,0,0,1-.022.212.566.566,0,0,1-.217.292.526.526,0,0,1-.438.08.755.755,0,0,1-.449-.355l-.2-.295-.276.251a6.839,6.839,0,0,1-.715.526l-.433.289.226.341a.79.79,0,0,1,.185.548.506.506,0,0,1-.215.339.577.577,0,0,1-.446.069.56.56,0,0,1-.245-.124,2.88,2.88,0,0,1-.306-.41,13.664,13.664,0,0,1-.878-1.809,11.823,11.823,0,0,1-1.1-3.23Z" fill="#114048"/>
        <path id="Path_13662" data-name="Path 13662" d="M391.94,122.608a.479.479,0,0,1,.234-.267,1.754,1.754,0,0,1,.215-.088,22.337,22.337,0,0,0,2.489-1.06,3.378,3.378,0,0,0,.36-.193,2.764,2.764,0,0,1,.265-.143.58.58,0,0,1,.462-.014.6.6,0,0,1,.363.278.471.471,0,0,1,0,.38.494.494,0,0,1-.173.251,4.756,4.756,0,0,1-.608.325l-.711.347.215.349a34.764,34.764,0,0,1,1.729,3.268,5.669,5.669,0,0,1,.352.785.5.5,0,0,1-.291.49.509.509,0,0,1-.378.033.469.469,0,0,1-.28-.234q-.129-.2-.708-1.33-.839-1.595-1.2-2.238l-.413-.724-.355.173a3.068,3.068,0,0,1-1.073.347.524.524,0,0,1-.513-.333.436.436,0,0,1,.017-.4" fill="#114048"/>
        <path id="Path_13663" data-name="Path 13663" d="M409.255,116.383a1.921,1.921,0,0,1,.658-.242,3.3,3.3,0,0,1,1.33-.055,2.36,2.36,0,0,1,.683.212.5.5,0,0,1,.234.338.522.522,0,0,1-.053.4.466.466,0,0,1-.314.215,2.6,2.6,0,0,1-.793-.05,2.591,2.591,0,0,0-.792-.05,1.132,1.132,0,0,0-.4.215,2.428,2.428,0,0,0-.85,2.043,1.958,1.958,0,0,0,.035.482,2.475,2.475,0,0,0,.441.867,1.577,1.577,0,0,0,.809.507,2.066,2.066,0,0,0,1.047.063.829.829,0,0,0,.366-.143.258.258,0,0,0,.049-.256l-.019-.094-.088-.275-.341.1a.418.418,0,0,0-.091.027l-.08.025a.533.533,0,0,1-.408-.077.544.544,0,0,1-.245-.35.526.526,0,0,1,.322-.63,1.2,1.2,0,0,1,.339-.116,1.774,1.774,0,0,1,1.016-.014.86.86,0,0,1,.4.339,3.543,3.543,0,0,1,.256.845,1.844,1.844,0,0,1,.042,1.079,1.8,1.8,0,0,1-.931.526,2.11,2.11,0,0,1-.289.077,3.367,3.367,0,0,1-1.55-.035,2.438,2.438,0,0,1-1.776-1.391,3.607,3.607,0,0,1-.327-.856,3.839,3.839,0,0,1,.137-2.139,3,3,0,0,1,1.2-1.589Z" fill="#114048"/>
        <path id="Path_13664" data-name="Path 13664" d="M419.585,115.934a1.737,1.737,0,0,0-.732-.093c-.4.03-.614.123-.647.28-.014.075-.011.466,0,1.17s.033,1.2.052,1.482a.277.277,0,0,0,.014.074.316.316,0,0,1,.011.061v.013a4.8,4.8,0,0,0,1.153-.1,2.487,2.487,0,0,0,.474-.229,2.414,2.414,0,0,0,.633-.5.72.72,0,0,0,.151-.517l-.013-.163a1.662,1.662,0,0,0-1.1-1.473Zm-1.517-1.046a3.264,3.264,0,0,1,.768-.157,2.75,2.75,0,0,1,1.952.655,2.488,2.488,0,0,1,.7.768,3.172,3.172,0,0,1,.28,1.058c0,.044.011.107.022.19s.017.134.02.162a1.779,1.779,0,0,1-.094.719,2.232,2.232,0,0,1-.941,1.084c-.243.174-.361.278-.358.314a1.107,1.107,0,0,0,.247.391,1.276,1.276,0,0,1,.306.592.486.486,0,0,1-.1.322.5.5,0,0,1-.394.223.51.51,0,0,1-.377-.1,4.593,4.593,0,0,1-.526-.622,2.348,2.348,0,0,0-.316-.366.318.318,0,0,0-.226-.072,2.06,2.06,0,0,1-.41-.008l-.234-.025.1.6.089.594-.2.234a.572.572,0,0,1-.378.248.534.534,0,0,1-.335-.11c-.127-.082-.218-.339-.279-.771-.085-.614-.154-1.283-.212-2.007-.071-.925-.1-1.63-.1-2.111a2.863,2.863,0,0,1,.223-1.256,1.222,1.222,0,0,1,.771-.545" fill="#114048"/>
        <path id="Path_13665" data-name="Path 13665" d="M428.106,116.582s-.091.4-.275,1.167-.276,1.175-.279,1.222a2.575,2.575,0,0,0,.625.061c.427.022.656,0,.689-.072a.173.173,0,0,0,.016-.082,4.438,4.438,0,0,0-.429-1.661,2.416,2.416,0,0,0-.333-.674c-.009,0-.014.014-.017.041Zm-.5-1.556a.386.386,0,0,1,.319-.118,1.064,1.064,0,0,1,.65.363,5.272,5.272,0,0,1,1.148,2.172,8.356,8.356,0,0,1,.413,2.855l-.016.3a1.669,1.669,0,0,1-.047.367.289.289,0,0,1-.143.156.55.55,0,0,1-.347.1.528.528,0,0,1-.4-.2.777.777,0,0,1-.149-.554l.019-.355-.372.036a7.307,7.307,0,0,1-.886,0l-.518-.028-.022.408a.783.783,0,0,1-.179.55.5.5,0,0,1-.377.143.576.576,0,0,1-.4-.212.557.557,0,0,1-.124-.245,2.889,2.889,0,0,1,0-.512,13.3,13.3,0,0,1,.38-1.974,11.7,11.7,0,0,1,1.049-3.248Z" fill="#114048"/>
        <path id="Path_13666" data-name="Path 13666" d="M436.772,115.662a1.587,1.587,0,0,1,.666,0,1.63,1.63,0,0,1,.609.237,3.238,3.238,0,0,1,.666.746,4.27,4.27,0,0,1,.317.509.519.519,0,0,1-.226.661.576.576,0,0,1-.364.085c-.159-.03-.4-.253-.707-.671-.215-.3-.394-.46-.534-.488-.251-.047-.477.13-.68.526a.9.9,0,0,0-.088.262c-.061.322.162.828.663,1.522a5.412,5.412,0,0,1,.614,1.035,1.479,1.479,0,0,1,.083.757,1.507,1.507,0,0,1-1.168,1.146,1.754,1.754,0,0,1-.853.052,1.692,1.692,0,0,1-1.019-.575,1.439,1.439,0,0,1-.352-.87.658.658,0,0,1,.014-.152.536.536,0,0,1,.217-.355.551.551,0,0,1,.408-.1.6.6,0,0,1,.311.223.439.439,0,0,1,.143.317c-.011.063.036.143.143.242a.653.653,0,0,0,.319.176.8.8,0,0,0,.444-.072c.176-.06.275-.143.294-.25.022-.127-.077-.333-.3-.625a5.732,5.732,0,0,1-.969-1.591,1.716,1.716,0,0,1-.1-.471,4.168,4.168,0,0,1,.08-.631,2.356,2.356,0,0,1,.328-.952,1.9,1.9,0,0,1,1.043-.7Z" fill="#114048"/>
        <path id="Path_13667" data-name="Path 13667" d="M445.536,117.793a1.661,1.661,0,0,1,.661.083,1.572,1.572,0,0,1,.572.313,3.315,3.315,0,0,1,.565.826,4.276,4.276,0,0,1,.248.546.5.5,0,0,1-.006.305.475.475,0,0,1-.3.317.586.586,0,0,1-.371.038c-.155-.049-.361-.3-.614-.757-.174-.322-.328-.506-.468-.55-.243-.078-.491.066-.741.435a.846.846,0,0,0-.121.247,2.428,2.428,0,0,0,.46,1.594,5.345,5.345,0,0,1,.476,1.107,1.453,1.453,0,0,1-.017.76,1.509,1.509,0,0,1-1.305.986,1.736,1.736,0,0,1-.853-.061,1.677,1.677,0,0,1-.933-.7,1.47,1.47,0,0,1-.24-.909.511.511,0,0,1,.033-.145.546.546,0,0,1,.262-.325.563.563,0,0,1,.415-.047.585.585,0,0,1,.281.264.428.428,0,0,1,.1.333c-.019.061.017.146.11.256a.658.658,0,0,0,.3.218.789.789,0,0,0,.449-.014c.184-.036.291-.107.324-.209.039-.121-.033-.342-.217-.658a5.688,5.688,0,0,1-.754-1.7,1.661,1.661,0,0,1-.039-.479,3.768,3.768,0,0,1,.162-.614,2.308,2.308,0,0,1,.449-.9,1.879,1.879,0,0,1,1.123-.554Z" fill="#114048"/>
        <path id="Path_13668" data-name="Path 13668" d="M491.973,166a1.342,1.342,0,0,1,.245.5.343.343,0,0,1,.014.08.6.6,0,0,0,.019.094,1.52,1.52,0,0,1,.014.638,2.943,2.943,0,0,1-.309.752.736.736,0,0,1-.424.424c-.333.088-.539-.011-.616-.3a1.2,1.2,0,0,1,.1-.732,1.181,1.181,0,0,0,.113-.636.918.918,0,0,0-.339-.419,1.994,1.994,0,0,0-1.044-.366,3.535,3.535,0,0,0-1.3.1,2.263,2.263,0,0,0-.818.372,1.683,1.683,0,0,0-.382.44,1.406,1.406,0,0,0-.221.526,1.534,1.534,0,0,0,.055.578,1.6,1.6,0,0,0,.378.733,3.582,3.582,0,0,1,.754.927.375.375,0,0,1,0,.157.631.631,0,0,1-.185.361.392.392,0,0,1-.192.121c-.185.05-.471-.1-.854-.451a3.1,3.1,0,0,1-.963-1.5c-.006-.025-.017-.069-.028-.127s-.019-.1-.027-.127a2.455,2.455,0,0,1,.914-2.458,3.115,3.115,0,0,1,1.117-.564c.036-.009.083-.025.144-.045l.129-.041a4.772,4.772,0,0,1,1.985-.077,2.609,2.609,0,0,1,.955.333,2.863,2.863,0,0,1,.76.708Z" fill="#114048"/>
        <path id="Path_13669" data-name="Path 13669" d="M494.134,175.848c.074.3.118.5.132.6.063.5-.071.766-.4.81l-.068.008a.474.474,0,0,1-.474-.207,3.989,3.989,0,0,1-.281-1.071l-.165-.969-1.159.19q-1.145.2-1.154.218v.027c.02.127.124.589.32,1.391.041.179.063.275.066.294a.393.393,0,0,1-.085.3.506.506,0,0,1-.347.2.488.488,0,0,1-.413-.113,2.7,2.7,0,0,1-.532-1.349l-.113-.551-.878.113.008.383c0,.074.017.226.044.462.034.262.064.455.089.581s.046.259.068.432a.908.908,0,0,1-.016.4.506.506,0,0,1-.231.237.589.589,0,0,1-.2.066.527.527,0,0,1-.553-.355,3.91,3.91,0,0,1-.209-1,5.552,5.552,0,0,1-.069-1.723l.011-.028a.585.585,0,0,1,.256-.363,12.679,12.679,0,0,1,2.442-.463,1.165,1.165,0,0,1,.2-.038l.231-.031,1.985-.281a1.966,1.966,0,0,1,.923-.008,1.045,1.045,0,0,1,.429.771c0,.017,0,.044,0,.083a.574.574,0,0,0,.005.1,2.521,2.521,0,0,0,.025.3,4.444,4.444,0,0,0,.118.6Z" fill="#114048"/>
        <path id="Path_13670" data-name="Path 13670" d="M493.5,185.085a1.731,1.731,0,0,0,.152-.721c0-.4-.075-.623-.231-.669q-.108-.03-1.164-.091c-.706-.042-1.2-.064-1.48-.064a.288.288,0,0,0-.074.006.273.273,0,0,1-.061,0h-.013a2.635,2.635,0,0,0-.031.6,2.564,2.564,0,0,0,.043.558,2.5,2.5,0,0,0,.19.491,2.335,2.335,0,0,0,.448.669.725.725,0,0,0,.5.192h.162a1.649,1.649,0,0,0,1.555-.977m1.163-1.429a3.269,3.269,0,0,1,.094.776,2.752,2.752,0,0,1-.81,1.895,2.512,2.512,0,0,1-.821.633,3.072,3.072,0,0,1-1.077.195c-.046,0-.11,0-.192.006s-.134.005-.163.005a1.7,1.7,0,0,1-.707-.151,2.232,2.232,0,0,1-1.008-1.024c-.153-.256-.251-.383-.286-.383a1.083,1.083,0,0,0-.41.217,1.272,1.272,0,0,1-.615.259.533.533,0,0,1-.5-.534.514.514,0,0,1,.132-.369,4.477,4.477,0,0,1,.663-.476,2.121,2.121,0,0,0,.388-.286.315.315,0,0,0,.089-.218,1.985,1.985,0,0,1,.041-.41l.042-.231-.6.052-.6.039-.217-.218a.571.571,0,0,1-.218-.4.561.561,0,0,1,.137-.328c.091-.118.357-.19.793-.218.617-.035,1.292-.052,2.018-.049.928,0,1.633.025,2.115.071a2.813,2.813,0,0,1,1.233.325,1.224,1.224,0,0,1,.483.813Z" fill="#114048"/>
        <path id="Path_13671" data-name="Path 13671" d="M494.3,192.383a.486.486,0,0,1,.088.344,1.605,1.605,0,0,1-.047.229,22.935,22.935,0,0,0-.517,2.654,3.3,3.3,0,0,0-.044.407c-.006.091-.014.19-.031.3a.681.681,0,0,1-.682.534.49.49,0,0,1-.314-.209.524.524,0,0,1-.113-.283,4.763,4.763,0,0,1,.071-.686l.113-.782-.41-.016a34.546,34.546,0,0,1-3.675-.4,5.488,5.488,0,0,1-.846-.149.5.5,0,0,1-.242-.518.512.512,0,0,1,.185-.333.473.473,0,0,1,.352-.1c.16,0,.661.058,1.5.157q1.788.2,2.524.265l.832.063.055-.391a3.122,3.122,0,0,1,.314-1.085.524.524,0,0,1,.564-.237.45.45,0,0,1,.325.24Z" fill="#114048"/>
        <path id="Path_13672" data-name="Path 13672" d="M492.267,201.791a.642.642,0,0,1,.072.314.679.679,0,0,1-.163.27.53.53,0,0,1-.234.162,12.336,12.336,0,0,1-2.257-.267c-1.333-.217-2.3-.407-2.91-.567a1.418,1.418,0,0,1-.336-.116.521.521,0,0,1-.179-.553.474.474,0,0,1,.38-.38,6.062,6.062,0,0,1,1.384.206c.581.116,1.377.248,2.39.4.719.094,1.2.174,1.432.234a.581.581,0,0,1,.418.292Z" fill="#114048"/>
        <path id="Path_13673" data-name="Path 13673" d="M490.123,210.281a3.5,3.5,0,0,1-.107.661.608.608,0,0,1-.259.294.541.541,0,0,1-.482.036.421.421,0,0,1-.275-.267,2.683,2.683,0,0,1,.025-.867,7.21,7.21,0,0,1,.236-1.225l.16-.567-.215-.083c-.118-.044-.526-.151-1.222-.314a10.231,10.231,0,0,0-1.079-.231l-.006.014a6.535,6.535,0,0,0-.146.718,6.117,6.117,0,0,1-.3,1.181c-.122.314-.24.5-.358.551a.531.531,0,0,1-.7-.281,1.114,1.114,0,0,1,.039-.628,8.993,8.993,0,0,0,.247-1.1,5.319,5.319,0,0,0,.078-.539c0-.077-.02-.124-.064-.141s-.135-.038-.3-.08-.311-.077-.424-.112-.226-.072-.361-.124a.5.5,0,0,1-.289-.243.484.484,0,0,1-.025-.388.53.53,0,0,1,.32-.3.7.7,0,0,1,.52.011,6,6,0,0,0,.9.22,3.164,3.164,0,0,0,.73.1,5.512,5.512,0,0,1,1.291.253c.782.2,1.346.358,1.7.482a1.8,1.8,0,0,1,.8.468.478.478,0,0,1,.085.311,6.66,6.66,0,0,1-.209.809,8.524,8.524,0,0,0-.3,1.391Z" fill="#114048"/>
        <path id="Path_13674" data-name="Path 13674" d="M486.967,215.961a.581.581,0,0,1,0,.322.609.609,0,0,1-.215.226.544.544,0,0,1-.264.11,12.451,12.451,0,0,1-2.145-.752c-1.252-.5-2.161-.9-2.717-1.183a1.3,1.3,0,0,1-.3-.188.53.53,0,0,1-.055-.581.472.472,0,0,1,.454-.286,6.12,6.12,0,0,1,1.305.5c.543.237,1.291.543,2.247.911a13.977,13.977,0,0,1,1.346.54.573.573,0,0,1,.344.377Z" fill="#114048"/>
        <path id="Path_13675" data-name="Path 13675" d="M483.19,223.056c-.138.278-.237.46-.289.542-.275.419-.553.534-.834.35l-.058-.039a.482.482,0,0,1-.226-.465,3.954,3.954,0,0,1,.482-1l.5-.843-1-.608c-.667-.394-1.005-.59-1.019-.587l-.014.022c-.069.108-.292.526-.663,1.261-.086.163-.132.251-.143.264a.4.4,0,0,1-.259.174.509.509,0,0,1-.391-.077.48.48,0,0,1-.24-.353,2.67,2.67,0,0,1,.474-1.368l.272-.49-.74-.484-.245.3q-.07.082-.265.38c-.143.22-.247.385-.311.5s-.132.229-.225.372a.878.878,0,0,1-.276.294.5.5,0,0,1-.327.028.618.618,0,0,1-.193-.077.529.529,0,0,1-.19-.631,4.009,4.009,0,0,1,.493-.9,5.653,5.653,0,0,1,1.068-1.354l.025-.017a.6.6,0,0,1,.432-.11,12.819,12.819,0,0,1,2.158,1.233.948.948,0,0,1,.179.1l.193.127c1.074.683,1.638,1.04,1.693,1.076.449.295.683.49.705.592a1.035,1.035,0,0,1-.176.865c-.011.016-.028.035-.05.066a.4.4,0,0,0-.057.077,2.02,2.02,0,0,0-.177.242,4.328,4.328,0,0,0-.3.537Z" fill="#114048"/>
        <path id="Path_13676" data-name="Path 13676" d="M476.811,229.809a3.069,3.069,0,0,0,.851-.528l.316-.306-.182-.1q-.594-.33-1.651-1.071t-1.545-1.156l-.361-.311-.121.2a2.736,2.736,0,0,0-.363,1.153,1.757,1.757,0,0,0,.294,1,3.591,3.591,0,0,0,.708.807,1.982,1.982,0,0,0,.529.347,2.092,2.092,0,0,0,1.525-.039Zm2.362-.721a1.922,1.922,0,0,1-.388.619,4.1,4.1,0,0,1-1.773,1.248,2.756,2.756,0,0,1-1.58.1,3.385,3.385,0,0,1-1.49-.757,4.206,4.206,0,0,1-.718-.818,3.372,3.372,0,0,1-.617-1.448,2.945,2.945,0,0,1,.281-1.468,5.016,5.016,0,0,1,.77-1.335c.243-.283.441-.394.6-.336a13.781,13.781,0,0,1,1.264,1,23.271,23.271,0,0,0,3.042,2.131,3.844,3.844,0,0,1,.479.322.538.538,0,0,1,.207.314,1.028,1.028,0,0,1-.075.432Z" fill="#114048"/>
        <path id="Path_13677" data-name="Path 13677" d="M465.54,241.832a3.226,3.226,0,0,1-.449.5.6.6,0,0,1-.377.107.532.532,0,0,1-.421-.231.433.433,0,0,1-.088-.375,2.724,2.724,0,0,1,.5-.713,7.166,7.166,0,0,1,.865-.9l.443-.389-.138-.187c-.074-.1-.358-.413-.853-.93a10.6,10.6,0,0,0-.779-.782l-.011.008a6.751,6.751,0,0,0-.512.523,6.4,6.4,0,0,1-.9.826.989.989,0,0,1-.6.267.529.529,0,0,1-.432-.614,1.1,1.1,0,0,1,.372-.506,8.64,8.64,0,0,0,.809-.79,4.012,4.012,0,0,0,.358-.413c.044-.064.05-.116.025-.152s-.091-.107-.212-.234-.218-.234-.3-.325-.151-.184-.237-.3a.492.492,0,0,1-.11-.358.5.5,0,0,1,.19-.341.522.522,0,0,1,.433-.077.7.7,0,0,1,.432.292,6.137,6.137,0,0,0,.636.677,3.242,3.242,0,0,0,.559.479,5.59,5.59,0,0,1,.944.914q.822.888,1.162,1.33a1.788,1.788,0,0,1,.415.826.477.477,0,0,1-.1.305,6.941,6.941,0,0,1-.617.567,8.427,8.427,0,0,0-1.007,1Z" fill="#114048"/>
        <path id="Path_13678" data-name="Path 13678" d="M456.988,245.535a1.553,1.553,0,0,0,.383-.094,1.256,1.256,0,0,0,.226-.212,1.24,1.24,0,0,0,.242-.622,2.215,2.215,0,0,0-.006-.829,2.854,2.854,0,0,0-.272-.688,2.4,2.4,0,0,0-.785-.958,2.325,2.325,0,0,0-1.241-.424,1.18,1.18,0,0,0-.5.14,1.521,1.521,0,0,0-.848,1.082,2.811,2.811,0,0,0-.036.705,2.485,2.485,0,0,0,.124.683c0,.008.014.03.025.063a.591.591,0,0,0,.033.075,2.639,2.639,0,0,0,.98,1.037,1.658,1.658,0,0,0,.625.218.917.917,0,0,0,.54-.03,2.263,2.263,0,0,1,.506-.146m1.6.22a2.027,2.027,0,0,1-.741.639,2.287,2.287,0,0,1-.787.261,2.5,2.5,0,0,0-.57.149,1.633,1.633,0,0,1-1.068-.066,3.227,3.227,0,0,1-1.974-1.718l-.1-.182a4.041,4.041,0,0,1-.237-.608,3.245,3.245,0,0,1-.061-.655,2.7,2.7,0,0,1,1.459-2.671l.036-.019a2.34,2.34,0,0,1,.928-.289,2.773,2.773,0,0,1,1.209.231,3.415,3.415,0,0,1,1.112.685,4.573,4.573,0,0,1,.82,1.171,3.014,3.014,0,0,1,.226.512,3.578,3.578,0,0,1,.143,1.39,2.413,2.413,0,0,1-.393,1.164Z" fill="#114048"/>
        <path id="Path_13679" data-name="Path 13679" d="M447.315,249.753a1.4,1.4,0,0,0,.393-.036,1.3,1.3,0,0,0,.256-.176,1.2,1.2,0,0,0,.333-.578,2.177,2.177,0,0,0,.119-.82,3.018,3.018,0,0,0-.163-.724,2.417,2.417,0,0,0-.627-1.066,2.3,2.3,0,0,0-1.165-.608,1.22,1.22,0,0,0-.512.063,1.525,1.525,0,0,0-1,.939,2.694,2.694,0,0,0-.143.691,2.547,2.547,0,0,0,.016.694c0,.008.008.03.017.066a.433.433,0,0,0,.022.08,2.634,2.634,0,0,0,.812,1.175,1.658,1.658,0,0,0,.584.311.907.907,0,0,0,.536.053,2.245,2.245,0,0,1,.526-.067Zm1.544.46a2.067,2.067,0,0,1-.831.518,2.315,2.315,0,0,1-.818.137,2.72,2.72,0,0,0-.587.058,1.621,1.621,0,0,1-1.046-.231,3.207,3.207,0,0,1-1.687-2l-.066-.193a4.385,4.385,0,0,1-.141-.636,3.226,3.226,0,0,1,.039-.655,2.689,2.689,0,0,1,1.847-2.414l.039-.014a2.346,2.346,0,0,1,.96-.146,2.8,2.8,0,0,1,1.162.413,3.449,3.449,0,0,1,.994.845,4.574,4.574,0,0,1,.631,1.283,3.02,3.02,0,0,1,.143.542,3.538,3.538,0,0,1-.072,1.4,2.412,2.412,0,0,1-.567,1.091Z" fill="#114048"/>
        <path id="Path_13680" data-name="Path 13680" d="M437.318,252.46a3.17,3.17,0,0,0,.994.118l.435-.041-.08-.193q-.256-.631-.625-1.867c-.245-.823-.4-1.445-.485-1.866l-.088-.468-.22.082a2.689,2.689,0,0,0-1,.678,1.782,1.782,0,0,0-.394.963,3.577,3.577,0,0,0,.05,1.074,1.9,1.9,0,0,0,.2.6,2.1,2.1,0,0,0,1.214.922Zm2.3.911a1.9,1.9,0,0,1-.688.242,4.067,4.067,0,0,1-2.164-.132,2.78,2.78,0,0,1-1.3-.906,3.344,3.344,0,0,1-.691-1.519,4.224,4.224,0,0,1-.052-1.088,3.352,3.352,0,0,1,.421-1.517,2.964,2.964,0,0,1,1.134-.972,5.033,5.033,0,0,1,1.435-.564c.366-.069.589-.033.671.107a13.855,13.855,0,0,1,.366,1.57,23.5,23.5,0,0,0,1.049,3.562,3.672,3.672,0,0,1,.174.551.543.543,0,0,1-.033.374,1.055,1.055,0,0,1-.325.292" fill="#114048"/>
        <path id="Path_13681" data-name="Path 13681" d="M421.58,253.3a2.392,2.392,0,0,0,.568.135,1.554,1.554,0,0,0,.341-.025.267.267,0,0,0,.091-.024.157.157,0,0,0,.044-.061.333.333,0,0,0,.025-.143c.005-.127.005-.24,0-.341q-.013-.367-.039-1.272a4.532,4.532,0,0,0-.027-.628.18.18,0,0,0-.146-.129,1.273,1.273,0,0,0-.256-.039,2.519,2.519,0,0,0-.777.1,1.543,1.543,0,0,0-.619.3.611.611,0,0,0-.237.4,2.208,2.208,0,0,0,0,.231,1.44,1.44,0,0,0,1.027,1.493Zm1.121,1.209a4.671,4.671,0,0,1-.63.041h-.042a3.219,3.219,0,0,1-.7-.176,5.131,5.131,0,0,1-.724-.284,2.247,2.247,0,0,1-.87-1.021,2.933,2.933,0,0,1-.3-1.421,1.867,1.867,0,0,1,.225-.836,2.046,2.046,0,0,1,.986-.865,3.541,3.541,0,0,1,1.547-.267l.476.022.028-.586a1.275,1.275,0,0,1,.2-.758.559.559,0,0,1,.419-.173.528.528,0,0,1,.388.207.625.625,0,0,1,.127.374c.005.154-.008.619-.042,1.39-.044.964-.055,1.864-.038,2.7.008.438.008.732,0,.887a.871.871,0,0,1-.1.432.623.623,0,0,1-.295.226,2.782,2.782,0,0,1-.646.1Z" fill="#114048"/>
        <path id="Path_13682" data-name="Path 13682" d="M412.047,252.327a1.674,1.674,0,0,0,.683.275c.393.072.627.036.7-.11.03-.068.129-.446.3-1.131s.275-1.168.324-1.446a.215.215,0,0,0,.006-.074.22.22,0,0,1,.005-.06v-.014a2.506,2.506,0,0,0-.583-.135,1.838,1.838,0,0,0-1.077.038,2.358,2.358,0,0,0-.738.325.714.714,0,0,0-.278.463l-.03.162a1.658,1.658,0,0,0,.688,1.7Zm1.2,1.4a3.36,3.36,0,0,1-.782-.044,2.743,2.743,0,0,1-1.721-1.129,2.536,2.536,0,0,1-.479-.919,3.086,3.086,0,0,1,0-1.1c.009-.044.017-.108.028-.19s.019-.135.022-.163a1.73,1.73,0,0,1,.275-.671,2.238,2.238,0,0,1,1.187-.812c.278-.108.421-.177.427-.212a1.068,1.068,0,0,0-.144-.441,1.3,1.3,0,0,1-.146-.65.487.487,0,0,1,.177-.286.5.5,0,0,1,.437-.116.523.523,0,0,1,.339.193,4.386,4.386,0,0,1,.352.735,2.284,2.284,0,0,0,.212.432.316.316,0,0,0,.2.127,1.8,1.8,0,0,1,.394.113l.22.082.055-.6.067-.6.253-.176a.464.464,0,0,1,.724.049c.1.11.127.383.074.818q-.111.921-.3,2-.249,1.371-.444,2.068a2.855,2.855,0,0,1-.534,1.156,1.234,1.234,0,0,1-.883.333Z" fill="#114048"/>
        <path id="Path_13683" data-name="Path 13683" d="M402.644,250a1.613,1.613,0,0,0,.331.211,1.2,1.2,0,0,0,.311.02,1.233,1.233,0,0,0,.616-.254,2.208,2.208,0,0,0,.6-.575,3.032,3.032,0,0,0,.314-.672,2.435,2.435,0,0,0,.157-1.228,2.3,2.3,0,0,0-.548-1.192,1.239,1.239,0,0,0-.444-.264,1.522,1.522,0,0,0-1.368.129,2.762,2.762,0,0,0-.537.46,2.6,2.6,0,0,0-.413.559c0,.008-.013.03-.027.063a.476.476,0,0,0-.033.075,2.676,2.676,0,0,0-.08,1.429,1.668,1.668,0,0,0,.272.6.9.9,0,0,0,.394.368,2.352,2.352,0,0,1,.457.27Zm.939,1.31a2.068,2.068,0,0,1-.975-.1,2.357,2.357,0,0,1-.732-.391,2.508,2.508,0,0,0-.5-.311,1.637,1.637,0,0,1-.686-.821,3.219,3.219,0,0,1-.11-2.612l.066-.2a4.2,4.2,0,0,1,.278-.589,3.645,3.645,0,0,1,.432-.5,2.7,2.7,0,0,1,2.941-.776l.038.014a2.285,2.285,0,0,1,.848.473,2.785,2.785,0,0,1,.664,1.038,3.4,3.4,0,0,1,.267,1.278,4.554,4.554,0,0,1-.286,1.4,3.452,3.452,0,0,1-.218.518,3.541,3.541,0,0,1-.911,1.06,2.431,2.431,0,0,1-1.115.514Z" fill="#114048"/>
        <path id="Path_13684" data-name="Path 13684" d="M393.083,246.009a3.042,3.042,0,0,0,.713.7l.369.234.055-.2q.186-.657.653-1.858t.76-1.771l.217-.426-.226-.069a2.723,2.723,0,0,0-1.2-.083,1.8,1.8,0,0,0-.9.518,3.571,3.571,0,0,0-.617.878,1.921,1.921,0,0,0-.215.6,2.088,2.088,0,0,0,.4,1.473Zm1.253,2.128a1.936,1.936,0,0,1-.694-.231,4.1,4.1,0,0,1-1.627-1.432,2.765,2.765,0,0,1-.468-1.511,3.371,3.371,0,0,1,.388-1.625,4.172,4.172,0,0,1,.625-.889,3.363,3.363,0,0,1,1.261-.939,2.956,2.956,0,0,1,1.492-.071,4.949,4.949,0,0,1,1.479.435c.333.168.487.336.465.5a13.9,13.9,0,0,1-.672,1.462,23.888,23.888,0,0,0-1.357,3.458,3.786,3.786,0,0,1-.2.539.54.54,0,0,1-.256.276,1.025,1.025,0,0,1-.438.03Z" fill="#114048"/>
        <path id="Path_13685" data-name="Path 13685" d="M386.47,242.867a.542.542,0,0,1-.388-.088.5.5,0,0,1-.2-.308.527.527,0,0,1,.066-.378q.107-.2.752-1.214a9.069,9.069,0,0,0,1.046-1.955,1.418,1.418,0,0,0-.16-1.137,1.579,1.579,0,0,0-.5-.528,1.468,1.468,0,0,0-1.461-.2,5.174,5.174,0,0,0-1.749,1.823,7.008,7.008,0,0,1-.743.953.515.515,0,0,1-.476.123.566.566,0,0,1-.21-.082.492.492,0,0,1-.192-.534,3.656,3.656,0,0,1,.448-.735,13.445,13.445,0,0,1,1.57-1.95,2.537,2.537,0,0,1,3.058-.536,3.063,3.063,0,0,1,.438.256,2.572,2.572,0,0,1,1.074,1.552,2.909,2.909,0,0,1-.1,1.495,9.467,9.467,0,0,1-1.289,2.31l-.737,1.1-.251.024Z" fill="#114048"/>
        <path id="Path_13686" data-name="Path 13686" d="M376.619,235.362a1.4,1.4,0,0,1-.468-.3c-.014-.014-.03-.033-.055-.061s-.044-.052-.063-.071a1.477,1.477,0,0,1-.345-.54,3.182,3.182,0,0,1-.126-.8.742.742,0,0,1,.143-.581c.239-.25.468-.27.683-.063a1.2,1.2,0,0,1,.294.68,1.174,1.174,0,0,0,.234.6.924.924,0,0,0,.507.181,2,2,0,0,0,1.082-.228,3.57,3.57,0,0,0,1.06-.76,2.279,2.279,0,0,0,.506-.743,1.715,1.715,0,0,0,.1-.576,1.176,1.176,0,0,0-.43-1.027,1.548,1.548,0,0,0-.7-.429,3.62,3.62,0,0,1-1.129-.4.357.357,0,0,1-.08-.132.626.626,0,0,1-.027-.4.428.428,0,0,1,.1-.2c.132-.137.454-.157.963-.057a3.1,3.1,0,0,1,1.6.779c.019.019.05.049.088.093s.069.077.088.094a2.456,2.456,0,0,1,.5,2.574,3.133,3.133,0,0,1-.664,1.065c-.024.028-.057.064-.1.113s-.071.083-.091.1a4.748,4.748,0,0,1-1.657,1.093,2.618,2.618,0,0,1-.991.212,2.894,2.894,0,0,1-1.016-.212" fill="#114048"/>
        <path id="Path_13687" data-name="Path 13687" d="M370.716,229.4a.488.488,0,0,1-.308-.173,1.951,1.951,0,0,1-.133-.193,22.9,22.9,0,0,0-1.552-2.214,3.23,3.23,0,0,0-.265-.314c-.063-.066-.126-.143-.2-.228a.687.687,0,0,1,.088-.865.471.471,0,0,1,.369-.079.481.481,0,0,1,.281.118,5.132,5.132,0,0,1,.446.526l.487.622.3-.284a35.787,35.787,0,0,1,2.839-2.37,5.57,5.57,0,0,1,.694-.507.494.494,0,0,1,.539.185.507.507,0,0,1,.11.363.477.477,0,0,1-.17.325c-.113.113-.5.435-1.154.969q-1.387,1.149-1.941,1.636l-.622.553.242.311a3.2,3.2,0,0,1,.565.978.526.526,0,0,1-.221.569.433.433,0,0,1-.4.069Z" fill="#114048"/>
      </g>
    </g>
  </g>
</svg>
