<svg xmlns="http://www.w3.org/2000/svg" xmlns:xlink="http://www.w3.org/1999/xlink" width="140.93" height="140.93" viewBox="0 0 140.93 140.93">
  <defs>
    <clipPath id="clip-path">
      <rect id="Rectangle_1248" data-name="Rectangle 1248" width="140.93" height="140.93" transform="translate(575.209 114.173)" fill="#114048"/>
    </clipPath>
  </defs>
  <g id="Group_3275" data-name="Group 3275" transform="translate(-575.209 -114.173)">
    <g id="Group_3232" data-name="Group 3232">
      <g id="Group_3231" data-name="Group 3231" clip-path="url(#clip-path)">
        <path id="Path_13688" data-name="Path 13688" d="M582.381,151.946a.605.605,0,0,1,.058-.477.5.5,0,0,1,.292-.28,2.506,2.506,0,0,1,.876.166c.477.139,1.013.327,1.6.56q2.193.9,2.583,1.088a.987.987,0,0,1,.152.091.459.459,0,0,1,.078.27.619.619,0,0,1-.055.321.225.225,0,0,1-.05.07.534.534,0,0,1-.486.205,7.6,7.6,0,0,1-1.3-.48c-.66-.28-1.148-.477-1.462-.583l-.335-.124.43.507a10.266,10.266,0,0,0,.959,1.005,2.825,2.825,0,0,1,.519.6.62.62,0,0,1,.025.463.358.358,0,0,1-.036.106c-.042.083-.219.169-.533.266a8.174,8.174,0,0,1-1.545.247,5.433,5.433,0,0,0-1.1.13,2.217,2.217,0,0,0,.58.339c.211.1.38.186.505.238.51.236.788.367.829.386a.992.992,0,0,1,.43.325.554.554,0,0,1,.036.566.494.494,0,0,1-.477.28,3.94,3.94,0,0,1-.987-.4,14.832,14.832,0,0,0-1.59-.694c-.585-.213-.982-.374-1.193-.48a1.487,1.487,0,0,1-.333-.205.64.64,0,0,1-.13-.272.767.767,0,0,1-.017-.574.552.552,0,0,1,.22-.225,7.407,7.407,0,0,1,1.273-.266q1.107-.183,1.886-.247a2.339,2.339,0,0,0,.513-.078l-.08-.086a2.756,2.756,0,0,0-.222-.271c-.108-.123-.2-.225-.277-.317q-.584-.657-1.077-1.312a4.315,4.315,0,0,1-.56-.854Z" fill="#114048"/>
        <path id="Path_13689" data-name="Path 13689" d="M587.472,143.283a.485.485,0,0,1,.053-.313.5.5,0,0,1,.272-.161.665.665,0,0,1,.341-.025.308.308,0,0,1,.108.058,8.75,8.75,0,0,1,1.417,1.778q.553.8,1.315,1.922a6.58,6.58,0,0,1,.785,1.3.469.469,0,0,1-.088.339.489.489,0,0,1-.649.191.359.359,0,0,0-.039-.019.1.1,0,0,1-.036-.017,6.211,6.211,0,0,1-.844-1.076l-.718-1.038-.68.139c-.954.208-1.6.327-1.942.361a1.106,1.106,0,0,1-.732-.106.6.6,0,0,1-.252-.352.425.425,0,0,1,.058-.369.231.231,0,0,1,.066-.069,4.236,4.236,0,0,1,1.171-.294,9.744,9.744,0,0,0,1.334-.264l.308-.083-.616-.832a3.122,3.122,0,0,1-.626-1.074Z" fill="#114048"/>
        <path id="Path_13690" data-name="Path 13690" d="M597.042,132.625a1.408,1.408,0,0,1,.336-.444.638.638,0,0,1,.066-.047.407.407,0,0,0,.075-.058,1.439,1.439,0,0,1,.563-.3,3.127,3.127,0,0,1,.81-.061.745.745,0,0,1,.569.189c.227.258.23.488.005.685a1.176,1.176,0,0,1-.7.236,1.213,1.213,0,0,0-.622.183.934.934,0,0,0-.224.488,2.018,2.018,0,0,0,.138,1.1,3.543,3.543,0,0,0,.669,1.117,2.266,2.266,0,0,0,.7.566,1.752,1.752,0,0,0,.566.147,1.449,1.449,0,0,0,.568-.036,1.536,1.536,0,0,0,.494-.308,1.569,1.569,0,0,0,.486-.665,3.623,3.623,0,0,1,.491-1.091.349.349,0,0,1,.138-.069.635.635,0,0,1,.4.006.4.4,0,0,1,.2.116c.125.142.12.466-.022.966a3.078,3.078,0,0,1-.907,1.528.8.8,0,0,1-.1.08c-.047.037-.083.064-.1.081a2.456,2.456,0,0,1-2.6.283,3.139,3.139,0,0,1-1.007-.749,1.437,1.437,0,0,0-.106-.108c-.047-.045-.077-.078-.094-.1a4.707,4.707,0,0,1-.954-1.74,2.593,2.593,0,0,1-.131-1,2.829,2.829,0,0,1,.294-1Z" fill="#114048"/>
        <path id="Path_13691" data-name="Path 13691" d="M605.747,128.051s.164.374.477,1.1.483,1.107.508,1.146a2.87,2.87,0,0,0,.538-.324c.35-.231.524-.394.508-.469a.161.161,0,0,0-.033-.075,4.435,4.435,0,0,0-1.34-1.074,2.394,2.394,0,0,0-.669-.341c-.008.006,0,.02.011.042Zm-1.334-.946a.407.407,0,0,1,.186-.289,1.061,1.061,0,0,1,.738-.1,5.215,5.215,0,0,1,2.216,1.055,8.308,8.308,0,0,1,2.039,2.041l.167.25a1.655,1.655,0,0,1,.18.322.288.288,0,0,1-.022.21.579.579,0,0,1-.217.292.537.537,0,0,1-.438.08.76.76,0,0,1-.449-.355l-.2-.294-.278.25a7,7,0,0,1-.715.524l-.43.289.227.341a.8.8,0,0,1,.186.549.5.5,0,0,1-.216.338.572.572,0,0,1-.447.07.615.615,0,0,1-.247-.122,2.894,2.894,0,0,1-.3-.411,13.568,13.568,0,0,1-.877-1.809,11.885,11.885,0,0,1-1.1-3.228Z" fill="#114048"/>
        <path id="Path_13692" data-name="Path 13692" d="M611.029,122.608a.472.472,0,0,1,.233-.266,1.658,1.658,0,0,1,.216-.089,22.2,22.2,0,0,0,2.486-1.06,3.618,3.618,0,0,0,.36-.191c.078-.047.167-.094.264-.142a.583.583,0,0,1,.463-.014.592.592,0,0,1,.364.278.473.473,0,0,1,0,.377.5.5,0,0,1-.172.25,5.25,5.25,0,0,1-.608.327l-.71.347.216.349a34.363,34.363,0,0,1,1.729,3.268,6.063,6.063,0,0,1,.352.785.5.5,0,0,1-.291.491.523.523,0,0,1-.378.034.484.484,0,0,1-.28-.233q-.129-.2-.707-1.332c-.558-1.065-.957-1.809-1.2-2.239l-.413-.724L612.6,123a3.154,3.154,0,0,1-1.074.347.532.532,0,0,1-.513-.333.442.442,0,0,1,.017-.4Z" fill="#114048"/>
        <path id="Path_13693" data-name="Path 13693" d="M628.339,116.383a1.945,1.945,0,0,1,.66-.241,3.282,3.282,0,0,1,1.329-.056,2.369,2.369,0,0,1,.682.214.505.505,0,0,1,.236.338.518.518,0,0,1-.053.4.452.452,0,0,1-.313.216,2.7,2.7,0,0,1-.793-.047,2.572,2.572,0,0,0-.794-.05,1.124,1.124,0,0,0-.4.214,2.426,2.426,0,0,0-.849,2.044,1.887,1.887,0,0,0,.036.48,2.456,2.456,0,0,0,.441.866,1.557,1.557,0,0,0,.81.5,2.041,2.041,0,0,0,1.049.064.82.82,0,0,0,.366-.144.256.256,0,0,0,.05-.255l-.02-.1-.088-.274-.342.1a.434.434,0,0,0-.091.027.6.6,0,0,1-.078.022.526.526,0,0,1-.408-.077.539.539,0,0,1-.244-.353.524.524,0,0,1,.322-.629,1.244,1.244,0,0,1,.338-.117,1.793,1.793,0,0,1,1.016-.014.865.865,0,0,1,.4.339,3.686,3.686,0,0,1,.256.843,1.033,1.033,0,0,1-.891,1.606,2.948,2.948,0,0,1-.291.078,3.386,3.386,0,0,1-1.551-.036,2.445,2.445,0,0,1-1.778-1.39,3.527,3.527,0,0,1-.327-.857,3.858,3.858,0,0,1,.136-2.139,3.034,3.034,0,0,1,1.193-1.589Z" fill="#114048"/>
        <path id="Path_13694" data-name="Path 13694" d="M638.669,115.934a1.712,1.712,0,0,0-.732-.094c-.4.03-.616.125-.649.283-.014.075-.011.463,0,1.168s.033,1.2.053,1.481a.28.28,0,0,0,.013.075.236.236,0,0,1,.012.061v.014a5.034,5.034,0,0,0,1.156-.1,2.485,2.485,0,0,0,.475-.227,2.389,2.389,0,0,0,.632-.5.694.694,0,0,0,.15-.516l-.011-.163a1.659,1.659,0,0,0-1.1-1.473Zm-1.517-1.043a3.145,3.145,0,0,1,.768-.155,2.751,2.751,0,0,1,1.951.654,2.532,2.532,0,0,1,.7.769,3.114,3.114,0,0,1,.28,1.057c0,.047.011.108.022.188s.017.136.02.164a1.717,1.717,0,0,1-.095.718,2.221,2.221,0,0,1-.94,1.085c-.241.175-.361.28-.358.316a1.111,1.111,0,0,0,.25.391,1.265,1.265,0,0,1,.305.591.483.483,0,0,1-.1.322.49.49,0,0,1-.391.222.521.521,0,0,1-.378-.1,4.332,4.332,0,0,1-.527-.621,2.253,2.253,0,0,0-.316-.366.309.309,0,0,0-.225-.073,1.916,1.916,0,0,1-.41-.008l-.233-.022.1.594.088.6-.2.233a.56.56,0,0,1-.378.247.539.539,0,0,1-.335-.111c-.125-.081-.217-.339-.278-.771-.086-.613-.155-1.282-.211-2.009-.072-.923-.1-1.628-.1-2.111a2.815,2.815,0,0,1,.225-1.254,1.244,1.244,0,0,1,.771-.546Z" fill="#114048"/>
        <path id="Path_13695" data-name="Path 13695" d="M647.185,116.583s-.091.4-.275,1.168-.274,1.176-.277,1.221a2.72,2.72,0,0,0,.624.061c.427.022.655,0,.688-.072a.168.168,0,0,0,.017-.084,4.457,4.457,0,0,0-.43-1.661,2.376,2.376,0,0,0-.333-.674c-.008,0-.014.011-.017.038Zm-.5-1.556a.4.4,0,0,1,.319-.119,1.052,1.052,0,0,1,.649.363,5.263,5.263,0,0,1,1.146,2.172,8.371,8.371,0,0,1,.413,2.855l-.017.3a1.617,1.617,0,0,1-.047.366.3.3,0,0,1-.144.156.56.56,0,0,1-.347.1.528.528,0,0,1-.4-.2.763.763,0,0,1-.147-.554l.019-.353-.371.036a6.875,6.875,0,0,1-.888-.008l-.516-.028-.022.408a.781.781,0,0,1-.181.549.507.507,0,0,1-.377.145.583.583,0,0,1-.4-.214.514.514,0,0,1-.122-.247,2.866,2.866,0,0,1,0-.51,13.592,13.592,0,0,1,.38-1.975,11.82,11.82,0,0,1,1.049-3.249Z" fill="#114048"/>
        <path id="Path_13696" data-name="Path 13696" d="M655.849,115.665a1.582,1.582,0,0,1,.665,0,1.6,1.6,0,0,1,.607.236,3.261,3.261,0,0,1,.666.746,3.981,3.981,0,0,1,.316.508.494.494,0,0,1,.034.305.481.481,0,0,1-.258.355.593.593,0,0,1-.363.086c-.162-.031-.4-.253-.708-.671-.214-.3-.391-.461-.536-.486-.251-.047-.477.13-.678.527a.869.869,0,0,0-.09.261c-.058.322.161.829.663,1.52a5.353,5.353,0,0,1,.613,1.035,1.465,1.465,0,0,1,.083.757,1.505,1.505,0,0,1-1.168,1.146,1.71,1.71,0,0,1-.854.05,1.684,1.684,0,0,1-1.018-.575,1.451,1.451,0,0,1-.352-.868.656.656,0,0,1,.014-.15.531.531,0,0,1,.219-.355.48.48,0,0,1,.715.125c.111.131.158.236.142.316-.011.061.036.142.145.242a.637.637,0,0,0,.321.177.819.819,0,0,0,.444-.069c.177-.061.274-.144.3-.253s-.078-.332-.3-.624a5.686,5.686,0,0,1-.968-1.592,1.546,1.546,0,0,1-.1-.469,4.048,4.048,0,0,1,.081-.629,2.331,2.331,0,0,1,.327-.952,1.887,1.887,0,0,1,1.044-.7Z" fill="#114048"/>
        <path id="Path_13697" data-name="Path 13697" d="M664.612,117.792a1.65,1.65,0,0,1,.66.083,1.559,1.559,0,0,1,.572.314,3.325,3.325,0,0,1,.566.826,3.86,3.86,0,0,1,.246.544.5.5,0,0,1-.005.305.477.477,0,0,1-.3.316.564.564,0,0,1-.372.039q-.232-.075-.616-.757c-.172-.322-.327-.508-.469-.552q-.362-.117-.74.435a.984.984,0,0,0-.123.247,2.432,2.432,0,0,0,.461,1.595,5.3,5.3,0,0,1,.474,1.107,1.473,1.473,0,0,1-.016.76,1.507,1.507,0,0,1-1.3.985,1.731,1.731,0,0,1-.855-.058,1.685,1.685,0,0,1-.934-.7,1.439,1.439,0,0,1-.239-.907.57.57,0,0,1,.033-.147.548.548,0,0,1,.261-.325.567.567,0,0,1,.416-.047.58.58,0,0,1,.28.264.433.433,0,0,1,.1.333c-.019.058.017.147.111.258a.646.646,0,0,0,.3.216.774.774,0,0,0,.447-.014c.183-.036.291-.105.324-.211.039-.122-.033-.338-.219-.657a5.675,5.675,0,0,1-.754-1.7,1.664,1.664,0,0,1-.039-.48,3.819,3.819,0,0,1,.161-.613,2.366,2.366,0,0,1,.446-.9,1.9,1.9,0,0,1,1.124-.555Z" fill="#114048"/>
        <path id="Path_13698" data-name="Path 13698" d="M711.054,165.55a1.626,1.626,0,0,1,.291.6,1.584,1.584,0,0,1,.05.649,3.286,3.286,0,0,1-.383.924,3.869,3.869,0,0,1-.321.505.529.529,0,0,1-.258.164.477.477,0,0,1-.433-.081.578.578,0,0,1-.233-.288,1.655,1.655,0,0,1,.3-.93,1.1,1.1,0,0,0,.2-.69c-.067-.247-.325-.375-.768-.383a1.006,1.006,0,0,0-.275.033q-.474.129-1.085,1.257a5.057,5.057,0,0,1-.665,1,1.451,1.451,0,0,1-.647.4,1.5,1.5,0,0,1-1.537-.554,1.719,1.719,0,0,1-.416-.749,1.693,1.693,0,0,1,.078-1.166,1.447,1.447,0,0,1,.63-.693.639.639,0,0,1,.141-.053.536.536,0,0,1,.413.042.55.55,0,0,1,.267.324.6.6,0,0,1-.067.378c-.069.155-.147.244-.224.266s-.114.094-.156.233a.651.651,0,0,0-.022.366.787.787,0,0,0,.258.369c.13.133.25.186.352.158q.188-.049.433-.541a5.689,5.689,0,0,1,1.015-1.564,1.617,1.617,0,0,1,.38-.294,4.016,4.016,0,0,1,.6-.2,2.289,2.289,0,0,1,1-.116,1.883,1.883,0,0,1,1.079.638Z" fill="#114048"/>
        <path id="Path_13699" data-name="Path 13699" d="M712.109,175.82a1.631,1.631,0,0,0,.047-.392,1.183,1.183,0,0,0-.12-.285,1.22,1.22,0,0,0-.5-.444,2.147,2.147,0,0,0-.78-.286,3.04,3.04,0,0,0-.74.011,2.422,2.422,0,0,0-1.174.4,2.319,2.319,0,0,0-.832,1.012,1.211,1.211,0,0,0-.044.516,1.521,1.521,0,0,0,.713,1.174,2.783,2.783,0,0,0,.649.28,2.435,2.435,0,0,0,.682.128h.07a.319.319,0,0,0,.083-.006,2.638,2.638,0,0,0,1.317-.552,1.642,1.642,0,0,0,.422-.508.891.891,0,0,0,.161-.516,2.417,2.417,0,0,1,.042-.527Zm.768-1.418a2.083,2.083,0,0,1,.338.918,2.352,2.352,0,0,1-.03.83,2.552,2.552,0,0,0-.064.585,1.631,1.631,0,0,1-.438.976,3.214,3.214,0,0,1-2.3,1.243l-.2.025a4.279,4.279,0,0,1-.652.008,2.994,2.994,0,0,1-.632-.174,2.691,2.691,0,0,1-1.984-2.3l0-.041a2.319,2.319,0,0,1,.055-.968,2.765,2.765,0,0,1,.644-1.052,3.454,3.454,0,0,1,1.032-.8,4.62,4.62,0,0,1,1.384-.355,2.983,2.983,0,0,1,.56-.03,3.5,3.5,0,0,1,1.351.357,2.45,2.45,0,0,1,.952.78Z" fill="#114048"/>
        <path id="Path_13700" data-name="Path 13700" d="M713.459,183.567a.654.654,0,0,1,.153.286.638.638,0,0,1-.086.3.544.544,0,0,1-.184.219,11.9,11.9,0,0,1-2.246.331q-2.019.207-2.958.213a1.366,1.366,0,0,1-.355-.025.517.517,0,0,1-.316-.488.483.483,0,0,1,.269-.466,6.028,6.028,0,0,1,1.39-.161c.591-.042,1.4-.119,2.411-.236.715-.094,1.2-.144,1.445-.147a.575.575,0,0,1,.48.175Z" fill="#114048"/>
        <path id="Path_13701" data-name="Path 13701" d="M712.907,189.778a.486.486,0,0,1,.13.355.585.585,0,0,1-.166.327l-.153.164-1.276-.122c-.9-.086-1.661-.128-2.3-.125l-1-.014-.061.214a4.34,4.34,0,0,0-.113.757,1.784,1.784,0,0,1-.181.749.516.516,0,0,1-.532.264.5.5,0,0,1-.414-.278,1.358,1.358,0,0,1-.019-.516c.016-.172.033-.31.052-.418a9.559,9.559,0,0,1,.336-1.668.614.614,0,0,1,.586-.258c.055,0,.241,0,.56.011q2.168.084,3.445.206a4.8,4.8,0,0,1,.622.086.927.927,0,0,1,.479.266Z" fill="#114048"/>
        <path id="Path_13702" data-name="Path 13702" d="M708.566,205.409s-.361-.191-1.057-.566-1.065-.568-1.109-.582a2.578,2.578,0,0,0-.22.588c-.13.4-.166.632-.1.682.006.011.031.022.072.039a4.446,4.446,0,0,0,1.717.011,2.436,2.436,0,0,0,.738-.147c0-.008-.008-.016-.036-.025m1.634-.083a.4.4,0,0,1,.033.338,1.065,1.065,0,0,1-.518.536,5.294,5.294,0,0,1-2.394.549,8.368,8.368,0,0,1-2.866-.338l-.286-.1a1.65,1.65,0,0,1-.341-.138.3.3,0,0,1-.114-.181.567.567,0,0,1-.011-.363A.535.535,0,0,1,704,205.3a.787.787,0,0,1,.575,0l.335.111.061-.366a6.851,6.851,0,0,1,.236-.857l.161-.491-.388-.128a.788.788,0,0,1-.486-.316.513.513,0,0,1-.041-.4.575.575,0,0,1,.307-.33.53.53,0,0,1,.269-.055,2.785,2.785,0,0,1,.494.13,13.067,13.067,0,0,1,1.809.877,11.85,11.85,0,0,1,2.868,1.85Z" fill="#114048"/>
        <path id="Path_13703" data-name="Path 13703" d="M707.229,214a1.651,1.651,0,0,1-.169.644,1.615,1.615,0,0,1-.386.527,3.349,3.349,0,0,1-.893.452,3.883,3.883,0,0,1-.574.175.522.522,0,0,1-.3-.045.481.481,0,0,1-.274-.341.562.562,0,0,1,.011-.372c.069-.147.347-.319.832-.513.344-.128.544-.258.608-.391q.162-.345-.333-.793a.978.978,0,0,0-.228-.153,2.413,2.413,0,0,0-1.642.25,5.684,5.684,0,0,1-1.16.327,1.448,1.448,0,0,1-.751-.117,1.5,1.5,0,0,1-.8-1.423,1.76,1.76,0,0,1,.172-.84,1.674,1.674,0,0,1,.819-.835,1.452,1.452,0,0,1,.929-.117.506.506,0,0,1,.141.053.538.538,0,0,1,.286.3.549.549,0,0,1-.011.419.57.57,0,0,1-.3.244.428.428,0,0,1-.344.056c-.058-.028-.147,0-.269.075a.628.628,0,0,0-.252.263.781.781,0,0,0-.045.447c.011.186.067.3.167.352.116.056.341.011.679-.13a5.728,5.728,0,0,1,1.79-.527,1.74,1.74,0,0,1,.479.022,3.776,3.776,0,0,1,.589.241,2.327,2.327,0,0,1,.835.561,1.882,1.882,0,0,1,.4,1.187Z" fill="#114048"/>
        <path id="Path_13704" data-name="Path 13704" d="M702.91,221.918a1.651,1.651,0,0,1-.25.616,1.586,1.586,0,0,1-.449.474,3.285,3.285,0,0,1-.943.333,4.118,4.118,0,0,1-.591.1.531.531,0,0,1-.294-.083.479.479,0,0,1-.23-.375.552.552,0,0,1,.058-.366,1.653,1.653,0,0,1,.89-.4,1.083,1.083,0,0,0,.655-.311c.136-.213.061-.491-.23-.829a.949.949,0,0,0-.208-.183,2.443,2.443,0,0,0-1.659.036,5.362,5.362,0,0,1-1.19.174,1.46,1.46,0,0,1-.733-.21,1.5,1.5,0,0,1-.613-1.515,1.8,1.8,0,0,1,1.2-1.534,1.457,1.457,0,0,1,.938,0,.633.633,0,0,1,.133.069.544.544,0,0,1,.247.336.562.562,0,0,1-.064.413.591.591,0,0,1-.325.205.441.441,0,0,1-.349.011c-.053-.036-.147-.022-.278.042a.662.662,0,0,0-.285.23.788.788,0,0,0-.1.436c-.011.186.028.311.119.369.106.069.339.055.691-.042a5.752,5.752,0,0,1,1.842-.291,1.684,1.684,0,0,1,.472.083,3.862,3.862,0,0,1,.552.314,2.307,2.307,0,0,1,.754.665,1.9,1.9,0,0,1,.247,1.229Z" fill="#114048"/>
        <path id="Path_13705" data-name="Path 13705" d="M695.994,229.557a1.436,1.436,0,0,0,.321-.227,1.188,1.188,0,0,0,.134-.281,1.241,1.241,0,0,0,0-.668,2.175,2.175,0,0,0-.311-.769,2.887,2.887,0,0,0-.505-.54,2.385,2.385,0,0,0-1.079-.605,2.3,2.3,0,0,0-1.309.058,1.187,1.187,0,0,0-.411.313,1.522,1.522,0,0,0-.394,1.315,2.816,2.816,0,0,0,.225.669,2.461,2.461,0,0,0,.363.591c.006.005.022.022.047.05a.6.6,0,0,0,.059.058,2.629,2.629,0,0,0,1.292.607,1.683,1.683,0,0,0,.661-.024.9.9,0,0,0,.491-.225,2.345,2.345,0,0,1,.418-.322Zm1.567-.38a2.017,2.017,0,0,1-.458.865,2.275,2.275,0,0,1-.635.53,2.429,2.429,0,0,0-.477.347,1.621,1.621,0,0,1-1.018.327,3.223,3.223,0,0,1-2.464-.876l-.155-.133a4.3,4.3,0,0,1-.441-.48,3.48,3.48,0,0,1-.3-.588,2.693,2.693,0,0,1,.383-3.016l.028-.03a2.323,2.323,0,0,1,.757-.608,2.8,2.8,0,0,1,1.21-.227,3.36,3.36,0,0,1,1.284.233,4.565,4.565,0,0,1,1.19.79,3,3,0,0,1,.4.4,3.477,3.477,0,0,1,.638,1.243,2.413,2.413,0,0,1,.058,1.229Z" fill="#114048"/>
        <path id="Path_13706" data-name="Path 13706" d="M689.8,237.089a1.415,1.415,0,0,1-.341.438.674.674,0,0,1-.067.047.644.644,0,0,0-.077.059,1.484,1.484,0,0,1-.569.291,3.188,3.188,0,0,1-.81.053.749.749,0,0,1-.566-.2q-.337-.392,0-.688a1.177,1.177,0,0,1,.7-.228,1.161,1.161,0,0,0,.621-.177.91.91,0,0,0,.228-.486,1.985,1.985,0,0,0-.128-1.1,3.561,3.561,0,0,0-.657-1.126,2.342,2.342,0,0,0-.694-.575,1.675,1.675,0,0,0-.563-.152,1.377,1.377,0,0,0-.569.03,1.5,1.5,0,0,0-.5.3,1.585,1.585,0,0,0-.494.66,3.544,3.544,0,0,1-.505,1.084.3.3,0,0,1-.139.067.628.628,0,0,1-.405-.011.4.4,0,0,1-.194-.119c-.125-.145-.114-.466.033-.966a3.1,3.1,0,0,1,.924-1.517c.02-.019.056-.044.1-.081s.083-.061.1-.08a2.458,2.458,0,0,1,2.61-.252,3.162,3.162,0,0,1,1,.76q.036.04.1.108c.045.047.075.078.094.1a4.719,4.719,0,0,1,.935,1.75,2.685,2.685,0,0,1,.12,1.007,2.94,2.94,0,0,1-.306.993Z" fill="#114048"/>
        <path id="Path_13707" data-name="Path 13707" d="M683.347,242.007a.659.659,0,0,1-.153.286.628.628,0,0,1-.3.094.605.605,0,0,1-.283-.028,12.136,12.136,0,0,1-1.523-1.686q-1.29-1.562-1.817-2.342a1.442,1.442,0,0,1-.178-.307.529.529,0,0,1,.231-.536.474.474,0,0,1,.535-.036,5.914,5.914,0,0,1,.9,1.065q.546.7,1.534,1.876a14.236,14.236,0,0,1,.924,1.117.566.566,0,0,1,.122.494Z" fill="#114048"/>
        <path id="Path_13708" data-name="Path 13708" d="M675.913,244.611l-.367-1.14q-.362-1.126-.391-1.19a2.844,2.844,0,0,0-.566.269c-.377.2-.56.339-.552.416a.174.174,0,0,0,.028.081,4.452,4.452,0,0,0,1.223,1.2,2.354,2.354,0,0,0,.633.4c.008-.005.005-.019-.008-.044Zm1.234,1.074a.413.413,0,0,1-.211.269,1.056,1.056,0,0,1-.743.025,5.247,5.247,0,0,1-2.1-1.27,8.333,8.333,0,0,1-1.825-2.234l-.142-.263a1.651,1.651,0,0,1-.15-.338.289.289,0,0,1,.045-.209.569.569,0,0,1,.244-.269.536.536,0,0,1,.444-.036.765.765,0,0,1,.41.4l.167.313.3-.222a7.5,7.5,0,0,1,.763-.452l.458-.244-.191-.361a.8.8,0,0,1-.131-.563.5.5,0,0,1,.25-.316.564.564,0,0,1,.449-.022.557.557,0,0,1,.233.147,2.821,2.821,0,0,1,.264.438,13.889,13.889,0,0,1,.693,1.884A11.822,11.822,0,0,1,677.147,245.685Z" fill="#114048"/>
        <path id="Path_13709" data-name="Path 13709" d="M670.129,249.5a.488.488,0,0,1-.261.241,1.441,1.441,0,0,1-.222.07,22.2,22.2,0,0,0-2.58.807,3.574,3.574,0,0,0-.377.155c-.083.039-.175.078-.277.117a.6.6,0,0,1-.463-.033.59.59,0,0,1-.333-.314.47.47,0,0,1,.036-.377.5.5,0,0,1,.2-.233,4.85,4.85,0,0,1,.635-.264l.741-.274-.181-.369a34.93,34.93,0,0,1-1.4-3.423,5.959,5.959,0,0,1-.272-.816.505.505,0,0,1,.339-.461.514.514,0,0,1,.38.006.477.477,0,0,1,.258.261q.108.216.574,1.392c.449,1.113.774,1.9.968,2.347l.339.76.371-.138a3.148,3.148,0,0,1,1.1-.242.524.524,0,0,1,.477.383.435.435,0,0,1-.055.4Z" fill="#114048"/>
        <path id="Path_13710" data-name="Path 13710" d="M660.906,252.19a.67.67,0,0,1-.242.215.639.639,0,0,1-.31-.014.584.584,0,0,1-.259-.128,12.19,12.19,0,0,1-.84-2.111q-.666-1.914-.89-2.828a1.289,1.289,0,0,1-.059-.351.528.528,0,0,1,.4-.422.484.484,0,0,1,.516.152,5.933,5.933,0,0,1,.477,1.315c.175.564.438,1.33.789,2.292a14.46,14.46,0,0,1,.476,1.371.555.555,0,0,1-.057.5Z" fill="#114048"/>
        <path id="Path_13711" data-name="Path 13711" d="M652.084,253.039a1.521,1.521,0,0,0,.391.047,1.194,1.194,0,0,0,.286-.116,1.238,1.238,0,0,0,.449-.494,2.206,2.206,0,0,0,.292-.777,3.082,3.082,0,0,0-.009-.74,2.364,2.364,0,0,0-.391-1.174,2.3,2.3,0,0,0-1.007-.84,1.212,1.212,0,0,0-.516-.048,1.511,1.511,0,0,0-1.176.708,2.753,2.753,0,0,0-.286.643,2.445,2.445,0,0,0-.13.683V251a.624.624,0,0,0,0,.083,2.624,2.624,0,0,0,.546,1.321,1.63,1.63,0,0,0,.505.427.916.916,0,0,0,.516.164,2.168,2.168,0,0,1,.527.047Zm1.412.774a2.054,2.054,0,0,1-.921.333,2.413,2.413,0,0,1-.829-.036,2.581,2.581,0,0,0-.586-.067,1.61,1.61,0,0,1-.973-.444,3.206,3.206,0,0,1-1.229-2.308l-.025-.2a4.121,4.121,0,0,1,0-.652,3.28,3.28,0,0,1,.178-.632,2.689,2.689,0,0,1,2.316-1.97l.041-.006a2.384,2.384,0,0,1,.969.061,2.8,2.8,0,0,1,1.045.65,3.389,3.389,0,0,1,.794,1.037,4.524,4.524,0,0,1,.346,1.387,2.919,2.919,0,0,1,.025.56,3.5,3.5,0,0,1-.366,1.349,2.389,2.389,0,0,1-.785.946Z" fill="#114048"/>
        <path id="Path_13712" data-name="Path 13712" d="M640.009,254.5a.407.407,0,0,1-.422-.025.536.536,0,0,1-.238-.252,1.6,1.6,0,0,1-.053-.575c.008-.327.08-1.079.211-2.258a13.456,13.456,0,0,1,.372-2.186q.211-.744.7-.732a1.032,1.032,0,0,1,.794.463,12.909,12.909,0,0,1,1.037,1.959c.2.4.358.735.48.987a1.719,1.719,0,0,0,.194.366c.011-.008.061-.6.156-1.767.058-.843.1-1.35.136-1.517a.509.509,0,0,1,.516-.485c.263.008.435.2.516.585a14.171,14.171,0,0,1,.011,1.65c-.028,1.082-.072,1.848-.131,2.3-.1.707-.3,1.129-.593,1.265a.875.875,0,0,1-.372.1c-.2-.006-.408-.17-.621-.494a19.476,19.476,0,0,1-.994-1.881,7.668,7.668,0,0,0-.923-1.7c-.009,0-.017.014-.028.039a22.826,22.826,0,0,0-.325,2.965,4.191,4.191,0,0,1-.124.877.481.481,0,0,1-.3.313Z" fill="#114048"/>
        <path id="Path_13713" data-name="Path 13713" d="M626.579,250.515l.505-1.087c.333-.716.508-1.1.519-1.14a2.61,2.61,0,0,0-.6-.186c-.413-.108-.644-.133-.688-.069-.011,0-.022.033-.033.075a4.444,4.444,0,0,0,.083,1.714,2.424,2.424,0,0,0,.188.727c.009,0,.017-.011.025-.036Zm.178,1.626a.412.412,0,0,1-.338.053,1.061,1.061,0,0,1-.564-.488,5.27,5.27,0,0,1-.682-2.358,8.284,8.284,0,0,1,.175-2.88l.075-.291a1.793,1.793,0,0,1,.119-.35.28.28,0,0,1,.175-.124.562.562,0,0,1,.36-.034.528.528,0,0,1,.35.278.759.759,0,0,1,.033.571l-.089.344.369.042a6.977,6.977,0,0,1,.866.186l.5.133.105-.4a.787.787,0,0,1,.289-.5.5.5,0,0,1,.4-.064.561.561,0,0,1,.347.289.579.579,0,0,1,.072.266,2.758,2.758,0,0,1-.1.5,14.043,14.043,0,0,1-.771,1.856,11.8,11.8,0,0,1-1.684,2.968Z" fill="#114048"/>
        <path id="Path_13714" data-name="Path 13714" d="M617.759,248.255a2.529,2.529,0,0,0,.488.316,1.491,1.491,0,0,0,.33.091.323.323,0,0,0,.091.009.134.134,0,0,0,.062-.042.383.383,0,0,0,.074-.125c.048-.116.086-.224.117-.322.075-.233.208-.638.391-1.209a4.377,4.377,0,0,0,.186-.6.182.182,0,0,0-.092-.172,1.431,1.431,0,0,0-.23-.122,2.481,2.481,0,0,0-.766-.164,1.484,1.484,0,0,0-.685.072.626.626,0,0,0-.357.295,1.791,1.791,0,0,0-.075.219,1.434,1.434,0,0,0,.463,1.75Zm.646,1.517a4.791,4.791,0,0,1-.608-.175l-.038-.014a3.009,3.009,0,0,1-.6-.4,5.129,5.129,0,0,1-.586-.513,2.272,2.272,0,0,1-.474-1.254,2.985,2.985,0,0,1,.191-1.44,1.855,1.855,0,0,1,.5-.71,2.037,2.037,0,0,1,1.221-.48,3.6,3.6,0,0,1,1.547.272l.441.18.222-.543a1.239,1.239,0,0,1,.441-.644.548.548,0,0,1,.45-.022.524.524,0,0,1,.294.327.619.619,0,0,1-.006.394c-.047.15-.216.58-.507,1.295q-.546,1.336-.946,2.53c-.142.414-.239.691-.3.835a.859.859,0,0,1-.241.372.64.64,0,0,1-.355.114,2.79,2.79,0,0,1-.644-.122Z" fill="#114048"/>
        <path id="Path_13715" data-name="Path 13715" d="M609.553,244.242a2.5,2.5,0,0,0,.444.381,1.486,1.486,0,0,0,.316.133.249.249,0,0,0,.089.019.124.124,0,0,0,.066-.033.372.372,0,0,0,.089-.114c.064-.111.116-.211.158-.3.1-.222.291-.6.549-1.146a5.023,5.023,0,0,0,.267-.571.181.181,0,0,0-.07-.181,1.216,1.216,0,0,0-.211-.152,2.546,2.546,0,0,0-.735-.267,1.554,1.554,0,0,0-.69-.019.6.6,0,0,0-.394.247,1.458,1.458,0,0,0-.1.208,1.438,1.438,0,0,0,.225,1.795Zm.438,1.59a4.678,4.678,0,0,1-.577-.255l-.036-.02a3.179,3.179,0,0,1-.544-.477,5,5,0,0,1-.513-.585,2.24,2.24,0,0,1-.3-1.307,2.982,2.982,0,0,1,.38-1.4,1.858,1.858,0,0,1,.585-.638,2.044,2.044,0,0,1,1.273-.313,3.583,3.583,0,0,1,1.5.474l.413.239.291-.508a1.243,1.243,0,0,1,.522-.582.555.555,0,0,1,.449.039.524.524,0,0,1,.247.363.634.634,0,0,1-.058.391q-.1.213-.674,1.215-.72,1.253-1.276,2.383c-.2.391-.328.655-.4.788a.907.907,0,0,1-.289.338.622.622,0,0,1-.366.064,2.832,2.832,0,0,1-.622-.208Z" fill="#114048"/>
        <path id="Path_13716" data-name="Path 13716" d="M601.534,239a1.711,1.711,0,0,0,.479.56c.316.244.542.319.672.222.057-.047.318-.335.779-.871s.779-.912.951-1.134a.681.681,0,0,0,.042-.064c.008-.02.022-.036.03-.053l.008-.011a2.625,2.625,0,0,0-.46-.386,2.653,2.653,0,0,0-.469-.307,2.753,2.753,0,0,0-.506-.15,2.319,2.319,0,0,0-.8-.05.7.7,0,0,0-.459.283l-.1.13A1.663,1.663,0,0,0,601.53,239Zm.427,1.792a3.287,3.287,0,0,1-.675-.4,2.752,2.752,0,0,1-1.013-1.792,2.483,2.483,0,0,1,0-1.034,2.965,2.965,0,0,1,.5-.974c.027-.036.063-.089.11-.155l.094-.134a1.7,1.7,0,0,1,.552-.468,2.225,2.225,0,0,1,1.426-.178c.3.033.456.036.477.006a1.058,1.058,0,0,0,.075-.458,1.293,1.293,0,0,1,.169-.644.5.5,0,0,1,.29-.174.492.492,0,0,1,.44.1.515.515,0,0,1,.214.327,4.541,4.541,0,0,1-.024.816,2.23,2.23,0,0,0-.013.482.327.327,0,0,0,.12.2,1.927,1.927,0,0,1,.3.28l.159.175.321-.511.333-.5.3-.039a.55.55,0,0,1,.447.07.541.541,0,0,1,.177.308c.039.144-.062.4-.31.76-.346.513-.744,1.057-1.187,1.634q-.848,1.1-1.343,1.633a2.823,2.823,0,0,1-1.006.785,1.216,1.216,0,0,1-.939-.11Z" fill="#114048"/>
        <path id="Path_13717" data-name="Path 13717" d="M594.257,232.656a1.605,1.605,0,0,0,.2.338,1.141,1.141,0,0,0,.269.158,1.22,1.22,0,0,0,.663.059,2.284,2.284,0,0,0,.8-.239,2.97,2.97,0,0,0,.585-.455,2.383,2.383,0,0,0,.7-1.024,2.289,2.289,0,0,0,.058-1.309,1.21,1.21,0,0,0-.272-.435,1.52,1.52,0,0,0-1.276-.511,2.7,2.7,0,0,0-.688.164,2.506,2.506,0,0,0-.621.308.586.586,0,0,1-.053.041c-.027.023-.05.039-.064.053a2.637,2.637,0,0,0-.721,1.234,1.715,1.715,0,0,0-.033.661.925.925,0,0,0,.18.507,2.418,2.418,0,0,1,.283.45Zm.239,1.592a2.028,2.028,0,0,1-.821-.533,2.329,2.329,0,0,1-.474-.682,2.621,2.621,0,0,0-.3-.505,1.635,1.635,0,0,1-.236-1.046,3.217,3.217,0,0,1,1.1-2.374l.147-.142a4.073,4.073,0,0,1,.516-.4,3.253,3.253,0,0,1,.61-.242,2.69,2.69,0,0,1,2.971.649l.028.031a2.355,2.355,0,0,1,.538.807,2.758,2.758,0,0,1,.117,1.226,3.5,3.5,0,0,1-.344,1.26,4.622,4.622,0,0,1-.893,1.115,3.262,3.262,0,0,1-.43.36,3.529,3.529,0,0,1-1.3.527,2.445,2.445,0,0,1-1.229-.049Z" fill="#114048"/>
        <path id="Path_13718" data-name="Path 13718" d="M586.065,223.643a.509.509,0,0,1-.444-.53.5.5,0,0,1,.136-.324.469.469,0,0,1,.092-.084,10.7,10.7,0,0,1,3.27-.979,11.174,11.174,0,0,1,1.82-.255.835.835,0,0,1,.718.266.284.284,0,0,1,.025.047.218.218,0,0,0,.028.048.8.8,0,0,1,.039.585,4.336,4.336,0,0,1-.474.918q-.122.183-.325.516t-.491.793c-.189.308-.33.541-.43.7a6.482,6.482,0,0,1-1.024,1.451.423.423,0,0,1-.335.069.5.5,0,0,1-.325-.222.521.521,0,0,1-.1-.4,14.273,14.273,0,0,1,1.074-1.873c.56-.9.9-1.473,1.026-1.706v-.019a7.152,7.152,0,0,0-1.326.227,16.248,16.248,0,0,0-2.344.636,1.443,1.443,0,0,1-.616.122Z" fill="#114048"/>
        <path id="Path_13719" data-name="Path 13719" d="M581.7,217.146c-.175-.258-.288-.43-.336-.519-.233-.441-.2-.74.1-.9l.062-.033a.476.476,0,0,1,.515.028,4.056,4.056,0,0,1,.639.9l.493.849,1.018-.582c.666-.392,1-.594,1-.608l-.011-.025c-.058-.111-.319-.51-.779-1.19-.1-.153-.155-.236-.164-.252a.4.4,0,0,1-.025-.311.507.507,0,0,1,.255-.3.481.481,0,0,1,.428-.039,2.7,2.7,0,0,1,.968,1.079l.3.474.785-.41-.142-.358a4.24,4.24,0,0,0-.205-.416c-.122-.233-.216-.4-.286-.513s-.136-.228-.216-.38a.874.874,0,0,1-.125-.383.51.51,0,0,1,.133-.3.551.551,0,0,1,.164-.13.531.531,0,0,1,.643.139,4,4,0,0,1,.55.868,5.653,5.653,0,0,1,.665,1.59v.03a.6.6,0,0,1-.111.43,12.538,12.538,0,0,1-2.124,1.287,1.257,1.257,0,0,1-.175.106l-.205.108c-1.118.607-1.707.926-1.762.957-.474.25-.76.36-.86.327a1.027,1.027,0,0,1-.671-.571c-.009-.017-.02-.042-.034-.075a.77.77,0,0,0-.038-.089,2.388,2.388,0,0,0-.128-.272,4.385,4.385,0,0,0-.322-.524Z" fill="#114048"/>
        <path id="Path_13720" data-name="Path 13720" d="M578.892,208.276a3.051,3.051,0,0,0,.047,1l.111.425.177-.109q.579-.357,1.739-.921c.772-.374,1.36-.638,1.759-.785l.45-.163-.12-.2a2.7,2.7,0,0,0-.832-.876,1.8,1.8,0,0,0-1.012-.231,3.741,3.741,0,0,0-1.052.225,1.98,1.98,0,0,0-.56.294,2.1,2.1,0,0,0-.71,1.351Zm-.522,2.413a1.941,1.941,0,0,1-.352-.641,4.107,4.107,0,0,1-.225-2.152,2.751,2.751,0,0,1,.682-1.429,3.4,3.4,0,0,1,1.387-.932,4.228,4.228,0,0,1,1.063-.23,3.335,3.335,0,0,1,1.564.166,2.961,2.961,0,0,1,1.146.96,4.942,4.942,0,0,1,.791,1.323c.127.35.13.577,0,.68a14.6,14.6,0,0,1-1.486.621,23.183,23.183,0,0,0-3.34,1.62,4.581,4.581,0,0,1-.513.261.542.542,0,0,1-.375.028,1,1,0,0,1-.341-.275Z" fill="#114048"/>
        <path id="Path_13721" data-name="Path 13721" d="M618.094,193.24a7.348,7.348,0,0,1,.369,2.316l-.71.125a6.682,6.682,0,0,0-.314-2.186c-.482-1.559-1.384-2.455-2.543-2.1a1.562,1.562,0,0,0-.988.824c-.472.932-.225,2.3-.522,3.418a2.087,2.087,0,0,1-1.5,1.572,2.463,2.463,0,0,1-3.093-1.889,5.087,5.087,0,0,1-.236-1.717l.685-.116a4.626,4.626,0,0,0,.208,1.5c.353,1.145,1.152,1.781,2.175,1.464a1.581,1.581,0,0,0,1.063-1.489,19.566,19.566,0,0,1,.3-2.8,2.187,2.187,0,0,1,1.575-1.554c1.767-.546,2.993.877,3.537,2.633" fill="#114048"/>
        <path id="Path_13722" data-name="Path 13722" d="M607.919,184.652c0,1.67,1.09,2.79,4.011,2.785s4-1.129,4-2.8c0-1.645-1.076-2.78-4.011-2.774s-4,1.143-4,2.788m8.763-.017c0,2.3-1.5,3.662-4.752,3.67s-4.746-1.356-4.752-3.651c-.005-2.272,1.484-3.65,4.738-3.656s4.761,1.371,4.766,3.64Z" fill="#114048"/>
      </g>
    </g>
    <path id="Path_13723" data-name="Path 13723" d="M620.222,170.507l-2.05,4.505-8.3-3.778.35-.766,7.614,3.468,1.729-3.8.657.369Z" fill="#114048"/>
    <path id="Path_13724" data-name="Path 13724" d="M620.18,157.833l-.627.563,2.244,4.347,2.486-2.236Zm7.24,4.793-2.53-1.67-2.721,2.447,1.4,2.685-.6.535-4.352-8.349,1.576-1.415,7.861,5.2Z" fill="#114048"/>
    <g id="Group_3234" data-name="Group 3234">
      <g id="Group_3233" data-name="Group 3233" clip-path="url(#clip-path)">
        <path id="Path_13725" data-name="Path 13725" d="M631.19,160.617a7.333,7.333,0,0,1-2.23.728l-.236-.68a6.574,6.574,0,0,0,2.108-.652c1.465-.719,2.208-1.753,1.676-2.84a1.553,1.553,0,0,0-.969-.846c-.995-.322-2.3.135-3.456.019A2.085,2.085,0,0,1,626.3,155.1a2.462,2.462,0,0,1,1.381-3.347,5.1,5.1,0,0,1,1.659-.5l.222.658a4.476,4.476,0,0,0-1.445.441c-1.077.526-1.579,1.414-1.107,2.378a1.581,1.581,0,0,0,1.636.815,19.71,19.71,0,0,1,2.813-.145,2.191,2.191,0,0,1,1.781,1.315c.816,1.659-.4,3.094-2.047,3.9Z" fill="#114048"/>
        <path id="Path_13726" data-name="Path 13726" d="M637.731,158.2a7.209,7.209,0,0,1-2.341.136l-.053-.719a6.621,6.621,0,0,0,2.205-.094c1.6-.324,2.583-1.132,2.342-2.322a1.54,1.54,0,0,0-.722-1.062c-.882-.563-2.263-.452-3.348-.86a2.09,2.09,0,0,1-1.415-1.653,2.463,2.463,0,0,1,2.189-2.888,5.084,5.084,0,0,1,1.731-.064l.05.694a4.556,4.556,0,0,0-1.512.058c-1.176.238-1.886.968-1.675,2.016.149.738.69,1.032,1.376,1.2a19.959,19.959,0,0,1,2.757.575,2.186,2.186,0,0,1,1.39,1.722c.366,1.812-1.171,2.891-2.974,3.257" fill="#114048"/>
        <path id="Path_13727" data-name="Path 13727" d="M647.29,148.939c-1.661-.163-2.887.8-3.173,3.709s.721,4.1,2.383,4.261c1.637.164,2.874-.791,3.162-3.712s-.735-4.1-2.372-4.26Zm-.865,8.719c-2.286-.227-3.495-1.859-3.173-5.1s1.825-4.588,4.111-4.361c2.258.225,3.481,1.845,3.162,5.082s-1.839,4.6-4.1,4.375" fill="#114048"/>
        <path id="Path_13728" data-name="Path 13728" d="M660.159,153.94a2.229,2.229,0,0,0-1.62-1.986c-1.548-.662-3.151.064-4.217,2.55-1.1,2.566-.552,4.133,1.113,4.849a5.06,5.06,0,0,0,1.967.427l-.039.7a5.758,5.758,0,0,1-2.244-.462c-2.064-.885-2.938-2.73-1.6-5.862,1.312-3.06,3.417-3.7,5.306-2.888a2.807,2.807,0,0,1,2.045,2.417l-.716.246Z" fill="#114048"/>
      </g>
    </g>
    <path id="Path_13729" data-name="Path 13729" d="M670.449,160.934l-.566-.624-4.339,2.258,2.241,2.477,2.661-4.111Zm-4.769,7.257,1.662-2.535-2.458-2.713-2.68,1.412-.538-.6,8.336-4.38,1.42,1.57-5.168,7.878-.574-.632Z" fill="#114048"/>
    <path id="Path_13730" data-name="Path 13730" d="M676.692,170.637l-1.348-2.519-7.379,3.945-.391-.732,7.379-3.945-1.312-2.452.663-.355,3.079,5.758-.694.3Z" fill="#114048"/>
    <g id="Group_3236" data-name="Group 3236">
      <g id="Group_3235" data-name="Group 3235" clip-path="url(#clip-path)">
        <path id="Path_13731" data-name="Path 13731" d="M679.544,182.688c-.091-1.67-1.234-2.73-4.15-2.572s-3.939,1.337-3.847,3c.089,1.643,1.22,2.719,4.15,2.561,2.915-.158,3.939-1.351,3.847-2.993m-8.749.474c-.125-2.291,1.3-3.737,4.552-3.911s4.813,1.106,4.935,3.4c.122,2.266-1.293,3.723-4.541,3.9s-4.824-1.118-4.949-3.384Z" fill="#114048"/>
      </g>
    </g>
    <path id="Path_13732" data-name="Path 13732" d="M669.133,194.857l8.918-2.807-7.409-2.2.23-.771,8.738,2.607-.233.783-8.943,2.8,7.445,2.211-.23.771-8.749-2.613Z" fill="#114048"/>
    <g id="Group_3238" data-name="Group 3238">
      <g id="Group_3237" data-name="Group 3237" clip-path="url(#clip-path)">
        <path id="Path_13733" data-name="Path 13733" d="M643.612,163.375a20.908,20.908,0,1,0,20.908,20.908,20.933,20.933,0,0,0-20.908-20.908m0,43.655a22.744,22.744,0,1,1,22.744-22.744,22.77,22.77,0,0,1-22.744,22.744" fill="#114048"/>
        <path id="Path_13734" data-name="Path 13734" d="M632.228,180.706a14.584,14.584,0,0,0-4.458,3.11c-2.325,2.447-3.329,5.545-2.194,6.766a2.264,2.264,0,0,0,1.645.863h.008a4.04,4.04,0,0,0,2.641-1.543c1.856-1.961,2.2-5.159,2.358-9.2Zm-5,12.65h-.017a4.129,4.129,0,0,1-3.034-1.473c-1.889-2.033-.941-6.067,2.208-9.382a17.276,17.276,0,0,1,5.542-3.764c.131-.061.253-.117.366-.172.039-1.312.078-2.669.158-4.083.408-7.152,3.756-11.646,9.182-12.331a10.3,10.3,0,0,1,8.58,3l-1.289,1.409a8.373,8.373,0,0,0-7.049-2.51c-6.059.765-7.31,6.935-7.515,10.544-.08,1.412-.119,2.777-.158,4.094-.15,5.215-.283,9.718-2.946,12.533a5.724,5.724,0,0,1-4.028,2.139" fill="#114048"/>
        <path id="Path_13735" data-name="Path 13735" d="M647.529,166.057a1.416,1.416,0,0,0-.339.039,2.28,2.28,0,0,0-1.57.994,4.046,4.046,0,0,0,.011,3.068c.772,2.588,3.365,4.488,6.788,6.64a14.571,14.571,0,0,0-.466-5.418c-.89-3.014-2.843-5.32-4.421-5.32Zm9.645,33.779-.8-1.733c3.213-1.485,5.1-3.016,5.623-4.555,1.909-5.637-1.856-9.553-5.348-11.845-1.185-.776-2.347-1.5-3.473-2.189-4.439-2.738-8.269-5.1-9.376-8.812a5.728,5.728,0,0,1,.169-4.576,4.127,4.127,0,0,1,2.793-1.892c2.708-.618,5.726,2.223,7.019,6.606a17.383,17.383,0,0,1,.491,6.7c-.011.138-.025.27-.034.392,1.118.687,2.272,1.4,3.457,2.18,5.736,3.761,7.906,8.751,6.111,14.053-.705,2.082-2.874,3.941-6.63,5.678Z" fill="#114048"/>
        <path id="Path_13736" data-name="Path 13736" d="M645.737,196.019a14.552,14.552,0,0,0,4.924,2.305c3.279.791,6.467.111,6.958-1.484a2.259,2.259,0,0,0-.075-1.853,4.035,4.035,0,0,0-2.663-1.523c-2.625-.624-5.568.672-9.144,2.558Zm-12.76,4.852a10.307,10.307,0,0,1-7.972-3.67c-2.092-2.38-1.953-6.644-1.8-8.366l1.9.172c-.1,1.151-.319,5.057,1.329,6.932,3.93,4.469,9.2,3.168,12.932,1.29,1.265-.638,2.466-1.285,3.631-1.912,4.591-2.474,8.555-4.61,12.322-3.711a5.723,5.723,0,0,1,3.879,2.433,4.109,4.109,0,0,1,.241,3.364c-.818,2.655-4.788,3.848-9.229,2.78a17.287,17.287,0,0,1-6.039-2.921c-.117-.08-.225-.158-.328-.227-1.154.624-2.349,1.267-3.617,1.9a16.287,16.287,0,0,1-7.254,1.937Z" fill="#114048"/>
        <path id="Path_13737" data-name="Path 13737" d="M622.874,204.591c-.749-.749-1.831-.91-3.634.9s-1.648,2.9-.9,3.642,1.839.918,3.653-.9,1.623-2.9.882-3.645Zm-5.626,5.631c-1.678-1.678-1.609-3.734.691-6.033s4.347-2.367,6.025-.688,1.617,3.722-.682,6.025-4.364,2.366-6.034.7Z" fill="#114048"/>
        <path id="Path_13738" data-name="Path 13738" d="M629.141,209.24a8.256,8.256,0,0,0-.877-.413l-1.534,2.766.491.272c.96.532,2.058.732,2.682-.394a1.552,1.552,0,0,0-.76-2.231Zm-2.117,7.812.072-3.678c-.213-.089-.441-.2-.666-.325l-.391-.216-1.559,2.81-1.528-.849,4.424-7.975a23.16,23.16,0,0,1,2.491,1.162c1.684.935,2.68,2.48,1.634,4.363a2.633,2.633,0,0,1-2.74,1.471l-.042,4.177Z" fill="#114048"/>
        <path id="Path_13739" data-name="Path 13739" d="M638.464,213.834a1.832,1.832,0,0,0-1.512-1.465c-1.426-.341-2.3.8-2.743,2.633-.464,1.933-.109,3.293,1.328,3.637a5.756,5.756,0,0,0,1.274.16l.4-1.647-1.414-.339.477-1.381,2.8.671-1.01,4.206a9.289,9.289,0,0,1-2.918-.189c-2.27-.544-3.518-2.236-2.722-5.545.777-3.238,2.819-4.2,4.891-3.706a2.959,2.959,0,0,1,2.51,2.216l-1.362.749Z" fill="#114048"/>
      </g>
    </g>
    <path id="Path_13740" data-name="Path 13740" d="M644.655,213.207l-.486.017-.651,3.609,2.077-.072Zm1.975,7.587-.663-2.53-2.7.094-.46,2.569-1.67.058,1.722-9.184,3.135-.109,2.419,9.041-1.784.061Z" fill="#114048"/>
    <path id="Path_13741" data-name="Path 13741" d="M657,218.378l-5.809-4.6,1.981,5.861-1.573.524-2.882-8.652,1.573-.524,5.853,4.652-2.006-5.934,1.573-.524,2.888,8.663Z" fill="#114048"/>
    <g id="Group_3240" data-name="Group 3240">
      <g id="Group_3239" data-name="Group 3239" clip-path="url(#clip-path)">
        <path id="Path_13742" data-name="Path 13742" d="M666.415,203.795a1.816,1.816,0,0,0-2.044.5c-1.049,1.024-.552,2.375.765,3.726,1.39,1.423,2.719,1.856,3.778.821a4.975,4.975,0,0,0,1.074-1.512l1.29.646a6.11,6.11,0,0,1-1.315,1.978c-1.678,1.64-3.764,1.784-6.144-.652-2.325-2.382-2.056-4.624-.53-6.114a2.965,2.965,0,0,1,3.212-.943l-.092,1.551Z" fill="#114048"/>
      </g>
    </g>
    <rect id="Rectangle_1253" data-name="Rectangle 1253" width="9.11" height="0.848" transform="matrix(0.579, -0.816, 0.816, 0.579, 659.238, 162.142)" fill="#114048"/>
    <rect id="Rectangle_1254" data-name="Rectangle 1254" width="9.115" height="0.849" transform="matrix(0.957, -0.29, 0.29, 0.957, 669.748, 176.37)" fill="#114048"/>
    <rect id="Rectangle_1255" data-name="Rectangle 1255" width="1.759" height="9.108" transform="matrix(0.846, -0.534, 0.534, 0.846, 657.518, 207.971)" fill="#114048"/>
    <rect id="Rectangle_1256" data-name="Rectangle 1256" width="0.849" height="9.11" transform="translate(608.273 176.53) rotate(-76.52)" fill="#114048"/>
  </g>
</svg>
