<svg id="Layer_1" data-name="Layer 1" xmlns="http://www.w3.org/2000/svg" width="138.347" height="150.5" viewBox="0 0 138.347 150.5">
  <g id="Group_3349" data-name="Group 3349">
    <g id="Group_3347" data-name="Group 3347">
      <path id="Path_20539" data-name="Path 20539" d="M0,135.83a1.764,1.764,0,0,1,.2-.685,1.74,1.74,0,0,1,.428-.55,3.6,3.6,0,0,1,.972-.458,3.745,3.745,0,0,1,.616-.168.557.557,0,0,1,.323.057.518.518,0,0,1,.284.374.609.609,0,0,1-.021.4c-.081.156-.383.329-.9.521-.371.129-.592.26-.664.4-.123.242-.015.527.332.856a1.187,1.187,0,0,0,.239.174,2.607,2.607,0,0,0,1.765-.215,6.051,6.051,0,0,1,1.251-.314,1.58,1.58,0,0,1,.8.147,1.607,1.607,0,0,1,.817,1.547,1.879,1.879,0,0,1-.209.892,1.8,1.8,0,0,1-.9.868,1.574,1.574,0,0,1-1,.1l-.15-.06a.566.566,0,0,1-.3-.332.587.587,0,0,1,.024-.449.607.607,0,0,1,.326-.251.459.459,0,0,1,.368-.051c.06.033.159.006.29-.072a.711.711,0,0,0,.281-.275.84.84,0,0,0,.063-.476c-.006-.2-.063-.326-.168-.38-.123-.063-.365-.024-.733.117a6.124,6.124,0,0,1-1.93.509A1.729,1.729,0,0,1,1.9,138a4.147,4.147,0,0,1-.622-.275A2.545,2.545,0,0,1,.4,137.1,2.045,2.045,0,0,1,0,135.821" transform="translate(0 -93.885)" fill="#114048"/>
      <path id="Path_20540" data-name="Path 20540" d="M18.12,105.883a1.772,1.772,0,0,0-.32.275,1.267,1.267,0,0,0-.111.314,1.313,1.313,0,0,0,.072.712,2.313,2.313,0,0,0,.41.787,3.172,3.172,0,0,0,.592.524,2.54,2.54,0,0,0,1.215.533,2.441,2.441,0,0,0,1.388-.2,1.355,1.355,0,0,0,.407-.374,1.63,1.63,0,0,0,.284-1.445,2.92,2.92,0,0,0-.308-.691,2.672,2.672,0,0,0-.449-.592l-.057-.048-.069-.057a2.849,2.849,0,0,0-1.439-.515,1.817,1.817,0,0,0-.7.1.984.984,0,0,0-.5.293,2.423,2.423,0,0,1-.416.386m-1.631.565a2.187,2.187,0,0,1,.4-.969,2.5,2.5,0,0,1,.622-.631,2.777,2.777,0,0,0,.473-.419,1.744,1.744,0,0,1,1.05-.455,3.449,3.449,0,0,1,2.717.679l.18.126a4.253,4.253,0,0,1,.521.467,3.453,3.453,0,0,1,.377.592,2.884,2.884,0,0,1-.093,3.255l-.024.036a2.5,2.5,0,0,1-.742.727,2.982,2.982,0,0,1-1.266.368,3.685,3.685,0,0,1-1.394-.114,4.978,4.978,0,0,1-1.349-.721,3.475,3.475,0,0,1-.464-.38,3.816,3.816,0,0,1-.814-1.257,2.576,2.576,0,0,1-.188-1.3" transform="translate(-11.544 -72.823)" fill="#114048"/>
      <path id="Path_20541" data-name="Path 20541" d="M37.875,77.258a.561.561,0,0,1,.159-.395.528.528,0,0,1,.359-.162.578.578,0,0,1,.389.132c.129.1.515.428,1.158,1a9.807,9.807,0,0,0,1.9,1.43,1.539,1.539,0,0,0,1.23.018,1.713,1.713,0,0,0,.64-.437,1.569,1.569,0,0,0,.446-1.514,5.539,5.539,0,0,0-1.64-2.148,7.579,7.579,0,0,1-.886-.942.544.544,0,0,1-.051-.524.677.677,0,0,1,.12-.209.532.532,0,0,1,.6-.114,3.769,3.769,0,0,1,.7.6,14.78,14.78,0,0,1,1.8,1.978,2.715,2.715,0,0,1,.063,3.324,3.479,3.479,0,0,1-.344.422,2.773,2.773,0,0,1-1.822.883,3.13,3.13,0,0,1-1.565-.353A10.074,10.074,0,0,1,38.9,78.493L37.86,77.53l.015-.269Z" transform="translate(-26.533 -51.402)" fill="#114048"/>
      <path id="Path_20542" data-name="Path 20542" d="M68.289,54.111a1.8,1.8,0,0,0-.709.347c-.338.263-.476.476-.413.634.033.075.26.422.688,1.044s.733,1.053.921,1.292l.054.06.048.048.009.012a5.353,5.353,0,0,0,.969-.772,2.606,2.606,0,0,0,.29-.485,2.525,2.525,0,0,0,.269-.817.762.762,0,0,0-.168-.553l-.108-.138a1.778,1.778,0,0,0-1.852-.67m-1.972-.042a3.265,3.265,0,0,1,.6-.589,2.946,2.946,0,0,1,2.13-.565,2.716,2.716,0,0,1,1.074.275,3.367,3.367,0,0,1,.874.781c.03.039.072.093.132.159l.114.132a1.951,1.951,0,0,1,.338.7,2.4,2.4,0,0,1-.2,1.526c-.114.3-.159.464-.135.491a1.143,1.143,0,0,0,.455.2,1.4,1.4,0,0,1,.622.35.571.571,0,0,1-.12.778.543.543,0,0,1-.4.132,4.414,4.414,0,0,1-.838-.245,2.627,2.627,0,0,0-.5-.141.328.328,0,0,0-.242.069,2.026,2.026,0,0,1-.374.233l-.224.117.44.473.428.482-.042.326a.616.616,0,0,1-.191.446.583.583,0,0,1-.365.1c-.159,0-.395-.174-.706-.524-.437-.5-.892-1.056-1.37-1.672-.61-.784-1.05-1.394-1.331-1.831a3.049,3.049,0,0,1-.539-1.254,1.311,1.311,0,0,1,.368-.942" transform="translate(-46.212 -37.076)" fill="#114048"/>
      <path id="Path_20543" data-name="Path 20543" d="M96.5,34.794a1.527,1.527,0,0,1,.449-.392l.081-.039.093-.045a1.614,1.614,0,0,1,.655-.191,3.4,3.4,0,0,1,.862.111.805.805,0,0,1,.556.323c.182.32.135.562-.144.721a1.258,1.258,0,0,1-.784.1,1.254,1.254,0,0,0-.691.06,1.011,1.011,0,0,0-.341.464,2.131,2.131,0,0,0-.09,1.179A3.855,3.855,0,0,0,97.6,38.4a2.47,2.47,0,0,0,.61.745,1.76,1.76,0,0,0,.562.275,1.487,1.487,0,0,0,.6.084,1.67,1.67,0,0,0,.583-.215,1.735,1.735,0,0,0,.655-.592,3.855,3.855,0,0,1,.751-1.038.356.356,0,0,1,.162-.042.675.675,0,0,1,.425.1.438.438,0,0,1,.18.165c.1.177.024.515-.23,1.008a3.309,3.309,0,0,1-1.281,1.406l-.123.063-.123.063a2.625,2.625,0,0,1-2.794-.266,3.384,3.384,0,0,1-.895-1l-.087-.135-.081-.123a5.089,5.089,0,0,1-.625-2.031,2.745,2.745,0,0,1,.081-1.08A3.03,3.03,0,0,1,96.5,34.8" transform="translate(-67.192 -23.916)" fill="#114048"/>
      <path id="Path_20544" data-name="Path 20544" d="M125.924,18.837c.29-.162.488-.26.586-.3.5-.2.814-.135.948.2l.027.069a.509.509,0,0,1-.084.547,4.411,4.411,0,0,1-1.029.586l-.957.437.515,1.146c.347.751.527,1.131.542,1.137l.027-.012q.188-.076,1.352-.709l.287-.15a.427.427,0,0,1,.332.006.545.545,0,0,1,.3.305.52.52,0,0,1,0,.458,2.884,2.884,0,0,1-1.248.921l-.539.266.359.877.395-.114c.075-.021.23-.078.467-.174.26-.1.452-.191.574-.251s.257-.12.428-.188a.9.9,0,0,1,.419-.093.553.553,0,0,1,.308.174.709.709,0,0,1,.123.185.566.566,0,0,1-.215.67,4.393,4.393,0,0,1-.981.5,6.2,6.2,0,0,1-1.765.548h-.033a.652.652,0,0,1-.446-.168,13.406,13.406,0,0,1-1.152-2.4,1.225,1.225,0,0,1-.1-.2l-.093-.23-.838-1.978c-.215-.533-.305-.85-.26-.951a1.1,1.1,0,0,1,.679-.655l.084-.027.1-.033a2.165,2.165,0,0,0,.305-.108,4.571,4.571,0,0,0,.592-.287" transform="translate(-87.015 -12.91)" fill="#114048"/>
      <path id="Path_20545" data-name="Path 20545" d="M155.727,9.933a3.242,3.242,0,0,0-1.071-.054l-.464.075.1.2c.215.44.482,1.089.8,1.948s.539,1.514.655,1.957l.129.494.23-.1a2.9,2.9,0,0,0,1.023-.8,1.88,1.88,0,0,0,.35-1.056,3.839,3.839,0,0,0-.132-1.143,2.108,2.108,0,0,0-.254-.628,2.21,2.21,0,0,0-1.364-.895m-2.519-.808a2.057,2.057,0,0,1,.718-.308,4.359,4.359,0,0,1,2.319-.015,2.96,2.96,0,0,1,1.451.874,3.624,3.624,0,0,1,.847,1.574,4.49,4.49,0,0,1,.135,1.158,3.613,3.613,0,0,1-.338,1.648,3.187,3.187,0,0,1-1.14,1.119,5.231,5.231,0,0,1-1.49.706c-.386.1-.628.081-.727-.066a15.876,15.876,0,0,1-.506-1.648,24.922,24.922,0,0,0-1.379-3.728,3.715,3.715,0,0,1-.224-.574.559.559,0,0,1,.009-.4,1.108,1.108,0,0,1,.326-.335" transform="translate(-107.116 -6.062)" fill="#114048"/>
      <path id="Path_20546" data-name="Path 20546" d="M213.659.162a3.67,3.67,0,0,1,.7-.162.649.649,0,0,1,.4.138.574.574,0,0,1,.23.464.464.464,0,0,1-.15.383,2.908,2.908,0,0,1-.868.326,8.006,8.006,0,0,1-1.307.263l-.625.072.006.248c0,.135.063.583.182,1.34s.189,1.146.206,1.164h.015a6.3,6.3,0,0,0,.772-.15,6.582,6.582,0,0,1,1.3-.177,1.042,1.042,0,0,1,.688.132.532.532,0,0,1,.171.389.525.525,0,0,1-.168.413,1.168,1.168,0,0,1-.637.218,9.5,9.5,0,0,0-1.191.2,5.215,5.215,0,0,0-.568.144c-.078.033-.114.072-.114.123a3.328,3.328,0,0,0,.045.335c.027.182.048.338.06.467s.021.251.024.41a.507.507,0,0,1-.123.383.516.516,0,0,1-.377.183.564.564,0,0,1-.428-.194.735.735,0,0,1-.2-.521,6.761,6.761,0,0,0-.147-.981,3.422,3.422,0,0,0-.2-.763,5.829,5.829,0,0,1-.272-1.379c-.123-.853-.191-1.481-.209-1.879a1.956,1.956,0,0,1,.141-.981.506.506,0,0,1,.272-.209,6.506,6.506,0,0,1,.889-.123,8.874,8.874,0,0,0,1.5-.266" transform="translate(-147.779)" fill="#114048"/>
      <path id="Path_20547" data-name="Path 20547" d="M244.425,4.011a1.825,1.825,0,0,0-.751-.245c-.425-.048-.673.009-.739.168q-.04.112-.233,1.23t-.239,1.568v.162a2.7,2.7,0,0,0,.634.1,3.239,3.239,0,0,0,.6.024,2.853,2.853,0,0,0,.544-.144,2.534,2.534,0,0,0,.766-.4.749.749,0,0,0,.26-.515l.021-.174a1.773,1.773,0,0,0-.862-1.771m-1.385-1.4a3.411,3.411,0,0,1,.838-.009,2.936,2.936,0,0,1,1.921,1.08,2.655,2.655,0,0,1,.577.945,3.351,3.351,0,0,1,.084,1.17c-.006.051-.012.117-.018.206a1.38,1.38,0,0,1-.012.174,1.892,1.892,0,0,1-.242.736,2.378,2.378,0,0,1-1.209.954q-.431.2-.44.26a1.138,1.138,0,0,0,.186.461,1.341,1.341,0,0,1,.2.682.511.511,0,0,1-.168.317.522.522,0,0,1-.458.156.528.528,0,0,1-.374-.183,4.7,4.7,0,0,1-.431-.76,2.545,2.545,0,0,0-.257-.449.335.335,0,0,0-.221-.12,2.068,2.068,0,0,1-.431-.093l-.242-.069-.015.646-.027.643-.257.206a.5.5,0,0,1-.778,0c-.117-.111-.162-.4-.141-.868.033-.661.1-1.379.182-2.154.108-.987.215-1.732.323-2.244a3.017,3.017,0,0,1,.488-1.275,1.318,1.318,0,0,1,.921-.419" transform="translate(-168.984 -1.807)" fill="#114048"/>
      <path id="Path_20548" data-name="Path 20548" d="M277.928,10.082a1.564,1.564,0,0,0-.368-.2,1.376,1.376,0,0,0-.332.006,1.311,1.311,0,0,0-.64.317,2.321,2.321,0,0,0-.592.661,3.292,3.292,0,0,0-.284.742,2.577,2.577,0,0,0-.072,1.322,2.452,2.452,0,0,0,.676,1.233,1.326,1.326,0,0,0,.494.248,1.622,1.622,0,0,0,1.451-.242,2.888,2.888,0,0,0,.539-.533,2.718,2.718,0,0,0,.4-.628l.024-.069.03-.084a2.865,2.865,0,0,0-.024-1.532,1.746,1.746,0,0,0-.335-.622.953.953,0,0,0-.449-.365,2.611,2.611,0,0,1-.509-.254m-1.1-1.328a2.188,2.188,0,0,1,1.047.03,2.48,2.48,0,0,1,.811.362,2.826,2.826,0,0,0,.556.3c.242.072.509.35.8.826a3.453,3.453,0,0,1,.317,2.782l-.057.212a4.223,4.223,0,0,1-.251.649,3.438,3.438,0,0,1-.425.559,2.888,2.888,0,0,1-3.082,1.056l-.042-.012a2.507,2.507,0,0,1-.942-.44,3.025,3.025,0,0,1-.79-1.059,3.7,3.7,0,0,1-.383-1.343,4.948,4.948,0,0,1,.2-1.517,3.37,3.37,0,0,1,.192-.568,3.742,3.742,0,0,1,.892-1.2,2.56,2.56,0,0,1,1.155-.634" transform="translate(-192.291 -6.1)" fill="#114048"/>
      <path id="Path_20549" data-name="Path 20549" d="M313.733,22.923a.657.657,0,0,1,.512.033.537.537,0,0,1,.317.3,2.723,2.723,0,0,1-.126.948q-.184.781-.506,1.738-.826,2.4-1.011,2.824a.538.538,0,0,1-.09.168.5.5,0,0,1-.281.1.727.727,0,0,1-.35-.039l-.075-.048a.564.564,0,0,1-.248-.509,7.842,7.842,0,0,1,.437-1.418q.395-1.086.539-1.6l.111-.365-.518.491a10.319,10.319,0,0,0-1.014,1.086,3.128,3.128,0,0,1-.616.589.661.661,0,0,1-.494.057l-.114-.033c-.09-.039-.194-.221-.317-.55a8.674,8.674,0,0,1-.35-1.637,5.687,5.687,0,0,0-.206-1.173c-.027-.012-.135.2-.326.637-.1.233-.176.416-.227.553l-.365.91a1.106,1.106,0,0,1-.323.482.58.58,0,0,1-.6.069.522.522,0,0,1-.326-.494,4.1,4.1,0,0,1,.377-1.077,16.1,16.1,0,0,0,.649-1.741c.194-.637.341-1.071.443-1.3a1.541,1.541,0,0,1,.2-.365.664.664,0,0,1,.284-.156.812.812,0,0,1,.613-.051.594.594,0,0,1,.254.221,8.22,8.22,0,0,1,.359,1.343c.174.781.3,1.451.374,2a2.561,2.561,0,0,0,.114.542l.087-.09a3.086,3.086,0,0,0,.278-.254c.123-.123.23-.227.32-.314.449-.44.895-.85,1.343-1.23a4.62,4.62,0,0,1,.88-.649" transform="translate(-215.264 -14.932)" fill="#114048"/>
      <path id="Path_20550" data-name="Path 20550" d="M444.174,324.365a.908.908,0,0,0,.194-.335.493.493,0,0,0,.039-.293c-.012-.057-.084-.1-.209-.15-.048-.015-.165-.048-.356-.093-.353-.081-.539-.1-.55-.066a.7.7,0,0,0,.024.338,1.608,1.608,0,0,0,.15.416.393.393,0,0,0,.218.215l.144.033a.486.486,0,0,0,.347-.066m-2.492.021a2.323,2.323,0,0,0,.287-.613c.138-.4.135-.631-.012-.682-.027-.009-.09-.027-.183-.048s-.221-.051-.38-.084-.3-.066-.422-.1c-.58-.138-.942-.218-1.083-.242s-.224,0-.248.075a1.021,1.021,0,0,0-.024.162,2.44,2.44,0,0,0,.024.757,2.2,2.2,0,0,0,.206.682,1.25,1.25,0,0,0,.7.565,1.642,1.642,0,0,0,.242.054,1.052,1.052,0,0,0,.892-.527m3.91-.413a1.94,1.94,0,0,1-.1.416,1.708,1.708,0,0,1-1,1.14,1.593,1.593,0,0,1-1.14-.009l-.123-.048-.123-.051-.509-.221-.251.239a2.143,2.143,0,0,1-1.011.625,2.211,2.211,0,0,1-1.182-.129,3.121,3.121,0,0,1-.9-.449,1.9,1.9,0,0,1-.524-.676,3.458,3.458,0,0,1-.311-1.379,3.808,3.808,0,0,1,.174-1.4,1.08,1.08,0,0,1,.5-.691,1.865,1.865,0,0,1,.945.078q.848.229,4.06.9.821.175,1.068.26a.442.442,0,0,1,.251.165,1.1,1.1,0,0,1,.147.491,3.053,3.053,0,0,1,.015.739" transform="translate(-307.258 -225.178)" fill="#114048"/>
      <path id="Path_20551" data-name="Path 20551" d="M430.877,352.894a1.874,1.874,0,0,0,.494-.616c.191-.383.227-.631.1-.751-.06-.054-.419-.266-1.071-.649s-1.116-.637-1.382-.775l-.075-.03-.063-.024-.012-.006a2.769,2.769,0,0,0-.317.56,1.961,1.961,0,0,0-.29,1.116,2.457,2.457,0,0,0,.108.856.75.75,0,0,0,.389.425l.156.081a1.774,1.774,0,0,0,1.96-.185m1.8-.808a3.508,3.508,0,0,1-.284.79A2.937,2.937,0,0,1,430.7,354.3a2.644,2.644,0,0,1-1.089.209,3.4,3.4,0,0,1-1.125-.332c-.042-.021-.1-.051-.185-.084l-.162-.072a1.867,1.867,0,0,1-.6-.488,2.4,2.4,0,0,1-.47-1.466q-.036-.476-.09-.5a1.152,1.152,0,0,0-.5.009,1.336,1.336,0,0,1-.712-.051.5.5,0,0,1-.239-.269.527.527,0,0,1,.015-.482.557.557,0,0,1,.3-.29,4.955,4.955,0,0,1,.865-.138,2.361,2.361,0,0,0,.509-.084.326.326,0,0,0,.189-.168,2.079,2.079,0,0,1,.239-.371l.15-.2-.6-.239-.592-.251-.1-.314a.617.617,0,0,1-.018-.482.6.6,0,0,1,.29-.248c.144-.069.431-.012.862.173q.911.395,1.954.924,1.328.673,1.987,1.089a3.012,3.012,0,0,1,1.023.9,1.294,1.294,0,0,1,.069,1.008" transform="translate(-298.184 -243.854)" fill="#114048"/>
      <path id="Path_20552" data-name="Path 20552" d="M419.95,380.45a.64.64,0,0,1-.036.344.687.687,0,0,1-.254.215.567.567,0,0,1-.293.087,13.048,13.048,0,0,1-2.2-1.044q-1.921-1.019-2.758-1.571a1.645,1.645,0,0,1-.3-.233.565.565,0,0,1,.009-.625.51.51,0,0,1,.518-.254,6.419,6.419,0,0,1,1.331.685q.826.471,2.286,1.227a14.684,14.684,0,0,1,1.373.73.607.607,0,0,1,.323.44" transform="translate(-290.153 -264.464)" fill="#114048"/>
      <path id="Path_20553" data-name="Path 20553" d="M405.2,400.6a.512.512,0,0,1-.114.362,2.14,2.14,0,0,1-.171.182,24.071,24.071,0,0,0-1.969,2.124,3.582,3.582,0,0,0-.269.344,3.05,3.05,0,0,1-.194.257.733.733,0,0,1-.921.1.61.61,0,0,1-.108-.691,5.5,5.5,0,0,1,.452-.583l.542-.649-.365-.248a36.718,36.718,0,0,1-3.12-2.438,6.269,6.269,0,0,1-.688-.613.536.536,0,0,1,.069-.607.555.555,0,0,1,.356-.2.506.506,0,0,1,.377.1q.215.144,1.275.99,1.517,1.189,2.148,1.663l.721.527.272-.323a3.275,3.275,0,0,1,.9-.811.563.563,0,0,1,.646.1.475.475,0,0,1,.162.4" transform="translate(-279.074 -278.881)" fill="#114048"/>
      <path id="Path_20554" data-name="Path 20554" d="M385.467,421.688a.689.689,0,0,1-.111.326.724.724,0,0,1-.3.156.613.613,0,0,1-.305.018,13.341,13.341,0,0,1-1.9-1.514q-1.638-1.427-2.331-2.154a1.349,1.349,0,0,1-.239-.3.566.566,0,0,1,.15-.607.51.51,0,0,1,.559-.129,6.639,6.639,0,0,1,1.143.969c.464.431,1.116,1,1.951,1.711a15.381,15.381,0,0,1,1.173,1.02.611.611,0,0,1,.215.5" transform="translate(-266.486 -292.559)" fill="#114048"/>
      <path id="Path_20555" data-name="Path 20555" d="M365.833,436.39a1.788,1.788,0,0,1-.476.53,1.734,1.734,0,0,1-.625.314,3.473,3.473,0,0,1-1.071-.009,4.656,4.656,0,0,1-.631-.114.547.547,0,0,1-.266-.191.514.514,0,0,1-.1-.461.645.645,0,0,1,.192-.35,1.771,1.771,0,0,1,1.041-.081,1.2,1.2,0,0,0,.772-.075c.215-.165.239-.473.069-.918a1,1,0,0,0-.144-.26,2.6,2.6,0,0,0-1.681-.568,5.589,5.589,0,0,1-1.263-.257,1.564,1.564,0,0,1-.658-.479,1.615,1.615,0,0,1-.069-1.747,1.87,1.87,0,0,1,.574-.715,1.789,1.789,0,0,1,1.188-.392,1.558,1.558,0,0,1,.942.344l.108.12a.584.584,0,0,1,.126.428.578.578,0,0,1-.215.392.62.62,0,0,1-.4.087c-.183-.006-.3-.045-.353-.117-.042-.054-.141-.075-.293-.06a.728.728,0,0,0-.371.126.829.829,0,0,0-.26.4.412.412,0,0,0-.015.416c.084.108.32.179.712.209a6.156,6.156,0,0,1,1.96.374,1.706,1.706,0,0,1,.443.257,4.276,4.276,0,0,1,.44.518,2.506,2.506,0,0,1,.521.945,2.046,2.046,0,0,1-.2,1.328" transform="translate(-252.791 -301.783)" fill="#114048"/>
      <path id="Path_20556" data-name="Path 20556" d="M336.025,452.308a.49.49,0,0,1-.242.371.53.53,0,0,1-.467.03.722.722,0,0,1-.329-.284q-.162-.229-.814-1.349l-.892-1.574-.682.335c-.024.015-.072.036-.138.069s-.12.06-.162.084q-.534.3-1.152.736a2.961,2.961,0,0,0-.64.515l.045.108c.1.168.359.571.79,1.206s.673.993.721,1.077a.591.591,0,0,1,.036.449.551.551,0,0,1-.242.371q-.444.251-.871-.3c-.144-.173-.676-1.038-1.6-2.585L328.07,449.3l.066-.239a.568.568,0,0,1,.26-.365.557.557,0,0,1,.727.159,3.834,3.834,0,0,1,.518.766c.2.347.326.5.383.473l.057-.051c.087-.081.542-.377,1.358-.889l1.248-.757-.206-.455a2.153,2.153,0,0,1-.242-.826.5.5,0,0,1,.29-.425.532.532,0,0,1,.365-.039.613.613,0,0,1,.356.186.707.707,0,0,1,.114.171,5.652,5.652,0,0,1,.308.631q.31.727,1.331,2.534.749,1.319.9,1.636a.926.926,0,0,1,.126.5" transform="translate(-229.918 -313.01)" fill="#114048"/>
      <path id="Path_20557" data-name="Path 20557" d="M285.093,477.264a3.537,3.537,0,0,1-.634.335.623.623,0,0,1-.419-.033.562.562,0,0,1-.338-.389.452.452,0,0,1,.048-.407,2.922,2.922,0,0,1,.757-.538,8.244,8.244,0,0,1,1.2-.589l.586-.23-.069-.239c-.036-.132-.209-.547-.518-1.248a10.88,10.88,0,0,0-.5-1.071l-.015.006a6.461,6.461,0,0,0-.706.341,6.616,6.616,0,0,1-1.209.5,1.072,1.072,0,0,1-.7.051.55.55,0,0,1-.263-.335.526.526,0,0,1,.054-.44,1.183,1.183,0,0,1,.559-.374,9.4,9.4,0,0,0,1.1-.5,5.17,5.17,0,0,0,.512-.284q.1-.072.081-.144c-.012-.036-.054-.141-.129-.311s-.135-.317-.18-.434-.084-.239-.126-.389a.505.505,0,0,1,.021-.4.543.543,0,0,1,.317-.275.577.577,0,0,1,.464.081.744.744,0,0,1,.329.452,6.706,6.706,0,0,0,.392.912,3.193,3.193,0,0,0,.389.688,5.951,5.951,0,0,1,.613,1.266q.5,1.189.682,1.765a1.948,1.948,0,0,1,.117.984.506.506,0,0,1-.209.272,7.168,7.168,0,0,1-.829.344,8.744,8.744,0,0,0-1.379.64" transform="translate(-197.831 -329.277)" fill="#114048"/>
      <path id="Path_20558" data-name="Path 20558" d="M254.692,480.939s.009-.437.033-1.28.033-1.292.024-1.34a2.886,2.886,0,0,0-.667.072c-.455.069-.688.144-.706.227v.09a4.743,4.743,0,0,0,.811,1.648,2.585,2.585,0,0,0,.494.634l.009-.048Zm.868,1.523a.438.438,0,0,1-.308.2,1.132,1.132,0,0,1-.76-.239,5.6,5.6,0,0,1-1.675-2.028,8.981,8.981,0,0,1-1.056-2.9l-.048-.317a1.656,1.656,0,0,1-.03-.392.322.322,0,0,1,.117-.2.606.606,0,0,1,.341-.185.567.567,0,0,1,.461.123.817.817,0,0,1,.275.551l.057.374.38-.117a7.832,7.832,0,0,1,.93-.185l.548-.084-.066-.434a.843.843,0,0,1,.069-.616.558.558,0,0,1,.365-.233.611.611,0,0,1,.464.135.625.625,0,0,1,.182.23,2.911,2.911,0,0,1,.111.535,14.04,14.04,0,0,1,.033,2.151,12.653,12.653,0,0,1-.392,3.632" transform="translate(-176.382 -333.428)" fill="#114048"/>
      <path id="Path_20559" data-name="Path 20559" d="M222.613,484.39a1.826,1.826,0,0,0,.775.144q.642-.013.709-.26c.018-.078.042-.5.072-1.251s.042-1.284.036-1.586l-.009-.081-.009-.066v-.015a2.793,2.793,0,0,0-.643-.018,3.152,3.152,0,0,0-.6.054,2.806,2.806,0,0,0-.524.215,2.46,2.46,0,0,0-.706.5.774.774,0,0,0-.194.542v.176a1.785,1.785,0,0,0,1.086,1.646m1.556,1.212a3.244,3.244,0,0,1-.829.117,2.954,2.954,0,0,1-2.046-.823,2.666,2.666,0,0,1-.694-.865,3.391,3.391,0,0,1-.233-1.149c0-.051-.006-.117-.009-.206s-.009-.147-.012-.177a1.913,1.913,0,0,1,.147-.763,2.4,2.4,0,0,1,1.074-1.1c.269-.171.4-.275.4-.314a1.124,1.124,0,0,0-.242-.434,1.358,1.358,0,0,1-.29-.652.528.528,0,0,1,.126-.338.537.537,0,0,1,.434-.215.571.571,0,0,1,.4.132,4.6,4.6,0,0,1,.524.7,2.349,2.349,0,0,0,.314.41.32.32,0,0,0,.233.09,2.066,2.066,0,0,1,.44.036l.248.039-.069-.64-.057-.643.23-.236a.608.608,0,0,1,.419-.242.582.582,0,0,1,.353.141c.129.093.209.374.248.841.051.661.084,1.379.1,2.16.018.99.009,1.747-.033,2.265a3.1,3.1,0,0,1-.317,1.328,1.3,1.3,0,0,1-.859.533" transform="translate(-154.418 -335.216)" fill="#114048"/>
      <path id="Path_20560" data-name="Path 20560" d="M183.734,483.335a.643.643,0,0,1-.5.114.53.53,0,0,1-.389-.194,2.654,2.654,0,0,1-.147-.945c-.033-.533-.033-1.137-.009-1.81.075-1.687.129-2.687.168-2.995a.682.682,0,0,1,.039-.185.528.528,0,0,1,.242-.177.711.711,0,0,1,.347-.06l.084.027a.567.567,0,0,1,.383.416,8.262,8.262,0,0,1-.015,1.484c-.048.769-.066,1.331-.063,1.684v.383l.353-.616a10.61,10.61,0,0,0,.664-1.331,3.083,3.083,0,0,1,.425-.742.675.675,0,0,1,.458-.194h.117q.144.018.458.44a8.729,8.729,0,0,1,.8,1.466,5.514,5.514,0,0,0,.53,1.065,2.353,2.353,0,0,0,.132-.706c.03-.251.051-.449.06-.6.054-.6.084-.924.093-.972a1.053,1.053,0,0,1,.171-.553.591.591,0,0,1,.559-.239.522.522,0,0,1,.452.38,4.045,4.045,0,0,1-.054,1.14,16.307,16.307,0,0,0-.129,1.852c0,.667-.024,1.125-.051,1.376a1.643,1.643,0,0,1-.09.41.673.673,0,0,1-.227.23.839.839,0,0,1-.571.224.588.588,0,0,1-.308-.141,8.013,8.013,0,0,1-.727-1.188q-.583-1.05-.927-1.813a2.945,2.945,0,0,0-.263-.491l-.06.111a2.673,2.673,0,0,0-.194.323c-.084.15-.156.281-.218.392-.3.551-.616,1.071-.936,1.562a4.552,4.552,0,0,1-.661.874" transform="translate(-128.021 -334.346)" fill="#114048"/>
      <path id="Path_20561" data-name="Path 20561" d="M153.255,476.821c-.329-.051-.545-.09-.649-.12q-.772-.215-.628-.736L152,475.9a.5.5,0,0,1,.4-.38,4.3,4.3,0,0,1,1.173.168l1.026.239.293-1.221c.182-.808.272-1.218.266-1.23l-.027-.009c-.132-.036-.631-.126-1.5-.266-.191-.033-.3-.051-.317-.057a.412.412,0,0,1-.26-.209.545.545,0,0,1-.051-.422.531.531,0,0,1,.281-.362,2.841,2.841,0,0,1,1.553.039l.589.117.254-.915-.383-.153c-.072-.03-.23-.078-.476-.147-.272-.075-.473-.129-.607-.156s-.275-.063-.455-.111a.937.937,0,0,1-.389-.185.523.523,0,0,1-.135-.326.674.674,0,0,1,.015-.224.566.566,0,0,1,.58-.4,4.259,4.259,0,0,1,1.08.209,6.036,6.036,0,0,1,1.729.646l.024.024a.633.633,0,0,1,.251.4,13.392,13.392,0,0,1-.556,2.6,1.06,1.06,0,0,1-.045.215l-.066.239c-.347,1.316-.53,2.01-.548,2.073-.156.553-.278.859-.377.912a1.1,1.1,0,0,1-.936.1l-.081-.03-.1-.036a2.539,2.539,0,0,0-.308-.1,4.35,4.35,0,0,0-.643-.135" transform="translate(-106.493 -329.166)" fill="#114048"/>
      <path id="Path_20562" data-name="Path 20562" d="M122.626,465.652a1.858,1.858,0,0,0,.649.452c.395.168.646.182.757.051.048-.063.239-.434.574-1.11s.562-1.155.682-1.433l.024-.075.018-.063.006-.015a5.3,5.3,0,0,0-1.149-.473,2.812,2.812,0,0,0-.562-.018,2.408,2.408,0,0,0-.847.165.76.76,0,0,0-.4.416l-.069.162a1.773,1.773,0,0,0,.314,1.942m.924,1.741a3.588,3.588,0,0,1-.8-.23,2.935,2.935,0,0,1-1.532-1.589,2.665,2.665,0,0,1-.281-1.071,3.347,3.347,0,0,1,.257-1.146c.018-.045.042-.108.072-.191s.051-.138.063-.165a1.87,1.87,0,0,1,.443-.634,2.389,2.389,0,0,1,1.43-.565c.317-.048.482-.087.5-.123a1.177,1.177,0,0,0-.042-.494,1.393,1.393,0,0,1,0-.715.523.523,0,0,1,.251-.257.517.517,0,0,1,.482-.015.543.543,0,0,1,.308.281,4.7,4.7,0,0,1,.191.85,2.348,2.348,0,0,0,.12.5.335.335,0,0,0,.177.18,1.975,1.975,0,0,1,.386.212l.212.138.2-.613.212-.61.305-.123a.5.5,0,0,1,.748.224c.078.138.039.431-.117.871-.224.622-.488,1.3-.793,2.01q-.583,1.369-.954,2.052a3,3,0,0,1-.832,1.08,1.306,1.306,0,0,1-1,.138" transform="translate(-84.75 -322.479)" fill="#114048"/>
      <path id="Path_20563" data-name="Path 20563" d="M93.887,453.855a1.778,1.778,0,0,1-.67-.245,1.722,1.722,0,0,1-.524-.464,3.55,3.55,0,0,1-.392-1,3.669,3.669,0,0,1-.126-.628.523.523,0,0,1,.078-.317.517.517,0,0,1,.392-.26.622.622,0,0,1,.4.048,1.78,1.78,0,0,1,.461.936,1.21,1.21,0,0,0,.356.688c.233.138.527.048.877-.278a.952.952,0,0,0,.185-.227,2.6,2.6,0,0,0-.1-1.774,6.029,6.029,0,0,1-.233-1.269,1.568,1.568,0,0,1,.2-.79,1.615,1.615,0,0,1,1.6-.715,1.861,1.861,0,0,1,.877.266,1.792,1.792,0,0,1,.808.954,1.576,1.576,0,0,1,.033,1.005l-.069.144a.57.57,0,0,1-.35.275.6.6,0,0,1-.446-.051.619.619,0,0,1-.23-.341.469.469,0,0,1-.024-.371c.036-.057.018-.156-.054-.293a.687.687,0,0,0-.257-.3.846.846,0,0,0-.47-.093c-.2-.006-.332.042-.392.141a1.089,1.089,0,0,0,.069.739,6.15,6.15,0,0,1,.383,1.957,1.709,1.709,0,0,1-.075.509,4.312,4.312,0,0,1-.314.6,2.474,2.474,0,0,1-.682.835,2.032,2.032,0,0,1-1.307.311" transform="translate(-64.598 -313.659)" fill="#114048"/>
    </g>
    <g id="Group_3348" data-name="Group 3348" transform="translate(30.095 44.955)">
      <path id="Path_20564" data-name="Path 20564" d="M202.21,167.384V181.2l.26.018a6.225,6.225,0,0,1,4.8,3.8l1.481,3.871H217.2l-.15-1.221-.132-1.068-.539-4.374-.233-1.885-.069-.553-.1-.862-.509-4.129-.111-.9-.3-2.438-.323-2.627-.715-5.822H202.21v4.374Z" transform="translate(-171.807 -159.195)" fill="none"/>
      <path id="Path_20565" data-name="Path 20565" d="M135.034,285.732a8.435,8.435,0,0,0,7.647-4.877,8.218,8.218,0,0,0,.524-1.49,8.458,8.458,0,0,0,.245-1.8c0-.075.012-.147.012-.221a8.272,8.272,0,0,0-.769-3.482,8.425,8.425,0,0,0-5.774-4.685,8.532,8.532,0,0,0-1.888-.218,8.389,8.389,0,1,0,0,16.778Z" transform="translate(-118.818 -233.447)" fill="none"/>
      <path id="Path_20566" data-name="Path 20566" d="M170.575,171.144V163h-7.821l-1.242,8.739-.6,4.227h0l-.332,2.346-.269,1.885c.467.03.927.078,1.388.138.308.039.616.081.921.129.078,0,.156,0,.233.006h.021l1.84.138,5.858.44v-9.906Z" transform="translate(-142.443 -159.188)" fill="none"/>
      <path id="Path_20567" data-name="Path 20567" d="M308.18,305.3a6.022,6.022,0,0,0,6.037-6.011,5.956,5.956,0,0,0-1.325-3.752,6.04,6.04,0,0,0-4.018-2.217,5.93,5.93,0,0,0-.7-.042,6.04,6.04,0,0,0-5.586,3.728,5.959,5.959,0,0,0-.452,2.28c0,.206.012.41.03.61a6.028,6.028,0,0,0,6.008,5.4Z" transform="translate(-241.84 -250.491)" fill="none"/>
      <path id="Path_20568" data-name="Path 20568" d="M218.79,277.3l.242.64h0Z" transform="translate(-183.427 -239.292)" fill="none"/>
      <path id="Path_20569" data-name="Path 20569" d="M272.185,259.3l-2.085-1.334c.437-.56.865-1.116,1.3-1.7-.437.583-.865,1.14-1.3,1.7Z" transform="translate(-219.386 -224.554)" fill="none"/>
      <path id="Path_20570" data-name="Path 20570" d="M221.761,265.982l-.437-.18-.954-2.052.954,2.052h0Z" transform="translate(-184.534 -229.796)" fill="none"/>
      <path id="Path_20571" data-name="Path 20571" d="M335.226,284.667l-1.436-.138c.045-.568.087-1.14.138-1.789-.051.652-.1,1.221-.138,1.789Z" transform="translate(-264.021 -243.105)" fill="none"/>
      <path id="Path_20572" data-name="Path 20572" d="M147.76,247.1a.8.8,0,0,1,.521.1A.8.8,0,0,0,147.76,247.1Z" transform="translate(-133.648 -218.12)" fill="none"/>
      <path id="Path_20573" data-name="Path 20573" d="M307.4,286.02a2.037,2.037,0,0,0,.844.027A1.988,1.988,0,0,1,307.4,286.02Z" transform="translate(-245.527 -245.403)" fill="none"/>
      <path id="Path_20574" data-name="Path 20574" d="M310.22,282.648c.613-.132,1-.634,1.155-1.478l.494.117-.494-.117C311.219,282.014,310.833,282.516,310.22,282.648Z" transform="translate(-247.503 -242.004)" fill="none"/>
      <path id="Path_20575" data-name="Path 20575" d="M310.477,279.906a1.744,1.744,0,0,1-.117-.156,1.744,1.744,0,0,0,.117.156l1,.266Z" transform="translate(-247.601 -241.009)" fill="none"/>
      <path id="Path_20576" data-name="Path 20576" d="M298.6,283.7c-.314-.069-.631-.147-.951-.224h0c.32.078.637.156.951.224Z" transform="translate(-238.694 -243.623)" fill="none"/>
      <path id="Path_20577" data-name="Path 20577" d="M268,241.112c-.066-.045-.132-.09-.194-.135-.8-.739-1.6-1.481-2.447-2.268.85.787,1.648,1.529,2.447,2.268C267.87,241.023,267.936,241.068,268,241.112Z" transform="translate(-216.064 -212.248)" fill="none"/>
      <path id="Path_20578" data-name="Path 20578" d="M127.759,226.723a6.058,6.058,0,0,1-.269-.883h0a6.578,6.578,0,0,0,.269.883Z" transform="translate(-119.442 -203.228)" fill="none"/>
      <path id="Path_20579" data-name="Path 20579" d="M302,296.38a2.9,2.9,0,0,0-.221,1.161A2.8,2.8,0,0,1,302,296.38Z" transform="translate(-241.585 -252.664)" fill="none"/>
      <path id="Path_20580" data-name="Path 20580" d="M203.83,278.62a2.5,2.5,0,0,0,.425-.44h0A2.614,2.614,0,0,1,203.83,278.62Z" transform="translate(-172.943 -239.909)" fill="none"/>
      <path id="Path_20581" data-name="Path 20581" d="M263.993,224.51c-.027.239-.06.491-.093.76C263.933,225,263.966,224.749,263.993,224.51Z" transform="translate(-215.041 -202.296)" fill="none"/>
      <path id="Path_20582" data-name="Path 20582" d="M257.145,219.17l-.751.374c-.063.1-.132.2-.194.308.063-.1.132-.2.194-.308Z" transform="translate(-209.645 -198.554)" fill="none"/>
      <path id="Path_20583" data-name="Path 20583" d="M265.368,220.29l-.748.03h0C264.856,220.311,265.1,220.3,265.368,220.29Z" transform="translate(-215.546 -199.338)" fill="none"/>
      <path id="Path_20584" data-name="Path 20584" d="M251.07,177.443c.048-.015.108-.021.159-.033h0c-.054.012-.111.018-.159.033Z" transform="translate(-206.049 -169.287)" fill="none"/>
      <path id="Path_20585" data-name="Path 20585" d="M252.936,161.21l-.066.209h0Z" transform="translate(-207.311 -157.934)" fill="none"/>
      <path id="Path_20586" data-name="Path 20586" d="M219.449,281.239a2.03,2.03,0,0,1-.03-.389A1.846,1.846,0,0,0,219.449,281.239Z" transform="translate(-183.867 -241.78)" fill="none"/>
      <path id="Path_20587" data-name="Path 20587" d="M252.815,227.28l-.015.03h0Z" transform="translate(-207.262 -204.237)" fill="none"/>
      <path id="Path_20588" data-name="Path 20588" d="M250.158,276.67c.868.045,1.738.126,2.639.132-.9-.006-1.774-.087-2.639-.132-.589.236-1.179.473-1.738.694C248.979,277.14,249.569,276.906,250.158,276.67Z" transform="translate(-204.192 -238.851)" fill="none"/>
      <path id="Path_20589" data-name="Path 20589" d="M260.979,260.174l-.509-.194.509.194,2.363.4Z" transform="translate(-212.637 -227.154)" fill="none"/>
      <path id="Path_20590" data-name="Path 20590" d="M290.541,272.7l-1.251-.395,1.251.395Z" transform="translate(-232.835 -235.795)" fill="none"/>
      <path id="Path_20591" data-name="Path 20591" d="M159.92,204.23c.048.251.263.467.718.631h0C160.183,204.694,159.968,204.481,159.92,204.23Z" transform="translate(-142.17 -188.083)" fill="none"/>
      <path id="Path_20592" data-name="Path 20592" d="M251.414,262.34c-.156.06-.305.374-.61,1.005a2.89,2.89,0,0,0-1.074-.266,2.95,2.95,0,0,1,1.074.266C251.106,262.717,251.259,262.4,251.414,262.34Z" transform="translate(-205.11 -228.808)" fill="none"/>
      <path id="Path_20593" data-name="Path 20593" d="M256.66,263.992c.15-.009.3-.027.446-.042-.15.012-.3.033-.446.042l-.35.874Z" transform="translate(-209.722 -229.936)" fill="none"/>
      <path id="Path_20594" data-name="Path 20594" d="M117.613,273.7c.066-.2.12-.434.194-.622l.272-2.585c.565-.1,1.134-.206,1.738-.317-.6.111-1.173.212-1.741.317l-.272,2.585c-.078.188-.129.416-.194.622Z" transform="translate(-112.518 -234.302)" fill="none"/>
      <path id="Path_20595" data-name="Path 20595" d="M103.61,279.58h0l.048.024Z" transform="translate(-102.706 -240.89)" fill="none"/>
      <path id="Path_20596" data-name="Path 20596" d="M187.75,273.868c.26-.425.527-.568.793-.568-.266,0-.53.144-.793.568l2.767,2.854Z" transform="translate(-161.673 -236.489)" fill="none"/>
      <path id="Path_20597" data-name="Path 20597" d="M344.643,332.729c.515.362,1.125.784,1.771,1.218a11.694,11.694,0,0,0,1.84-2.645c-1.328-.114-2.615-.1-3.614,1.43Z" transform="translate(-271.625 -277.109)" fill="#114048"/>
      <path id="Path_20598" data-name="Path 20598" d="M229.322,282.565l-.171-.395c-.874.215-1.747.434-2.779.688-.081-2.052,1.72-1.912,2.8-2.486-.018-1.17-.033-2.262-.051-3.435-1.071-.574-1.72.233-2.734.7l1.164.972c-1.206,1.391-2.34,2.684-3.62,4.117-.942-.266-2.157-.643-3.36-1.053-.712.012-1.427.027-2.376.042.159-.428.183-.739.35-.9.8-.793.688-1.448-.1-2.211a3.578,3.578,0,0,1-1.233-1.822,2.03,2.03,0,0,1-.03-.389,2.144,2.144,0,0,1,.054-.422l-.239-.64-.239-.64h0l-.449-.2-.081.186a19.324,19.324,0,0,1,.942,9.409h11.01c-.084-.072-.165-.144-.245-.2.53-.506.957-.912,1.385-1.319Z" transform="translate(-181.633 -237.323)" fill="#114048"/>
      <path id="Path_20599" data-name="Path 20599" d="M287.12,305.106c.9-.012,1.637-.042,2.358-.063l.3-.416c-.518-.35-.969-.93-1.547-1.014-2.417-.35-3.689-1.52-4-3.5-.078-.5-.548-.939-.919-1.559a1.975,1.975,0,0,1,2.381.99,2.543,2.543,0,0,0,3.249,1.092c1.194-.434,1.17-1,.024-1.484-2.082-.236-2.19-.347-2.48-2.441.748.12,1.412.224,2.076.329.081-.1.165-.2.245-.3a5.874,5.874,0,0,1-.03-.61,5.958,5.958,0,0,1,.452-2.28,4.168,4.168,0,0,1-.323-.6,2.751,2.751,0,0,1-.015-2.2c-.23-.329-.458-.655-.733-1.047-.6.254-1.2.5-1.882.793-.239-.323-.586-.577-.574-.817.018-.392.06-.787.1-1.2a11.629,11.629,0,0,0,1.322,16.329Z" transform="translate(-228.469 -247.338)" fill="#114048"/>
      <path id="Path_20600" data-name="Path 20600" d="M188.615,275.193c-.5.371-1.02.263-2.187-.1l-.488-1.269c-.359-.114-.715-.389-1.074-.491a.929.929,0,0,0-.266-.042c-.266,0-.53.144-.793.568.871.9,1.738,1.8,2.767,2.854-2.726.347-1.69,3.432-3.653,4.679l-.556-.793a8.455,8.455,0,0,1-.245,1.8c.942.915,1.9,1.834,2.911,2.773.6-.742.987-1.227,1.55-1.921.954.6,1.894,1.2,2.845,1.8a16.109,16.109,0,0,0,.559-2.749,6.394,6.394,0,0,1-1.834-.942c-.41-.26-.865-.446-1.3-.67s-.838-.449-1.194-.64l2.292-1.993c.545-.467,1.095-.93,1.837-.73a15.757,15.757,0,0,0-.745-2.57,2.5,2.5,0,0,1-.425.44Z" transform="translate(-157.728 -236.482)" fill="#114048"/>
      <path id="Path_20601" data-name="Path 20601" d="M264.719,271.826l-.649-.206-.29.9-1.068,1.657-2.363.2-1.011-2.423a11.646,11.646,0,0,1-1.912-.012,3.273,3.273,0,0,0-3.2,1.188c.868.045,1.738.129,2.639.132.419,1.388-1,3.225,1.071,4.018-.473,2.256-.2,3.77,1.05,4.8h1.367a14.082,14.082,0,0,1,5.634-9.8c-.009-.018-.015-.036-.024-.051l-1.251-.4Z" transform="translate(-208.264 -235.311)" fill="#114048"/>
      <path id="Path_20602" data-name="Path 20602" d="M313.154,338.745c-.051.332-.126.8-.209,1.337a3.32,3.32,0,0,1-3.779-1.134c-1.385-1.577-1.5-1.538-3.261-.7.544.835,1.1,1.675,1.66,2.54a5.493,5.493,0,0,1-4.6-.081,11.61,11.61,0,0,0,13.334-1.382c-1.038.2-1.972-.862-3.15-.583Z" transform="translate(-242.422 -281.605)" fill="#114048"/>
      <path id="Path_20603" data-name="Path 20603" d="M298.512,282.14c-.045-.168-.09-.335-.141-.47-.248.171-.488.35-.721.539.32.078.637.156.951.224C298.568,282.346,298.542,282.244,298.512,282.14Z" transform="translate(-238.694 -242.355)" fill="#114048"/>
      <path id="Path_20604" data-name="Path 20604" d="M113.32,240.774v1.744a19.423,19.423,0,0,1,2.585-1.837c-.245-.039-.488-.075-.733-.09a4.858,4.858,0,0,0-1.849.182Z" transform="translate(-109.511 -213.554)" fill="#114048"/>
      <path id="Path_20605" data-name="Path 20605" d="M141.3,226.593c.191.458.377.892.553,1.313q.826-.157,1.672-.239a15.162,15.162,0,0,1,.634-1.9l-2.863.823Z" transform="translate(-129.12 -203.179)" fill="#114048"/>
      <path id="Path_20606" data-name="Path 20606" d="M115.87,248.081l.721-.326c.06.287.185.521.132.694-.335,1.059-1.418,2.133.138,3.105.568-.1,1.134-.206,1.741-.317.515.736.446,1.322-.35,2a1.275,1.275,0,0,0,.1,2.136,5.679,5.679,0,0,1,1.313.844,8.418,8.418,0,0,1,3.351-4.045c-.159.018-.308.033-.479.051-.742-.416-.625-1.2.171-2.226,1.882.679,3.83,1.221,4.6-1.364,1.421.081,2.729.156,4.215.242-.224.53-.314,1.218-.592,1.3a4,4,0,0,0-1.532.909,8.425,8.425,0,0,1,5.774,4.685c-.009-.054-.015-.111-.027-.165-.284-1.364.006-2.16,1.52-2.289.251-.024.473-.38.706-.58.263-.425.527-.568.793-.568a.915.915,0,0,1,.266.042c.356.1.715.377,1.074.491l.488,1.269c1.167.365,1.69.473,2.187.1a2.5,2.5,0,0,0,.425-.44c-.177-.473-.377-.93-.6-1.382-1.236.461-2.127-.53-3.438-1.3.865-.233,1.328-.356,2.118-.568l-1.66-.921c.242-.26.443-.509.67-.721-.18-.206-.362-.41-.553-.607-.515.757-1.017,1.541-2.319,1.284-.553-.1-1.263.518-2.031.859.269.562.485,1.014.7,1.463-.212.117-.386.284-.464.248-1.669-.835-1.726-.972-1.418-2.941.455-.039.913-.081,1.37-.123.054-.006.1-.117.281-.356-1.705-.712-3.36-1.4-5.017-2.091a1.888,1.888,0,0,1-2.785.823c-.44-.224-1.146.018-1.714.132a10.946,10.946,0,0,0-1.538.577c.1-1.137.183-2,.26-2.872l-.194.132.194-.135h0a1.569,1.569,0,0,1,.942-.8.8.8,0,0,1,.521.1,2.072,2.072,0,0,1,.571.506,4.108,4.108,0,0,0,.966.649c.8-.73,1.595-1.478,2.408-2.247a15.26,15.26,0,0,0-6.3.3c-1.134,2.145-2.049,2.384-3.9,1.511a16.219,16.219,0,0,0-3.812,2.92Z" transform="translate(-111.299 -215.359)" fill="#114048"/>
      <path id="Path_20607" data-name="Path 20607" d="M153.374,228.43a1.349,1.349,0,0,0-.434,1.02c.087,0,.171-.015.257-.018h.021l.35,0c.344,0,.679.036,1.017.054a1.425,1.425,0,0,0-1.215-1.053Z" transform="translate(-137.278 -205.043)" fill="#114048"/>
      <path id="Path_20608" data-name="Path 20608" d="M175.483,306.513c-1.008-.939-1.969-1.858-2.911-2.773a8.453,8.453,0,0,1-.524,1.49c.123.781.144,1.6.224,2.63l-2.082-.054a8.541,8.541,0,0,1-1.69,1.242,36.088,36.088,0,0,0,2.926,3.132,3.939,3.939,0,0,1,1.61,2.866c-1.316.455-1.628-.482-2.076-1.448-.766.79-1.391,1.433-2.142,2.2a4.073,4.073,0,0,1,1.792.93,16.218,16.218,0,0,0,9.269-10.343c-.951-.6-1.894-1.2-2.845-1.8C176.473,305.287,176.081,305.774,175.483,306.513Zm-1.448,2.319c.628-.278,1.254-.553,1.927-.853.652.512,1.26.987,1.87,1.469-1.562,1.711-2.432-.745-3.794-.616Z" transform="translate(-148.183 -257.822)" fill="#114048"/>
      <path id="Path_20609" data-name="Path 20609" d="M169.226,247.139c-.206-.763-.479-1.43-.628-2.064-.428-.141-.865-.26-1.307-.365C167.742,245.566,167.76,246.885,169.226,247.139Z" transform="translate(-147.335 -216.452)" fill="#114048"/>
      <path id="Path_20610" data-name="Path 20610" d="M157.626,218.977l1.005-.724c-.218-.446-.443-.91-.649-1.331.108-.153.2-.29.305-.437l-1.84-.138h-.021c-.108.135-.218.269-.329.4-.5-.063-.754-.281-.826-.539-.461-.057-.921-.108-1.388-.138l.269-1.885a8.016,8.016,0,0,1-1.02,1.352c-.494,0-.975,0-1.454-.006l-.072.5c-.15,0-.311.021-.467.03a3.243,3.243,0,0,0,2.627.571c.063.679.123,1.331.2,2.2l1.963-.823c.449.817.592,1.388.389,1.867.58.123,1.155.272,1.714.446.045-.108.09-.206.135-.317-.075-.144-.287-.545-.545-1.029Z" transform="translate(-136.016 -195.063)" fill="#114048"/>
      <path id="Path_20611" data-name="Path 20611" d="M194.62,190.213v2.426l1.918.428a1.241,1.241,0,0,1,.353.144v-2.663a2.285,2.285,0,0,1-2.271-.338Z" transform="translate(-166.488 -178.258)" fill="#114048"/>
      <path id="Path_20612" data-name="Path 20612" d="M239.505,155.5h0c-.341-.185-.736-.326-.829-.655a1.1,1.1,0,0,1,.233-.847,1.4,1.4,0,0,0-.033-1.035,1.065,1.065,0,0,0-1.023-.111c-.942.625-2.037,1.137-2.2,2.72-.6.027-1.137.054-1.789.084-.018.054-.039.117-.06.174h2.358l.715,5.822a8.6,8.6,0,0,1,2.4-.5l-.15-1.011c-.054.012-.111.018-.159.033h0l-.144-.338.245-.09-.577-3.916h.886a1.218,1.218,0,0,0,.443-.09c-.108-.087-.221-.177-.311-.239h0Z" transform="translate(-193.946 -152.01)" fill="#114048"/>
      <path id="Path_20613" data-name="Path 20613" d="M256.35,218.5c-.03.395-.072.793-.123,1.23-.027.239-.06.491-.093.76s-.066.527-.1.817c-1.185-.455-2.094-.778-3.028-1.173l-.174.425-.012.03c.215.251.434.5.664.772s.476.553.751.871c-.461.619-.91,1.152-1.415,1.777,1.319,1.191,2.57.254,3.758-.027.85.787,1.648,1.529,2.447,2.268.063.045.129.09.194.135.293.2.6.41.96.658.15.1.308.212.479.329-.479.664-.927,1.275-1.364,1.861s-.865,1.14-1.3,1.7l2.085,1.334c.948.6,2.438.129,3.007,1.559l.649.206,1.251.4c.114-.26.224-.518.347-.808s.254-.61.41-1a6.2,6.2,0,0,1,.751.895,14.327,14.327,0,0,1,7.129-1.912A14.124,14.124,0,0,1,285.2,237.63c.036-.347.087-.721.144-1.128h.093v-.871l-.009-1.077c-.3.159-.61.32-.927.47-.29-.509-.628-1.11-.966-1.705,1.122-1.52,1-2.163-.736-2.815a5.74,5.74,0,0,1-3.046-2.367c.966-.093,1.945-.15,3.351-.314.556.616,1.316,1.439,2.211,2.375-.547-5.577-3.677-8.928-12.207-10.663-.383-.078-.739-.147-1.08-.206-.123.353-.182.96-.356,1.541-.73-.488-1.484-1.008-2.588-1.813.194,1.026.311,1.646.44,2.325a1.58,1.58,0,0,1-.428.35c-.185.072-.491.138-.616.027-1.577-1.424-3.665-1.179-5.077-2.8a1.118,1.118,0,0,0-.9-.329,1.376,1.376,0,0,1-1.346-.473l-.338-.033c-.784-.078-1.669-.18-2.54-.278-.054,0-.108-.006-.159-.006v-.012l-1.263-.141c.069.242.147.5.248.772l-.748.03Zm16.993,9.975-.176-.162.191.153h0a19.056,19.056,0,0,1,4.521.742,9.429,9.429,0,0,1,2.582,1.3,4.306,4.306,0,0,1,1.466,1.873c-1.882-.649-3.689-1.741-5.523-2.028-1.78-.281-3.635.269-5.957.413,1.185-1.038,3.067-.53,2.9-2.289Zm-6.13-1.508a.972.972,0,0,1,.829.2c.892,1.134,2.794-.272,3.39,1.879-.856.524-1.807,1.044-2.833,1.622-.724-1.119-1.3-2.031-2.011-3.2.189-.159.377-.437.628-.5Zm-5.194,2.767c.308-.512.649-1.074,1.119-1.858a14.609,14.609,0,0,1,3.105.978c1.26.742.865,2.013.736,3.111l-.491.132c-.165-.386-.332-.769-.562-1.307-1.143.461-2.28.847-3.605,1.337-.76-.8-1.541-1.634-2.5-2.717.895.132,1.478.218,2.2.326Z" transform="translate(-207.276 -197.516)" fill="#114048"/>
      <path id="Path_20614" data-name="Path 20614" d="M158.676,154.075H166.5v4.8c.156.2.323.4.512.643a2.266,2.266,0,0,1,1.759-1.065v-4.374h2.3l.787-.9c-.054-.341-.117-.727-.18-1.119-.3-1.771-.3-1.738-1.855-1.589a1.14,1.14,0,0,1-.682-.2h-1.062c-.553.374-1.143.739-1.909,0H155.741a1.25,1.25,0,0,0-1.251,1.251v1.31a1.25,1.25,0,0,0,1.251,1.251h.655l-1.161,8.171,2.2.568,1.242-8.739Z" transform="translate(-138.364 -150.26)" fill="#114048"/>
      <path id="Path_20615" data-name="Path 20615" d="M116.976,228.356c.341-.356.709-1.155,1.056-1.634a6.45,6.45,0,0,1-.269-.883l-2.381.993c-.6.32-1.194.67-1.771,1.044a14.464,14.464,0,0,0,3.037.661A.459.459,0,0,0,116.976,228.356Z" transform="translate(-109.715 -203.228)" fill="#114048"/>
      <path id="Path_20616" data-name="Path 20616" d="M195.419,182.946c-.263-.177-.53-.356-.8-.536v1.553c.311-.263.592-.5.835-.706-.018-.165,0-.284-.036-.308Z" transform="translate(-166.488 -172.791)" fill="#114048"/>
      <path id="Path_20617" data-name="Path 20617" d="M201.453,182.986V181.81c-.108.036-.215.072-.323.1C201.238,182.268,201.339,182.63,201.453,182.986Z" transform="translate(-171.05 -172.371)" fill="#114048"/>
      <path id="Path_20618" data-name="Path 20618" d="M307.388,276.351a1.761,1.761,0,0,0,.117.156l1,.266.494.117.79-.571.224.814,2.618.108c.284.006.565.012.877.012s.646,0,1.035-.006c-.051.652-.1,1.221-.138,1.789l1.436.138c.494.048,1,.1,1.553.147-.162.293-.3.541-.506.912a5.545,5.545,0,0,1,2.567,3.474c.239,1,.323.981,2.169,1.158.206-.245.419-.5.64-.763a11.634,11.634,0,0,0-16.141-8.18,3.31,3.31,0,0,0,.936.078c.1-.006.218.182.338.353Z" transform="translate(-244.629 -237.61)" fill="#114048"/>
      <path id="Path_20619" data-name="Path 20619" d="M245.16,190.539l.3,2.438a7.484,7.484,0,0,1,1.8.159c.021.628.042,1.283.075,2.22a8.107,8.107,0,0,1-1.759-1.481l.509,4.129.1.862.069.553a4.82,4.82,0,0,1,.649.38c-.009-.847.018-1.212-.027-1.568a8.1,8.1,0,0,0-.272-1.005c.637.006,1.131.03,1.648.009.081-.38.159-.748.257-1.224l-.853-5.771a2.309,2.309,0,0,1-2.5.3Z" transform="translate(-201.908 -178.279)" fill="#114048"/>
      <path id="Path_20620" data-name="Path 20620" d="M195.429,150.26H193.52C194.286,151,194.875,150.634,195.429,150.26Z" transform="translate(-165.717 -150.26)" fill="#114048"/>
      <path id="Path_20621" data-name="Path 20621" d="M204.118,150.47c1.559-.15,1.553-.182,1.855,1.589.063.392.126.778.179,1.119l-.787.9h7.147c.021-.057.039-.117.06-.174.655-.03,1.191-.057,1.789-.084.168-1.583,1.263-2.094,2.2-2.72a1.065,1.065,0,0,1,1.023.111,1.386,1.386,0,0,1,.033,1.035,1.11,1.11,0,0,0-.233.847c.093.329.485.47.829.655h0l.066-.209.081-.257.485-.266h0c-.156-.9-.308-1.8-.464-2.69a1.264,1.264,0,0,0-.3-.06H203.43a1.152,1.152,0,0,0,.682.2Z" transform="translate(-172.662 -150.267)" fill="#114048"/>
      <path id="Path_20622" data-name="Path 20622" d="M307.926,284.789a6.7,6.7,0,0,1,.7.042c.407-.159.814-.311,1.215-.476l-.254-2.729-2.618-.108-1.014-.242-.494-.117c-.156.844-.542,1.346-1.155,1.478a1.988,1.988,0,0,1-.844-.027,3.935,3.935,0,0,1-.5-.153l-.476-.1c.066.3.024.688.215.871,1.8,1.672,1.8,1.8-.7,2.486a2.9,2.9,0,0,0-.221,1.161,2.936,2.936,0,0,0,.236,1.041,4.177,4.177,0,0,0,.323.6,6.037,6.037,0,0,1,5.586-3.728Zm.1-1.9c-.06-.036-.171-.078-.168-.1a.556.556,0,0,1,.114-.185c.06.033.171.078.168.1A.556.556,0,0,1,308.028,282.889Z" transform="translate(-241.586 -241.997)" fill="#114048"/>
      <path id="Path_20623" data-name="Path 20623" d="M303.859,293.4a5.555,5.555,0,0,0-2.567-3.473c.206-.371.344-.619.506-.913-.551-.054-1.062-.1-1.553-.147s-.963-.093-1.436-.138q.732,1.737,1.469,3.479c-.063.057-.123.093-.183.144a5.956,5.956,0,0,1,1.325,3.752,6.039,6.039,0,0,1-12.045.61c-.081.1-.165.2-.245.3l.4,2.112c1.146.485,1.17,1.05-.024,1.484a2.544,2.544,0,0,1-3.249-1.092,1.972,1.972,0,0,0-2.381-.99c.374.619.841,1.065.918,1.559.314,1.978,1.586,3.147,4,3.5.577.081,1.029.664,1.547,1.014l-.3.416c-.721.021-1.454.051-2.358.063a11.719,11.719,0,0,0,1.9,1.334,5.5,5.5,0,0,0,4.6.081c-.565-.868-1.116-1.705-1.66-2.54,1.762-.835,1.876-.874,3.261.7a3.32,3.32,0,0,0,3.779,1.134c.084-.539.156-1.005.209-1.337,1.179-.281,2.112.784,3.15.583a11.5,11.5,0,0,0,.906-.886c-.646-.431-1.257-.856-1.771-1.218,1-1.529,2.286-1.544,3.614-1.43a11.574,11.574,0,0,0,1.245-4.951l-.168-.278-.212-.144.23.132h0l.165.027v-.036a11.648,11.648,0,0,0-.263-2.453c-.224.269-.437.521-.64.763-1.846-.174-1.93-.162-2.169-1.158Z" transform="translate(-229.043 -247.303)" fill="#114048"/>
      <path id="Path_20624" data-name="Path 20624" d="M251.38,241.85l.132,1.068c.087-.075.174-.141.257-.221A4.648,4.648,0,0,0,251.38,241.85Z" transform="translate(-206.267 -214.448)" fill="#114048"/>
      <path id="Path_20625" data-name="Path 20625" d="M240.1,249.5H238.31A3.565,3.565,0,0,0,240.1,249.5Z" transform="translate(-197.107 -219.809)" fill="#114048"/>
      <path id="Path_20626" data-name="Path 20626" d="M192.208,262.588c.58.323,1,.553,1.66.921l-2.118.568c1.31.763,2.2,1.753,3.438,1.3a16.2,16.2,0,0,0-2.313-3.5c-.224.212-.425.458-.67.721Z" transform="translate(-164.477 -228.479)" fill="#114048"/>
      <path id="Path_20627" data-name="Path 20627" d="M156.81,246.435c.233.054.413.338.616.515,1.654.691,3.312,1.382,5.017,2.091-.185.242-.227.35-.281.356-.458.042-.915.081-1.37.123-.308,1.969-.251,2.106,1.418,2.941.075.039.251-.129.464-.248-.215-.449-.431-.9-.7-1.463.769-.341,1.478-.963,2.031-.859,1.3.257,1.807-.527,2.319-1.284a16.177,16.177,0,0,0-6.585-4.159c.15.634.419,1.3.628,2.064-1.466-.254-1.484-1.574-1.936-2.429-.452-.108-.91-.194-1.373-.263-.814.769-1.607,1.517-2.408,2.247.727.123,1.457.2,2.16.365Z" transform="translate(-138.476 -215.829)" fill="#114048"/>
      <path id="Path_20628" data-name="Path 20628" d="M186.334,228.348h0L188,226.984l-.954-2.052.347-.356c.542.245,1.077.488,1.622.736,1.873.8,1.9.82,3.192-.712.338-.4.616-.853,1.044-1.466-1.236-.515-2.887.165-3.318-1.744.221-.224.368-.506.565-.718h-2.343l-1.481-3.871a6.22,6.22,0,0,0-4.8-3.8l-.26-.018v-.634c-.045-.021-.081-.039-.126-.063.045-.012.081-.021.126-.03v-2.944l-1.43-.954a3.14,3.14,0,0,0-.841,1.062v3.42l-5.858-.44c-.1.147-.2.284-.305.437.206.422.431.886.649,1.331l-1.005.724c.257.485.47.889.544,1.029-.042.111-.09.209-.135.317a19.561,19.561,0,0,1,12.476,11.821c.06.03.12.06.18.087l.449.2Z" transform="translate(-151.21 -190.978)" fill="#114048"/>
      <path id="Path_20629" data-name="Path 20629" d="M241.471,280.82c-2.073-.793-.652-2.63-1.071-4.018-.9-.006-1.774-.087-2.639-.132-.589.236-1.179.473-1.738.694-.251.9-.539,1.927-.829,2.956.087.793-.227,1.092-1.086,1.134a4.221,4.221,0,0,0-3.378,1.747c1.206.41,2.42.787,3.36,1.053,1.283-1.436,2.417-2.725,3.62-4.117-.242-.2-.613-.515-1.164-.972,1.014-.47,1.663-1.277,2.735-.7.018,1.176.033,2.268.051,3.435-1.08.574-2.881.431-2.8,2.486,1.032-.254,1.906-.473,2.779-.688l.171.395c-.428.407-.856.814-1.385,1.319.081.06.162.129.245.2h4.18c-1.248-1.026-1.523-2.54-1.05-4.8Z" transform="translate(-191.795 -238.851)" fill="#114048"/>
      <path id="Path_20630" data-name="Path 20630" d="M223.607,273.831c-.2-.389-.416-.772-.589-1.17-.38-.859-.694-1.771-1.924-1.538-.395.715-1.319,1.23-.862,2.277l-.76.185h0a2.143,2.143,0,0,0-.054.422,1.845,1.845,0,0,0,.03.389,3.6,3.6,0,0,0,1.233,1.822c.787.763.9,1.418.1,2.211-.171.168-.191.476-.35.9.948-.018,1.663-.03,2.376-.042a4.212,4.212,0,0,1,3.378-1.747c.859-.042,1.173-.341,1.086-1.134l-1.421-1.636c-1.313.963-1.993.673-2.238-.942Zm-.61,3.288c-.212-.051-.353-.407-.524-.628l-.108-.712c.32.054.712.018.939.191.245.188.335.574.494.874C223.529,276.948,223.23,277.173,223,277.119Z" transform="translate(-183.867 -234.937)" fill="#114048"/>
      <path id="Path_20631" data-name="Path 20631" d="M245.78,264.89c.057-.239.147-.613.236-.987l-.434-.153h0c-.206.024-.416.039-.622.057-.15.012-.3.033-.446.042l-.35.874c-.29,1.059-.942,1.284-1.891.79a1.36,1.36,0,0,1-1.726.847,8.46,8.46,0,0,0-1.568-.042c.212,1.233.392,2.268.571,3.3,0,0,.006.006.006.009a.009.009,0,0,0-.006,0l1.421,1.637c.287-1.029.577-2.061.829-2.956l1.738-.694a3.276,3.276,0,0,1,3.2-1.188,11.321,11.321,0,0,0,1.912.012l.329-.906-3.2-.64Z" transform="translate(-197.576 -229.796)" fill="#114048"/>
      <path id="Path_20632" data-name="Path 20632" d="M180.865,281.941l.556.793c1.963-1.248.927-4.329,3.653-4.679l-2.767-2.854c-.233.2-.455.556-.706.58-1.517.129-1.8.924-1.52,2.289.012.054.015.111.027.165a8.318,8.318,0,0,1,.769,3.482c0,.075-.009.147-.012.221Z" transform="translate(-156.231 -237.82)" fill="#114048"/>
      <path id="Path_20633" data-name="Path 20633" d="M196.222,287.4,193.93,289.4c.356.191.775.413,1.194.64s.889.41,1.3.67a6.394,6.394,0,0,0,1.834.942,16.191,16.191,0,0,0,.111-1.837,16.386,16.386,0,0,0-.308-3.135c-.742-.2-1.292.263-1.837.73Z" transform="translate(-166.005 -245.831)" fill="#114048"/>
      <path id="Path_20634" data-name="Path 20634" d="M292.434,287.068c.688-.287,1.277-.539,1.882-.793.275.392.506.721.733,1.047h0c2.5-.688,2.492-.811.7-2.486-.191-.18-.15-.574-.215-.871l-.987-.281c-.314-.069-.631-.147-.951-.224a11.819,11.819,0,0,0-1.628,1.586c-.048.413-.087.808-.1,1.2-.012.239.335.5.574.817Z" transform="translate(-234.635 -243.609)" fill="#114048"/>
      <path id="Path_20635" data-name="Path 20635" d="M271.3,268.3l1.011,2.423,2.363-.2c-.018-.8-.506-1.885,1.068-1.657l.29-.9c-.568-1.43-2.058-.96-3.007-1.559l-1.4.987-.329.907Z" transform="translate(-220.227 -231.653)" fill="#114048"/>
      <path id="Path_20636" data-name="Path 20636" d="M293.817,268.6c-.123.29-.233.547-.347.808h0c.009.018.015.036.024.051a14.6,14.6,0,0,1,1.484-.96,6.2,6.2,0,0,0-.751-.895C294.071,267.986,293.94,268.306,293.817,268.6Z" transform="translate(-235.764 -232.494)" fill="#114048"/>
      <path id="Path_20637" data-name="Path 20637" d="M300.283,280.088h0l.987.281.476.1c.512-.518,1.014-1.032,1.5-1.568a1.759,1.759,0,0,1-.117-.156c-.12-.171-.239-.359-.338-.353a3.318,3.318,0,0,1-.936-.078,11.6,11.6,0,0,0-1.81,1.005,3.825,3.825,0,0,1,.141.47,2.867,2.867,0,0,0,.09.293Z" transform="translate(-240.376 -240.007)" fill="#114048"/>
      <path id="Path_20638" data-name="Path 20638" d="M294.49,315.3c.29,2.094.4,2.2,2.48,2.441l-.4-2.112C295.9,315.524,295.238,315.42,294.49,315.3Z" transform="translate(-236.479 -265.923)" fill="#114048"/>
      <path id="Path_20639" data-name="Path 20639" d="M219.232,273.059c-.458-1.044.467-1.559.862-2.277l-.437-.183h0l-1.666,1.364h0l.239.64.239.64.76-.186Z" transform="translate(-182.866 -234.597)" fill="#114048"/>
      <path id="Path_20640" data-name="Path 20640" d="M215.89,274.2l.1.269.081-.186c-.06-.027-.12-.057-.18-.087Z" transform="translate(-181.395 -237.12)" fill="#114048"/>
      <path id="Path_20641" data-name="Path 20641" d="M282.38,276.214l1.068-1.657C281.875,274.326,282.362,275.418,282.38,276.214Z" transform="translate(-227.933 -237.348)" fill="#114048"/>
      <line id="Line_728" data-name="Line 728" x2="0.491" y2="1.269" transform="translate(28.21 37.344)" fill="none" stroke="#e58c74" stroke-linecap="round" stroke-linejoin="round"/>
      <path id="Path_20642" data-name="Path 20642" d="M123.479,290.082c.449.966.76,1.9,2.076,1.448a3.939,3.939,0,0,0-1.61-2.866,35.686,35.686,0,0,1-2.926-3.132,8.433,8.433,0,0,1-12.53-7.327,8.275,8.275,0,0,1,.58-3.04,5.681,5.681,0,0,0-1.313-.844,1.276,1.276,0,0,1-.1-2.136c.8-.673.865-1.26.35-2-.6.111-1.173.212-1.738.317l-.272,2.585c-.078.188-.129.416-.194.622a.813.813,0,0,1-.29.467,25.958,25.958,0,0,1-2.7,1.257c-.44-.919-.8-1.666-1.152-2.411l-.048-.024a16.125,16.125,0,0,0-.856,4.353,1.457,1.457,0,0,1,0,1.816,16.446,16.446,0,0,0,.269,2.286l.446.281c.23,1.032.449,2.016.667,3,.589.5,1.179,1.005,1.876,1.6.2-.769.353-1.385.512-2l-.132-.194.135.191,1.481,2.4h0a6.621,6.621,0,0,1,2.3,5.26,15.865,15.865,0,0,0,1.717.936,1.532,1.532,0,0,1,1.089-.168,1.878,1.878,0,0,1,1.418,1.1,16.055,16.055,0,0,0,10.6-.64,4.073,4.073,0,0,0-1.792-.93c.751-.772,1.373-1.415,2.142-2.2Zm-2.926-1.556c.969,0,1.592.126,1.526,1.005a.681.681,0,0,1-.482.449C120.711,290,120.568,289.427,120.553,288.527Z" transform="translate(-100.702 -234.309)" fill="#114048"/>
      <path id="Path_20643" data-name="Path 20643" d="M196.538,198.758l-1.918-.428v4.063a3.176,3.176,0,0,1,.841-1.062l1.43.954V198.9a1.13,1.13,0,0,0-.353-.144Z" transform="translate(-166.488 -183.948)" fill="#114048"/>
      <path id="Path_20644" data-name="Path 20644" d="M249.16,210.779a7.158,7.158,0,0,1,.272,1.005c.042.356.018.718.027,1.568a4.26,4.26,0,0,0-.649-.38l.233,1.885c.323.021.646.051.963.048l.012-.03.174-.425h0c.284-.428.556-.874.829-1.319.063-.1.132-.2.194-.308l.751-.374.374-.188c.395.185.844.365,1.2.553h0c.236-.009.476-.018.748-.03-.1-.275-.18-.53-.248-.772-1.173-.129-2.175-.224-2.645-.212l-.329-2.229c-.1.476-.177.844-.257,1.224-.518.021-1.011,0-1.648-.009Z" transform="translate(-204.466 -191.826)" fill="#114048"/>
      <path id="Path_20645" data-name="Path 20645" d="M201.79,221.41c.045.024.081.039.126.063v-.093C201.871,221.392,201.838,221.4,201.79,221.41Z" transform="translate(-171.513 -200.102)" fill="#114048"/>
      <path id="Path_20646" data-name="Path 20646" d="M141.973,222.4c-.577.242-1.167.488-1.963.823l-.2-2.2a3.243,3.243,0,0,1-2.627-.571c-.386.018-.778.042-1.179.087-.1.35-.209.733-.347,1.212-.371-.332-.832-.553-.832-.778a2.681,2.681,0,0,1,.015-.275c-.476.078-.957.174-1.439.281a1.705,1.705,0,0,1-.865,1.065,7.392,7.392,0,0,0-1.313,1.316,3.44,3.44,0,0,1,.847,1.556,19.348,19.348,0,0,1,2.726-.733c-.18-.425-.362-.859-.553-1.313.99-.284,1.783-.515,2.863-.823a14.689,14.689,0,0,0-.634,1.9c.413-.042.832-.069,1.254-.084a1.353,1.353,0,0,1,.434-1.02,1.428,1.428,0,0,1,1.215,1.053,19.744,19.744,0,0,1,3,.377c.2-.479.057-1.05-.389-1.867Z" transform="translate(-122.056 -199.451)" fill="#114048"/>
      <path id="Path_20647" data-name="Path 20647" d="M155.407,201.33l.332-2.346c-.455-.165-.67-.38-.718-.631-.084-.452.32-1.014.631-1.595l-1.75-.918-.4,2.83a12.148,12.148,0,0,1,.512,2.22,1.588,1.588,0,0,1-.8-.206l-.284,2c.479,0,.963,0,1.454.006a8.179,8.179,0,0,0,1.02-1.352Z" transform="translate(-137.271 -182.203)" fill="#114048"/>
      <path id="Path_20648" data-name="Path 20648" d="M132.508,244.82a16.1,16.1,0,0,0-3.9,1.511C130.459,247.2,131.374,246.965,132.508,244.82Z" transform="translate(-120.227 -216.53)" fill="#114048"/>
      <path id="Path_20649" data-name="Path 20649" d="M117.829,228.783h0c-.347.479-.715,1.278-1.056,1.634a.459.459,0,0,1-.329.183,14.279,14.279,0,0,1-3.037-.661c-.03.018-.06.033-.087.051V232.5a4.805,4.805,0,0,1,1.849-.182c.245.015.491.054.733.09a19.559,19.559,0,0,1,3.617-1.666,3.425,3.425,0,0,0-.847-1.556l-.847-.41Z" transform="translate(-109.511 -205.288)" fill="#114048"/>
      <path id="Path_20650" data-name="Path 20650" d="M108,264.935l.272-2.585c-1.559-.972-.473-2.046-.138-3.105.054-.174-.072-.407-.132-.694-.248.114-.482.218-.721.326a16.188,16.188,0,0,0-1.31,1.547c.072.018.141.039.2.048-.039.209-.021.467-.138.61-.093.114-.326.123-.682.209a16.078,16.078,0,0,0-1.738,3.557l.048.024a8.091,8.091,0,0,0,4.338.066Z" transform="translate(-102.706 -226.152)" fill="#114048"/>
      <path id="Path_20651" data-name="Path 20651" d="M157.306,194.475c.048.251.263.467.718.631l.6-4.227-2.2-.568-.233,1.648,1.75.918c-.311.583-.715,1.146-.631,1.595Z" transform="translate(-139.556 -178.328)" fill="#114048"/>
      <path id="Path_20652" data-name="Path 20652" d="M143.863,263.926a4.062,4.062,0,0,1,1.532-.91c.275-.087.365-.775.592-1.3-1.487-.087-2.8-.162-4.215-.242-.772,2.585-2.72,2.043-4.6,1.364-.8,1.023-.91,1.81-.171,2.226l.479-.051a8.4,8.4,0,0,1,4.5-1.3,8.531,8.531,0,0,1,1.888.218Z" transform="translate(-125.76 -228.198)" fill="#114048"/>
      <path id="Path_20653" data-name="Path 20653" d="M149.178,248.733c-.706-.162-1.436-.245-2.16-.365a4.109,4.109,0,0,1-.966-.649,2.073,2.073,0,0,0-.571-.506.8.8,0,0,0-.521-.1,1.564,1.564,0,0,0-.942.8h0v.006c-.078.868-.156,1.735-.257,2.872a11.77,11.77,0,0,1,1.538-.577c.568-.114,1.274-.356,1.714-.132a1.89,1.89,0,0,0,2.785-.823c-.2-.18-.383-.461-.616-.515Z" transform="translate(-130.844 -218.127)" fill="#114048"/>
      <path id="Path_20654" data-name="Path 20654" d="M174.15,311.286l2.082.054c-.084-1.032-.1-1.849-.224-2.63a8.394,8.394,0,0,1-1.855,2.573Z" transform="translate(-152.142 -261.305)" fill="#114048"/>
      <path id="Path_20655" data-name="Path 20655" d="M186.993,318.763c1.364-.129,2.235,2.328,3.794.616l-1.87-1.469-1.927.853Z" transform="translate(-161.141 -267.752)" fill="#114048"/>
      <path id="Path_20656" data-name="Path 20656" d="M165.871,221.079c-.305-.051-.613-.09-.921-.129.072.257.329.476.826.539.108-.135.218-.269.329-.4C166.024,221.079,165.946,221.079,165.871,221.079Z" transform="translate(-145.695 -199.801)" fill="#114048"/>
      <path id="Path_20657" data-name="Path 20657" d="M144.161,249.79l-.191.138.194-.132,0-.006Z" transform="translate(-130.992 -220.013)" fill="#114048"/>
      <path id="Path_20658" data-name="Path 20658" d="M281.985,219.736a1.118,1.118,0,0,1,.9.329c1.412,1.619,3.5,1.376,5.077,2.8.126.114.431.045.616-.027a1.581,1.581,0,0,0,.428-.35c-.129-.682-.245-1.3-.44-2.325,1.107.8,1.858,1.325,2.588,1.813.174-.58.233-1.191.356-1.541-2.2-.395-3.656-.47-6.082-.7-.024.111-.042.209-.066.32-.1-.123-.168-.233-.254-.353-.494-.048-1.02-.1-1.607-.168l-2.875-.269a1.376,1.376,0,0,0,1.346.473Z" transform="translate(-226.766 -198.617)" fill="#114048"/>
      <path id="Path_20659" data-name="Path 20659" d="M270.669,218.2l-.159-.018v.012A1.432,1.432,0,0,1,270.669,218.2Z" transform="translate(-219.673 -197.86)" fill="#114048"/>
      <path id="Path_20660" data-name="Path 20660" d="M248.02,201.768c-.03-.936-.054-1.592-.075-2.22a7.486,7.486,0,0,0-1.8-.159l.111.9A8.107,8.107,0,0,0,248.02,201.768Z" transform="translate(-202.601 -184.691)" fill="#114048"/>
      <path id="Path_20661" data-name="Path 20661" d="M244.4,183.916a2.3,2.3,0,0,0,2.5-.3l-.419-2.83a8.619,8.619,0,0,0-2.4.5l.323,2.627Z" transform="translate(-201.144 -171.656)" fill="#114048"/>
      <path id="Path_20662" data-name="Path 20662" d="M253.9,153.15h0c.162-.09.347-.182.488-.269v-1.23a1.236,1.236,0,0,0-.951-1.191c.156.9.308,1.789.464,2.69Z" transform="translate(-207.71 -150.4)" fill="#114048"/>
      <path id="Path_20663" data-name="Path 20663" d="M361.04,281.691c.081.114.162.224.239.338V280.56h-.093c-.057.407-.108.781-.144,1.128Z" transform="translate(-283.119 -241.577)" fill="#114048"/>
      <path id="Path_20664" data-name="Path 20664" d="M342.823,251.884a5.732,5.732,0,0,0,3.046,2.367c1.735.652,1.858,1.3.736,2.815.338.6.679,1.2.966,1.705.317-.153.625-.311.927-.47l-.018-2.361c0-.7-.036-1.358-.1-2-.892-.936-1.654-1.759-2.211-2.376-1.406.165-2.384.221-3.351.314Z" transform="translate(-270.35 -221.26)" fill="#114048"/>
      <path id="Path_20665" data-name="Path 20665" d="M230.036,232.43c-.084.078-.171.147-.257.221l.15,1.221h-2.4a3.565,3.565,0,0,1-1.792,0h-1.912c-.2.215-.347.494-.565.718.431,1.909,2.082,1.23,3.318,1.744-.431.613-.706,1.065-1.044,1.466-1.3,1.535-1.319,1.508-3.192.712-.544-.248-1.083-.491-1.622-.736l-.347.356.954,2.052.437.182c1.23-.233,1.544.679,1.924,1.538.177.4.392.781.589,1.17.329-.524.667-.826,1.194-.182.317.395.691.745,1.044,1.113-.18-1.032-.359-2.067-.571-3.3a8.459,8.459,0,0,1,1.568.042,1.36,1.36,0,0,0,1.726-.847l-1.089-.748a1.244,1.244,0,0,1,1.011-.7,2.951,2.951,0,0,1,1.074.266c.3-.628.455-.942.61-1.005.078-.03.156,0,.257.093a4.3,4.3,0,0,1,.38.428c.15-.009.3-.027.446-.042.206-.018.416-.033.622-.057h0l.335-.933-.509-.194-.368-.141-.5-.449c.221.009.44.009.658.006l.335-.916c-.5-1.412.5-1.8,1.421-2.055a4.378,4.378,0,0,1,1.663.183l.7-.724c-.8-.739-1.6-1.481-2.447-2.268-1.188.281-2.438,1.221-3.758.027.506-.625.954-1.158,1.415-1.777-.275-.317-.521-.6-.751-.871s-.449-.521-.664-.772h0c-.317.006-.64-.024-.963-.048l.539,4.374a4.644,4.644,0,0,1,.389.847Zm-.766,4.4c-.087.4-.96.61-1.816,1.1-.042-1.113-.066-1.756-.1-2.7,1.322.186,2.154.5,1.915,1.6Z" transform="translate(-184.534 -204.181)" fill="#114048"/>
      <path id="Path_20666" data-name="Path 20666" d="M128.6,224.581a7.391,7.391,0,0,1,1.313-1.316,1.713,1.713,0,0,0,.865-1.065c-.619.141-1.239.3-1.852.488l-1.445.6a6.584,6.584,0,0,0,.269.883l.847.41Z" transform="translate(-119.435 -200.677)" fill="#114048"/>
      <path id="Path_20667" data-name="Path 20667" d="M325.875,285.456c-.4.165-.811.317-1.215.476a6.042,6.042,0,0,1,4.018,2.217c.063-.051.12-.087.183-.144q-.736-1.741-1.469-3.479c.045-.568.087-1.14.138-1.789-.389.006-.724.009-1.035.006s-.592-.006-.877-.012l.254,2.729Z" transform="translate(-257.623 -243.098)" fill="#114048"/>
      <path id="Path_20668" data-name="Path 20668" d="M278.731,255.971c1.322-.491,2.462-.877,3.605-1.337.23.539.4.924.562,1.307l.491-.132c.129-1.1.524-2.37-.736-3.111a14.717,14.717,0,0,0-3.105-.978c-.473.784-.814,1.349-1.119,1.858-.721-.108-1.3-.191-2.2-.326.963,1.083,1.744,1.918,2.5,2.717Z" transform="translate(-223.682 -221.365)" fill="#114048"/>
      <path id="Path_20669" data-name="Path 20669" d="M317.69,255.585c1.834.287,3.641,1.379,5.523,2.028a4.346,4.346,0,0,0-1.466-1.873,9.347,9.347,0,0,0-2.582-1.3,19.057,19.057,0,0,0-4.521-.742h0l-.015.009c.168,1.756-1.714,1.251-2.9,2.289,2.325-.144,4.177-.7,5.957-.413Z" transform="translate(-248.561 -222.753)" fill="#114048"/>
      <path id="Path_20670" data-name="Path 20670" d="M195.419,179.6c.036.024.018.144.036.308-.242.206-.524.443-.835.706v.787a2.292,2.292,0,0,0,2.271.338v-1.678c-.114-.356-.215-.715-.323-1.074.108-.03.215-.066.323-.1V177.63a2.266,2.266,0,0,0-1.759,1.065c-.191-.239-.356-.446-.512-.643v1.008C194.889,179.243,195.156,179.419,195.419,179.6Z" transform="translate(-166.488 -169.441)" fill="#114048"/>
      <path id="Path_20671" data-name="Path 20671" d="M262.828,247.024a5.532,5.532,0,0,0-.8,1.1c-.485,1.161-1.31,1.209-2.286.775l-.335.915-.159.44.368.141.509.194,2.364.4h.006c.437-.562.865-1.119,1.3-1.7s.886-1.194,1.364-1.861l-.479-.329c-.365-.251-.667-.458-.96-.658-.066-.045-.132-.09-.194-.135Z" transform="translate(-211.782 -217.567)" fill="#114048"/>
      <path id="Path_20672" data-name="Path 20672" d="M303.677,250.732c-.592-2.151-2.5-.745-3.39-1.879a.972.972,0,0,0-.829-.2c-.251.063-.44.341-.628.5.715,1.173,1.289,2.082,2.01,3.2,1.026-.58,1.981-1.1,2.833-1.622Z" transform="translate(-239.521 -219.201)" fill="#114048"/>
      <path id="Path_20673" data-name="Path 20673" d="M256.562,221.093c.033-.269.066-.521.093-.76.051-.437.093-.835.123-1.23h0c-.356-.188-.8-.371-1.2-.553l-.374.188-.751.374c-.063.1-.132.2-.194.308-.272.446-.545.892-.829,1.319h0c.936.395,1.843.715,3.028,1.173.036-.293.072-.562.1-.817Z" transform="translate(-207.703 -198.119)" fill="#114048"/>
      <path id="Path_20674" data-name="Path 20674" d="M264.211,261.953l-2.265.691c-.09.374-.179.748-.236.987l3.2.64,1.4-.987-2.085-1.334h-.006Z" transform="translate(-213.506 -228.535)" fill="#114048"/>
      <path id="Path_20675" data-name="Path 20675" d="M307.066,282.024c.613-.132,1-.634,1.155-1.478l-1-.266c-.491.533-.993,1.05-1.5,1.568a3.929,3.929,0,0,0,.5.153,2.038,2.038,0,0,0,.844.027Z" transform="translate(-244.349 -241.381)" fill="#114048"/>
      <path id="Path_20676" data-name="Path 20676" d="M253.511,158.829l-.485.266-.081.257-.066.209c.093.063.2.153.311.239a1.245,1.245,0,0,0,.808-1.161v-.081C253.858,158.647,253.673,158.74,253.511,158.829Z" transform="translate(-207.318 -156.077)" fill="#114048"/>
      <path id="Path_20677" data-name="Path 20677" d="M254.98,159.453h0v0Z" transform="translate(-208.79 -156.701)" fill="#114048"/>
      <path id="Path_20678" data-name="Path 20678" d="M316.527,279.64l-.787.574,1.011.239Z" transform="translate(-251.371 -240.932)" fill="#114048"/>
      <path id="Path_20679" data-name="Path 20679" d="M250.727,176.518h0c.048-.015.108-.021.159-.033l-.06-.395-.245.09.144.338Z" transform="translate(-205.706 -168.362)" fill="#114048"/>
      <path id="Path_20680" data-name="Path 20680" d="M321.028,253.346h0l-.188-.156.174.165Z" transform="translate(-254.946 -222.395)" fill="#114048"/>
      <line id="Line_729" data-name="Line 729" y2="0.003" transform="translate(46.193 2.749)" fill="none" stroke="#e58c74" stroke-linecap="round" stroke-linejoin="round"/>
      <line id="Line_730" data-name="Line 730" y1="0.266" x2="0.485" transform="translate(45.709 2.752)" fill="none" stroke="#e58c74" stroke-linecap="round" stroke-linejoin="round"/>
      <path id="Path_20681" data-name="Path 20681" d="M360.338,313.88h0l-.018.012.168.278c0-.087.012-.173.012-.263l-.165-.027h0Z" transform="translate(-282.614 -264.928)" fill="#114048"/>
      <path id="Path_20682" data-name="Path 20682" d="M322.109,286.165c-.006.024.108.066.168.1a.586.586,0,0,0,.114-.185c.006-.024-.108-.066-.168-.1A.587.587,0,0,0,322.109,286.165Z" transform="translate(-255.835 -245.375)" fill="#114048"/>
      <path id="Path_20683" data-name="Path 20683" d="M359.84,313.572h0l-.23-.132.215.141Z" transform="translate(-282.116 -264.62)" fill="#114048"/>
      <path id="Path_20684" data-name="Path 20684" d="M235.658,279.918a.009.009,0,0,0,.006,0s-.006-.006-.006-.009c-.353-.368-.724-.718-1.044-1.113-.524-.646-.865-.341-1.194.183C233.665,280.591,234.344,280.882,235.658,279.918Z" transform="translate(-193.68 -240.082)" fill="#114048"/>
      <path id="Path_20685" data-name="Path 20685" d="M229.26,286.78l.108.712c.171.221.311.577.524.628.23.057.533-.171.8-.275-.159-.3-.248-.685-.494-.874C229.972,286.8,229.58,286.837,229.26,286.78Z" transform="translate(-190.765 -245.936)" fill="#114048"/>
      <path id="Path_20686" data-name="Path 20686" d="M249.33,265.466l-.895-.392a2.892,2.892,0,0,0-1.074-.266,1.238,1.238,0,0,0-1.011.7l1.089.748c.948.494,1.6.269,1.891-.79Z" transform="translate(-202.741 -230.536)" fill="#114048"/>
      <path id="Path_20687" data-name="Path 20687" d="M263.749,261.028l-2.363-.4-.335.933h0l.434.156Z" transform="translate(-213.044 -227.609)" fill="#114048"/>
      <path id="Path_20688" data-name="Path 20688" d="M253.313,263.327l.895.392.35-.874a4.716,4.716,0,0,0-.38-.428c-.1-.09-.18-.123-.257-.093-.156.06-.305.374-.61,1.005Z" transform="translate(-207.619 -228.79)" fill="#114048"/>
      <path id="Path_20689" data-name="Path 20689" d="M109.073,319.842v.006l-.188.12.188-.126-1.481-2.4h0c-.159.616-.314,1.233-.512,2-.7-.592-1.286-1.1-1.876-1.6l-.075.021a16.24,16.24,0,0,0,6.247,7.234,6.621,6.621,0,0,0-2.3-5.26Z" transform="translate(-103.772 -267.423)" fill="#114048"/>
      <path id="Path_20690" data-name="Path 20690" d="M100.638,294.13c-.018.311-.048.619-.048.936,0,.3.03.586.045.883a1.449,1.449,0,0,0,0-1.816Z" transform="translate(-100.59 -251.087)" fill="#114048"/>
      <path id="Path_20691" data-name="Path 20691" d="M102.086,308.121l-.446-.281a16.069,16.069,0,0,0,1.038,3.3l.075-.021C102.535,310.138,102.313,309.153,102.086,308.121Z" transform="translate(-101.326 -260.695)" fill="#114048"/>
      <path id="Path_20692" data-name="Path 20692" d="M132.839,345.551a1.529,1.529,0,0,0-1.089.167,16.056,16.056,0,0,0,2.51.933,1.883,1.883,0,0,0-1.418-1.1Z" transform="translate(-122.428 -287.1)" fill="#114048"/>
      <path id="Path_20693" data-name="Path 20693" d="M103.77,279.66c.356.745.712,1.493,1.152,2.411a25.665,25.665,0,0,0,2.7-1.257.828.828,0,0,0,.29-.467c.066-.2.12-.434.194-.622A8.121,8.121,0,0,1,103.77,279.66Z" transform="translate(-102.819 -240.946)" fill="#114048"/>
      <path id="Path_20694" data-name="Path 20694" d="M168.456,332.485c.066-.88-.553-1-1.526-1.005.015.9.159,1.472,1.044,1.454A.68.68,0,0,0,168.456,332.485Z" transform="translate(-147.082 -277.263)" fill="#114048"/>
      <path id="Path_20695" data-name="Path 20695" d="M112.9,316.8l.132.194,0,0Z" transform="translate(-109.217 -266.975)" fill="#114048"/>
      <line id="Line_731" data-name="Line 731" y1="0.188" x2="0.374" transform="translate(47.501 20.428)" fill="none" stroke="#e58c74" stroke-linecap="round" stroke-linejoin="round"/>
      <line id="Line_732" data-name="Line 732" y1="0.374" x2="0.751" transform="translate(46.75 20.617)" fill="none" stroke="#e58c74" stroke-linecap="round" stroke-linejoin="round"/>
      <path id="Path_20696" data-name="Path 20696" d="M154.167,205.29l-.287,2.013a1.588,1.588,0,0,0,.8.206,12.4,12.4,0,0,0-.512-2.22Z" transform="translate(-137.937 -188.826)" fill="#114048"/>
      <path id="Path_20697" data-name="Path 20697" d="M144.1,221.942c.138-.479.245-.859.347-1.212-.383.042-.772.093-1.164.156a2.033,2.033,0,0,0-.015.275c0,.224.461.446.832.778Z" transform="translate(-130.5 -199.647)" fill="#114048"/>
      <path id="Path_20698" data-name="Path 20698" d="M110.24,264.848c-.06-.012-.129-.03-.2-.048-.215.284-.425.568-.619.868.359-.087.589-.1.682-.209.12-.144.1-.4.138-.61Z" transform="translate(-106.778 -230.532)" fill="#114048"/>
      <path id="Path_20699" data-name="Path 20699" d="M295.957,220.77c-.1-.009-.209-.021-.317-.03.087.117.156.23.254.353.024-.111.042-.212.066-.32Z" transform="translate(-237.285 -199.654)" fill="#114048"/>
      <path id="Path_20700" data-name="Path 20700" d="M262.866,249.286a5.655,5.655,0,0,1,.8-1.1,4.325,4.325,0,0,0-1.663-.182c-.918.251-1.918.643-1.421,2.055C261.556,250.5,262.379,250.447,262.866,249.286Z" transform="translate(-212.622 -218.73)" fill="#114048"/>
      <path id="Path_20701" data-name="Path 20701" d="M243.72,254.02c.036.945.06,1.589.1,2.7.853-.491,1.726-.7,1.816-1.1.239-1.1-.592-1.415-1.915-1.6Z" transform="translate(-200.898 -222.977)" fill="#114048"/>
      <path id="Path_20702" data-name="Path 20702" d="M258.238,258.016c-.218,0-.437,0-.658-.006l.5.449.159-.44Z" transform="translate(-210.612 -225.773)" fill="#114048"/>
      <path id="Path_20703" data-name="Path 20703" d="M117.861,325.476v-.006l0,0-.188.126Z" transform="translate(-112.56 -273.051)" fill="#114048"/>
    </g>
  </g>
</svg>
