<svg xmlns="http://www.w3.org/2000/svg" width="144.099" height="148" viewBox="0 0 144.099 148">
  <g id="Layer_1" data-name="Layer 1" transform="translate(-0.049 -0.002)">
    <g id="Group_3346" data-name="Group 3346" transform="translate(0.049 0.002)">
      <g id="Group_3344" data-name="Group 3344" transform="translate(38.006 42.403)">
        <path id="Path_20416" data-name="Path 20416" d="M235.284,159.835a1.238,1.238,0,0,1-.2-.251,1.184,1.184,0,0,1,.859-1.878,1.225,1.225,0,0,1,.92.28l.237.2,6.268,5.368v-1.25a7.065,7.065,0,0,0-1.142-2.494,9.668,9.668,0,0,0-.973-1.177,12.344,12.344,0,0,0-2.824-2.141c-.391-.222-.792-.424-1.189-.608a21.705,21.705,0,0,0-5.257-1.6c-.026-.006-.053-.009-.076-.015l-.231-.038c.012.067.026.143.038.216A21.862,21.862,0,0,0,233.441,160,14.413,14.413,0,0,0,235,162.572h0a11.091,11.091,0,0,0,1.089,1.227c2.55,2.465,4.945,2.421,6.274,2.115l-4.927-4.226-1.014-.87-1.142-.981Z" transform="translate(-202.031 -151.587)" fill="none"/>
        <path id="Path_20417" data-name="Path 20417" d="M280.55,163.438l.228-.2.079-.067L286.9,158a1.234,1.234,0,0,1,1.712.129,1.233,1.233,0,0,1-.129,1.72l-3.382,2.9L283.17,164.4l-.257.222-1.455,1.244c1.268.35,3.791.564,6.5-2.053a10.877,10.877,0,0,0,1-1.11c.184-.234.359-.473.526-.716.07-.105.137-.21.207-.315.2-.3.383-.613.552-.926a19.053,19.053,0,0,0,1.563-3.934,24.355,24.355,0,0,0,.567-2.567,22.628,22.628,0,0,0-4.723,1.3,13.883,13.883,0,0,0-4.846,3.111,7.125,7.125,0,0,0-2.252,4.793Z" transform="translate(-236.627 -151.594)" fill="none"/>
        <path id="Path_20418" data-name="Path 20418" d="M226.855,239.4a.816.816,0,0,1-.146.009H226.7a1.2,1.2,0,0,1-.865-.359,7.384,7.384,0,0,0-4.039-2.088c-.053-.009-.108-.018-.161-.023a7.256,7.256,0,0,0-1.011-.079,7.407,7.407,0,0,0-4.3,1.425,7.548,7.548,0,0,0-2.41,3.035,1.14,1.14,0,0,1-.164.269,1.2,1.2,0,0,1-1.367.4,4.97,4.97,0,0,0-.57-.152,4.253,4.253,0,0,0-.911-.114,4.88,4.88,0,0,0-4.475,2.994,14.072,14.072,0,0,1,4.124,2.217,9.4,9.4,0,0,0,5.827,2.018h7.6a3.974,3.974,0,0,1,3.879,3.286l6.82-1.849,7.968-5.681a1.257,1.257,0,0,1-.137-.555c0-.029,0-.058-.006-.091a4.864,4.864,0,0,0-6.423-4.513h0a4.8,4.8,0,0,0-.523.216,4.642,4.642,0,0,0-1.419,1.051,1.209,1.209,0,0,1-1.647.131c-.006-.006-.015-.006-.02-.012a7.121,7.121,0,0,0-4.554-1.644c-.088,0-.181.009-.275.018-.164.015-.333.032-.514.061l-.283.035Z" transform="translate(-184.156 -210.082)" fill="none"/>
        <path id="Path_20419" data-name="Path 20419" d="M234.5,182.389l.1-.155.508-.254-.508.254Z" transform="translate(-204.028 -171.231)" fill="none"/>
        <path id="Path_20420" data-name="Path 20420" d="M155.15,351.384l1.224-.394a9.479,9.479,0,0,1,1.773.263h0a9.724,9.724,0,0,0-1.773-.263Z" transform="translate(-147.854 -290.877)" fill="none"/>
        <path id="Path_20421" data-name="Path 20421" d="M235.51,234.92h0c.485.032.973.061,1.472.064C236.483,234.981,235.995,234.952,235.51,234.92Z" transform="translate(-204.743 -208.709)" fill="none"/>
        <path id="Path_20422" data-name="Path 20422" d="M306.43,242l-.64-.061c.041-.514.079-1.025.126-1.612-.047.587-.085,1.1-.126,1.612l.64.061Z" transform="translate(-254.495 -212.539)" fill="none"/>
        <path id="Path_20423" data-name="Path 20423" d="M284.948,237.627l-.9-.24c-.064-.076-.134-.184-.2-.277h0c.067.093.134.2.2.277Z" transform="translate(-238.964 -210.259)" fill="none"/>
        <path id="Path_20424" data-name="Path 20424" d="M265.867,231.066h0l-1.127-.356Z" transform="translate(-225.435 -205.728)" fill="none"/>
        <path id="Path_20425" data-name="Path 20425" d="M155.15,352.34l.2.578h0c.172.21.353.432.692.841h0c-.339-.412-.52-.634-.692-.841Z" transform="translate(-147.854 -291.833)" fill="none"/>
        <path id="Path_20426" data-name="Path 20426" d="M242,182.8h0c.1,0,.207-.009.313-.012h0C242.207,182.793,242.1,182.8,242,182.8Z" transform="translate(-209.337 -171.805)" fill="none"/>
        <path id="Path_20427" data-name="Path 20427" d="M272.884,241.105h0c-.342-.076-.683-.158-1.034-.245C272.2,240.948,272.542,241.029,272.884,241.105Z" transform="translate(-230.469 -212.914)" fill="none"/>
        <path id="Path_20428" data-name="Path 20428" d="M284.05,240.2c.552-.117.9-.572,1.04-1.332l.444.105-.444-.105C284.95,239.629,284.6,240.082,284.05,240.2Z" transform="translate(-239.105 -211.505)" fill="none"/>
        <path id="Path_20429" data-name="Path 20429" d="M241.412,186.63c-.026.216-.053.438-.082.681C241.359,187.068,241.388,186.843,241.412,186.63Z" transform="translate(-208.863 -174.523)" fill="none"/>
        <path id="Path_20430" data-name="Path 20430" d="M236.915,234.184a7.229,7.229,0,0,1,3.041-1.306c-.286-.689-.52-1.247-.751-1.8a10.791,10.791,0,0,1-1.712-.009,9.562,9.562,0,0,0-1.983,1.125c.485.032.973.061,1.472.064a5.37,5.37,0,0,1-.07,1.925Z" transform="translate(-204.743 -205.983)" fill="#114048"/>
        <path id="Path_20431" data-name="Path 20431" d="M148.933,358.76a1.208,1.208,0,0,0,.6.167,1.24,1.24,0,0,0,.719-.24l1.1-.812a2.824,2.824,0,0,0-2.418.885Z" transform="translate(-143.451 -295.737)" fill="#114048"/>
        <path id="Path_20432" data-name="Path 20432" d="M266.53,278.26c.056.076.111.155.167.242a2.267,2.267,0,0,0,2.722,1.043,3.913,3.913,0,0,0-2.889-1.282Z" transform="translate(-226.702 -239.39)" fill="#114048"/>
        <path id="Path_20433" data-name="Path 20433" d="M226.348,243.925a1.633,1.633,0,0,1,.459-.365,1.246,1.246,0,0,0,.164-.269,7.333,7.333,0,0,1,1.493-2.229c-.006-.406-.012-.812-.018-1.235-.964-.517-1.551.21-2.462.634l1.049.876c-.727.841-1.431,1.644-2.161,2.471a4.433,4.433,0,0,1,.57.152A1.19,1.19,0,0,0,226.348,243.925Z" transform="translate(-197.21 -212.056)" fill="#114048"/>
        <path id="Path_20434" data-name="Path 20434" d="M260.121,230.07l-.26.812-.821,1.271a7.167,7.167,0,0,1,2.635.978c.006-.064.015-.12.02-.184.374.1.733.187,1.084.275s.692.169,1.034.245a2.421,2.421,0,0,1-.079-.266c-.073-.286-.14-.6-.283-.637-1.057-.289-1.236-1.2-1.618-1.954l-1.127-.356Z" transform="translate(-221.4 -205.275)" fill="#114048"/>
        <path id="Path_20435" data-name="Path 20435" d="M274.671,321.65c-1.072.426-1.89.724-2.8,1.051-.222.552.8,1.154.523,1.729l2.5-1.054a1.486,1.486,0,0,1-.222-1.726Z" transform="translate(-230.462 -270.107)" fill="#114048"/>
        <path id="Path_20436" data-name="Path 20436" d="M289.616,313.051c.117-.19.219-.359.324-.532l-2.261.955c.654.581,1.344,1.174,2.053,1.773l3.473-1.466c-.572-.473-1.148-.952-1.735-1.452-.374.146-.865.336-1.858.724Z" transform="translate(-241.675 -263.509)" fill="#114048"/>
        <path id="Path_20437" data-name="Path 20437" d="M249.613,328.52l-.067.029h-2.7c-.4.315-.78.619-.859.97a4.461,4.461,0,0,0-.053,1.46h3.85a1.187,1.187,0,0,0,.479-.093l2.953-1.247c-1.288-.353-2.489-.657-3.555-1.066-.02-.009-.032-.035-.05-.053Z" transform="translate(-212.099 -274.97)" fill="#114048"/>
        <path id="Path_20438" data-name="Path 20438" d="M155.143,351.377l.2.578c.172.21.353.432.692.841l2.1-1.554a9.724,9.724,0,0,0-1.773-.263l-1.224.394Z" transform="translate(-147.847 -290.87)" fill="#114048"/>
        <path id="Path_20439" data-name="Path 20439" d="M178.16,332.61c.091.491.172.943.266,1.46.733.126,1.513-.295,2.22-.193h2.091c-.6-1.443-1.641-1.116-4.574-1.265Z" transform="translate(-164.144 -277.865)" fill="#114048"/>
        <path id="Path_20440" data-name="Path 20440" d="M174.47,264.35a14.528,14.528,0,0,0-1.46.619c.184.172.356.342.543.517.353-.438.628-.777.914-1.136Z" transform="translate(-160.498 -229.543)" fill="#114048"/>
        <path id="Path_20441" data-name="Path 20441" d="M314.819,289.76l-5.769,4.606-1.65.7a6.261,6.261,0,0,0,3.038,1.3l7.264-5.795c-.032-.178-.064-.356-.1-.535A19.194,19.194,0,0,1,314.819,289.76Z" transform="translate(-255.635 -247.531)" fill="#114048"/>
        <path id="Path_20442" data-name="Path 20442" d="M286.42,291.536c.193.295.391.6.584.9l2.08-.564c-.993-1.092-1.206-1.022-2.664-.33Z" transform="translate(-240.783 -248.431)" fill="#114048"/>
        <path id="Path_20443" data-name="Path 20443" d="M243.867,301.47c-.169.026-.339.05-.511.076-.009.055-.02.108-.026.167.193-.085.362-.161.537-.24Z" transform="translate(-210.279 -255.821)" fill="#114048"/>
        <path id="Path_20444" data-name="Path 20444" d="M204.621,259.465h-6.069a9.394,9.394,0,0,1-5.827-2.018,14.178,14.178,0,0,0-4.124-2.217,4.775,4.775,0,0,1,2.045-2.331c-.26-.085-.523-.172-.786-.263l-2.138.038c.143-.386.164-.663.315-.815.053-.05.088-.1.131-.149a7.188,7.188,0,0,0-1.974,2.979,11.815,11.815,0,0,0-1.659-.085,13.068,13.068,0,0,0-3.295.5c1.028.651,2.062,1.3,3.114,1.948.079,0,.152-.015.234-.015a9.2,9.2,0,0,1,1.554.111l.976-.891c.19.429.368.838.543,1.244a10.631,10.631,0,0,1,1.425.549c.608-.5.789-1.384,1.282-1.9.94.678,1.823,1.282,2.716,1.866a4.381,4.381,0,0,0-3,.57,12.4,12.4,0,0,1,1.157.786c.061.047.126.088.187.134-.023-.114-.047-.228-.085-.353,1.379.146,2.559.219,3.888.333-.088,1.431.686,1.977,2.065,2.056a7.073,7.073,0,0,1,1.606.353h6.785a3.649,3.649,0,0,1-.678-1.677,1.883,1.883,0,0,0-.383-.754Z" transform="translate(-166.324 -220.595)" fill="#114048"/>
        <path id="Path_20445" data-name="Path 20445" d="M267.361,292.384l.269-.374c-.464-.315-.873-.838-1.393-.911a6.774,6.774,0,0,1-.97-.219,1.49,1.49,0,0,1-1.13,1.732l-.675.172c-.272.067-.543.129-.812.193a3.152,3.152,0,0,1,.745.681c.318.394.651.786.967,1.183.05.064.1.129.146.193l.222-.055a3.878,3.878,0,0,0,2.109-1.373,19.09,19.09,0,0,1-2.123-1.151c1.078,0,1.858-.038,2.643-.061Z" transform="translate(-223.956 -248.324)" fill="#114048"/>
        <path id="Path_20446" data-name="Path 20446" d="M219.688,277.523c-1.329-.114-2.509-.187-3.888-.333a3.621,3.621,0,0,1,.085.353,12.032,12.032,0,0,0,7.13,2.392h.345a7.232,7.232,0,0,0-1.606-.353c-1.379-.079-2.153-.625-2.065-2.056Z" transform="translate(-190.79 -238.632)" fill="#114048"/>
        <path id="Path_20447" data-name="Path 20447" d="M222.654,298.721a3.223,3.223,0,0,0-.745-.681q-2.594.618-5.106,1c-.175.079-.345.158-.537.24.006-.056.02-.111.026-.166a52.089,52.089,0,0,1-7.445.564h-2.532a1.215,1.215,0,1,0,0,2.43h2.532q1.761,0,3.587-.131c-.327-.143-.646-.286-.981-.429,1.238-1.335,1.344-1.458,3.035.245a65.569,65.569,0,0,0,8.821-1.583l.456-.114c-.05-.064-.1-.129-.146-.193-.315-.4-.648-.789-.967-1.183Z" transform="translate(-183.215 -253.393)" fill="#114048"/>
        <path id="Path_20448" data-name="Path 20448" d="M263.667,326.07l-.307.129.126.02C263.547,326.166,263.605,326.123,263.667,326.07Z" transform="translate(-224.458 -273.236)" fill="#114048"/>
        <path id="Path_20449" data-name="Path 20449" d="M182.258,329.59c.082-.35.464-.654.859-.97H164.172a1.2,1.2,0,0,0-.719.24l-3.54,2.608h.035a10.581,10.581,0,0,1,2.123.532,2.044,2.044,0,0,1-2.678.435c-.137.432-.146.99-.388,1.1a8.536,8.536,0,0,1-1.91.418c.023-.167.05-.324.082-.473l-1.3.955a1.408,1.408,0,0,1,.4-.134c.137-.026.406.549.616.844a9.478,9.478,0,0,1,1.773.263l5.915-4.364h.295c-.707-.1-1.487.318-2.22.193-.093-.517-.175-.97-.266-1.46,2.932.149,3.972-.178,4.574,1.265h15.244a4.461,4.461,0,0,1,.053-1.46Z" transform="translate(-148.371 -275.041)" fill="#114048"/>
        <path id="Path_20450" data-name="Path 20450" d="M151.455,350.615l-.2-.578a.756.756,0,0,1,0-.946l-1.606,1.186c.1.056.2.108.31.161l1.5.175Z" transform="translate(-143.961 -289.532)" fill="#114048"/>
        <path id="Path_20451" data-name="Path 20451" d="M198.01,268.161c.219.032.444.058.654.1.035.009.067.017.093.026h.018c.266.058.505.146.756.225-.178-.406-.356-.812-.543-1.244-.371.339-.683.622-.976.891Z" transform="translate(-178.196 -231.61)" fill="#114048"/>
        <path id="Path_20452" data-name="Path 20452" d="M162.584,263.621c-.289.359-.564.7-.914,1.136-.187-.175-.359-.345-.543-.517a15.246,15.246,0,0,0-2.366,1.463c.006.091.012.172.018.266l-.356-.009a15.31,15.31,0,0,0-2.077,1.972l-.126.061c.552.616,1.125,1.218,1.723,1.793a1.054,1.054,0,0,0,.137-.143,12.94,12.94,0,0,1,3.035-2.6,1.257,1.257,0,0,0-.751-.2c.564-.248,1.13-.5,1.732-.768.108.085.21.167.318.248a10.973,10.973,0,0,1,4.221-1.06c-1.051-.648-2.085-1.3-3.114-1.948-.324.091-.637.193-.94.3Z" transform="translate(-148.612 -228.814)" fill="#114048"/>
        <path id="Path_20453" data-name="Path 20453" d="M212.089,268.776c-.894-.584-1.776-1.189-2.716-1.866-.494.514-.672,1.4-1.282,1.9.356.169.686.35,1,.537A4.385,4.385,0,0,1,212.089,268.776Z" transform="translate(-185.332 -231.355)" fill="#114048"/>
        <path id="Path_20454" data-name="Path 20454" d="M273.106,145.2a1.226,1.226,0,0,0-.181-.018,1.21,1.21,0,0,0-1.215,1.215v1.615c.21.409.421.815.634,1.227,1.542-.456.164-2.819.765-4.039Z" transform="translate(-230.369 -145.18)" fill="#114048"/>
        <path id="Path_20455" data-name="Path 20455" d="M277.977,147.461v-.917a1.213,1.213,0,0,0-.847-1.154C277.524,146.012,277.226,147.183,277.977,147.461Z" transform="translate(-234.206 -145.329)" fill="#114048"/>
        <path id="Path_20456" data-name="Path 20456" d="M300.83,147.6c.388.535.777,1.063,1.174,1.595a22.583,22.583,0,0,1,4.723-1.3,22.949,22.949,0,0,1-.567,2.567,13.017,13.017,0,0,1,2.337.689,23.577,23.577,0,0,0,.841-4.586,1.206,1.206,0,0,0-1.282-1.282,24.212,24.212,0,0,0-6.624,1.513l-.6.8Z" transform="translate(-250.984 -145.25)" fill="#114048"/>
        <path id="Path_20457" data-name="Path 20457" d="M306.489,166.981a1.18,1.18,0,0,0-1.019-.841,1.3,1.3,0,0,0,1.019.838Z" transform="translate(-254.269 -160.018)" fill="#114048"/>
        <path id="Path_20458" data-name="Path 20458" d="M232.523,154.2c-.018.018-.035.029-.053.047l.076.015A.528.528,0,0,1,232.523,154.2Z" transform="translate(-202.591 -151.565)" fill="#114048"/>
        <path id="Path_20459" data-name="Path 20459" d="M289.513,184.993l1.931-1.653c-.511.093-1.014.2-1.5.339-.237.067-.28.672-.429,1.317Z" transform="translate(-242.97 -172.194)" fill="#114048"/>
        <path id="Path_20460" data-name="Path 20460" d="M244.209,166.132a9.065,9.065,0,0,0-.859,1.878,1.143,1.143,0,0,0,.2.251l1.142.981c.047-.377.091-.719.134-1.066a3.206,3.206,0,0,1,.543-1.56l-.237-.2a1.226,1.226,0,0,0-.92-.28Z" transform="translate(-210.293 -160.01)" fill="#114048"/>
        <path id="Path_20461" data-name="Path 20461" d="M313.723,166.954c.009.026.018.05.026.076.762.245,1.574.377,2.345.625a21.788,21.788,0,0,0,1.525-3.946,12.428,12.428,0,0,0-2.337-.689,19.117,19.117,0,0,1-1.563,3.934Z" transform="translate(-260.109 -157.809)" fill="#114048"/>
        <path id="Path_20462" data-name="Path 20462" d="M292.631,239.441c-.193-.091-.386-.175-.581-.251l.064.231.52.02Z" transform="translate(-244.769 -211.732)" fill="#114048"/>
        <path id="Path_20463" data-name="Path 20463" d="M225.862,145.476c-.908-.14-1.5-.181-1.589-.184a1.164,1.164,0,0,0-.923.35,1.238,1.238,0,0,0-.26.391,7.5,7.5,0,0,1,2.2-.45,1.939,1.939,0,0,0,.572-.108Z" transform="translate(-195.95 -145.257)" fill="#114048"/>
        <path id="Path_20464" data-name="Path 20464" d="M302.3,237.866c-.044.587-.085,1.1-.126,1.612l.64.061a4.864,4.864,0,0,1,6.423,4.513c.348-.418.736-.891,1.253-1.557.035,1.352.058,2.185.082,3.014a3.516,3.516,0,0,1,1.323-2.039c-.082.023-.164.041-.248.07a7.19,7.19,0,0,0-.835-2.813,1.689,1.689,0,0,1-1.022-.5,1.892,1.892,0,0,1-.321-1.288,7.266,7.266,0,0,0-5.1-2.091,7.13,7.13,0,0,0-3.686,1.011c.222.006.444.009.683.009.277,0,.581,0,.932-.006Z" transform="translate(-250.878 -210.075)" fill="#114048"/>
        <path id="Path_20465" data-name="Path 20465" d="M251.777,154.113a6.23,6.23,0,0,1-1.057,1.688q.6.276,1.189.608a3.3,3.3,0,0,0-.134-2.3Z" transform="translate(-215.51 -151.502)" fill="#114048"/>
        <path id="Path_20466" data-name="Path 20466" d="M284.948,237.627l.444.105.3-.213a9.705,9.705,0,0,0-1.837-.409c.067.093.134.2.2.277Z" transform="translate(-238.964 -210.259)" fill="#114048"/>
        <path id="Path_20467" data-name="Path 20467" d="M226.427,161.288c.076-.362.149-.7.248-1.171l.964.406a21.863,21.863,0,0,1-1.723-5.552,2.117,2.117,0,0,1-2.436.207c.1.64.257,1.414.479,2.275a6,6,0,0,1,1.574.137c.018.567.038,1.157.067,2a5.089,5.089,0,0,1-1.355-1.127,22.147,22.147,0,0,0,1.063,2.821c.4.009.762.018,1.122,0Z" transform="translate(-196.226 -152.111)" fill="#114048"/>
        <path id="Path_20468" data-name="Path 20468" d="M260.6,179.191a3.225,3.225,0,0,0-.456-.368c-.067.105-.134.21-.207.315l.19.152-.377.324c-.07.091-.131.269-.21.26-.044,0-.088-.012-.131-.018a11.2,11.2,0,0,1-1,1.11c-2.7,2.62-5.228,2.4-6.5,2.053l1.455-1.244c-.581-.391-1.2-.824-2.053-1.44l-.079.067c.158.835.26,1.373.368,1.951a1.4,1.4,0,0,1-.386.315c-.166.064-.441.126-.555.023-1.42-1.282-3.3-1.063-4.571-2.521a1.008,1.008,0,0,0-.815-.3c-.669.105-1.081-.152-1.536-.844-.269-.406-.867-.917-1.247-.175l4.927,4.226c-1.326.307-3.724.35-6.274-2.115a11.06,11.06,0,0,1-1.089-1.227c-.108.006-.21.009-.313.012-.026.356-.064.716-.111,1.11-.026.216-.053.438-.082.681s-.058.473-.093.736c-.225-.088-.435-.167-.64-.242.207.231.418.464.645.683a9.581,9.581,0,0,0,6.7,2.935,8.087,8.087,0,0,0,2.252-.315v3.622c.079.038.166.067.242.111,1.133.669.78,1.814.663,2.8l-.441.12c-.137-.321-.277-.645-.464-1.078v1.8a2.373,2.373,0,0,1,.479.593,2.979,2.979,0,0,0,1.951,2.033v-4.67l-.073.041c-.651-1.008-1.168-1.828-1.811-2.883.169-.143.339-.394.564-.45a.876.876,0,0,1,.748.181,1.11,1.11,0,0,0,.572.38v-2.69a7.953,7.953,0,0,0,2.55.412,9.584,9.584,0,0,0,6.709-2.935,15.019,15.019,0,0,0,2.559-3.365c-.146-.079-.289-.152-.444-.234-.321.275-.789.9-1.618.073Z" transform="translate(-207.086 -168.752)" fill="#114048"/>
        <path id="Path_20469" data-name="Path 20469" d="M262.471,229.589l.584.184,1.127.356c.018-.038.035-.079.05-.117a9.583,9.583,0,0,0-1.872-.622A1.6,1.6,0,0,1,262.471,229.589Z" transform="translate(-223.75 -204.794)" fill="#114048"/>
        <path id="Path_20470" data-name="Path 20470" d="M282.689,259.194c-.023-.832-.044-1.662-.082-3.014-.517.666-.905,1.142-1.253,1.557,0,.029.006.058.006.091a1.247,1.247,0,0,0,.137.555l-7.968,5.681-6.82,1.849a3.91,3.91,0,0,0-.99-2A2.261,2.261,0,0,1,263,262.866c-.055-.085-.111-.166-.166-.242H261.3a1.9,1.9,0,0,1,.383.754,3.648,3.648,0,0,0,.678,1.677h.47a1.523,1.523,0,0,1,1.49,1.256,6.4,6.4,0,0,0,.97.219c.52.073.926.6,1.393.911l-.269.374c-.786.023-1.568.061-2.643.061a18.368,18.368,0,0,0,2.123,1.151,4.231,4.231,0,0,0,.33-.459l3.008-.818c-.193-.3-.394-.6-.584-.9,1.46-.692,1.674-.762,2.664.33l3.076-.835a1.325,1.325,0,0,0,.394-.187l7.994-5.713c-.783.377-.865.26-1.323-.511l-.193-.129.207.12h0l1.668.263.1-.073c2.354-1.326,3.525-1.157,5.024,1.019l-6.067,4.843a18.447,18.447,0,0,0,2.781.275c.038.178.07.356.1.534l5.561-4.437a1.249,1.249,0,0,0,.275-1.592c-1.463-2.442-3.42-4.65-6.89-3.613a3.516,3.516,0,0,0-1.323,2.039Z" transform="translate(-223 -223.759)" fill="#114048"/>
        <path id="Path_20471" data-name="Path 20471" d="M305.79,245.85c.038.093.079.184.117.277a4.8,4.8,0,0,1,.523-.216l-.64-.061Z" transform="translate(-254.495 -216.446)" fill="#114048"/>
        <path id="Path_20472" data-name="Path 20472" d="M281.565,238.985l-.444-.105c-.14.759-.488,1.212-1.04,1.332a2.187,2.187,0,0,1-1.212-.161l-.429-.093c.058.263.023.616.193.78.093-.009.187-.018.275-.018a7.111,7.111,0,0,1,4.554,1.644c.006.006.015.006.02.012.532-.2,1.063-.406,1.586-.619l-.225-2.392a7.3,7.3,0,0,0-.707.494,10.054,10.054,0,0,0-1.136-.634l-.52-.02-.911-.216Zm1.82,1.192c.053.032.155.07.149.091a.5.5,0,0,1-.1.166c-.053-.032-.155-.07-.149-.091A.5.5,0,0,1,283.385,240.177Z" transform="translate(-235.134 -211.512)" fill="#114048"/>
        <path id="Path_20473" data-name="Path 20473" d="M260.3,319.111l-.181.149c-.041-.006-.085-.012-.126-.02l-1.39.587c.018.015.029.041.05.053,1.069.409,2.267.713,3.555,1.066l.815-.345c.275-.575-.745-1.18-.523-1.729.908-.327,1.726-.625,2.8-1.052a1.486,1.486,0,0,0,.222,1.726l3.628-1.533q-1.065-.9-2.053-1.773l-6.8,2.871Z" transform="translate(-221.089 -266.277)" fill="#114048"/>
        <path id="Path_20474" data-name="Path 20474" d="M294.634,309.4c-.105.172-.207.342-.324.532.993-.388,1.484-.578,1.858-.724.587.5,1.163.981,1.735,1.452l2.985-1.259a1.224,1.224,0,0,0,.283-.172h0a6.306,6.306,0,0,1-3.038-1.306l-3.5,1.478Z" transform="translate(-246.368 -260.387)" fill="#114048"/>
        <path id="Path_20475" data-name="Path 20475" d="M149.515,353.885l-1.5-.175c-.321.45-.45,1.282-1.1,1.206a1.176,1.176,0,0,0,.207.578,1.223,1.223,0,0,0,.386.33,2.841,2.841,0,0,1,2.418-.885l.289-.213c-.339-.412-.52-.634-.692-.841h0Z" transform="translate(-142.021 -292.802)" fill="#114048"/>
        <path id="Path_20476" data-name="Path 20476" d="M213.781,239.173a3.8,3.8,0,0,0-3.041,1.574c.263.091.526.175.786.263a4.817,4.817,0,0,1,2.43-.663,4.276,4.276,0,0,1,.911.114c.73-.827,1.434-1.63,2.161-2.471-.219-.181-.552-.462-1.049-.876.914-.424,1.5-1.151,2.462-.634.006.421.012.827.018,1.236a7.277,7.277,0,0,1,.917-.806,5.37,5.37,0,0,0,.07-1.925c-.5,0-.987-.032-1.472-.064a9.69,9.69,0,0,0-2.778,3.114c-.129-.026-.257-.041-.388-.058-.018.058-.032.117-.05.175C214.838,238.866,214.555,239.135,213.781,239.173Z" transform="translate(-187.208 -208.709)" fill="#114048"/>
        <path id="Path_20477" data-name="Path 20477" d="M229.93,253.405a1.236,1.236,0,0,0,.459-.365A1.686,1.686,0,0,0,229.93,253.405Z" transform="translate(-200.793 -221.536)" fill="#114048"/>
        <path id="Path_20478" data-name="Path 20478" d="M203.42,248.041l2.138-.038a3.8,3.8,0,0,1,3.041-1.574c.774-.038,1.057-.307.978-1.022l-.181-.207c-.207-.02-.418-.029-.622-.029a7.3,7.3,0,0,0-2.418.418c.032.073.061.143.1.21-.242.093-.511.3-.721.248a.362.362,0,0,1-.175-.131,7.3,7.3,0,0,0-1.691,1.16c-.044.05-.082.1-.131.149-.152.152-.172.429-.315.815Z" transform="translate(-182.026 -215.965)" fill="#114048"/>
        <path id="Path_20479" data-name="Path 20479" d="M244.012,229.744l.2-.564a9.946,9.946,0,0,0-1.916.552,10.459,10.459,0,0,0,1.712.009Z" transform="translate(-209.55 -204.645)" fill="#114048"/>
        <path id="Path_20480" data-name="Path 20480" d="M224.111,245.305c-.076-.012-.152-.026-.231-.035l.181.207c.018-.058.032-.117.05-.175Z" transform="translate(-196.51 -216.036)" fill="#114048"/>
        <path id="Path_20481" data-name="Path 20481" d="M268.09,239.913c-.006.064-.015.12-.02.184a7.388,7.388,0,0,1,1.4,1.11,1.2,1.2,0,0,0,.865.359h.009a.816.816,0,0,0,.146-.009l.283-.035c.181-.026.351-.047.514-.061-.169-.164-.131-.517-.193-.78l-.888-.251c-.342-.076-.683-.158-1.034-.245s-.707-.178-1.084-.275Z" transform="translate(-227.793 -212.241)" fill="#114048"/>
        <path id="Path_20482" data-name="Path 20482" d="M248.911,231.09a7.182,7.182,0,0,1,1.259-.12,7.256,7.256,0,0,1,1.011.079c-.073-.675-.28-1.431.981-1.247l.26-.812a1.6,1.6,0,0,0-.111-.2,9.043,9.043,0,0,0-3.946-.064l-.2.564c.231.552.464,1.11.751,1.8Z" transform="translate(-213.698 -204.192)" fill="#114048"/>
        <path id="Path_20483" data-name="Path 20483" d="M269.976,227.793a2.428,2.428,0,0,0-.479-.593v1.682c-.275-.158-.561-.289-.847-.418-.018.038-.035.079-.05.117h0c.386.756.561,1.662,1.618,1.954.143.038.21.35.283.637a2.427,2.427,0,0,0,.079.266h0l.888.251.429.093c.461-.464.911-.932,1.355-1.411-.064-.076-.134-.184-.2-.277a9.546,9.546,0,0,0-1.119-.073h-.009v-.2a2.979,2.979,0,0,1-1.951-2.033Z" transform="translate(-228.168 -203.244)" fill="#114048"/>
        <path id="Path_20484" data-name="Path 20484" d="M154.743,349.336l1.224-.394c-.207-.3-.476-.87-.616-.844a1.441,1.441,0,0,0-.4.134l-.216.161c-.207.222-.225.54,0,.946Z" transform="translate(-147.447 -288.829)" fill="#114048"/>
        <path id="Path_20485" data-name="Path 20485" d="M258.508,234.053l.821-1.271c-1.262-.184-1.054.572-.981,1.247C258.4,234.038,258.455,234.044,258.508,234.053Z" transform="translate(-220.868 -207.175)" fill="#114048"/>
        <path id="Path_20486" data-name="Path 20486" d="M130.846,282.784a1.219,1.219,0,0,0,1.089,2.182l5.234-2.623c-.535-.108-.634-.584-.645-1.282.873,0,1.434.114,1.373.905,0,.006-.006.012-.006.015l1.338-.669a1.166,1.166,0,0,0,.28-.2c-.6-.575-1.171-1.177-1.723-1.793l-6.934,3.464Z" transform="translate(-130.172 -240.14)" fill="#114048"/>
        <path id="Path_20487" data-name="Path 20487" d="M231.227,175.59l.508-.254.508-.254c.356.166.759.33,1.081.5h0c.1,0,.207-.009.313-.012A14.209,14.209,0,0,1,232.074,173c-.33-.14-.646-.275-.964-.406-.1.467-.169.809-.248,1.171-.359.015-.721.006-1.122,0a17.815,17.815,0,0,0,1.233,2.24c.053-.088.108-.169.161-.257l.1-.155Z" transform="translate(-200.658 -164.584)" fill="#114048"/>
        <path id="Path_20488" data-name="Path 20488" d="M242.87,166.549a1.2,1.2,0,0,0-.058,1.469,9,9,0,0,1,.859-1.878A1.2,1.2,0,0,0,242.87,166.549Z" transform="translate(-209.755 -160.018)" fill="#114048"/>
        <path id="Path_20489" data-name="Path 20489" d="M226.87,307.588c.333.143.654.286.981.429.678-.047,1.364-.111,2.056-.187-1.691-1.7-1.8-1.58-3.035-.245Z" transform="translate(-198.626 -259.43)" fill="#114048"/>
        <path id="Path_20490" data-name="Path 20490" d="M147.985,353.321c-.105-.053-.207-.105-.31-.161l-.333.245a1.21,1.21,0,0,0-.464,1.124c.654.076.783-.756,1.1-1.206Z" transform="translate(-141.992 -292.413)" fill="#114048"/>
        <path id="Path_20491" data-name="Path 20491" d="M161.95,340.451c.242-.114.251-.672.388-1.1a2.044,2.044,0,0,0,2.678-.435,10.682,10.682,0,0,0-2.123-.532h-.035l-2.737,2.018c-.032.149-.058.307-.082.473a8.7,8.7,0,0,0,1.91-.418Z" transform="translate(-151.316 -281.95)" fill="#114048"/>
        <path id="Path_20492" data-name="Path 20492" d="M164.089,271.48c-.117.088-.231.172-.339.257l.356.009C164.1,271.652,164.095,271.568,164.089,271.48Z" transform="translate(-153.942 -234.59)" fill="#114048"/>
        <path id="Path_20493" data-name="Path 20493" d="M170.41,273.535a1.278,1.278,0,0,1,.751.2,12.9,12.9,0,0,1,1.3-.713c-.105-.085-.21-.164-.318-.248-.6.269-1.168.517-1.732.768Z" transform="translate(-158.657 -235.503)" fill="#114048"/>
        <path id="Path_20494" data-name="Path 20494" d="M226.751,165.615c-.029-.844-.047-1.434-.067-2a5.978,5.978,0,0,0-1.574-.137c.085.324.178.663.283,1.008a5.024,5.024,0,0,0,1.355,1.127Z" transform="translate(-197.38 -158.135)" fill="#114048"/>
        <path id="Path_20495" data-name="Path 20495" d="M225.386,148.089c-.012-.07-.026-.146-.038-.216.073.012.152.026.231.038.018-.018.035-.029.053-.047a.525.525,0,0,1,.023.061,21.781,21.781,0,0,1,5.257,1.6,6.3,6.3,0,0,0,1.057-1.688,3.3,3.3,0,0,1,.134,2.3,12.427,12.427,0,0,1,2.824,2.141,9.716,9.716,0,0,1,.973,1.177,3.062,3.062,0,0,1,.932-1.326c.292-.254.511-.669.838-.792a.968.968,0,0,1,.9.339,1.373,1.373,0,0,1,.064,1.11,5.953,5.953,0,0,1-1.162,1.151c-.126.71-.269,1.446-.426,2.223V157.2l-6.268-5.368a3.236,3.236,0,0,0-.543,1.56c-.044.348-.088.692-.134,1.066l1.014.87c.38-.739.978-.231,1.247.175.459.7.867.949,1.536.844a1.008,1.008,0,0,1,.815.3c1.271,1.457,3.152,1.238,4.571,2.521.114.1.388.041.555-.023a1.355,1.355,0,0,0,.386-.315c-.111-.578-.21-1.116-.368-1.951l-.228.2a7.135,7.135,0,0,1,2.252-4.793,13.883,13.883,0,0,1,4.846-3.111c-.4-.532-.783-1.057-1.174-1.595l.6-.8a16.612,16.612,0,0,0-6.026,3.82c-.24.248-.453.488-.651.736v-3.969c-.754-.275-.453-1.446-.847-2.071a1.022,1.022,0,0,0-.187-.044c-.6,1.218.777,3.584-.765,4.039-.213-.412-.421-.818-.634-1.227v2.93c-.12-.129-.24-.266-.368-.394-3.423-3.552-8.5-4.752-11.058-5.146a2.038,2.038,0,0,1-.572.108,7.485,7.485,0,0,0-2.2.45,1.253,1.253,0,0,0-.1.54c.006.091.053.754.213,1.75a2.117,2.117,0,0,0,2.436-.207Zm14.534,7.153-1.119.333C238.842,154.5,238.831,154.5,239.92,155.242Z" transform="translate(-195.7 -145.23)" fill="#114048"/>
        <path id="Path_20496" data-name="Path 20496" d="M284.34,171.489c.488-.137.993-.245,1.5-.339l3.382-2.9a1.229,1.229,0,0,0,.365-1.285,1.3,1.3,0,0,1-1.019-.838,1.194,1.194,0,0,0-.929.277l-6.043,5.179c.853.619,1.472,1.051,2.053,1.44l.257-.222c.146-.643.19-1.25.429-1.317Z" transform="translate(-237.371 -160.004)" fill="#114048"/>
        <path id="Path_20497" data-name="Path 20497" d="M309.469,181.476c.079.009.14-.166.21-.26l.377-.324-.19-.152c-.166.242-.342.482-.526.716.044.006.088.015.131.018Z" transform="translate(-257.008 -170.354)" fill="#114048"/>
        <path id="Path_20498" data-name="Path 20498" d="M312.392,176.49c-.169.313-.356.622-.552.926a3.031,3.031,0,0,1,.456.368c.832.824,1.3.2,1.618-.073.152.082.3.158.444.234.143-.251.28-.5.409-.754-.774-.248-1.586-.38-2.345-.625l-.026-.076Z" transform="translate(-258.778 -167.345)" fill="#114048"/>
        <path id="Path_20499" data-name="Path 20499" d="M331.086,245.308a1.672,1.672,0,0,0,1.022.5,7.256,7.256,0,0,0-1.341-1.788,1.888,1.888,0,0,0,.321,1.288Z" transform="translate(-272.176 -215.151)" fill="#114048"/>
        <path id="Path_20500" data-name="Path 20500" d="M295.69,243.386a1.209,1.209,0,0,0,1.647-.131,4.641,4.641,0,0,1,1.42-1.051c-.038-.093-.079-.184-.117-.277.041-.514.079-1.025.126-1.612-.351.006-.651.006-.932.006-.24,0-.461,0-.683-.009l-.1.061.225,2.392c-.523.213-1.054.418-1.586.619Z" transform="translate(-247.345 -212.524)" fill="#114048"/>
        <path id="Path_20501" data-name="Path 20501" d="M272.575,217.282c.117-.987.47-2.135-.663-2.8a2.578,2.578,0,0,0-.242-.111v1.954c.184.432.327.756.464,1.078l.441-.12Z" transform="translate(-230.341 -194.161)" fill="#114048"/>
        <path id="Path_20502" data-name="Path 20502" d="M274.861,209.068a.873.873,0,0,0-.748-.181c-.225.055-.394.307-.564.45.643,1.054,1.16,1.875,1.811,2.883l.073-.041v-2.731A1.093,1.093,0,0,1,274.861,209.068Z" transform="translate(-231.672 -190.267)" fill="#114048"/>
        <path id="Path_20503" data-name="Path 20503" d="M236.091,183.42c.029-.242.058-.467.082-.681.047-.394.085-.754.111-1.11h0c-.321-.169-.724-.333-1.081-.5l-.508.254-.508.254-.1.155c-.053.088-.108.169-.161.257a15.106,15.106,0,0,0,1.422,1.869c.2.079.415.158.64.242.032-.263.064-.508.093-.736Z" transform="translate(-203.624 -170.63)" fill="#114048"/>
        <path id="Path_20504" data-name="Path 20504" d="M281.112,239.621c.552-.117.9-.572,1.04-1.332l-.9-.24c-.441.479-.894.946-1.355,1.411a2.187,2.187,0,0,0,1.212.161Z" transform="translate(-236.167 -210.924)" fill="#114048"/>
        <path id="Path_20505" data-name="Path 20505" d="M290.044,238.939l-.064-.231c-.184-.073-.368-.137-.555-.2l-.295.213.911.216Z" transform="translate(-242.701 -211.25)" fill="#114048"/>
        <path id="Path_20506" data-name="Path 20506" d="M330.275,269.05h0l-.015.009c.459.771.54.888,1.323.511l.359-.257-1.668-.263Z" transform="translate(-271.818 -232.87)" fill="#114048"/>
        <path id="Path_20507" data-name="Path 20507" d="M295.271,243.411c0-.02-.1-.061-.149-.091a.535.535,0,0,0-.1.167c0,.02.1.061.149.091A.535.535,0,0,0,295.271,243.411Z" transform="translate(-246.871 -214.655)" fill="#114048"/>
        <path id="Path_20508" data-name="Path 20508" d="M329.807,268.76h0l-.207-.12.193.129Z" transform="translate(-271.351 -232.58)" fill="#114048"/>
        <path id="Path_20509" data-name="Path 20509" d="M210.915,247.069c.207.05.479-.155.721-.248-.035-.067-.067-.14-.1-.21a7.612,7.612,0,0,0-.8.327A.372.372,0,0,0,210.915,247.069Z" transform="translate(-187.208 -216.984)" fill="#114048"/>
        <path id="Path_20510" data-name="Path 20510" d="M151.9,285.28c.012.7.111,1.174.645,1.282l.721-.362a.075.075,0,0,0,.006-.015c.058-.792-.5-.9-1.373-.905Z" transform="translate(-145.554 -244.36)" fill="#114048"/>
        <line id="Line_726" data-name="Line 726" y1="0.254" x2="0.508" transform="translate(31.074 10.497)" fill="none" stroke="#e58c74" stroke-linecap="round" stroke-linejoin="round"/>
        <line id="Line_727" data-name="Line 727" y1="0.254" x2="0.505" transform="translate(30.569 10.751)" fill="none" stroke="#e58c74" stroke-linecap="round" stroke-linejoin="round"/>
        <path id="Path_20511" data-name="Path 20511" d="M268.932,170.858c.158-.78.3-1.513.426-2.223a5.871,5.871,0,0,0,1.163-1.151,1.361,1.361,0,0,0-.064-1.11.968.968,0,0,0-.9-.339c-.33.126-.549.537-.838.792a3.055,3.055,0,0,0-.932,1.326,7.089,7.089,0,0,1,1.142,2.494v.207Z" transform="translate(-227.594 -159.928)" fill="#114048"/>
        <path id="Path_20512" data-name="Path 20512" d="M277.74,178.519c.406-.12.762-.225,1.119-.333C277.769,177.444,277.784,177.441,277.74,178.519Z" transform="translate(-234.638 -168.176)" fill="#114048"/>
      </g>
      <g id="Group_3345" data-name="Group 3345">
        <path id="Path_20513" data-name="Path 20513" d="M1.261,165.591a.64.64,0,0,1-.012-.505.518.518,0,0,1,.266-.336,2.718,2.718,0,0,1,.94.044c.523.076,1.1.19,1.75.345q2.423.6,2.859.751a.726.726,0,0,1,.172.073.48.48,0,0,1,.123.269.677.677,0,0,1-.009.345.2.2,0,0,1-.041.076.557.557,0,0,1-.476.286,7.98,7.98,0,0,1-1.428-.307q-1.1-.294-1.612-.391l-.368-.079.526.464a10.305,10.305,0,0,0,1.154.9,3.134,3.134,0,0,1,.634.555.658.658,0,0,1,.1.479.413.413,0,0,1-.023.114c-.029.091-.2.21-.514.356a8.75,8.75,0,0,1-1.574.488,5.578,5.578,0,0,0-1.133.3,2.181,2.181,0,0,0,.654.266c.237.079.424.137.564.175l.923.28a1.073,1.073,0,0,1,.5.275.579.579,0,0,1,.123.587.513.513,0,0,1-.456.362,3.958,3.958,0,0,1-1.089-.277A15.789,15.789,0,0,0,2.044,171c-.643-.134-1.081-.242-1.317-.321a1.65,1.65,0,0,1-.377-.164.657.657,0,0,1-.175-.263.8.8,0,0,1-.1-.6.608.608,0,0,1,.2-.269,8.059,8.059,0,0,1,1.288-.47c.754-.237,1.4-.418,1.934-.54a2.6,2.6,0,0,0,.523-.158l-.1-.079a3.4,3.4,0,0,0-.272-.251c-.129-.108-.242-.2-.336-.286q-.705-.6-1.323-1.212a4.476,4.476,0,0,1-.713-.809Z" transform="translate(-0.049 -116.613)" fill="#114048"/>
        <path id="Path_20514" data-name="Path 20514" d="M14.661,132.615a.516.516,0,0,1,.009-.333.522.522,0,0,1,.257-.207A.716.716,0,0,1,15.28,132a.345.345,0,0,1,.123.047,9.341,9.341,0,0,1,1.747,1.644c.464.505,1.016,1.11,1.662,1.811a6.554,6.554,0,0,1,1.014,1.241.5.5,0,0,1-.041.365.518.518,0,0,1-.651.3l-.041-.015a.181.181,0,0,1-.041-.012,6.459,6.459,0,0,1-1.043-1L17.1,135.4l-.689.245c-.967.359-1.627.581-1.974.666a1.2,1.2,0,0,1-.783,0,.619.619,0,0,1-.315-.33.457.457,0,0,1,.006-.391.233.233,0,0,1,.058-.082,4.26,4.26,0,0,1,1.18-.482,10.906,10.906,0,0,0,1.352-.473l.31-.134-.768-.777a3.366,3.366,0,0,1-.818-1.028Z" transform="translate(-9.429 -93.442)" fill="#114048"/>
        <path id="Path_20515" data-name="Path 20515" d="M46.329,88.115a1.468,1.468,0,0,1,.286-.514.588.588,0,0,1,.061-.061.531.531,0,0,0,.07-.073,1.519,1.519,0,0,1,.546-.394,3.3,3.3,0,0,1,.838-.184.785.785,0,0,1,.622.114c.277.237.313.476.108.716a1.246,1.246,0,0,1-.7.351,1.266,1.266,0,0,0-.619.283.972.972,0,0,0-.161.543,2.085,2.085,0,0,0,.31,1.122,3.773,3.773,0,0,0,.867,1.069,2.385,2.385,0,0,0,.815.485,1.761,1.761,0,0,0,.613.067,1.487,1.487,0,0,0,.587-.123,1.608,1.608,0,0,0,.467-.394,1.668,1.668,0,0,0,.409-.768,3.766,3.766,0,0,1,.35-1.212.4.4,0,0,1,.134-.093.659.659,0,0,1,.424-.056.439.439,0,0,1,.222.093c.152.131.193.467.123,1.011a3.274,3.274,0,0,1-.719,1.732c-.018.02-.05.055-.093.1s-.076.079-.093.1a2.592,2.592,0,0,1-2.678.686,3.308,3.308,0,0,1-1.162-.631c-.029-.023-.07-.058-.126-.1s-.093-.07-.114-.088a5.008,5.008,0,0,1-1.256-1.674A2.791,2.791,0,0,1,46.18,89.2a3,3,0,0,1,.158-1.084Z" transform="translate(-32.703 -61.502)" fill="#114048"/>
        <path id="Path_20516" data-name="Path 20516" d="M70.23,66.3a.415.415,0,0,1,.152-.327,1.135,1.135,0,0,1,.756-.213,5.543,5.543,0,0,1,2.474.768,8.822,8.822,0,0,1,2.436,1.826l.21.237a1.547,1.547,0,0,1,.237.31.324.324,0,0,1,.009.225.591.591,0,0,1-.181.336.574.574,0,0,1-.447.149.815.815,0,0,1-.523-.3l-.248-.277-.251.3a7.281,7.281,0,0,1-.669.654l-.406.365.289.321a.827.827,0,0,1,.275.546.534.534,0,0,1-.175.388.6.6,0,0,1-.456.137.586.586,0,0,1-.275-.091,2.971,2.971,0,0,1-.38-.383,14.456,14.456,0,0,1-1.186-1.755,12.587,12.587,0,0,1-1.636-3.207Zm1.536.789s.228.365.663,1.075.669,1.084.7,1.119a2.851,2.851,0,0,0,.511-.421c.336-.3.488-.488.459-.564,0-.015-.015-.038-.047-.073A4.688,4.688,0,0,0,72.5,67.3a2.409,2.409,0,0,0-.751-.254c-.006.006,0,.02.018.041Z" transform="translate(-49.731 -46.553)" fill="#114048"/>
        <path id="Path_20517" data-name="Path 20517" d="M91.512,42.18a.517.517,0,0,1,.2-.313,1.8,1.8,0,0,1,.21-.126,23.663,23.663,0,0,0,2.439-1.478,4.182,4.182,0,0,0,.35-.254,2.877,2.877,0,0,1,.254-.19.722.722,0,0,1,.9.152.5.5,0,0,1,.058.394.543.543,0,0,1-.143.289,5.54,5.54,0,0,1-.584.432l-.689.467.277.333a36.081,36.081,0,0,1,2.293,3.154,6.446,6.446,0,0,1,.485.765.526.526,0,0,1-.231.555.533.533,0,0,1-.391.091.5.5,0,0,1-.327-.2q-.166-.193-.941-1.282-1.113-1.538-1.583-2.158l-.54-.7-.345.234a3.309,3.309,0,0,1-1.069.526.552.552,0,0,1-.584-.272.462.462,0,0,1-.044-.424Z" transform="translate(-64.778 -28.12)" fill="#114048"/>
        <path id="Path_20518" data-name="Path 20518" d="M147.588,15.56a2.036,2.036,0,0,1,.651-.35,3.46,3.46,0,0,1,1.379-.257,2.544,2.544,0,0,1,.745.12.531.531,0,0,1,.295.318.553.553,0,0,1,.006.421.492.492,0,0,1-.3.272,2.807,2.807,0,0,1-.835.067,2.807,2.807,0,0,0-.835.067,1.2,1.2,0,0,0-.386.283,2.562,2.562,0,0,0-.581,2.261,2.214,2.214,0,0,0,.108.5,2.579,2.579,0,0,0,.59.838,1.622,1.622,0,0,0,.92.406,2.118,2.118,0,0,0,1.1-.091.892.892,0,0,0,.362-.2.271.271,0,0,0,.012-.275l-.035-.093-.134-.272-.339.158a.588.588,0,0,0-.091.041l-.079.038a.588.588,0,0,1-.745-.35.546.546,0,0,1,.242-.7,1.367,1.367,0,0,1,.336-.172,1.884,1.884,0,0,1,1.06-.166.909.909,0,0,1,.464.3,3.958,3.958,0,0,1,.394.844,1.958,1.958,0,0,1,.2,1.122c-.073.19-.371.421-.894.689a2.9,2.9,0,0,1-.292.126,3.531,3.531,0,0,1-1.624.2,2.585,2.585,0,0,1-2.065-1.183,3.731,3.731,0,0,1-.47-.844,4.047,4.047,0,0,1-.178-2.252,3.175,3.175,0,0,1,1.008-1.837Z" transform="translate(-103.72 -10.584)" fill="#114048"/>
        <path id="Path_20519" data-name="Path 20519" d="M178.995,6.361a3.469,3.469,0,0,1,.777-.277,2.894,2.894,0,0,1,2.135.391,2.641,2.641,0,0,1,.841.7,3.3,3.3,0,0,1,.453,1.063c.012.047.026.111.053.2s.038.137.044.166a1.876,1.876,0,0,1,.009.765,2.356,2.356,0,0,1-.821,1.273c-.228.219-.336.345-.327.383a1.183,1.183,0,0,0,.318.371,1.358,1.358,0,0,1,.409.572.492.492,0,0,1-.056.35.519.519,0,0,1-.377.292.533.533,0,0,1-.409-.05,4.564,4.564,0,0,1-.643-.57,2.557,2.557,0,0,0-.383-.333.319.319,0,0,0-.245-.041,2.266,2.266,0,0,1-.429.053l-.248.012.2.6.181.608-.175.275a.49.49,0,0,1-.724.251c-.143-.067-.277-.321-.406-.762q-.272-.942-.52-2.065-.32-1.433-.418-2.191a2.94,2.94,0,0,1,.047-1.344A1.3,1.3,0,0,1,179,6.364Zm1.741.862a1.806,1.806,0,0,0-.78.012c-.412.093-.622.222-.634.391,0,.079.058.485.178,1.221s.213,1.247.277,1.536a.469.469,0,0,0,.023.076.373.373,0,0,1,.02.061v.015a2.7,2.7,0,0,0,.628-.111,2.86,2.86,0,0,0,.567-.172,2.667,2.667,0,0,0,.461-.31,2.45,2.45,0,0,0,.584-.616.763.763,0,0,0,.082-.564l-.038-.169a1.744,1.744,0,0,0-1.37-1.373Z" transform="translate(-126.151 -4.262)" fill="#114048"/>
        <path id="Path_20520" data-name="Path 20520" d="M213.4,2.357a.426.426,0,0,1,.315-.172,1.14,1.14,0,0,1,.733.28,5.536,5.536,0,0,1,1.522,2.094,8.774,8.774,0,0,1,.859,2.921l.029.315a1.739,1.739,0,0,1,.006.388.308.308,0,0,1-.128.184.6.6,0,0,1-.348.161.567.567,0,0,1-.447-.149.8.8,0,0,1-.237-.558l-.032-.374-.383.091a7.344,7.344,0,0,1-.926.126l-.543.05.038.429a.829.829,0,0,1-.105.6.543.543,0,0,1-.371.207.6.6,0,0,1-.447-.164.589.589,0,0,1-.167-.237,2.925,2.925,0,0,1-.076-.535,14.226,14.226,0,0,1,.1-2.118,12.568,12.568,0,0,1,.608-3.549Zm.759,1.551s-.038.429-.111,1.259-.111,1.268-.108,1.317a2.836,2.836,0,0,0,.663-.029c.45-.041.683-.1.707-.178.009-.009.012-.038.006-.088a4.652,4.652,0,0,0-.7-1.671,2.529,2.529,0,0,0-.447-.654c-.009,0-.012.015-.012.044Z" transform="translate(-150.574 -1.546)" fill="#114048"/>
        <path id="Path_20521" data-name="Path 20521" d="M243.967.107a1.7,1.7,0,0,1,.7-.1,1.68,1.68,0,0,1,.669.155,3.466,3.466,0,0,1,.809.681,4.174,4.174,0,0,1,.406.485.551.551,0,0,1,.082.313.5.5,0,0,1-.216.409.6.6,0,0,1-.365.143c-.172-.006-.453-.2-.841-.593-.269-.28-.479-.421-.631-.426-.269-.012-.479.207-.631.651a1.08,1.08,0,0,0-.055.286q-.022.517.92,1.49a5.927,5.927,0,0,1,.8.987,1.532,1.532,0,0,1,.2.777,1.591,1.591,0,0,1-1.046,1.37,1.826,1.826,0,0,1-.885.181,1.777,1.777,0,0,1-1.148-.447,1.549,1.549,0,0,1-.5-.853.619.619,0,0,1-.009-.158.56.56,0,0,1,.175-.4.581.581,0,0,1,.409-.164.611.611,0,0,1,.359.187c.134.12.2.225.2.31,0,.067.058.143.184.231a.692.692,0,0,0,.362.137.84.84,0,0,0,.453-.14q.263-.131.272-.307c.006-.134-.131-.336-.409-.608a6.03,6.03,0,0,1-1.25-1.516,1.66,1.66,0,0,1-.175-.473,3.755,3.755,0,0,1-.009-.669,2.468,2.468,0,0,1,.2-1.043,1.994,1.994,0,0,1,.984-.882Z" transform="translate(-171.484 -0.002)" fill="#114048"/>
        <path id="Path_20522" data-name="Path 20522" d="M274.673,3.368a1.7,1.7,0,0,1,.7-.012,1.677,1.677,0,0,1,.646.242,3.4,3.4,0,0,1,.713.777,4.149,4.149,0,0,1,.339.532.545.545,0,0,1,.041.321.509.509,0,0,1-.269.377.609.609,0,0,1-.38.1c-.169-.029-.424-.263-.756-.7-.228-.313-.421-.479-.57-.505-.266-.044-.5.143-.71.564a.965.965,0,0,0-.091.277c-.058.339.181.873.721,1.595a5.678,5.678,0,0,1,.663,1.084,1.549,1.549,0,0,1,.1.8,1.593,1.593,0,0,1-1.215,1.224,1.8,1.8,0,0,1-.9.064,1.777,1.777,0,0,1-1.081-.593,1.543,1.543,0,0,1-.386-.911.65.65,0,0,1,.012-.158.563.563,0,0,1,.225-.377.588.588,0,0,1,.426-.111.6.6,0,0,1,.333.231c.117.137.169.248.155.333-.012.067.041.149.155.251a.677.677,0,0,0,.342.181.848.848,0,0,0,.467-.082c.187-.064.289-.155.307-.269.023-.131-.085-.35-.327-.654a5.937,5.937,0,0,1-1.043-1.665,1.71,1.71,0,0,1-.114-.494,4.359,4.359,0,0,1,.076-.666,2.484,2.484,0,0,1,.333-1.008,2.006,2.006,0,0,1,1.089-.748Z" transform="translate(-192.736 -2.355)" fill="#114048"/>
        <path id="Path_20523" data-name="Path 20523" d="M476.779,240.584a2.162,2.162,0,0,1,.245,1,2.411,2.411,0,0,1-.131.865,2.808,2.808,0,0,0-.134.608,1.73,1.73,0,0,1-.575.973,3.4,3.4,0,0,1-2.559,1.034h-.216a4.1,4.1,0,0,1-.683-.064,3.51,3.51,0,0,1-.646-.257,2.837,2.837,0,0,1-1.811-2.646v-.044a2.47,2.47,0,0,1,.169-1.011,2.952,2.952,0,0,1,.8-1.028,3.582,3.582,0,0,1,1.174-.716,4.8,4.8,0,0,1,1.493-.21,3.11,3.11,0,0,1,.59.035,3.741,3.741,0,0,1,1.376.532,2.512,2.512,0,0,1,.905.929Zm-.97,1.4a1.52,1.52,0,0,0,.093-.4,1.377,1.377,0,0,0-.091-.315,1.317,1.317,0,0,0-.467-.526,2.291,2.291,0,0,0-.783-.391,2.991,2.991,0,0,0-.777-.073,2.52,2.52,0,0,0-1.276.28,2.393,2.393,0,0,0-.99.967,1.266,1.266,0,0,0-.105.535,1.6,1.6,0,0,0,.61,1.314,2.967,2.967,0,0,0,.645.371,2.627,2.627,0,0,0,.7.213.466.466,0,0,1,.073.006c.038,0,.067.006.088.006a2.808,2.808,0,0,0,1.446-.426,1.729,1.729,0,0,0,.5-.482.951.951,0,0,0,.228-.523,2.733,2.733,0,0,1,.105-.549Z" transform="translate(-332.927 -169.256)" fill="#114048"/>
        <path id="Path_20524" data-name="Path 20524" d="M474.372,276.769a3.4,3.4,0,0,1-.006.827,2.891,2.891,0,0,1-1.1,1.872,2.673,2.673,0,0,1-.943.552,3.28,3.28,0,0,1-1.154.058q-.07-.009-.2-.018c-.088-.006-.143-.012-.172-.015a1.889,1.889,0,0,1-.721-.254,2.363,2.363,0,0,1-.917-1.206c-.126-.286-.21-.432-.248-.438a1.166,1.166,0,0,0-.459.172,1.357,1.357,0,0,1-.678.187.561.561,0,0,1-.456-.625.536.536,0,0,1,.187-.368,4.653,4.653,0,0,1,.756-.409,2.559,2.559,0,0,0,.447-.245.335.335,0,0,0,.123-.216,2.09,2.09,0,0,1,.1-.424l.076-.237-.634-.026-.634-.038-.2-.257a.6.6,0,0,1-.175-.444.588.588,0,0,1,.187-.324c.111-.111.4-.152.856-.12q.977.07,2.118.219,1.455.188,2.2.359a3.023,3.023,0,0,1,1.247.5,1.285,1.285,0,0,1,.394.914Zm-1.408,1.341a1.78,1.78,0,0,0,.254-.736c.056-.418.006-.663-.152-.73-.073-.029-.476-.114-1.206-.251s-1.244-.228-1.539-.266a.37.37,0,0,0-.079,0h-.079a2.846,2.846,0,0,0-.111.622,2.947,2.947,0,0,0-.035.59,2.682,2.682,0,0,0,.131.54,2.442,2.442,0,0,0,.38.759.746.746,0,0,0,.5.269l.172.023a1.752,1.752,0,0,0,1.761-.815Z" transform="translate(-330.832 -194.511)" fill="#114048"/>
        <path id="Path_20525" data-name="Path 20525" d="M467.325,311.278a2.028,2.028,0,0,1-.1.733,3.449,3.449,0,0,1-.6,1.265,2.508,2.508,0,0,1-.535.532.529.529,0,0,1-.432.053.543.543,0,0,1-.342-.245.5.5,0,0,1-.047-.4,2.792,2.792,0,0,1,.438-.716,2.925,2.925,0,0,0,.438-.716,1.292,1.292,0,0,0,0-.479,2.561,2.561,0,0,0-1.487-1.8,2.176,2.176,0,0,0-.464-.2,2.554,2.554,0,0,0-1.025-.015,1.646,1.646,0,0,0-.87.505,2.162,2.162,0,0,0-.575.946.881.881,0,0,0-.047.412.273.273,0,0,0,.213.172l.1.026.3.053.073-.368a.746.746,0,0,0,.02-.1c.006-.038.012-.067.015-.085a.542.542,0,0,1,.275-.342.572.572,0,0,1,.447-.055.547.547,0,0,1,.426.61,1.409,1.409,0,0,1-.058.371,1.91,1.91,0,0,1-.488.955.882.882,0,0,1-.511.2,3.9,3.9,0,0,1-.914-.178,1.97,1.97,0,0,1-1.028-.494,1.875,1.875,0,0,1-.029-1.127,2.634,2.634,0,0,1,.07-.31,3.556,3.556,0,0,1,.8-1.428,2.847,2.847,0,0,1,1.271-.865,2.883,2.883,0,0,1,.9-.108,3.809,3.809,0,0,1,.961.117,4.036,4.036,0,0,1,1.925,1.183,3.167,3.167,0,0,1,.891,1.9Z" transform="translate(-325.972 -218.096)" fill="#114048"/>
        <path id="Path_20526" data-name="Path 20526" d="M455.91,340.507a.418.418,0,0,1,0,.359,1.121,1.121,0,0,1-.6.511,5.559,5.559,0,0,1-2.567.348,8.781,8.781,0,0,1-2.979-.625l-.292-.126a1.706,1.706,0,0,1-.345-.178.3.3,0,0,1-.1-.2.585.585,0,0,1,.023-.383.568.568,0,0,1,.342-.324.809.809,0,0,1,.6.056l.345.146.1-.38a7.635,7.635,0,0,1,.327-.876l.216-.5-.4-.169a.836.836,0,0,1-.479-.377.535.535,0,0,1-.006-.424.619.619,0,0,1,.353-.318.577.577,0,0,1,.289-.032,3.031,3.031,0,0,1,.508.187,14.4,14.4,0,0,1,1.817,1.089,12.4,12.4,0,0,1,2.836,2.217Zm-1.723-.064-1.054-.7c-.7-.459-1.063-.7-1.11-.719a2.84,2.84,0,0,0-.286.6c-.178.415-.237.648-.178.707a.15.15,0,0,0,.073.047,4.7,4.7,0,0,0,1.8.178,2.453,2.453,0,0,0,.789-.085C454.225,340.463,454.213,340.455,454.187,340.443Z" transform="translate(-317.875 -238.575)" fill="#114048"/>
        <path id="Path_20527" data-name="Path 20527" d="M440.994,371.286a.42.42,0,0,1-.24.377.572.572,0,0,1-.356.091,1.667,1.667,0,0,1-.555-.248c-.295-.175-.952-.631-1.972-1.358a14.641,14.641,0,0,1-1.82-1.469c-.386-.386-.488-.727-.312-1.022a1.079,1.079,0,0,1,.835-.491,13.3,13.3,0,0,1,2.337.053q.714.039,1.157.07a1.636,1.636,0,0,0,.438.009q0-.022-1.548-1.054c-.748-.491-1.189-.791-1.326-.908a.647.647,0,0,1-.24-.345.59.59,0,0,1,.061-.383c.143-.239.412-.3.806-.172a13.77,13.77,0,0,1,1.525.841q1.472.876,2.05,1.306.9.684.859,1.2a.919.919,0,0,1-.1.391c-.108.181-.365.286-.774.318a20.007,20.007,0,0,1-2.243-.055,8.306,8.306,0,0,0-2.042-.029c-.006.009,0,.023.023.047a23.765,23.765,0,0,0,2.562,1.826,4.265,4.265,0,0,1,.742.567.5.5,0,0,1,.131.438Z" transform="translate(-308.424 -257.945)" fill="#114048"/>
        <path id="Path_20528" data-name="Path 20528" d="M427.8,396.234a.674.674,0,0,1-.058.336.693.693,0,0,1-.266.2.563.563,0,0,1-.295.064,12.876,12.876,0,0,1-2.088-1.177q-1.814-1.13-2.6-1.732a1.471,1.471,0,0,1-.28-.251.556.556,0,0,1,.053-.613.5.5,0,0,1,.526-.213,6.269,6.269,0,0,1,1.262.765c.52.348,1.238.8,2.164,1.361a14.97,14.97,0,0,1,1.3.812A.6.6,0,0,1,427.8,396.234Z" transform="translate(-298.854 -278.094)" fill="#114048"/>
        <path id="Path_20529" data-name="Path 20529" d="M407.912,414.721a1.46,1.46,0,0,1-.318.494c-.015.015-.035.032-.064.058a.935.935,0,0,0-.076.067,1.6,1.6,0,0,1-.57.362,3.364,3.364,0,0,1-.847.131.8.8,0,0,1-.613-.152c-.263-.254-.283-.494-.064-.721a1.246,1.246,0,0,1,.716-.307,1.217,1.217,0,0,0,.637-.245.964.964,0,0,0,.193-.532,2.1,2.1,0,0,0-.24-1.139,3.79,3.79,0,0,0-.8-1.119,2.368,2.368,0,0,0-.783-.534,1.785,1.785,0,0,0-.608-.105,1.469,1.469,0,0,0-.593.088,1.6,1.6,0,0,0-.494.365,1.689,1.689,0,0,0-.456.739,3.788,3.788,0,0,1-.426,1.186.358.358,0,0,1-.14.085.676.676,0,0,1-.426.029.434.434,0,0,1-.216-.108c-.146-.14-.164-.479-.058-1.016a3.268,3.268,0,0,1,.824-1.682c.02-.02.053-.053.1-.093s.079-.073.1-.093a2.585,2.585,0,0,1,2.716-.514,3.294,3.294,0,0,1,1.122.7c.026.026.067.061.12.105s.088.076.108.093a5.011,5.011,0,0,1,1.148,1.75,2.8,2.8,0,0,1,.222,1.043,3.029,3.029,0,0,1-.225,1.072Z" transform="translate(-284.315 -290.097)" fill="#114048"/>
        <path id="Path_20530" data-name="Path 20530" d="M363.014,451.22a1.442,1.442,0,0,1-.426.4.766.766,0,0,1-.076.041.843.843,0,0,0-.091.047,1.572,1.572,0,0,1-.637.216,3.355,3.355,0,0,1-.853-.073.781.781,0,0,1-.558-.295c-.2-.31-.158-.546.111-.716a1.247,1.247,0,0,1,.768-.129,1.241,1.241,0,0,0,.678-.088.959.959,0,0,0,.315-.47,2.1,2.1,0,0,0,.041-1.165,3.813,3.813,0,0,0-.508-1.279,2.412,2.412,0,0,0-.631-.707,1.806,1.806,0,0,0-.564-.248,1.487,1.487,0,0,0-.6-.058,1.558,1.558,0,0,0-.564.237,1.671,1.671,0,0,0-.619.61,3.747,3.747,0,0,1-.7,1.052.347.347,0,0,1-.158.047.656.656,0,0,1-.421-.076.423.423,0,0,1-.184-.155c-.108-.169-.047-.505.184-1a3.249,3.249,0,0,1,1.2-1.437c.023-.015.064-.038.12-.067s.1-.053.12-.067a2.589,2.589,0,0,1,2.76.146,3.339,3.339,0,0,1,.923.949c.02.032.05.076.091.129a1.359,1.359,0,0,1,.082.117,4.973,4.973,0,0,1,.7,1.974,2.792,2.792,0,0,1-.032,1.066,3.063,3.063,0,0,1-.473.987Z" transform="translate(-252.949 -315.386)" fill="#114048"/>
        <path id="Path_20531" data-name="Path 20531" d="M334.8,466.43c-.28.169-.467.277-.564.321-.479.219-.794.167-.941-.155l-.029-.064a.5.5,0,0,1,.061-.543,4.286,4.286,0,0,1,.99-.619l.923-.47-.555-1.107c-.374-.724-.567-1.089-.581-1.1l-.026.012q-.184.083-1.3.754c-.167.1-.257.149-.275.158a.423.423,0,0,1-.327.009.537.537,0,0,1-.307-.286.511.511,0,0,1-.018-.45,2.835,2.835,0,0,1,1.192-.958l.517-.283-.388-.85-.386.128c-.073.023-.225.088-.45.19-.254.117-.438.2-.555.272s-.248.129-.412.2a.9.9,0,0,1-.409.108.552.552,0,0,1-.31-.158.583.583,0,0,1-.129-.178.554.554,0,0,1,.184-.669,4.17,4.17,0,0,1,.943-.529,5.96,5.96,0,0,1,1.715-.61h.032a.635.635,0,0,1,.447.146,13.1,13.1,0,0,1,1.233,2.313,1.049,1.049,0,0,1,.1.19l.1.222c.575,1.212.879,1.849.905,1.91a2.043,2.043,0,0,1,.3.923,1.086,1.086,0,0,1-.64.672.593.593,0,0,1-.082.029.805.805,0,0,0-.094.035,2.269,2.269,0,0,0-.295.12,3.931,3.931,0,0,0-.57.31Z" transform="translate(-233.96 -325.332)" fill="#114048"/>
        <path id="Path_20532" data-name="Path 20532" d="M307.849,476.252a3.363,3.363,0,0,1-.754.339,2.91,2.91,0,0,1-2.161-.219,2.6,2.6,0,0,1-.894-.628,3.312,3.312,0,0,1-.535-1.025c-.015-.047-.035-.108-.067-.19s-.05-.134-.058-.164a1.867,1.867,0,0,1-.07-.762,2.366,2.366,0,0,1,.716-1.335c.207-.237.307-.371.3-.409-.02-.064-.137-.178-.348-.345a1.368,1.368,0,0,1-.453-.537.5.5,0,0,1,.026-.353.521.521,0,0,1,.353-.321.551.551,0,0,1,.412.015,4.551,4.551,0,0,1,.686.517,2.588,2.588,0,0,0,.409.3.321.321,0,0,0,.248.02,2.129,2.129,0,0,1,.426-.088l.245-.032-.242-.587-.228-.593.152-.289a.582.582,0,0,1,.33-.342.567.567,0,0,1,.371.035c.149.056.3.3.467.73q.342.916.683,2.015.434,1.4.59,2.15a3.02,3.02,0,0,1,.061,1.344,1.279,1.279,0,0,1-.666.739Zm-1.805-.721a1.819,1.819,0,0,0,.774-.073c.4-.126.6-.272.6-.441-.006-.079-.1-.479-.275-1.2s-.312-1.227-.4-1.51a.422.422,0,0,0-.029-.073.276.276,0,0,1-.026-.061l-.006-.015a5.245,5.245,0,0,0-1.165.377,2.617,2.617,0,0,0-.435.345,2.463,2.463,0,0,0-.534.66.757.757,0,0,0-.035.567l.053.164a1.749,1.749,0,0,0,1.472,1.262Z" transform="translate(-214.725 -332.163)" fill="#114048"/>
        <path id="Path_20533" data-name="Path 20533" d="M276.641,486.262a.509.509,0,0,1-.318.2,2.242,2.242,0,0,1-.242.026,23.76,23.76,0,0,0-2.833.315,3.743,3.743,0,0,0-.424.085c-.093.023-.2.047-.31.064a.632.632,0,0,1-.473-.126.619.619,0,0,1-.283-.391.5.5,0,0,1,.114-.383.531.531,0,0,1,.251-.2,5.19,5.19,0,0,1,.713-.146l.824-.134-.111-.418a35.7,35.7,0,0,1-.754-3.826,5.718,5.718,0,0,1-.117-.9.552.552,0,0,1,.835-.324.5.5,0,0,1,.213.321c.047.164.149.684.313,1.56q.364,1.866.529,2.623l.2.856.412-.067a3.293,3.293,0,0,1,1.192-.026.555.555,0,0,1,.415.494.465.465,0,0,1-.137.4Z" transform="translate(-192.393 -339.811)" fill="#114048"/>
        <path id="Path_20534" data-name="Path 20534" d="M249.926,489.347a.686.686,0,0,1-.3.172.648.648,0,0,1-.321-.079.549.549,0,0,1-.24-.184,12.885,12.885,0,0,1-.444-2.354q-.3-2.116-.348-3.108a1.427,1.427,0,0,1,.012-.374.551.551,0,0,1,.5-.353.5.5,0,0,1,.5.263,6.393,6.393,0,0,1,.228,1.457q.1.929.35,2.532a14.915,14.915,0,0,1,.216,1.516A.6.6,0,0,1,249.926,489.347Z" transform="translate(-175.772 -341.973)" fill="#114048"/>
        <path id="Path_20535" data-name="Path 20535" d="M219.176,489.268a3.719,3.719,0,0,1-.7.1.643.643,0,0,1-.38-.166.556.556,0,0,1-.187-.473.446.446,0,0,1,.181-.362,2.851,2.851,0,0,1,.879-.248,7.835,7.835,0,0,1,1.306-.149l.622-.02.015-.245c.009-.134-.015-.578-.07-1.329a10.6,10.6,0,0,0-.108-1.16h-.015a6.059,6.059,0,0,0-.768.082,6.419,6.419,0,0,1-1.285.064,1.051,1.051,0,0,1-.666-.184.529.529,0,0,1-.134-.4.523.523,0,0,1,.2-.391,1.166,1.166,0,0,1,.645-.161,9.175,9.175,0,0,0,1.189-.1,4.535,4.535,0,0,0,.567-.093c.079-.023.12-.061.123-.108s0-.149-.015-.333-.02-.339-.023-.461,0-.251.012-.4a.5.5,0,0,1,.152-.365.521.521,0,0,1,.383-.149.551.551,0,0,1,.4.228.733.733,0,0,1,.155.529,6.434,6.434,0,0,0,.061.976,3.2,3.2,0,0,0,.134.765,5.822,5.822,0,0,1,.152,1.379q.07,1.271.05,1.863a1.924,1.924,0,0,1-.216.952.508.508,0,0,1-.286.184,6.809,6.809,0,0,1-.882.047,8.725,8.725,0,0,0-1.493.137Z" transform="translate(-154.246 -341.371)" fill="#114048"/>
        <path id="Path_20536" data-name="Path 20536" d="M197.289,486.144a.712.712,0,0,1-.324.105.678.678,0,0,1-.295-.146.571.571,0,0,1-.193-.231,12.664,12.664,0,0,1,.079-2.4c.108-1.422.219-2.456.333-3.111a1.652,1.652,0,0,1,.091-.365.549.549,0,0,1,.567-.237.5.5,0,0,1,.432.368,6.358,6.358,0,0,1-.093,1.472q-.1.929-.207,2.547c-.035.762-.073,1.271-.117,1.528a.6.6,0,0,1-.269.464Z" transform="translate(-139.083 -339.628)" fill="#114048"/>
        <path id="Path_20537" data-name="Path 20537" d="M167.707,479.25c-.324-.053-.537-.093-.637-.123-.508-.143-.713-.388-.616-.727l.02-.07a.5.5,0,0,1,.4-.374,4.264,4.264,0,0,1,1.154.172l1.008.242.3-1.2c.187-.794.275-1.2.269-1.209l-.026-.009c-.129-.038-.622-.126-1.478-.272-.19-.035-.295-.053-.313-.058a.407.407,0,0,1-.254-.207.533.533,0,0,1-.047-.418.511.511,0,0,1,.28-.353,2.816,2.816,0,0,1,1.528.047l.578.12.257-.9-.377-.152c-.07-.029-.228-.079-.467-.149-.266-.076-.467-.128-.6-.155s-.272-.061-.447-.111a.909.909,0,0,1-.383-.184.535.535,0,0,1-.131-.321.655.655,0,0,1,.018-.219.56.56,0,0,1,.575-.391,4.091,4.091,0,0,1,1.06.213,6.05,6.05,0,0,1,1.7.648l.023.021a.622.622,0,0,1,.245.4,13.487,13.487,0,0,1-.564,2.562,1.036,1.036,0,0,1-.044.21l-.067.234q-.521,1.945-.549,2.042a2.111,2.111,0,0,1-.374.9,1.087,1.087,0,0,1-.926.1c-.018-.006-.047-.015-.082-.029a1,1,0,0,0-.1-.035,1.943,1.943,0,0,0-.3-.1,4.341,4.341,0,0,0-.634-.134Z" transform="translate(-117.834 -334.3)" fill="#114048"/>
        <path id="Path_20538" data-name="Path 20538" d="M138.069,471.607a1.942,1.942,0,0,1-.745-.2,4.331,4.331,0,0,1-1.808-1.4,2.909,2.909,0,0,1-.6-1.56,3.543,3.543,0,0,1,.3-1.735,4.463,4.463,0,0,1,.6-.978,3.567,3.567,0,0,1,1.265-1.075,3.11,3.11,0,0,1,1.566-.175,5.27,5.27,0,0,1,1.586.356c.362.158.535.321.523.494a15.289,15.289,0,0,1-.608,1.586,24.9,24.9,0,0,0-1.195,3.73,4.233,4.233,0,0,1-.175.584.573.573,0,0,1-.251.307A1.052,1.052,0,0,1,138.069,471.607Zm-1.463-2.156a3.182,3.182,0,0,0,.8.689l.406.222.047-.216q.149-.705.561-2c.275-.865.5-1.5.681-1.916l.2-.461-.242-.058a2.831,2.831,0,0,0-1.276,0,1.866,1.866,0,0,0-.914.608,3.735,3.735,0,0,0-.59.967,2.026,2.026,0,0,0-.184.643,2.212,2.212,0,0,0,.514,1.525Z" transform="translate(-95.518 -328.804)" fill="#114048"/>
      </g>
    </g>
  </g>
</svg>
