<svg xmlns="http://www.w3.org/2000/svg" width="206" height="36.143" viewBox="0 0 206 36.143">
  <g id="Layer_1" data-name="Layer 1" transform="translate(0.01)">
    <g id="Group_3192" data-name="Group 3192" transform="translate(-0.01)">
      <path id="Path_12960" data-name="Path 12960" d="M7.154,11.53c0,.709.084,1,.249,1a.567.567,0,0,0,.417-.249c.333-.333,1.623-1.455,2.083-1.831a6.512,6.512,0,0,1,4-1.166c2.584,0,3.831.749,5.37,3.081a.544.544,0,0,0,.333.292q.168,0,1.042-.874a8.482,8.482,0,0,1,5.786-2.5,6.591,6.591,0,0,1,4.5,1.626c1.126,1,1.5,2.08,1.5,4.288V25.4c0,2.749.165,3,1.915,3.249,1,.124,1.334.333,1.334.749,0,.376-.208.541-.79.541q-.292,0-1.623-.084c-1-.084-2.332-.124-2.957-.124-.914,0-1.667.044-3.871.165a3.861,3.861,0,0,1-.665.044c-.5,0-.749-.165-.749-.541,0-.417.292-.581,1.331-.749,1.791-.252,1.915-.5,1.915-3.249V16.073a4.661,4.661,0,0,0-.749-3.081A3.887,3.887,0,0,0,24.4,11.745a5.034,5.034,0,0,0-3.874,1.667c-.5.625-.581,1.042-.581,2.416V25.4c0,2.749.165,3,1.915,3.249,1,.124,1.331.333,1.331.749,0,.376-.208.541-.79.541q-.292,0-1.623-.084c-.958-.084-2.292-.124-2.873-.124-.958,0-1.707.044-3.955.165a3.861,3.861,0,0,1-.665.044c-.5,0-.749-.165-.749-.541,0-.417.292-.581,1.331-.749,1.791-.252,1.915-.5,1.915-3.249V17.37a9.082,9.082,0,0,0-.541-3.79,3.594,3.594,0,0,0-3.414-1.71,5.327,5.327,0,0,0-3.249,1.042c-.917.749-1.166,1.418-1.166,3.165V25.4c0,2.749.168,3,1.915,3.249,1,.124,1.334.333,1.334.749,0,.376-.208.541-.749.541q-.292,0-1.667-.084c-1.126-.04-2.208-.084-2.917-.084-.917,0-1.206,0-3.915.124a4.58,4.58,0,0,1-.709.044c-.457,0-.709-.165-.709-.541,0-.417.292-.581,1.331-.749,1.791-.252,1.915-.5,1.915-3.249V16.49c0-1.542-.208-2.292-.709-2.624a4.471,4.471,0,0,0-1.458-.249c-.417-.04-.625-.249-.625-.541,0-.46.04-.46,1.623-.958A8.022,8.022,0,0,0,5.981,9.245c.249-.457.5-.625.749-.625.373,0,.417.124.417,1.082v1.831Z" transform="translate(0.01 -5.723)" fill="#E9912F"/>
      <path id="Path_12961" data-name="Path 12961" d="M228.5,14.72c0-2.319-.6-3.4-1.878-3.4s-2.359.921-3.118,2.722c-.6,1.4-.921,1.8-1.841,2.238a10.161,10.161,0,0,1-3.559.921c-.8,0-1.317-.4-1.317-1.042,0-.917,1.2-2.718,2.561-3.8a13.494,13.494,0,0,1,8.236-2.6A10.8,10.8,0,0,1,233.138,11a3.467,3.467,0,0,1,1.479,3.2V24.757c0,1.6.279,2.238,1.038,2.238a4.511,4.511,0,0,0,1.6-.8.659.659,0,0,1,.44-.158.622.622,0,0,1,.6.638c0,.44-.4,1-1.119,1.64a7.26,7.26,0,0,1-4.718,2.04,3.253,3.253,0,0,1-2.52-1.038,14.078,14.078,0,0,1-1.038-1.841c-.081-.2-.2-.279-.319-.279a.528.528,0,0,0-.279.121,13.928,13.928,0,0,1-3.441,2.48,8.8,8.8,0,0,1-3.72.917,4.219,4.219,0,0,1-4.439-4.358c0-2,1.119-3.639,3.239-4.8,1.358-.759,1.559-.84,7.077-3.441q1.478-.679,1.479-1.119V14.72Zm0,5.279c0-.36-.121-.561-.319-.561a9.332,9.332,0,0,0-2.359,1.2c-2.44,1.479-3.159,2.359-3.159,3.918a2.307,2.307,0,0,0,2.278,2.557,4,4,0,0,0,2.917-1.4,5.05,5.05,0,0,0,.642-3V20Z" transform="translate(-143.88 -6.48)" fill="#E9912F"/>
      <path id="Path_12962" data-name="Path 12962" d="M387.8,17.527c0-2.278-.4-2.839-2.161-2.96-.759-.04-1.079-.239-1.079-.679,0-.561.081-.6,2.161-1.24a19.307,19.307,0,0,0,5.239-3.118c.8-.638,1.119-.84,1.479-.84s.521.239.521.719v2.8c0,.44.077.679.2.679a8.7,8.7,0,0,0,.8-.8,7.592,7.592,0,0,1,5-2.48,3.518,3.518,0,0,1,3.757,3.239,3.554,3.554,0,0,1-6.438,2c-.719-.84-1-1.038-1.358-1.038-.481,0-1,.517-1.28,1.24a11.228,11.228,0,0,0-.4,4.039v5.319c0,2.12.04,2.359.477,2.88a4.363,4.363,0,0,0,2,.759c.682.158,1,.44,1,.88,0,.561-.4.84-1.321.84q-.158,0-2.157-.081c-1.361-.04-2.4-.081-3.159-.081-.8,0-3.478.081-4.677.121a7.456,7.456,0,0,1-.84.04c-.8,0-1.24-.279-1.24-.8,0-.481.319-.759,1-.921,1.559-.319,1.64-.36,2-.759.44-.521.481-.759.481-2.88V17.527Z" transform="translate(-255.175 -5.77)" fill="#E9912F"/>
      <path id="Path_12963" data-name="Path 12963" d="M456.058,14.72c0-2.319-.6-3.4-1.878-3.4s-2.359.921-3.118,2.722c-.6,1.4-.921,1.8-1.841,2.238a10.161,10.161,0,0,1-3.559.921c-.8,0-1.317-.4-1.317-1.042,0-.917,1.2-2.718,2.561-3.8a13.494,13.494,0,0,1,8.236-2.6A10.8,10.8,0,0,1,460.7,11a3.46,3.46,0,0,1,1.479,3.2V24.757c0,1.6.279,2.238,1.038,2.238a4.512,4.512,0,0,0,1.6-.8.659.659,0,0,1,.44-.158.622.622,0,0,1,.6.638c0,.44-.4,1-1.119,1.64a7.26,7.26,0,0,1-4.718,2.04,3.258,3.258,0,0,1-2.52-1.038,14.084,14.084,0,0,1-1.038-1.841c-.081-.2-.2-.279-.319-.279a.528.528,0,0,0-.279.121,13.929,13.929,0,0,1-3.441,2.48,8.8,8.8,0,0,1-3.72.917,4.219,4.219,0,0,1-4.439-4.358c0-2,1.119-3.639,3.239-4.8,1.361-.759,1.559-.84,7.077-3.441q1.479-.679,1.479-1.119V14.72Zm0,5.279c0-.36-.121-.561-.319-.561a9.333,9.333,0,0,0-2.359,1.2c-2.44,1.479-3.159,2.359-3.159,3.918a2.309,2.309,0,0,0,2.278,2.557,4,4,0,0,0,2.917-1.4,5.05,5.05,0,0,0,.642-3V20Z" transform="translate(-294.974 -6.48)" fill="#E9912F"/>
      <path id="Path_12964" data-name="Path 12964" d="M510.623,24.723a.879.879,0,0,1,.88-1c.44,0,.8.319,1.2,1,1.519,2.8,1.6,2.92,2.359,3.478a5.156,5.156,0,0,0,3.4,1.042c2.4,0,4.16-1.24,4.16-2.92,0-1.4-1.038-2.319-3.478-3.159a23.463,23.463,0,0,1-5.638-2.278,5.427,5.427,0,0,1-2.88-4.56c0-3.6,3.878-6.556,8.6-6.556a27.234,27.234,0,0,1,6.64,1c.4.2.521.561.521,1.479a19.862,19.862,0,0,1-.2,2.319c-.121.481-.36.719-.719.719-.481,0-.961-.36-1.519-1.079a11.22,11.22,0,0,0-2.12-2.4,4.12,4.12,0,0,0-2.359-.561c-2.08,0-3.441.961-3.441,2.359a1.8,1.8,0,0,0,.481,1.2q.8.759,5.518,2.2c3.68,1.159,5.6,3.239,5.6,6.079a7.209,7.209,0,0,1-3.4,5.958,11.845,11.845,0,0,1-6.519,1.68c-2.759,0-5.437-.679-6.636-1.68a1.656,1.656,0,0,1-.561-1.358l.121-2.96Z" transform="translate(-338.955 -6.487)" fill="#E9912F"/>
      <path id="Path_12965" data-name="Path 12965" d="M562.223,24.723a.879.879,0,0,1,.88-1c.44,0,.8.319,1.2,1,1.519,2.8,1.6,2.92,2.359,3.478a5.155,5.155,0,0,0,3.4,1.042c2.4,0,4.16-1.24,4.16-2.92,0-1.4-1.038-2.319-3.478-3.159a23.463,23.463,0,0,1-5.638-2.278,5.427,5.427,0,0,1-2.88-4.56c0-3.6,3.878-6.556,8.6-6.556a27.23,27.23,0,0,1,6.637,1c.4.2.521.561.521,1.479a19.118,19.118,0,0,1-.2,2.319c-.121.481-.36.719-.719.719-.481,0-.961-.36-1.519-1.079a11.22,11.22,0,0,0-2.12-2.4,4.12,4.12,0,0,0-2.359-.561c-2.08,0-3.438.961-3.438,2.359a1.8,1.8,0,0,0,.477,1.2q.8.759,5.518,2.2c3.68,1.159,5.6,3.239,5.6,6.079a7.205,7.205,0,0,1-3.4,5.958,11.845,11.845,0,0,1-6.519,1.68c-2.759,0-5.437-.679-6.636-1.68a1.656,1.656,0,0,1-.561-1.358Z" transform="translate(-373.216 -6.487)" fill="#E9912F"/>
      <path id="Path_12966" data-name="Path 12966" d="M174.346,27.146c0,.521-.44,1.119-1.28,1.761a11.909,11.909,0,0,1-7.319,2.278c-6.519,0-11.277-4.439-11.277-10.437a9.425,9.425,0,0,1,4.758-8.159,15.384,15.384,0,0,1,8.155-2.359,13.078,13.078,0,0,1,3.044.366,8.267,8.267,0,0,1,2.03.649c1.922,1.045,1.667,3.727.726,5.343a1.243,1.243,0,0,1-1.119.719c-1.072,0-.894-3.263-1.344-4.1a3.189,3.189,0,0,0-3.394-1.526,5.865,5.865,0,0,0-4.3,2.305,8.363,8.363,0,0,0-1.68,5.319,10.171,10.171,0,0,0,2.678,6.757,6.764,6.764,0,0,0,5.037,2.12,6.056,6.056,0,0,0,4-1.321,1.4,1.4,0,0,1,.759-.319.577.577,0,0,1,.521.6" transform="translate(-102.561 -6.792)" fill="#E9912F"/>
      <path id="Path_12967" data-name="Path 12967" d="M119.139,10.791c0,.44-.124.484-1.573.689-1.132.161-1.69,1.341-2.05,2.288-1.519,3.982-3.249,7.843-5.02,11.721-.864,1.892-1.663,3.814-2.487,5.723s-1.468,3.679-3.071,5.071a5.718,5.718,0,0,1-1.65,1.065,4.034,4.034,0,0,1-.951.242,3.888,3.888,0,0,1-1.324-.057,2.276,2.276,0,0,1-1.159-.6,2.06,2.06,0,0,1-.467-2.026,2.14,2.14,0,0,1,1.546-1.418,2.33,2.33,0,0,1,2.04.494c.457.383.79,1.22,1.526.89.84-.376,1.3-1.852,1.636-2.614a15.6,15.6,0,0,0,.806-2.184,4.516,4.516,0,0,0-.511-2.48.439.439,0,0,0-.027-.071L100.9,14.03c-1.008-2.315-1.243-2.51-3.007-2.675-.44-.04-.675-.192-.675-.565,0-.4.276-.551,1.116-.551l1.048.04c1.391.111,2.95.151,4.11.151.964,0,1.559,0,2.2-.04a14.345,14.345,0,0,1,1.6-.067c.44,0,.719.192.719.551,0,.524-.084.565-1.764.716-.675.084-1.116.484-1.116,1.008a4.769,4.769,0,0,0,.4,1.435l3.175,7.846a.914.914,0,0,0,1.687.017l3.021-7.063a5.923,5.923,0,0,0,.551-2.11c0-.759-.551-1.2-1.559-1.24-1.284-.044-1.515-.165-1.515-.608,0-.356.276-.551.759-.551a7.154,7.154,0,0,1,.8.04c.4.027,1.284.027,2.275.027,1.28,0,2.04,0,2.524-.027.521-.04.964-.084,1.2-.084.4,0,.689.192.689.511" transform="translate(-64.548 -6.799)" fill="#E9912F"/>
      <path id="Path_12968" data-name="Path 12968" d="M326.452,14.42c.024.346.034.692.067,1.035a7.672,7.672,0,0,0,.7,2.594,4.873,4.873,0,0,0,1.4,1.771,3.647,3.647,0,0,0,1.663.733,3.581,3.581,0,0,0,1.415-.024,3.426,3.426,0,0,0,1.972-1.324,5.556,5.556,0,0,0,.86-1.663,8.93,8.93,0,0,0,.444-2.853c0-.481-.02-.961-.064-1.438a8,8,0,0,0-.659-2.564,4.81,4.81,0,0,0-1.381-1.858,3.232,3.232,0,0,0-2.812-.635,3.721,3.721,0,0,0-2.1,1.341,5.929,5.929,0,0,0-1,1.8,9.493,9.493,0,0,0-.511,3.078m-.917,7.991a.707.707,0,0,1-.067-.04,10.071,10.071,0,0,1-1.334-1.26,13.514,13.514,0,0,1-1.25-1.552,7.794,7.794,0,0,1-1.206-2.675,6.525,6.525,0,0,1-.134-1.331,10.252,10.252,0,0,1,.353-2.786,7.287,7.287,0,0,1,.265-.729,2.557,2.557,0,0,0,.239-.927,3.46,3.46,0,0,0-.158-.924c-.249-.847-.5-1.69-.726-2.54a6.945,6.945,0,0,1-.215-1.683,2.655,2.655,0,0,1,.2-1.045A.6.6,0,0,1,322,4.48a1.022,1.022,0,0,1,.39.037c.373.111.746.232,1.112.366s.753.286,1.126.444q.857.373,1.707.766c.373.171.743.349,1.112.528a3.308,3.308,0,0,0,1.31.339c.528.027,1.058.027,1.589.034.692.007,1.381-.007,2.073,0a5.685,5.685,0,0,0,2.611-.625c.981-.491,1.976-.951,3-1.344a9.053,9.053,0,0,1,1.593-.45.843.843,0,0,1,1.042.628,2.614,2.614,0,0,1,.04,1.129c-.02.155-.034.309-.064.46-.084.4-.168.793-.269,1.186-.067.259-.158.507-.239.763-.134.433-.269.874-.4,1.307-.077.252-.158.5-.242.753a.816.816,0,0,0,.03.628A12,12,0,0,1,340.2,13.3a7.273,7.273,0,0,1,.2,2.91,7.667,7.667,0,0,1-.759,2.339,11.145,11.145,0,0,1-1.512,2.231,9.491,9.491,0,0,1-2.03,1.8,9.987,9.987,0,0,1-5.212,1.5,10.468,10.468,0,0,1-3.444-.726.889.889,0,0,0-.884.128.505.505,0,0,0-.161.565,1.387,1.387,0,0,0,.386.655,3.942,3.942,0,0,0,1.855,1.032,7.363,7.363,0,0,0,1.462.2c.521.027,1.038.081,1.556.121.222.017.444.03.665.044a24.38,24.38,0,0,1,3.528.393,8.319,8.319,0,0,1,3.1,1.243,5.7,5.7,0,0,1,2,2.305,4.158,4.158,0,0,1,.39,1.468,4.6,4.6,0,0,1-.561,2.527,6.881,6.881,0,0,1-1.593,1.979,11.662,11.662,0,0,1-3.858,2.174,15.968,15.968,0,0,1-3.451.79,22.312,22.312,0,0,1-3.639.111,18.121,18.121,0,0,1-2.332-.252,10.186,10.186,0,0,1-3.219-1.072,5.035,5.035,0,0,1-1.946-1.818,3.838,3.838,0,0,1-.595-2.067,4.851,4.851,0,0,1,.927-2.913,7.235,7.235,0,0,1,1.569-1.616,2.251,2.251,0,0,1,.817-.4.642.642,0,0,1,.373.027.326.326,0,0,1,.212.339.894.894,0,0,1-.265.531,2.37,2.37,0,0,0-.679,1.808,2.192,2.192,0,0,0,1.626,2.093,10.582,10.582,0,0,0,1.431.349c.632.087,1.26.171,1.892.242a18.622,18.622,0,0,0,2.45.1,14.52,14.52,0,0,0,3.569-.464,4.718,4.718,0,0,0,1.489-.652,1.461,1.461,0,0,0,.444-.464.823.823,0,0,0,.087-.5,1.459,1.459,0,0,0-.823-1.142,3.617,3.617,0,0,0-1.8-.413c-.564,0-1.132,0-1.7-.034-.786-.05-1.573-.114-2.356-.215a11.628,11.628,0,0,1-4.432-1.4,7.242,7.242,0,0,1-1.331-.968,3.5,3.5,0,0,1-1.052-1.653,2.576,2.576,0,0,1,.245-1.986A4.136,4.136,0,0,1,324.379,23a6.067,6.067,0,0,1,1.1-.534.4.4,0,0,0,.054-.027.187.187,0,0,1,.017-.027" transform="translate(-212.567 -2.971)" fill="#E9912F"/>
      <path id="Path_12969" data-name="Path 12969" d="M290.952,19.876a.789.789,0,0,0-.48.158c-1.438.921-1.838,1.079-2.4,1.079a1.651,1.651,0,0,1-1-.4c-.84-.759-1.079-1.838-1.079-4.839v-6.5a1.229,1.229,0,0,1,.864-.2H289.7c.719,0,.921-.242.921-1.159,0-.759-.158-.88-1-.88H286.5c-.652,0-.921-.269-.985-.978V5.733c-.01-.148-.02-.306-.02-.484v-4c0-.917-.2-1.253-.8-1.253-.561,0-.88.336-1.519,1.687a11.8,11.8,0,0,1-5.719,5.635c-.958.481-1.358.867-1.358,1.3,0,.481.4.722,1.119.722h2.339V18.4c0,3.958,1.8,6.038,5.158,6.038a8.337,8.337,0,0,0,5.756-2.4,2.963,2.963,0,0,0,1-1.519.59.59,0,0,0-.521-.638" transform="translate(-183.32 0)" fill="#E9912F"/>
    </g>
  </g>
</svg>
