<svg xmlns="http://www.w3.org/2000/svg" xmlns:xlink="http://www.w3.org/1999/xlink" width="237.432" height="237.431" viewBox="0 0 237.432 237.431">
  <defs>
    <clipPath id="clip-path">
      <rect id="Rectangle_1234" data-name="Rectangle 1234" width="237.432" height="237.43" fill="#fff"/>
    </clipPath>
  </defs>
  <g id="Group_3288" data-name="Group 3288" transform="translate(-357.695 -114.173)">
    <g id="Group_3203" data-name="Group 3203" transform="translate(357.695 114.173)">
      <g id="Group_3202" data-name="Group 3202" clip-path="url(#clip-path)">
        <path id="Path_13504" data-name="Path 13504" d="M421.232,219.3l-.135-.172c-1.066-.561-2.714.222-3.418-1.151-.13-.254-.217-.524-.468-1.159,1.434.307,2.6.463,3.688.82.884.293.472.952.2,1.484l.135.172Zm27.352-6.651c.612-.084,1.23-.162,2.04-.27-.17.362-.226.687-.352.711-.569.106-1.164.125-1.749.175l.056-.617Zm-18.6,15.483a75.716,75.716,0,0,0,12.39-.376,54.1,54.1,0,0,0,11.753-2.685,40.277,40.277,0,0,0,12.427-6.813c-1.68-.886-1.633-2.283-2.325-3.4-1.154.008-2.3.083-3.358-.01-1.146-.1-1.048-.677-.542-1.2a5.907,5.907,0,0,1,1.471-.056c-.056-.46.18-1.2-.227-1.317a26.875,26.875,0,0,0-4.485-.863,17.425,17.425,0,0,0-3.058.227c-.32-.762-.551-1.476-.807-2.143a19.541,19.541,0,0,1-3.39,1.252c-.613.172-1.225.32-1.841.455-.182.3-.344.566-.505.836l-.738.519-.293-.831-.2-.175q-1.246.222-2.5.376a2.219,2.219,0,0,1-2.241.226.133.133,0,0,1-.042-.008c-.524.042-1.053.074-1.582.1.293.937,1.963,1.654-.019,2.7-1.127-.82-2.2-1.712-3.334-2.606-1.1,0-2.194-.01-3.289-.061-1.2.574-1.767.315-2.167-.14-.585-.045-1.169-.1-1.749-.162-1.826-.2-3.646-.445-5.469-.7-.125.185-.249.371-.352.556l1.981,1.077-.1.278a4.314,4.314,0,0,0-1.36-.027c-.4.125-.937.492-.964.773s.426.793.788.883a11.585,11.585,0,0,0,2.313.051l-.992,1.058h0c1.275.8,1.981-.441,3.108-.64v-1.606c.987-.635,1.693-.162,2.413.251a1.916,1.916,0,0,0,2.527-.121l.088.6c-.222.33-.352.767-.691.96a6.058,6.058,0,0,1-2.17.891,2.114,2.114,0,0,0-2.172,2.226l-1.363-1.164c-.635.794-1.235,1.545-1.809,2.264-1.326-.233-1.419-.886-1.043-1.675.323-.677.736-1.328,1.109-1.985l-2.487-.024c-.807-.014-1.582-.019-2.365.042-2.589.2-3.381-.32-3.664-2.706a3.485,3.485,0,0,0-1.531-.17,1.457,1.457,0,0,0-1.09.945c-.032.066-.069.13-.106.2a.993.993,0,0,0-.088.2,3.686,3.686,0,0,1-2.436,2.524,4.207,4.207,0,0,0,.172.746,3.37,3.37,0,0,0,.455.613c-.65.829-1.3,1.659-1.87,2.392-.974-.871-1.823-1.632-2.675-2.4l-.227.371c.167.283.357.558.537.836a4.325,4.325,0,0,1,.455.863,1.3,1.3,0,0,1-.26,1.169,20.553,20.553,0,0,0,3.061,2.082,34.851,34.851,0,0,0,10.964,3.649,61,61,0,0,0,7.947.864Z" transform="translate(-323.749 -48.901)" fill="#fff"/>
        <path id="Path_13505" data-name="Path 13505" d="M443.507,214.49c.463-.441.913-.891,1.344-1.36-.6.158-1.2.317-1.813.473.158.3.315.595.468.886" transform="translate(-299.257 -46.413)" fill="#fff"/>
        <path id="Path_13506" data-name="Path 13506" d="M406.191,215.064a15.792,15.792,0,0,0,1.791,1.981c-.539-1.267-1.114-1.9-1.791-1.981" transform="translate(-324.488 -45.089)" fill="#fff"/>
        <path id="Path_13507" data-name="Path 13507" d="M445.662,211.172l.241.106c.163-.278.344-.548.5-.834.042-.074.074-.153.111-.233a3.275,3.275,0,0,0-.849.955Z" transform="translate(-297.46 -48.411)" fill="#fff"/>
        <path id="Path_13508" data-name="Path 13508" d="M439.526,156.341c-.061-1.6-.1-1.558-2.018-2.955-.008-.037,0-.061-.008-.1-.5.232-1,.46-1.5.7a1.193,1.193,0,0,0,.384.571c1.011.849,2.069,2.222,3.135,1.781Z" transform="translate(-304.075 -87.389)" fill="#fff"/>
        <path id="Path_13509" data-name="Path 13509" d="M435.953,153.867c-.236.111-.468.227-.7.344.344.264.691.529,1.039.783a2.621,2.621,0,0,0-.339-1.127" transform="translate(-304.589 -86.993)" fill="#fff"/>
        <path id="Path_13510" data-name="Path 13510" d="M434.265,155.915c.78.14,1.535.088,2.328.2a3.584,3.584,0,0,1,1.3.669,13.322,13.322,0,0,1,1.132,1.043c.773-.482.514-1.257-.251-2.082a9.944,9.944,0,0,0-1.307-1.026c-.024,1.174-.785.558-1.309.071a2.41,2.41,0,0,1-.408-.524c-.209.1-.418.2-.622.3-.524.259-1.053.492-1.587.711C433.791,155.544,434.05,155.873,434.265,155.915Z" transform="translate(-305.761 -86.718)" fill="#fff"/>
        <path id="Path_13511" data-name="Path 13511" d="M444.7,150.8a3.574,3.574,0,0,0-.844.061c-.074.013-.148.032-.222.045.283.177.566.354.849.539C444.578,151.176,444.652,150.972,444.7,150.8Z" transform="translate(-298.85 -89.098)" fill="#fff"/>
        <path id="Path_13512" data-name="Path 13512" d="M441.654,151.518c-.344.116-.686.238-1.024.367l-.209.084a1.1,1.1,0,0,0,1.233-.451" transform="translate(-301.049 -88.601)" fill="#fff"/>
        <path id="Path_13513" data-name="Path 13513" d="M416.769,217.11a.258.258,0,0,1,.167-.083.122.122,0,0,1,.074.032,3,3,0,0,1,.214.251,2.867,2.867,0,0,1-.265.212.177.177,0,0,1-.084.024c-.051,0-.1-.051-.148-.106s-.093-.13-.135-.182c.056-.04.111-.1.172-.153Zm-7.519,7.371.227-.371a3.311,3.311,0,0,0,.458-3.048c-.593-1.762,1-2.908,2.83-2.3l3.26,1.071a1.438,1.438,0,0,1,1.09-.947,3.438,3.438,0,0,1,1.531.172l1.08-.008,1.55-1.762.682-.96c-.655-.182-1.309-.372-1.963-.561a7.459,7.459,0,0,1-5.543-7.125,7.932,7.932,0,0,1,1.661-5.371c-.052-.052-.1-.093-.148-.148-.733.278-1.415.537-2.288.866-.371-1.038-.718-2-1.071-2.987a25.686,25.686,0,0,0-5.056,5.278A16.409,16.409,0,0,0,404.4,216.2c0,.162.005.32.01.482.143-.064.283-.13.426-.194-.045-.91-.088-1.759-.135-2.608l.576-.175c.7,1.169,1.395,2.337,2.1,3.511,1.387-2.643,1.577-2.728,4.345-1.707-.157,1.252-1.279.942-2.236,1.149.659,1.37-.352,1.963-1.289,2.552-1.958-1.355-2.527-1.74-3.636-.918a12.356,12.356,0,0,0,.561,2.162,4.236,4.236,0,0,0,.95-.436c1.346,1.373,1.267,3.6,3.188,4.448Z" transform="translate(-325.716 -54.715)" fill="#fff"/>
        <path id="Path_13514" data-name="Path 13514" d="M449.574,210.277h0c-.013-.064-.064-.138-.024-.19s.177-.077.27-.115l-.241.31Zm-9-3.887c-.3.069-.6.126-.913.167a3.7,3.7,0,0,1-2.2-.366,3.661,3.661,0,0,0-3.344-.524c.563-.8,1.127-1.606,1.764-2.519,1.127.379,2.236.8,3.39,1.109a3.578,3.578,0,0,0,1.452-.01,5.785,5.785,0,0,1,1.452-.153c.31.042.487.206.672.563a10.5,10.5,0,0,1,.418.987c-.91.254-1.8.542-2.7.746Zm-7.241-6c-.05-.034-.125-.056-.152-.1s.019-.089.027-.135h.185Zm-7.273-1.8c-.189-.2-.379-.408-.551-.625a1.32,1.32,0,0,1,.2-.167c.032-.024.066-.052.093-.071l.553.645-.3.222Zm-2.945,7.77q-2.009-1.178-1.892-2.662l1.548.659c.283-.418.548-.807.859-1.262.157.162.445.339.413.44-.264.918-.59,1.823-.933,2.825Zm32.246,5.315c-.288,1.405,1.7,1.9,3.617,2.413a28.188,28.188,0,0,0,6.82-.65c-1.277-1.085-1.258-1.038-4.291-.241.2-.645.366-1.188.538-1.73.59-.246,1.174-.51,1.754-.77-.58.259-1.164.524-1.754.77.59-.246,1.174-.51,1.754-.77,1.508-1.646,1.355.069,1.995.19.662.051,1.331.116,1.995.153a2.657,2.657,0,0,1,.487-.352,2.933,2.933,0,0,1,.955-.367,5.671,5.671,0,0,1,1.572-.046,14.769,14.769,0,0,0-.654-1.833.63.63,0,0,1-.177-.426.136.136,0,0,0-.013-.037c-.167-.357-.347-.706-.537-1.048-.859-.135-1.322-.46-.756-1.272a18.742,18.742,0,0,0-2.561-3.1,1.121,1.121,0,0,1-.342.325,4.874,4.874,0,0,1-2.01.222.51.51,0,0,1-.408-.278c-.366-1.73-2.055-1.786-4.424-1.238.315-1.262.58-2.365.807-3.395a31.62,31.62,0,0,0-7.135-2.291,82.775,82.775,0,0,0-11.613-1.314c0,.7.138,1.388.175,1.968-1.961.463-3.9.913-5.831,1.368-.783.283-.844-1.521-2.175-.325.219.312.465.654.785,1.109-.822.5-1.648.992-2.7,1.624-.45-1.558-.831-2.867-1.2-4.138-1.41.1-2.723.2-4.026.288-.59-2.876-1.35-2.338-4.958-2.524.088.5.172.95.264,1.471,1.1.19,2.3-.849,3.215.458-.232.886-.256,1.953-1.894,1.949-.315,0-.733.519-.927.876a17.342,17.342,0,0,0-.8,2.082c-.455-.157-.9-.32-1.349-.477s-.891-.307-1.331-.441c-.222-.066-.445-.13-.669-.185a10,10,0,0,0-2.045-.325l-1.233.4.2.58c.214.259.428.516.947,1.151a3.115,3.115,0,0,0-3.321,1.141c.468.381.96.738,1.456,1.082a3.9,3.9,0,0,1,.553-.989c.175-.222,1.053.032,1.461.061-.246.746-.436,1.317-.608,1.841.19.116.376.236.566.347a34.7,34.7,0,0,0,7.719,3.267c.561-1.823,2.151-3.066,4.336-4.212.352.588.7,1.169,1.112,1.855a5.439,5.439,0,0,1,5.112,1.688c-1.363.349-2.424.617-4.062,1.029a10.47,10.47,0,0,1,3.006,1.4c.654.069,1.313.13,1.966.19.143-.158.288-.315.431-.468a1.123,1.123,0,0,1,1.823-.034c-.19.219-.365.431-.553.64q1.107.083,2.214.158c1.238.079,2.477.1,3.72.111a1.055,1.055,0,0,1,.074-.093.962.962,0,0,1,.5-.344.925.925,0,0,1,.746.093.852.852,0,0,1,.28.33l.008.024h.455a13.648,13.648,0,0,1,4.535.691l3.061.212c1.09.071,2.172.13,3.326.172Z" transform="translate(-320.431 -59.543)" fill="#fff"/>
        <path id="Path_13515" data-name="Path 13515" d="M443.38,198.308c-.167-.13-.339-.254-.505-.386-.042.015-.079.029-.116.039.241.13.445.244.627.342Z" transform="translate(-299.449 -56.827)" fill="#fff"/>
        <path id="Path_13516" data-name="Path 13516" d="M436.315,187.2c.106.167.222.339.328.505.076-.045.15-.088.219-.135.4-.264.783-.548,1.169-.831C437.619,186.6,437.191,186.787,436.315,187.2Z" transform="translate(-303.861 -64.513)" fill="#fff"/>
        <path id="Path_13517" data-name="Path 13517" d="M425.477,183.463a12.687,12.687,0,0,1-1.151.844c-.932.571-1.382.339-2.834-.58-.371-.236-.783-.4-1.174-.608l-1.08-.58c.723-.63,1.4-1.215,2.077-1.8.561-.477,1.132-.96,1.953-.551,1.053.51.264,1.243.2,2.054a2.407,2.407,0,0,1,1.029.018,1.3,1.3,0,0,1,.524.283,1.248,1.248,0,0,1,.2.238,1.876,1.876,0,0,1,.256.681Zm23.743,11.9.27-.376c-.468-.315-.878-.844-1.4-.918-2.188-.32-3.344-1.378-3.627-3.172-.069-.45-.5-.854-.834-1.415a1.784,1.784,0,0,1,2.156.9,2.3,2.3,0,0,0,2.945.989c1.082-.394,1.058-.9.023-1.346-1.888-.214-1.985-.315-2.249-2.212.677.106,1.28.2,1.882.3.47-.556.933-1.117,1.462-1.786a6.309,6.309,0,0,1-1.151-1.646,2.494,2.494,0,0,1-.013-1.995c-.1-.148-.209-.3-.317-.455s-.222-.32-.347-.5c-.547.231-1.085.453-1.707.718-.219-.291-.529-.524-.521-.741.042-.849.182-1.688.3-2.844.756.19,1.444.371,2.13.524-.121-.315-.177-.852-.366-.908-1.068-.293-1.243-1.206-1.629-1.968l-.992-.315a16.588,16.588,0,0,1-2.551,4.9,11.262,11.262,0,0,1-3.669,3.15,3.943,3.943,0,0,0,2.867,2.18c.074.858-.219,1.484-1.336,1.2a2.661,2.661,0,0,1-1.238-.524c-.566-.595-.947-1.183-2.032-.854-.312.1-.9-.627-1.388-.987l.034-.029a11.117,11.117,0,0,1-3.5-.064,11,11,0,0,1-4.55-1.884c-.254,0-.514.008-.81.014.074-.2.115-.362.157-.5a14.76,14.76,0,0,1-4.082-5.214c-.083-.18-.148-.371-.231-.551h-.079c-.529.788-.836,1.168-1.252,1.284a3.134,3.134,0,0,1-1.634-.254l-.445-1.151a6.539,6.539,0,0,1-.728-.352,1.779,1.779,0,0,0-.241-.093.864.864,0,0,0-.241-.037c-.243,0-.484.13-.719.514.788.812,1.577,1.629,2.509,2.589-2.472.315-1.53,3.107-3.311,4.239l-.942-1.341-1.407.019-.222.431c1.447,1.425,2.9,2.844,4.481,4.315.542-.672.895-1.114,1.405-1.744,1.568.987,3.09,1.98,4.736,2.953.505-.458.984-.895,1.643-1.5.328.751.625,1.429.95,2.167,1.568-.037,1.619-1.545,2.323-2.273.947.681,1.833,1.294,2.738,1.878-2.18-.334-3.54.746-5.037,2.17q.993.814,1.966,1.606a1.85,1.85,0,0,0,1.317-2.63c1.387.148,2.579.222,3.915.334-.089,1.442.691,1.99,2.077,2.069a11.375,11.375,0,0,1,2.106.492c1.053,1.429.2,2.81-.005,4.485,1.077-.473,1.852-.854,2.6-1.206a4.419,4.419,0,0,1,1.066-.376,2.98,2.98,0,0,1,1.045-.037,2.653,2.653,0,0,1,1.72,1.058c.3.366.608.733.9,1.1.891-.334,1.767-.714,2.625-1.132a19.344,19.344,0,0,1-2.2-1.183c1.085,0,1.87-.04,2.662-.059Z" transform="translate(-319.01 -71.704)" fill="#fff"/>
        <path id="Path_13518" data-name="Path 13518" d="M411.875,200.141s-.042-.013-.066-.019c.251.315.507.617.77.895a1.087,1.087,0,0,0-.7-.876" transform="translate(-320.641 -55.32)" fill="#fff"/>
        <path id="Path_13519" data-name="Path 13519" d="M440.074,207.367c-.937-.714-1.87-1.429-2.937-2.286-.384.227-.775.445-1.178.667a4.535,4.535,0,0,1,1.1,2.532,2.706,2.706,0,0,1-.293,1.7c0,.008-.008.013-.013.024a7.97,7.97,0,0,1,2.129.352c.435-1.09.81-2.027,1.2-2.987Z" transform="translate(-304.104 -51.925)" fill="#fff"/>
        <path id="Path_13520" data-name="Path 13520" d="M414.985,213.368c-.561.46-.965.788-1.563,1.275-.649-1.061-1.225-2-1.8-2.94l.384-.487a6.657,6.657,0,0,0,2.913,1.619,5.043,5.043,0,0,1,2.867,2.027c-.714.421-1.378.815-2.259,1.341-.19-1.008-.344-1.791-.542-2.839Zm5.487,2.064a3.02,3.02,0,0,1,1.466-.1,10.551,10.551,0,0,1,2.138.534,2.056,2.056,0,0,1-2.7.44c-.138.436-.143,1-.389,1.114a8.514,8.514,0,0,1-1.921.421c.182-1.326.618-2.106,1.407-2.407Zm4.072-4.522c.217-.111.6.042,1.029.088-.955.891-1.734,1.619-2.542,2.375a3.38,3.38,0,0,1,1.518-2.458Zm-8.061-28.772c-1.683.539-2.352,2.01-3.112,3.331q-1.708-.4-1.439-1.794c-.895.093-1.789.185-3.061.315-.672-.381-.566-1.09.153-2.018,1.707.618,3.469,1.109,4.17-1.238,1.289.074,2.473.145,3.823.219-.2.477-.288,1.1-.539,1.183Zm7.379,13.9c.59.463,1.142.895,1.693,1.331-1.413,1.553-2.2-.677-3.442-.558.571-.249,1.137-.5,1.745-.77Zm10.845,20.616c.111-.093.227-.254.333-.249a.14.14,0,0,1,.079.032,2.222,2.222,0,0,1,.227.241c-.027.024-.056.051-.083.079-.084.083-.168.177-.251.172a.188.188,0,0,1-.079-.029,2.227,2.227,0,0,1-.227-.241Zm-18.372,1.4s.014.232.019.357l-.839.029c-.409.81.209,1.1.807,1.4l1.511.177-.2-.581a1.251,1.251,0,0,1-.163-.458c-.045-.413.251-.691.775-.788.14-.029.409.551.617.849a10.029,10.029,0,0,1,2.047.323c.222.056.445.121.667.187.445.133.886.281,1.331.44s.9.32,1.349.478a17.608,17.608,0,0,1,.8-2.084c.2-.357.617-.876.928-.876,1.636,0,1.66-1.061,1.892-1.948-.91-1.309-2.116-.27-3.215-.46-.093-.519-.177-.974-.264-1.469,3.6.185,4.368-.354,4.958,2.522l4.026-.286c.366,1.27.746,2.578,1.2,4.136l2.7-1.622c-.32-.455-.566-.8-.785-1.109,1.333-1.2,1.392.607,2.177.323,1.934-.453,3.863-.908,5.829-1.368-.037-.58-.175-1.27-.175-1.966l-.4-.029c-.751-.04-1.508-.088-2.259-.143-1.767-.135-3.535-.31-5.3-.408a25.624,25.624,0,0,1-4.973-.682,13.49,13.49,0,0,1-6.257-3.45c-1.109-.019-2.254-.042-3.432-.061.064-1.034.125-1.939.18-2.866l1.8-.168a1.625,1.625,0,0,1,.153-.551c-.376-.558-.677-1.011-.95-1.42,1.7-1.336,2.445-1.419,3.77-.45.219.158.293.505.4.788a2.368,2.368,0,0,1,.241.079,35.581,35.581,0,0,0,11.721,2.473c.18.008.362,0,.537,0-.283-.126-.556-.246-.844-.372,1.253-1.349,1.355-1.466,3.076.264,1.225-.125,2.44-.323,3.649-.532a30.307,30.307,0,0,0,5.45-1.476c-.3-.371-.607-.738-.9-1.1a2.685,2.685,0,0,0-1.72-1.058,3.231,3.231,0,0,0-1.043.037,4.407,4.407,0,0,0-1.068.376c-.746.357-1.521.738-2.6,1.206.207-1.675,1.056-3.056,0-4.485a11.443,11.443,0,0,0-2.106-.492c-1.386-.079-2.165-.632-2.077-2.069-1.336-.116-2.527-.19-3.915-.334a1.85,1.85,0,0,1-1.317,2.63c-.644-.529-1.3-1.063-1.966-1.606,1.5-1.424,2.857-2.5,5.037-2.17-.9-.59-1.786-1.2-2.736-1.878-.7.728-.756,2.236-2.325,2.273-.323-.738-.617-1.415-.95-2.167-.664.6-1.141,1.039-1.643,1.5-1.646-.974-3.167-1.971-4.736-2.953-.505.63-.863,1.071-1.405,1.744-1.577-1.466-3.033-2.889-4.48-4.315l.222-.431,1.405-.018a24.738,24.738,0,0,0-.273-2.884c-.256-1.238,0-1.958,1.376-2.074.227-.024.428-.344.64-.524.237-.384.478-.516.719-.516a.857.857,0,0,1,.241.039,1.507,1.507,0,0,1,.241.093,6.879,6.879,0,0,0,.729.352l.445,1.151a3.13,3.13,0,0,0,1.632.254c.418-.116.728-.5,1.252-1.285l.042-.088c-.064-.143-.12-.291-.18-.436l-.468-.236c-1.373.89-2.227-.162-3.572-.947l1.921-.514c-.6-.335-.979-.542-1.5-.836a7.326,7.326,0,0,1,.7-.751c.682-.561,1.344-1.1.436-2.328a4.041,4.041,0,0,1-.521,1.215c-.751.743-1.029,2.143-2.62,1.828-.5-.093-1.146.468-1.841.78.241.509.44.918.635,1.326-.19.106-.352.259-.418.222-1.511-.756-1.567-.881-1.284-2.667l1.243-.111c.051-.005.088-.106.254-.325-1.545-.644-3.048-1.27-4.545-1.9a1.709,1.709,0,0,1-2.524.746c-.4-.2-1.038.019-1.553.121a10.639,10.639,0,0,0-1.4.524c.093-1.029.163-1.818.238-2.6l-.177.115.177-.125c.542-.831,1.117-1.039,1.841-.172a3.837,3.837,0,0,0,.876.59c.868-.794,1.725-1.6,2.616-2.45,1.429.288.691,2.529,2.564,2.852a9.976,9.976,0,0,1-.667-2.67,9.4,9.4,0,0,1,.908-2.534c-.069-.13-.259-.5-.49-.932l.913-.654c-.2-.4-.4-.826-.59-1.206.46-.659.863-1.238,1.272-1.818l-1.142-.595c-.612.751-1.228,1.508-1.836,2.251-.9-.116-.937-.785-.487-1.193a22.858,22.858,0,0,1,2.677-1.855l.2-.386.751-1.58-1.063.217-1.006.209c-.32.487-.635.543-.952.445a1.528,1.528,0,0,1-.231-.1c-.158-.078-.312-.18-.468-.265-.079-.04-.158-.083-.232-.115l-.574.207a3.775,3.775,0,0,1-1.309,3.317c-.463,0-.923,0-1.373-.005s-.9,0-1.349-.005v.019c1.034.394,1.9,1.365,3.3.984.056.617.111,1.206.185,1.995.723-.3,1.257-.529,1.781-.746.854,1.553.542,2.138-1.513,2.99-1.006-.546-.408-2.365-1.953-2.6-.982.834.4,2.643-1.442,3.181-.5-1.27-.069-2.458.492-3.9-.979.283-1.7.487-2.593.746.362.854.686,1.629,1.011,2.4-1.3,3.149-2.035,4.109-3.482,3.757,0,.12-.01.246-.01.366a21.419,21.419,0,0,0,.46,4.522,22.826,22.826,0,0,0,.844,2.867c.556-.029.982-.047,1.41-.066-.357.711-.719.891-1.156.748a28.639,28.639,0,0,0,2.357,4.572,1.926,1.926,0,0,1,.728,1.109,40.79,40.79,0,0,0,2.625,3.41.76.76,0,0,0,.108.064c.226-1.879-1.944-3.84.384-5.649.167.259.339.519.51.783.2.3.4.6.672,1.007l1.526-.706c.172,1.331.32,2.514.473,3.7a2.1,2.1,0,0,0,.212.071h.019a1.189,1.189,0,0,0,.367.037.623.623,0,0,0,.307-.116.784.784,0,0,0,.259-.524,14.4,14.4,0,0,0-.042-1.971c.548.635.918.871.974,1.169a25.71,25.71,0,0,1,.237,2.588c-.965-.029-1.949-.051-2.931-.079-.637.167-.957.59-.521,1.114a32.26,32.26,0,0,0,2.685,2.876,3.557,3.557,0,0,1,1.457,2.6,1.056,1.056,0,0,1-1.341-.3,20.313,20.313,0,0,0-2.226,1.072c2.281.733,2.453,2.608,2.514,4.556.032,1.011.167,2.018.227,2.736-.674.92-1.2,1.629-1.744,2.37a1.869,1.869,0,0,1-1.489-1.948,2.394,2.394,0,0,0-1.285-2.323,4.314,4.314,0,0,1-.617-.655l.463-.32c.484.019.965.037,1.555.066.093-.389.185-.8.31-1.331-.868-.275-1.7-.539-2.616-.826-1.54,1.442-3.474,2.559-3.432,5a4.569,4.569,0,0,1-.645.04,9.06,9.06,0,0,0-.394,1.791c.019.01.037.018.061.029-.024,0-.042.008-.064.013a8.918,8.918,0,0,0,.273,3.316,10.276,10.276,0,0,0,.728,1.907c1.392.135,2.77.291,4.212.426a4.8,4.8,0,0,1,.622-.008Z" transform="translate(-323.77 -79.226)" fill="#fff"/>
        <path id="Path_13521" data-name="Path 13521" d="M409.952,218.445a4.915,4.915,0,0,0-.455-.863c-.175-.278-.366-.553-.537-.836-1.921-.844-1.841-3.075-3.188-4.448a4.363,4.363,0,0,1-.95.436,15.808,15.808,0,0,0,1.307,2.773,14.732,14.732,0,0,0,1,1.452c.677.084,1.253.714,1.791,1.981.251.231.505.458.77.677a1.286,1.286,0,0,0,.259-1.169Z" transform="translate(-325.425 -46.982)" fill="#fff"/>
        <path id="Path_13522" data-name="Path 13522" d="M408.19,214.056c.937-.59,1.948-1.183,1.289-2.551.957-.209,2.079.1,2.236-1.151-2.763-1.021-2.953-.932-4.345,1.707-.706-1.178-1.4-2.347-2.1-3.511l-.576.177c.042.847.088,1.7.135,2.606-.143.064-.283.13-.426.2a11.382,11.382,0,0,0,.148,1.614c1.109-.822,1.678-.436,3.636.918Z" transform="translate(-325.713 -49.549)" fill="#fff"/>
        <path id="Path_13523" data-name="Path 13523" d="M415.8,211.283c.1.074.18.148.172.214-.116,1.066-.3,2.133-.529,3.617-.682-1.039-1.1-1.665-1.5-2.3l-1.08.01c.278,2.384,1.07,2.9,3.663,2.7.785-.061,1.563-.056,2.367-.042l2.485.024c.278-.293.553-.59.992-1.058a11.582,11.582,0,0,1-2.313-.051c-.362-.088-.817-.59-.788-.881s.564-.65.964-.775a4.315,4.315,0,0,1,1.36.029l.1-.28-1.981-1.066c-.381.613-.723,1.36-1.924.992a1.419,1.419,0,0,1,1.924-1c.1-.185.227-.371.352-.556-.323-.047-.649-.088-.974-.13a22.386,22.386,0,0,1-2.913-.635q-.341.48-.681.96c.083.074.207.148.31.222Z" transform="translate(-319.924 -48.484)" fill="#fff"/>
        <path id="Path_13524" data-name="Path 13524" d="M429.3,203.473a5.452,5.452,0,0,0-5.111-1.688c-.413-.682-.76-1.267-1.114-1.855-2.18,1.146-3.776,2.387-4.337,4.21a48.374,48.374,0,0,0,7.371,1.513c.709.093,1.424.172,2.138.246a10.454,10.454,0,0,0-3.006-1.4c1.638-.416,2.7-.686,4.064-1.029Z" transform="translate(-315.898 -55.452)" fill="#fff"/>
        <path id="Path_13525" data-name="Path 13525" d="M429.859,210.942c-.756.093-1.516.162-2.283.217a.119.119,0,0,1,.042.01,2.219,2.219,0,0,0,2.241-.227" transform="translate(-309.845 -47.911)" fill="#fff"/>
        <path id="Path_13526" data-name="Path 13526" d="M428,211.134c-.738.037-1.479.069-2.217.084-.376.008-.756,0-1.132,0,1.132.9,2.209,1.791,3.336,2.608,1.976-1.039.31-1.764.018-2.7Z" transform="translate(-311.848 -47.783)" fill="#fff"/>
        <path id="Path_13527" data-name="Path 13527" d="M423.577,211.2c-.724-.03-1.442-.077-2.167-.138.4.455.965.714,2.167.138" transform="translate(-314.067 -47.826)" fill="#fff"/>
      </g>
    </g>
    <path id="Path_13528" data-name="Path 13528" d="M417.908,213.315v.005l.005-.005Z" transform="translate(41.23 67.887)" fill="#fff"/>
    <g id="Group_3205" data-name="Group 3205" transform="translate(357.695 114.173)">
      <g id="Group_3204" data-name="Group 3204" clip-path="url(#clip-path)">
        <path id="Path_13529" data-name="Path 13529" d="M431.639,211.348c.162-.27.328-.537.505-.836-.574.131-1.154.243-1.735.349l.2.177,1.029.315Z" transform="translate(-307.905 -48.206)" fill="#fff"/>
        <path id="Path_13530" data-name="Path 13530" d="M443.737,211.362h0l.482-.1.1-.019.02.465c-.054,0-.1.005-.16.008a.918.918,0,0,1-.408-.008.108.108,0,0,1-.047-.066,1.3,1.3,0,0,1,.015-.286Zm1.048-2.411c.344.254.662.529.982.8l-.866.362a9.69,9.69,0,0,1-.613-.928,2.317,2.317,0,0,1,.5-.236m-6,6.456a26.8,26.8,0,0,1,4.483.863c.409.121.172.863.227,1.318q1.071.126,2.143.246c.714.079,1.434.148,2.156.214.6-.293,1.174-.714,1.772-.96a2.562,2.562,0,0,1,.6-.177,2.31,2.31,0,0,0,2.045-1.341c-1.344-1.043-1.27-1.355.706-1.818a13.306,13.306,0,0,0,2.332-.733,15.23,15.23,0,0,0,1.076-5.863c-1.039.238-2.263.238-3.511.418.4-.622.645-1.354.9-1.392a4.95,4.95,0,0,0,2.455-.923,14.182,14.182,0,0,0-.335-1.59c-1.233,1.339-1.614,1.424-3.038.709-.664-.037-1.331-.1-1.995-.153l-1.995-.19c-.58.265-1.164.524-1.752.77-.168.543-.339,1.087-.539,1.73,3.039-.8,3.016-.844,4.291.241a28.41,28.41,0,0,1-6.818.65c-1.916-.519-3.9-1.011-3.619-2.413-1.154-.042-2.236-.1-3.326-.172l-3.061-.212a10.133,10.133,0,0,1,1.605.718A6.354,6.354,0,0,1,437.3,206.7c.4-.222.788-.44,1.178-.667,1.068.857,2,1.572,2.937,2.286-.384.96-.761,1.9-1.2,2.987a7.969,7.969,0,0,0-2.129-.352,4.883,4.883,0,0,1-1.5,1.558,12.167,12.167,0,0,1-1.68.965c.259.667.492,1.381.807,2.143a17.422,17.422,0,0,1,3.056-.227Z" transform="translate(-305.452 -52.892)" fill="#fff"/>
        <path id="Path_13531" data-name="Path 13531" d="M410.7,211.615c-1.831-.612-3.418.537-2.829,2.3a3.3,3.3,0,0,1-.46,3.048l2.677,2.4c.569-.728,1.22-1.563,1.868-2.394a3.32,3.32,0,0,1-.455-.612,4.218,4.218,0,0,1-.172-.746,3.676,3.676,0,0,0,2.436-2.524.828.828,0,0,1,.088-.2c.037-.066.074-.13.106-.2l-3.26-1.072" transform="translate(-323.651 -47.564)" fill="#fff"/>
        <path id="Path_13532" data-name="Path 13532" d="M418.372,218.013c.575-.724,1.174-1.469,1.809-2.264.468.406.794.679,1.363,1.166a2.118,2.118,0,0,1,2.172-2.227,5.975,5.975,0,0,0,2.17-.891c.339-.192.468-.628.691-.96l-.088-.6a1.922,1.922,0,0,1-2.527.121c-.719-.418-1.425-.888-2.413-.251v1.606c-1.127.2-1.833,1.442-3.108.638-.371.66-.783,1.307-1.109,1.985-.376.783-.283,1.44,1.044,1.675Z" transform="translate(-316.99 -47.325)" fill="#fff"/>
      </g>
    </g>
    <path id="Path_13533" data-name="Path 13533" d="M417.908,213.32h.005v-.005Z" transform="translate(41.23 67.886)" fill="#fff"/>
    <g id="Group_3207" data-name="Group 3207" transform="translate(357.695 114.173)">
      <g id="Group_3206" data-name="Group 3206" clip-path="url(#clip-path)">
        <path id="Path_13534" data-name="Path 13534" d="M444.679,212.443h0c-.719-.066-1.437-.135-2.156-.214s-1.434-.157-2.143-.246a6.079,6.079,0,0,0-1.471.056c-.505.526-.6,1.105.542,1.2,1.058.088,2.2.018,3.359.008.686,1.114.644,2.514,2.323,3.4.236-.2.477-.384.709-.59.254-.222.492-.463.738-.7-.158-.3-.312-.588-.468-.884.607-.158,1.21-.312,1.813-.473a22.745,22.745,0,0,0,1.749-2.153l-.6.362C447.148,213.356,447.105,213.337,444.679,212.443Z" transform="translate(-302.331 -47.288)" fill="#fff"/>
        <path id="Path_13535" data-name="Path 13535" d="M416.858,214.664a37.424,37.424,0,0,0-3.688-.82c.256.63.339.9.468,1.159.7,1.373,2.352.593,3.418,1.151.27-.539.682-1.193-.2-1.489Z" transform="translate(-319.709 -45.924)" fill="#fff"/>
        <path id="Path_13536" data-name="Path 13536" d="M433.858,211.206c-.817.106-1.429.19-2.04.27l-.056.617c.585-.051,1.173-.069,1.749-.177.125-.024.18-.347.352-.709Z" transform="translate(-306.978 -47.731)" fill="#fff"/>
      </g>
    </g>
    <path id="Path_13537" data-name="Path 13537" d="M430.82,211.655l.738-.519-1.029-.315Z" transform="translate(49.872 66.179)" fill="#fff"/>
    <path id="Path_13538" data-name="Path 13538" d="M415.48,215.217l.135.172-.135-.177Z" transform="translate(39.568 69.185)" fill="#fff"/>
    <g id="Group_3209" data-name="Group 3209" transform="translate(357.695 114.173)">
      <g id="Group_3208" data-name="Group 3208" clip-path="url(#clip-path)">
        <path id="Path_13539" data-name="Path 13539" d="M446.634,202.726c-.061-.143-.111-.288-.177-.426a.63.63,0,0,0,.177.426" transform="translate(-296.916 -53.829)" fill="#fff"/>
        <path id="Path_13540" data-name="Path 13540" d="M445.171,206.928c1.248-.18,2.477-.185,3.511-.418-.005-.278-.008-.551-.032-.834-.029-.357-.074-.711-.13-1.058a4.94,4.94,0,0,1-2.455.923c-.254.037-.5.765-.9,1.392Z" transform="translate(-297.8 -52.242)" fill="#fff"/>
        <path id="Path_13541" data-name="Path 13541" d="M445.182,211.768l1.434.084a3.2,3.2,0,0,1,.849-.957q.422-.826.755-1.673a14.514,14.514,0,0,1-2.333.733c-1.975.463-2.049.773-.7,1.818Z" transform="translate(-298.412 -49.089)" fill="#fff"/>
        <path id="Path_13542" data-name="Path 13542" d="M448.041,210.816l-1.434-.084a2.31,2.31,0,0,1-2.045,1.341,2.587,2.587,0,0,0-.6.177c-.593.246-1.173.662-1.771.96,2.424.895,2.466.913,4.4-.227l.6-.362c.394-.548.755-1.114,1.1-1.7Z" transform="translate(-299.839 -48.055)" fill="#fff"/>
        <path id="Path_13543" data-name="Path 13543" d="M435.2,164.132l.167,1.2-.222-.008-.256-1.193.312.01Zm-6.165-3.984c.084.529.172,1.071.26,1.609.108.386.241.548.394.473a.448.448,0,0,0,.163-.153c.6-.733,1.191-1.466,1.794-2.207.069-.084.315.157.487.249-.217.942-.4,1.767-.585,2.542-.148.691-.524.483-.9.288a2.93,2.93,0,0,0-.032.728c.013.256.047.524.061.78.008.13.008.254.005.376a1.216,1.216,0,0,1-.367.923l-.175,1.344c.3.246.588.5.866.77l.288.153,2.291.834c.669-.788,1.35-1.59,2.222-2.75-.426,1.429,1.053,2.527.344,3.538.514,1,.982,1.9,1.466,2.844,1.6-.473.069-3,.826-4.183.7.662-.052,2.49,1.585,2.3q-.346-1.246-.682-2.431c.233-.511.46-1.016.632-1.392.969.347,1.9.63,2.866.918a3.262,3.262,0,0,1,.942.246c.794.524,1.582,1.141,2.529,1.791-.214.286-.46.617-.77,1.029.709.979,1.405,1.915,2.189,2.945-.315.2-.585.376-.913.59.273,1.159,1.114,1.077,1.831,1.27.153-.548.288-1.127.413-1.641,1.355-.724,2.778-.079,4.23.426,1.007,1.21-.162,1.321-.714,2.092a9.259,9.259,0,0,1,1.87-.005c-.293-.751-.6-1.5-.933-2.241a2.787,2.787,0,0,1-.111-2.138c.293-.849.558-1.707.825-2.569.46-1.484.91-2.974,1.368-4.458.27-.863.59-1.717.812-2.593.339-1.336.627-2.685.915-4.035.106-.516.148-1.045.217-1.568A8.892,8.892,0,0,0,457.4,153a2.822,2.822,0,0,0-2.7-2.2,6.206,6.206,0,0,1-.217.645c-.283-.185-.566-.367-.849-.539a31.149,31.149,0,0,0-4.18,1.119,1.1,1.1,0,0,1-1.233.45c-2.013.775-3.993,1.633-5.947,2.537a.8.8,0,0,0,.01.1c1.916,1.395,1.958,1.355,2.018,2.953-1.068.441-2.125-.932-3.137-1.781a1.185,1.185,0,0,1-.384-.569c-.185.088-.371.18-.561.273a2.622,2.622,0,0,1,.339,1.127,9.937,9.937,0,0,1,1.307,1.024c.765.826,1.026,1.6.251,2.084a12.572,12.572,0,0,0-1.132-1.045,3.551,3.551,0,0,0-1.3-.667c-.8-.116-1.553-.066-2.328-.2-.214-.047-.473-.372-.723-.632a18.91,18.91,0,0,1-6.452,1.405l.116.349C429.889,159.66,429.481,159.906,429.031,160.147Z" transform="translate(-308.848 -89.099)" fill="#fff"/>
        <path id="Path_13544" data-name="Path 13544" d="M430.477,161.193c.005-.037.01-.074.013-.111l-.286-.153c.093.088.185.177.273.27Z" transform="translate(-308.045 -82.157)" fill="#fff"/>
        <path id="Path_13545" data-name="Path 13545" d="M428.874,160.275a10.343,10.343,0,0,1,.91.543V160.8a3.927,3.927,0,0,1,.1-1.228c-.49-.126-.987-.275-1.461-.418.14.357.293.718.463,1.122Z" transform="translate(-309.267 -83.373)" fill="#fff"/>
        <path id="Path_13546" data-name="Path 13546" d="M412.837,165.154c0-.057.008-.128.005-.189l.3-.079h.015l.04.475c-.115-.015-.268.019-.339-.054a.19.19,0,0,1-.032-.147Zm5.107-8.525c.273-.007.566.578.849.893-.325.254-.65.714-.974.709-.409-.005-.817-.389-1.592-.807.794-.4,1.248-.782,1.712-.8Zm2.691,10.685c.138.866.259,1.609.352,2.188-1.382.416-2.546.706-3.728,1.033.323-2.072,2.318-1.924,3.376-3.221m2.37-.534c.32.4.612.77,1.024,1.285a2.324,2.324,0,0,1,2.436-.96,3.178,3.178,0,0,0,2.535-.5c.094,1.065-.064,1.54-.718,1.54-.516,0-1.029-.226-1.54-.2a6.68,6.68,0,0,0-1.41.376,13.242,13.242,0,0,0,.477,1.491c.1.232.386.377.794.753-1.265.27-2.291.91-3.427-.44.477-.4.829-.7,1.146-.97-.015-.148,0-.254-.034-.28-.746-.5-1.493-1-2.429-1.626L423,166.78m-13.271.393c1.141-.29,2.37-.6,3.993-1.016-.62,1.24.029,2.5-1.257,3.063l-.13.259-.064.13.566.788c.342.094.691.182,1.038.27,1.048.268,2.124.548,3.317.854a3.209,3.209,0,0,0,.209.765c.514,1.053,1.043,1.183,1.98.559a14.623,14.623,0,0,1,1.722-1.083c.788-.357,1.061.2,1.21.967-.992.544-1.924,1.082-2.908,1.579l-.751,1.58c.032.015.069.029.106.049.111.056.232.118.283.081,1.481-1.083,3.905-.768,4.151-3.393.793.177,1.447.325,2.1.467.617.142.751.549.561,1.137.1.17.246.349.352.526.093-.293.185-.585.291-.873a17.836,17.836,0,0,1,3.034-5.455,14.819,14.819,0,0,1,1.526-1.572l-.751-.849c.106-.278.249-.654.468-1.221a10.738,10.738,0,0,0-1.632-.81,10.982,10.982,0,0,0-2.032-.167c.64-.738.95-1.093,1.307-1.5-.051-.307-.106-.659-.162-1.018-.275-1.6-.27-1.575-1.685-1.435a1.58,1.58,0,0,1-1.056-.5c-.706.313-1.383,1.333-2.413.16.084-.531.177-1.141.27-1.754-.116-.076-.293-.217-.317-.194-.384.43-.751.879-1.21,1.437-.148-.13-.492-.436-.836-.743-.3-.268-.6-.537-.964-.868.19-.44.366-.858.64-1.493-1.161-.045-2.259-.13-3.4-.2.209-1.474,1.016-1.5,1.813-1.53a3.738,3.738,0,0,0,1.011-.217q-1.493-.675-3.006-1.333c-.561-.243-1.127-.472-1.691-.7.125.45.244.876.333,1.191-.788.9-1.28-1.351-2.111.251.664.264,1.238.5,1.818.728-.982.558-1.887,1.09-3.093,1.715-.18-.088-.519-1.413-1.294-.162-.037.637-.074,1.265-.125,2.106a6.793,6.793,0,0,0-1.105.3,1.9,1.9,0,0,0-.982,2.271,2.262,2.262,0,0,1,.051,1.093c-.367,1.247-.394,1.238,1.1,1.69a2.556,2.556,0,0,1,1.958-2.536c1.767-.443,0,0,0-.007l.162-.111-.162.118c.032.758.069,1.518.106,2.316-1.614.376-.927,2.045-1.183,3.693-.644-1-1.043-1.619-1.437-2.227-1.521-.027-.473,1.373-1.109,2.106-.066-.111-.135-.2-.2-.3.148.507.3,1.013.445,1.523a2.342,2.342,0,0,1,.886.386c.116-.381.19-.623.273-.906Z" transform="translate(-323.151 -88.323)" fill="#fff"/>
        <path id="Path_13547" data-name="Path 13547" d="M430.97,161.185a4.049,4.049,0,0,1-.084-1.72,1.754,1.754,0,0,0-.244-.751c-.042-.093-.084-.187-.116-.275-.066.116-.121.238-.182.357a3.236,3.236,0,0,1-.736,1.039c-.074.074-.431-.275-.655-.423a2.018,2.018,0,0,1-.667-.435c-.143-.19-.153-.465.13-.928a1.25,1.25,0,0,0-.032-.937.982.982,0,0,0-.928-.1c-.852.566-1.846,1.029-2,2.463-.544.029-1.031.047-1.624.074-.153.45-.33.955-.492,1.429.259.367.756.088,1.1.241a9.537,9.537,0,0,1,1.039-.283,10.145,10.145,0,0,1,5.487.246Z" transform="translate(-312.745 -84.895)" fill="#fff"/>
        <path id="Path_13548" data-name="Path 13548" d="M447.639,181.08a3.938,3.938,0,0,1,1.331,1.7c-1.707-.59-3.344-1.579-5.005-1.838-1.614-.254-3.292.246-5.4.376,1.072-.942,2.778-.482,2.625-2.072l-.158-.148.172.138a14.779,14.779,0,0,1,4.894.974,8.243,8.243,0,0,1,1.545.878Zm-10.752.148c-.654-1.011-1.178-1.841-1.823-2.9.172-.145.344-.4.571-.455a.88.88,0,0,1,.751.18c.807,1.029,2.532-.246,3.07,1.7-.773.477-1.638.945-2.569,1.469Zm13.229-14.054c.553-.77,1.72-.881.714-2.092-1.452-.505-2.876-1.149-4.23-.426-.125.516-.259,1.1-.413,1.643.232.681.46,1.363.714,2.114,1.6.516,3.418.519,4.648,2.172l-.177.505c-.942-.468-1.868-.942-2.963-1.531-.325.275-.794.9-1.629.074a3.542,3.542,0,0,0-1.762-.923l1.291,1.026-.376.323c-.071.094-.13.27-.209.261a11.85,11.85,0,0,0-2.119-.238,18.815,18.815,0,0,0-3.41.6c-.283.079-.291.9-.519,1.666-.664-.441-1.346-.915-2.347-1.643.175.933.283,1.489.4,2.106a1.422,1.422,0,0,1-.389.315c-.167.066-.445.126-.561.024a8.87,8.87,0,0,0-2.913-1.415c.1,1.262.162,2.534.153,3.8a30.768,30.768,0,0,1-.227,3.641,4.379,4.379,0,0,1,.969.4c1.142.672.785,1.828.669,2.82l-.445.121c-.15-.349-.3-.7-.51-1.188q-.559.222-1.127.431a23.622,23.622,0,0,1-.674,2.411c-.013.047-.037.094-.05.14l.992.315c.1-.236.206-.468.317-.733s.231-.551.371-.9a5.052,5.052,0,0,1,.7.841c.514,1.275,1.275,2.226,2.889,2.133.12-.01.273.3.413.46l.9.241.45.106.714-.519.2.736,2.37.1c.254.005.514.01.792.01s.585,0,.938-.005c-.047.59-.084,1.1-.126,1.624.854.083,1.712.162,2.709.259-.148.265-.273.492-.46.826a5.04,5.04,0,0,1,2.33,3.149c.008.042.018.074.027.111a33.618,33.618,0,0,0,2.3-3.9q.225-.447.431-.891a13.543,13.543,0,0,1,.182-1.767c.185,0,.381-.008.574-.013a25.28,25.28,0,0,0,.807-2.445c-.7.366-1.392.76-2.146,1.117-.261-.463-.571-1.006-.878-1.543,1.016-1.378.9-1.963-.667-2.552a5.2,5.2,0,0,1-2.76-2.143c.876-.083,1.762-.133,3.038-.281.575.638,1.387,1.516,2.352,2.517a7.221,7.221,0,0,0,.849-4.379c-.1-.6.384-1.223.58-1.863-1.082-.339-1.86-.822-1.489-2.13a3.857,3.857,0,0,0-.2-1.569c.175-.212.342-.413.505-.607.135-.163.259-.315.384-.468-.3-1.011-.649-2.008-1.029-2.987a9.511,9.511,0,0,0-1.87.005Z" transform="translate(-306.391 -79.827)" fill="#fff"/>
        <path id="Path_13549" data-name="Path 13549" d="M429,157.191c-.051-.554-.088-.982-.135-1.474h-1.132A8.157,8.157,0,0,1,429,157.191" transform="translate(-309.735 -85.726)" fill="#fff"/>
        <path id="Path_13550" data-name="Path 13550" d="M428.962,156.74c-.1.868.13,1.368.682,1.651-.089-.537-.177-1.08-.259-1.609.445-.241.852-.487,1.26-.728l-.115-.349c-.283.01-.566.024-.849.018h-1.174c.381.066.521.455.46,1.021Z" transform="translate(-309.207 -85.734)" fill="#fff"/>
        <path id="Path_13551" data-name="Path 13551" d="M421.747,155.885c.074-.04.138-.078.2-.12a.811.811,0,0,0,.056.135.781.781,0,0,1,.106.394c-.019.111-.236.18-.366.268-.074-.162-.148-.32-.246-.537.093-.056.172-.1.246-.143Zm-8.178-1.006c1.146.066,2.246.148,3.4.2-.27.635-.45,1.053-.64,1.493.366.33.664.6.965.868.342.307.691.612.834.741.463-.556.83-1.006,1.211-1.437.022-.029.2.121.315.2-.093.612-.19,1.223-.27,1.752,1.026,1.174,1.707.158,2.413-.157a1.582,1.582,0,0,0,1.058.5c1.408-.14,1.408-.167,1.683,1.439.056.357.111.7.162,1.014-.352.409-.662.761-1.307,1.5a10.156,10.156,0,0,1,2.032.167,10.367,10.367,0,0,1,1.632.812c-.219.566-.362.942-.468,1.22.254.286.5.566.751.849a10.721,10.721,0,0,1,3.784-2.214c-.339-.153-.834.126-1.093-.241.162-.477.339-.979.49-1.429.595-.027,1.077-.051,1.624-.074.153-1.434,1.146-1.9,2-2.463a.969.969,0,0,1,.927.1,1.249,1.249,0,0,1,.034.937c-.288.463-.275.738-.131.928a2.188,2.188,0,0,0,.669.435l.013-.04.121-.381.44-.241q-.334-1.941-.662-3.865c-.9,0-1.8.005-2.7,0-1.8-.013-3.609-.019-5.408-.111a11.42,11.42,0,0,1-4.466-1.159c-1.257-.613-2.519-1.22-3.789-1.8-.933-.428-1.865-.854-2.8-1.275a3.721,3.721,0,0,1-1.012.217c-.8.032-1.6.056-1.813,1.53Z" transform="translate(-319.436 -87.49)" fill="#fff"/>
        <path id="Path_13552" data-name="Path 13552" d="M410.721,153.4l-.111-.175.116.172c.3.2.457.408.423.657a.12.12,0,0,1-.015.047.885.885,0,0,1-.185.371,3.633,3.633,0,0,1-.524.521c.15-.794.222-1.193.3-1.592m.086,2.505c.313-.093.8.418,1.2.645.782-1.253,1.119.074,1.294.162,1.206-.627,2.111-1.159,3.1-1.717l-1.821-.728c.827-1.6,1.318.645,2.113-.251-.088-.315-.211-.741-.334-1.191-.706-.283-1.422-.553-2.136-.812-.239-.088-.485-.167-.726-.251l.911,2.092c-2.109-.418-2.217-.5-1.2-2.193-.918-.315-1.841-.617-2.77-.895a3.361,3.361,0,0,0-1.326-.126,2.056,2.056,0,0,0-1.68,1.471,9.06,9.06,0,0,0-.67,3.135c1.307.5,2.573,1.1,4.047.664Z" transform="translate(-324.103 -89.216)" fill="#fff"/>
        <path id="Path_13553" data-name="Path 13553" d="M436.567,154.854h0c-.347-.254-.7-.519-1.039-.783l-.677.334a2.879,2.879,0,0,0,.409.524c.524.482,1.279,1.1,1.307-.069Z" transform="translate(-304.864 -86.853)" fill="#fff"/>
        <path id="Path_13554" data-name="Path 13554" d="M442.182,179.163c-.056-.032-.153-.069-.153-.093a.632.632,0,0,1,.1-.167c.051.034.153.071.153.093a.606.606,0,0,1-.1.167m5.265,1.568c.185-.339.31-.561.46-.826-1-.093-1.852-.177-2.709-.259l1.331,3.154c-1.159,1.053-2.1.7-3.011-.418-.31.463-.524.8-.881,1.309-.942-.377-1.929-.772-2.913-1.161l.01-.487c1.381-.505,2.75-1.006,4.091-1.553l-.232-2.473-2.37-.1-.918-.219-.45-.106a1.631,1.631,0,0,1-.738,1.228,1.837,1.837,0,0,1-1.53-.051l-.431-.093c.061.27.024.627.194.788,1.629,1.516,1.634,1.627-.63,2.254a2.512,2.512,0,0,0,.013,1.995,6.2,6.2,0,0,0,1.151,1.646c-.524.669-.987,1.23-1.461,1.786l.366,1.916c1.039.441,1.063.952-.022,1.346a2.307,2.307,0,0,1-2.947-.989,1.784,1.784,0,0,0-2.156-.9,5.229,5.229,0,0,1,.836,1.415c.283,1.794,1.437,2.852,3.627,3.172.524.074.932.6,1.4.918l-.27.376c-.792.024-1.577.061-2.662.061a17.86,17.86,0,0,0,2.2,1.183,30.161,30.161,0,0,0,3.038-1.707c-.106-.167-.222-.339-.329-.505.876-.418,1.3-.6,1.717-.46a32.959,32.959,0,0,0,5.737-5.292,43.76,43.76,0,0,0,2.849-3.7c-.01-.037-.018-.071-.029-.111a5.041,5.041,0,0,0-2.328-3.15Z" transform="translate(-307.047 -70.745)" fill="#fff"/>
        <path id="Path_13555" data-name="Path 13555" d="M444.322,201.1a.474.474,0,0,0,.408.28,4.89,4.89,0,0,0,2.008-.222,1.127,1.127,0,0,0,.344-.325,20.919,20.919,0,0,0-1.739-1.525c-.182-.1-.386-.214-.627-.344.042-.014.079-.029.116-.037-.237-.179-.473-.354-.714-.521a24.063,24.063,0,0,0-3.413-1.934c-.233,1.026-.492,2.13-.807,3.395,2.374-.546,4.059-.49,4.424,1.24Z" transform="translate(-301.407 -57.822)" fill="#fff"/>
        <path id="Path_13556" data-name="Path 13556" d="M423.3,176.79c-.1-1.04-.14-2.087-.2-3.13a31.927,31.927,0,0,1,.807-6.828c-.487-.325-.965-.645-1.434-.955-1.135.844-1.043,2.778-2.82,2.918-.2-.595-.413-1.2-.617-1.8H418.7c-.1.463-.2.923-.325,1.513l-.992-.394c-.4.58-.812,1.159-1.272,1.818.187.384.391.8.59,1.206-.362.259-.63.455-.913.654.231.44.426.8.492.932a9.536,9.536,0,0,0-.91,2.532,10,10,0,0,0,.667,2.672c-1.873-.323-1.135-2.564-2.564-2.852-.895.849-1.749,1.656-2.616,2.45.659.111,1.318.185,1.958.334.209.051.371.307.556.468,1.5.627,3,1.252,4.545,1.9-.167.217-.2.32-.254.325l-1.243.111c-.278,1.786-.227,1.905,1.285,2.667.069.032.227-.116.418-.222-.2-.408-.391-.817-.637-1.328.7-.31,1.341-.871,1.841-.778,1.592.315,1.87-1.085,2.621-1.828a4.09,4.09,0,0,0,.519-1.215c.91,1.225.246,1.767-.436,2.328a7.905,7.905,0,0,0-.7.751c.529.291.9.5,1.5.834-.714.19-1.132.307-1.921.516,1.346.783,2.2,1.836,3.572.947a3.089,3.089,0,0,0,.32-.121,23.378,23.378,0,0,1-1.521-6.424Z" transform="translate(-321.293 -78.77)" fill="#fff"/>
        <path id="Path_13557" data-name="Path 13557" d="M412.628,203.787l.148.148a9.249,9.249,0,0,1,.654-.783,3.027,3.027,0,0,0,.9-1.8,1.071,1.071,0,0,0-.018-.275c-.265-.278-.519-.58-.77-.895a2.18,2.18,0,0,0-1.206-.079,7.8,7.8,0,0,0-2.783,1.349c-.1.071-.185.153-.283.227.354.984.7,1.949,1.072,2.987l2.288-.868Z" transform="translate(-322.377 -55.371)" fill="#fff"/>
        <path id="Path_13558" data-name="Path 13558" d="M416.481,199.177l-.947-1.151-1.511-.175c-.362.505-.478,1.506-1.373,1.149-.529-.209-.746-1.043-1.156-1.665-.662-.061-.863.153-.9.46a15.1,15.1,0,0,0,1.466,1.572c.355.334.723.649,1.1.955a3.105,3.105,0,0,1,3.321-1.141Z" transform="translate(-321.475 -57.236)" fill="#fff"/>
        <path id="Path_13559" data-name="Path 13559" d="M427.105,181.959a.4.4,0,0,1-.032.029c.487.366,1.075,1.085,1.387.987,1.085-.33,1.466.259,2.032.853a2.646,2.646,0,0,0,1.238.526c1.117.283,1.41-.344,1.336-1.2a3.937,3.937,0,0,1-2.867-2.18,9.608,9.608,0,0,1-2.31.852c-.259.061-.519.093-.778.13Z" transform="translate(-310.189 -68.433)" fill="#fff"/>
        <path id="Path_13560" data-name="Path 13560" d="M421.989,180.112c-.042.14-.084.307-.158.5.3,0,.558-.008.812-.015-.162-.116-.328-.212-.492-.337-.059-.047-.106-.1-.167-.15Z" transform="translate(-313.779 -69.022)" fill="#fff"/>
        <path id="Path_13561" data-name="Path 13561" d="M419.554,179.224c-.932-.96-1.72-1.776-2.509-2.588-.214.18-.413.505-.64.524-1.373.116-1.634.839-1.378,2.072a24.545,24.545,0,0,1,.273,2.886l.942,1.341c1.781-1.132.841-3.925,3.312-4.24Z" transform="translate(-318.497 -71.402)" fill="#fff"/>
        <path id="Path_13562" data-name="Path 13562" d="M422.971,180.984a1.278,1.278,0,0,0-.524-.283,2.406,2.406,0,0,0-1.029-.019c.064-.815.858-1.545-.2-2.055-.826-.408-1.392.071-1.953.553-.681.593-1.354,1.178-2.077,1.8.325.172.7.376,1.08.58s.8.371,1.174.608c1.447.918,1.9,1.151,2.834.58a13.752,13.752,0,0,0,1.151-.844,1.869,1.869,0,0,0-.256-.682,1.349,1.349,0,0,0-.2-.236Z" transform="translate(-316.958 -70.144)" fill="#fff"/>
        <path id="Path_13563" data-name="Path 13563" d="M433.908,200.92a.864.864,0,0,0-.672-.561,5.411,5.411,0,0,0-1.452.153,3.637,3.637,0,0,1-1.452.008c-1.154-.315-2.258-.728-3.39-1.109l-1.762,2.519a3.683,3.683,0,0,1,3.344.524,3.688,3.688,0,0,0,2.194.367c.307-.042.612-.1.913-.167.9-.2,1.786-.492,2.7-.748-.172-.431-.3-.751-.418-.987Z" transform="translate(-311.486 -55.806)" fill="#fff"/>
        <path id="Path_13564" data-name="Path 13564" d="M433.25,177.78c-.121,1.151-.259,1.995-.3,2.844-.008.217.3.45.519.741.622-.259,1.161-.487,1.708-.719.125.177.236.344.347.5s.214.307.315.455c2.264-.622,2.259-.738.632-2.254-.172-.163-.135-.521-.2-.788l-.895-.256c-.692-.153-1.378-.328-2.13-.524Z" transform="translate(-306.166 -70.622)" fill="#fff"/>
        <path id="Path_13565" data-name="Path 13565" d="M434.836,179.01c.19.051.246.593.366.91l.9.254.431.093c.463-.468.918-.937,1.363-1.419-.138-.163-.292-.468-.413-.46-1.614.093-2.374-.852-2.889-2.133-.093-.233-.333-.409-.7-.841-.138.349-.259.64-.371.9s-.214.5-.315.733c.384.762.566,1.675,1.627,1.968Z" transform="translate(-305.991 -72.238)" fill="#fff"/>
        <path id="Path_13566" data-name="Path 13566" d="M419.932,199.379c-.307.455-.571.844-.858,1.262-.595-.251-1.039-.441-1.55-.659q-.111,1.478,1.892,2.662c.344-1,.664-1.905.933-2.824.027-.1-.256-.28-.413-.441Z" transform="translate(-316.731 -55.829)" fill="#fff"/>
        <path id="Path_13567" data-name="Path 13567" d="M413.535,199.2a3.693,3.693,0,0,0-.553.987c.46.32.928.622,1.407.915.17-.524.361-1.1.607-1.841-.413-.029-1.284-.283-1.461-.061" transform="translate(-319.838 -56.016)" fill="#fff"/>
        <path id="Path_13568" data-name="Path 13568" d="M415,214.725c.232-1.488.413-2.549.529-3.615.008-.066-.069-.14-.172-.214s-.227-.15-.31-.222l-1.55,1.762c.413.627.82,1.252,1.5,2.3Z" transform="translate(-319.485 -48.096)" fill="#fff"/>
        <path id="Path_13569" data-name="Path 13569" d="M435.619,185.3l-.366-1.916c-.6-.1-1.2-.19-1.884-.3.265,1.9.361,2,2.249,2.212" transform="translate(-305.877 -66.983)" fill="#fff"/>
        <path id="Path_13570" data-name="Path 13570" d="M425.976,203.508c-.143.158-.288.31-.431.468.566.051,1.135.093,1.707.14.18-.214.362-.423.553-.64a1.123,1.123,0,0,0-1.823.032Z" transform="translate(-311.235 -53.335)" fill="#fff"/>
        <path id="Path_13571" data-name="Path 13571" d="M431.4,203.676a.92.92,0,0,0-.746-.093.973.973,0,0,0-.5.344.7.7,0,0,0-.074.093c.539,0,1.077.008,1.611,0,0-.008-.005-.014-.01-.022a.919.919,0,0,0-.278-.33Z" transform="translate(-308.133 -52.975)" fill="#fff"/>
        <path id="Path_13572" data-name="Path 13572" d="M446.536,202.169c-.238-.436-.487-.863-.758-1.27-.561.81-.1,1.135.758,1.27" transform="translate(-297.549 -54.788)" fill="#fff"/>
        <path id="Path_13573" data-name="Path 13573" d="M446.6,203.7a2.966,2.966,0,0,0-.955.366,2.626,2.626,0,0,0-.487.354c1.424.714,1.8.63,3.038-.709l-.018-.057a5.722,5.722,0,0,0-1.572.047Z" transform="translate(-297.805 -52.924)" fill="#fff"/>
        <path id="Path_13574" data-name="Path 13574" d="M418.954,176.288l.468.236c-.045-.12-.1-.236-.148-.357a2.753,2.753,0,0,1-.32.121" transform="translate(-315.748 -71.723)" fill="#fff"/>
        <path id="Path_13575" data-name="Path 13575" d="M414.09,196.656c-.524.1-.82.376-.775.788a1.227,1.227,0,0,0,.163.46l1.233-.4c-.209-.3-.482-.878-.617-.849Z" transform="translate(-319.613 -57.694)" fill="#fff"/>
        <path id="Path_13576" data-name="Path 13576" d="M419.359,176.637l-.042.088h.079c-.014-.032-.024-.059-.037-.093Z" transform="translate(-315.5 -71.405)" fill="#fff"/>
        <path id="Path_13577" data-name="Path 13577" d="M442.791,204.182l1.995.19c-.64-.121-.482-1.833-1.995-.19" transform="translate(-299.426 -53.025)" fill="#fff"/>
        <path id="Path_13578" data-name="Path 13578" d="M420.364,196.2c-.029.019-.056.047-.093.069a.979.979,0,0,0-.2.167c.167.219.362.423.551.627l.3-.222-.551-.645Z" transform="translate(-314.987 -58.012)" fill="#fff"/>
        <path id="Path_13579" data-name="Path 13579" d="M411.772,210.93c.047.056.093.1.148.106a.144.144,0,0,0,.084-.022c.083-.047.175-.15.265-.214a2.359,2.359,0,0,0-.214-.254.123.123,0,0,0-.074-.034.277.277,0,0,0-.167.084c-.061.051-.116.111-.172.153.045.051.088.12.135.18Z" transform="translate(-320.755 -48.206)" fill="#fff"/>
        <path id="Path_13580" data-name="Path 13580" d="M424.651,197.636c-.008.047-.047.106-.029.135s.1.064.153.1l.061-.227h-.185Z" transform="translate(-311.871 -57.022)" fill="#fff"/>
        <path id="Path_13581" data-name="Path 13581" d="M434.365,203.767h0l.241-.31c-.093.037-.227.064-.27.115s.01.13.024.2Z" transform="translate(-305.226 -53.037)" fill="#fff"/>
        <path id="Path_13582" data-name="Path 13582" d="M410.052,195.09c-.042-2.44,1.892-3.558,3.432-5,.915.288,1.744.553,2.616.826-.125.534-.217.942-.31,1.331-.59-.022-1.072-.04-1.555-.064l-.463.32a4.38,4.38,0,0,0,.617.654,2.4,2.4,0,0,1,1.285,2.323,1.871,1.871,0,0,0,1.489,1.949c.546-.743,1.066-1.452,1.744-2.37-.066-.719-.2-1.725-.227-2.738-.066-1.953-.233-3.826-2.514-4.554-.27.148-.539.307-.8.463a14.221,14.221,0,0,0-5.236,5.288,9.706,9.706,0,0,0-.714,1.614,5.153,5.153,0,0,0,.645-.042Z" transform="translate(-322.282 -63.781)" fill="#fff"/>
        <path id="Path_13583" data-name="Path 13583" d="M409.569,180.5c.209.334.426.664.649.992.029.037.056.074.079.111a1.934,1.934,0,0,0-.728-1.109Z" transform="translate(-322.175 -68.76)" fill="#fff"/>
        <path id="Path_13584" data-name="Path 13584" d="M418.5,192.406a3.575,3.575,0,0,0-1.456-2.6,33.044,33.044,0,0,1-2.687-2.876c-.431-.524-.111-.945.521-1.112l.6-1.174c-.153-1.183-.3-2.37-.473-3.7-.654.3-1.077.5-1.526.7-.273-.408-.472-.709-.672-1.006-.172-.265-.344-.524-.51-.783-2.328,1.808-.162,3.77-.384,5.649a.876.876,0,0,1-.108-.066c.507.6,1.021,1.188,1.555,1.764a34.676,34.676,0,0,0,4.55,4.289c.069.051.148.093.222.14-.019.032-.042.064-.061.1a1.952,1.952,0,0,1-.18.088c-.246.088-.484.185-.724.283a1.054,1.054,0,0,0,1.341.3Z" transform="translate(-321.057 -69.191)" fill="#fff"/>
        <path id="Path_13585" data-name="Path 13585" d="M416.19,169.651c.125-.59.222-1.048.325-1.508h.329c.2.595.413,1.193.617,1.791,1.772-.14,1.685-2.074,2.82-2.918l1.434.955c.13-.542.283-1.085.455-1.622-.108-.172-.251-.352-.352-.524l-.158.125-.037-.111.2-.013c.194-.59.056-1-.563-1.137-.654-.143-1.312-.291-2.1-.468-.246,2.625-2.672,2.31-4.151,3.395-.051.037-.167-.027-.283-.083a.8.8,0,0,0-.106-.047l-.2.386-.352.8,1.141.595.992.394Z" transform="translate(-319.102 -79.904)" fill="#fff"/>
        <path id="Path_13586" data-name="Path 13586" d="M410.732,176.431c-.325-.765-.649-1.54-1.011-2.4.895-.261,1.614-.465,2.593-.748-.561,1.444-.989,2.63-.492,3.9,1.846-.539.46-2.347,1.442-3.182,1.545.232.947,2.05,1.953,2.6,2.055-.854,2.365-1.439,1.513-2.992-.524.219-1.058.445-1.781.746-.074-.788-.126-1.381-.187-1.993-1.4.379-2.263-.59-3.292-.984-.135.477-.275.95-.468,1.641-.335-.3-.756-.5-.756-.7,0-.775.352-1.248,1.22-.95.45,0,.895,0,1.349,0s.91,0,1.373.005a3.776,3.776,0,0,0,1.307-3.316c-1.275-.413-.606-1.211-.157-2.055-.756-.4-1.41-.743-2.064-1.085a2.29,2.29,0,0,0-.45,1.855,2.091,2.091,0,0,0,.413.691c.431.5.4,1.42.617,2.283-1.873-.089-.487-1.781-1.378-2.106-1.135-.418-.514-1.439-.9-2.135.478-.3.891-.564,1.307-.826l.566-1.141c-.143-.3-1.016-.045-.566-.794l.066-.13.13-.259a2.554,2.554,0,0,0-.59-.366c-.273-.1-.542-.024-1.27.167.937,1.511.65,2.689-.987,3.395a.491.491,0,0,0-.093.069,6.775,6.775,0,0,1-.484,2.143c-.074.492-.153.989-.231,1.513a1.162,1.162,0,0,1-.317-.093c-.189.477-.36.955-.519,1.442a1.007,1.007,0,0,1,.27.381,1.709,1.709,0,0,1-.672,2.281,2.033,2.033,0,0,0-.307.227c-.116.612-.209,1.225-.293,1.841a2.168,2.168,0,0,1,.206,1.289,2.641,2.641,0,0,1-.446,1.063c-.056.826-.088,1.651-.093,2.482,1.447.352,2.19-.608,3.484-3.757Z" transform="translate(-323.761 -81.459)" fill="#fff"/>
        <path id="Path_13587" data-name="Path 13587" d="M407.541,169.907q-.159,1.17-.241,2.352a2.663,2.663,0,0,0,.445-1.063,2.237,2.237,0,0,0-.2-1.289" transform="translate(-323.729 -76.01)" fill="#fff"/>
        <path id="Path_13588" data-name="Path 13588" d="M415.821,192.727c1.174.024,2.323.042,3.432.061a.535.535,0,0,0-.064-.061,4.662,4.662,0,0,1-1.312-2.227,2.578,2.578,0,0,1-.071-.807l-1.8.168c-.061.927-.116,1.836-.18,2.866Z" transform="translate(-317.894 -62.461)" fill="#fff"/>
        <path id="Path_13589" data-name="Path 13589" d="M416.523,188.969c.27.4.575.858.95,1.419a1.549,1.549,0,0,1,.465-.556,3.015,3.015,0,0,1,2.76-.519c-.111-.283-.185-.632-.4-.788-1.326-.97-2.072-.891-3.77.45Z" transform="translate(-317.413 -63.709)" fill="#fff"/>
        <path id="Path_13590" data-name="Path 13590" d="M420.641,165.23c-.148-.77-.423-1.326-1.211-.969a14.492,14.492,0,0,0-1.72,1.085c-.937.622-1.466.492-1.981-.561a3.037,3.037,0,0,1-.207-.767c-1.2-.3-2.273-.583-3.317-.852-.347-.088-.7-.182-1.039-.27l-.566,1.141.391.238c.654.344,1.312.686,2.064,1.085-.45.844-1.119,1.643.157,2.055l.576-.209.362-.751-.158-1.447-.008-.106c.125.051.244.106.361.167l.553,1.749.775.416,1.006-.209,1.063-.217c.977-.5,1.911-1.029,2.908-1.577Z" transform="translate(-321.47 -80.81)" fill="#fff"/>
        <path id="Path_13591" data-name="Path 13591" d="M411.452,177.363h0l.013,0,.762-.349.061.19-.822.158h-.008Zm-2.908-1.7c-.719.928-.826,1.638-.153,2.018,1.272-.13,2.167-.224,3.061-.317q-.268,1.4,1.439,1.8c.76-1.328,1.432-2.793,3.112-3.331.251-.079.33-.7.537-1.183-1.35-.079-2.532-.143-3.821-.217-.7,2.342-2.463,1.85-4.17,1.238Z" transform="translate(-323.29 -72.914)" fill="#fff"/>
        <path id="Path_13592" data-name="Path 13592" d="M425.922,190.434c.288.125.561.246.844.371A19.719,19.719,0,0,0,429,190.7c-1.72-1.73-1.823-1.614-3.075-.264" transform="translate(-310.977 -62.655)" fill="#fff"/>
        <path id="Path_13593" data-name="Path 13593" d="M412.061,198.019c.408.627.627,1.461,1.156,1.664.895.357,1.006-.644,1.371-1.149-.593-.3-1.215-.59-.807-1.4l.2-.381c-1.442-.133-2.825-.291-4.212-.426a11.76,11.76,0,0,0,1.386,2.153c.042-.312.241-.521.9-.46" transform="translate(-322.037 -57.919)" fill="#fff"/>
        <path id="Path_13594" data-name="Path 13594" d="M413.139,194.14a6.668,6.668,0,0,1-2.913-1.619l-.384.487c.575.937,1.149,1.873,1.8,2.942.6-.487,1-.822,1.564-1.275.2,1.048.347,1.831.542,2.839.881-.526,1.543-.92,2.258-1.341a5.009,5.009,0,0,0-2.866-2.027Z" transform="translate(-321.988 -60.525)" fill="#fff"/>
        <path id="Path_13595" data-name="Path 13595" d="M414.022,173.6c-.64-.148-1.3-.222-1.959-.334a3.834,3.834,0,0,1-.876-.59c-.724-.871-1.3-.664-1.841.172-.069.794-.145,1.577-.238,2.606a10.962,10.962,0,0,1,1.4-.524c.516-.1,1.157-.325,1.553-.12a1.71,1.71,0,0,0,2.524-.748c-.185-.162-.347-.416-.556-.468Z" transform="translate(-322.49 -74.5)" fill="#fff"/>
        <path id="Path_13596" data-name="Path 13596" d="M416.575,195.951a2.055,2.055,0,0,0,2.7-.441,10.661,10.661,0,0,0-2.14-.532,2.975,2.975,0,0,0-1.466.1c-.788.3-1.223,1.082-1.405,2.408a8.449,8.449,0,0,0,1.921-.421c.246-.116.251-.677.389-1.114Z" transform="translate(-318.963 -58.872)" fill="#fff"/>
        <path id="Path_13597" data-name="Path 13597" d="M409.175,193.2v.042c.024-.005.042-.01.066-.013-.018-.01-.037-.018-.061-.029Z" transform="translate(-322.445 -60.059)" fill="#fff"/>
        <path id="Path_13598" data-name="Path 13598" d="M413.382,184.895c.984.029,1.966.051,2.931.079a25.611,25.611,0,0,0-.236-2.588c-.056-.3-.431-.534-.975-1.169a14.4,14.4,0,0,1,.042,1.971.776.776,0,0,1-.26.524.56.56,0,0,1-.307.116,1.055,1.055,0,0,1-.366-.037h-.019a2.122,2.122,0,0,1-.214-.071Z" transform="translate(-319.564 -68.265)" fill="#fff"/>
        <path id="Path_13599" data-name="Path 13599" d="M419.509,184.841c-.553-.436-1.1-.868-1.693-1.331-.608.27-1.178.519-1.744.77,1.233-.116,2.027,2.111,3.442.556Z" transform="translate(-317.722 -66.695)" fill="#fff"/>
        <path id="Path_13600" data-name="Path 13600" d="M415.468,166.383a23.125,23.125,0,0,0-2.677,1.855c-.45.409-.408,1.082.489,1.193q.91-1.12,1.836-2.249Z" transform="translate(-320.161 -78.423)" fill="#fff"/>
        <path id="Path_13601" data-name="Path 13601" d="M418.129,192.354a3.4,3.4,0,0,0-1.518,2.458c.807-.756,1.59-1.484,2.541-2.374-.431-.047-.81-.2-1.029-.089Z" transform="translate(-317.353 -60.67)" fill="#fff"/>
        <path id="Path_13602" data-name="Path 13602" d="M409.426,177.342c-.423.019-.854.042-1.41.066.084.226.162.453.254.676.436.145.8-.032,1.156-.746Z" transform="translate(-323.238 -70.922)" fill="#fff"/>
        <path id="Path_13603" data-name="Path 13603" d="M414.371,165.787l-.775-.418-.746-.366-.362.751a2,2,0,0,1,.232.116c.157.088.31.185.468.264a1.75,1.75,0,0,0,.232.1C413.73,166.33,414.045,166.274,414.371,165.787Z" transform="translate(-320.177 -79.367)" fill="#fff"/>
        <path id="Path_13604" data-name="Path 13604" d="M423.773,196.093a.139.139,0,0,0,.079.029c.079,0,.162-.089.249-.172.029-.029.056-.056.084-.079-.079-.074-.153-.185-.227-.241a.191.191,0,0,0-.079-.034c-.106,0-.222.163-.334.251.079.074.153.185.227.241Z" transform="translate(-312.604 -58.419)" fill="#fff"/>
        <path id="Path_13605" data-name="Path 13605" d="M412.971,196.579a4.52,4.52,0,0,0-.622.01l-.2.379.839-.027a1.986,1.986,0,0,0-.019-.357Z" transform="translate(-320.407 -57.752)" fill="#fff"/>
      </g>
    </g>
    <path id="Path_13606" data-name="Path 13606" d="M409.145,172.668l.175-.116v-.005Z" transform="translate(35.23 39.971)" fill="#fff"/>
    <g id="Group_3211" data-name="Group 3211" transform="translate(357.695 114.173)">
      <g id="Group_3210" data-name="Group 3210" clip-path="url(#clip-path)">
        <path id="Path_13607" data-name="Path 13607" d="M415.777,211.915c1.206.366,1.55-.381,1.926-.992a1.414,1.414,0,0,0-1.926.992" transform="translate(-317.924 -47.98)" fill="#fff"/>
        <path id="Path_13608" data-name="Path 13608" d="M441.586,207.606c-.32-.27-.64-.542-.984-.8a2.31,2.31,0,0,0-.5.236,10.019,10.019,0,0,0,.612.928Z" transform="translate(-301.264 -50.745)" fill="#fff"/>
        <path id="Path_13609" data-name="Path 13609" d="M439.774,208.566a.112.112,0,0,0,.047.066.971.971,0,0,0,.408.008c.056,0,.111-.008.157-.008l-.018-.465-.1.019-.484.093a1.213,1.213,0,0,0-.014.288" transform="translate(-301.497 -49.811)" fill="#fff"/>
        <path id="Path_13610" data-name="Path 13610" d="M438.97,172.247c-.357.108-.714.214-1.127.335.042-1.087.029-1.082,1.127-.335m1.5-6.837c.214,1.322-.307,1.206-1.146.859.455-.32.743-.547,1.146-.859m1.429-2.328a1.607,1.607,0,0,1,.794.923c.069,1.28-.952.45-1.434,1.029-.339-1.4-.241-2.077.64-1.953m2.9,5.1.145.2-.056.042-.056.042-.089-.148.052-.13ZM430.366,161.9a15.622,15.622,0,0,1,3.011,4.564,23.383,23.383,0,0,1,1.456,4.429,2.743,2.743,0,0,1,1.026-1.781c.291-.254.514-.672.844-.8a.979.979,0,0,1,.9.339,1.385,1.385,0,0,1,.064,1.117,6.007,6.007,0,0,1-1.169,1.159c-.152.863-.32,1.74-.527,2.719a6.766,6.766,0,0,1-.846-1.317c.1.625.187,1.257.246,1.892.019.185.024.371.037.561a8.631,8.631,0,0,1,2.913,1.415c.116.1.391.042.563-.024a1.607,1.607,0,0,0,.389-.315c-.116-.617-.222-1.178-.4-2.106,1,.728,1.683,1.2,2.347,1.643.227-.762.238-1.587.519-1.666a18.813,18.813,0,0,1,3.41-.6,11.439,11.439,0,0,1,2.119.238c.079.008.14-.168.209-.261l.376-.323-1.289-1.026a3.521,3.521,0,0,1,1.762.923c.839.831,1.307.2,1.628-.074,1.1.585,2.023,1.061,2.963,1.531l.177-.507c-1.228-1.651-3.048-1.654-4.648-2.17-.254-.751-.487-1.434-.713-2.114-.714-.2-1.56-.113-1.833-1.272l.913-.588c-.783-1.031-1.474-1.968-2.189-2.947.307-.413.553-.741.77-1.029-.942-.649-1.735-1.267-2.529-1.791a3.32,3.32,0,0,0-.94-.246c-.96-.286-1.9-.569-2.867-.918-.172.376-.4.881-.63,1.392q.326,1.178.681,2.431c-1.636.2-.881-1.633-1.585-2.3-.757,1.188.775,3.712-.826,4.183-.487-.94-.952-1.845-1.466-2.842.714-1.011-.77-2.111-.344-3.54-.873,1.159-1.553,1.963-2.222,2.751l-2.291-.836a.741.741,0,0,1-.013.111Z" transform="translate(-307.934 -82.868)" fill="#fff"/>
        <path id="Path_13611" data-name="Path 13611" d="M427.285,159.578h0c.148-.084.32-.167.445-.246l.312-.232-.19-.7c.3-.391.627-.8.992-1.267.325.468.709.928,1.141,1.471-.153.617-.278,1.132-.431,1.767.692-.2,1.248-.389,1.8-.571l.222.426-.468,1.693.858.465a1.2,1.2,0,0,0,.366-.923c.005-.121,0-.251,0-.376-.015-.259-.047-.524-.061-.78a2.945,2.945,0,0,1,.032-.728l-.8-.873a.438.438,0,0,1-.163.153c-.153.074-.286-.093-.394-.473-.556-.281-.783-.778-.681-1.651.064-.566-.079-.95-.46-1.019h-.167c.045.49.083.918.135,1.474a8.094,8.094,0,0,0-1.267-1.474h-1.884c.219,1.279.441,2.569.664,3.863" transform="translate(-310.499 -85.728)" fill="#fff"/>
        <path id="Path_13612" data-name="Path 13612" d="M431.217,158.976c.175-.775.364-1.6.583-2.542-.177-.093-.423-.334-.487-.249-.6.741-1.195,1.474-1.8,2.207l.8.873c.381.19.756.4.906-.288Z" transform="translate(-308.516 -85.418)" fill="#fff"/>
        <path id="Path_13613" data-name="Path 13613" d="M429.236,160.628v.019c.246.167.5.334.738.524.013.01.024.024.037.032l.175-1.344-.858-.455a4.091,4.091,0,0,0-.1,1.23Z" transform="translate(-308.725 -83.202)" fill="#fff"/>
      </g>
    </g>
    <path id="Path_13614" data-name="Path 13614" d="M432.76,159.9l.219.015-.167-1.2-.307-.008Z" transform="translate(51.226 30.492)" fill="#fff"/>
    <g id="Group_3213" data-name="Group 3213" transform="translate(357.695 114.173)">
      <g id="Group_3212" data-name="Group 3212" clip-path="url(#clip-path)">
        <path id="Path_13615" data-name="Path 13615" d="M444.054,179.271q.409-.877.756-1.776c-.2,0-.391.008-.576.013a14.749,14.749,0,0,0-.18,1.767Z" transform="translate(-298.562 -70.814)" fill="#fff"/>
        <path id="Path_13616" data-name="Path 13616" d="M448.11,170.617a.728.728,0,0,1-.069.024c-.264.625-.756,1.243-.65,1.85a7.217,7.217,0,0,1-.849,4.379c-.964-1-1.776-1.879-2.35-2.519-1.275.148-2.161.2-3.039.283a5.177,5.177,0,0,0,2.76,2.143c1.573.59,1.685,1.174.669,2.551.307.542.617,1.087.876,1.545.756-.362,1.452-.751,2.148-1.117a22.479,22.479,0,0,0,.612-9.138l-.106.042v-.042Z" transform="translate(-300.549 -75.523)" fill="#fff"/>
        <path id="Path_13617" data-name="Path 13617" d="M444.2,168.867a3.865,3.865,0,0,1,.2,1.568c-.371,1.307.409,1.794,1.558,2.143a11.256,11.256,0,0,0-.014-1.262c-.138-.794-.315-1.587-.524-2.375-.1-.389-.217-.77-.334-1.154l-.386.468c-.162.194-.328.4-.505.607Z" transform="translate(-298.465 -77.461)" fill="#fff"/>
        <path id="Path_13618" data-name="Path 13618" d="M410.4,163.377c.389.608.792,1.225,1.437,2.227.254-1.648-.433-3.312,1.184-3.693-.037-.8-.072-1.553-.109-2.315a2.551,2.551,0,0,0-1.958,2.532c-1.5-.445-1.469-.44-1.1-1.688a2.349,2.349,0,0,0-.051-1.093,1.9,1.9,0,0,1,.982-2.269,7.257,7.257,0,0,1,1.1-.3c.051-.839.088-1.469.125-2.106-.4-.231-.886-.741-1.2-.644-1.474.44-2.743-.163-4.05-.664,0,.14-.017.278-.015.418.012.468.035.937.062,1.4.332-.12.831-.3,1.476-.524.013.51.18,1.053,0,1.243a8.054,8.054,0,0,1-1.3,1.043,19.857,19.857,0,0,0,.5,2.571c.5,1.9,1.046,3.784,1.6,5.667a3.018,3.018,0,0,1,.2.3c.637-.733-.408-2.138,1.11-2.106" transform="translate(-324.108 -87.338)" fill="#fff"/>
      </g>
    </g>
    <path id="Path_13619" data-name="Path 13619" d="M410.4,157.069v0Z" transform="translate(36.093 29.367)" fill="#fff"/>
    <g id="Group_3215" data-name="Group 3215" transform="translate(357.695 114.173)">
      <g id="Group_3214" data-name="Group 3214" clip-path="url(#clip-path)">
        <path id="Path_13620" data-name="Path 13620" d="M408.6,167.479a1.03,1.03,0,0,0-.27-.381c-.051.153-.111.3-.153.455-.217.807-.4,1.624-.561,2.439a1.824,1.824,0,0,1,.307-.227,1.709,1.709,0,0,0,.672-2.281Z" transform="translate(-323.513 -77.933)" fill="#fff"/>
        <path id="Path_13621" data-name="Path 13621" d="M408.9,165.4c-.1.278-.209.553-.32.831-.074.194-.153.389-.232.588a1.081,1.081,0,0,0,.317.094c.078-.521.157-1.021.231-1.513Z" transform="translate(-323.01 -79.096)" fill="#fff"/>
        <path id="Path_13622" data-name="Path 13622" d="M410.432,163.234c.728-.19,1-.264,1.27-.167a2.632,2.632,0,0,1,.59.366c1.285-.569.64-1.823,1.257-3.061-1.622.413-2.852.724-3.993,1.016-.084.283-.158.521-.275.9a2.325,2.325,0,0,0-.886-.384c.145.487.283.969.428,1.456a11.688,11.688,0,0,1,.542,3.145c0,.064-.013.125-.013.19a.585.585,0,0,1,.093-.071c1.641-.7,1.929-1.879.987-3.395" transform="translate(-322.979 -82.539)" fill="#fff"/>
        <path id="Path_13623" data-name="Path 13623" d="M429.139,160.928h0l-.1-.162Zm-1.36-2.236a2.448,2.448,0,0,0,.116.273,1.868,1.868,0,0,1,.246.751,4.2,4.2,0,0,0,.083,1.722,9.554,9.554,0,0,1,1.383.612c-.172-.4-.325-.765-.465-1.122.473.148.975.291,1.462.413l.468-1.693-.222-.426c-.558.18-1.114.376-1.8.569.153-.635.283-1.149.431-1.766-.426-.544-.815-1-1.141-1.471-.362.463-.686.881-.992,1.265.079.3.135.5.19.7l.241.167Z" transform="translate(-310.001 -85.153)" fill="#fff"/>
        <path id="Path_13624" data-name="Path 13624" d="M440.548,180.318c-1.341.548-2.709,1.048-4.091,1.553l-.01.487c.984.394,1.971.785,2.913,1.161.357-.51.571-.844.881-1.309.915,1.114,1.852,1.471,3.011.418q-.667-1.579-1.331-3.154c.042-.516.079-1.034.125-1.624-.352.005-.659.01-.937.005s-.537-.005-.793-.008Z" transform="translate(-303.77 -70.573)" fill="#fff"/>
        <path id="Path_13625" data-name="Path 13625" d="M434.174,175.3c.209.489.362.841.51,1.189l.445-.121c.116-.992.473-2.146-.667-2.82a4.45,4.45,0,0,0-.97-.4q-.159,1.3-.445,2.583C433.428,175.591,433.8,175.448,434.174,175.3Z" transform="translate(-306.098 -73.79)" fill="#fff"/>
        <path id="Path_13626" data-name="Path 13626" d="M438.787,173.179h0l-.013.01c.153,1.59-1.555,1.13-2.627,2.072,2.106-.13,3.786-.63,5.4-.376,1.661.259,3.3,1.248,5.005,1.836a3.935,3.935,0,0,0-1.331-1.7,8.351,8.351,0,0,0-1.545-.878,14.909,14.909,0,0,0-4.894-.974Z" transform="translate(-303.976 -73.773)" fill="#fff"/>
        <path id="Path_13627" data-name="Path 13627" d="M418.747,163.191c-.32.27-.674.566-1.147.969,1.137,1.351,2.163.711,3.428.441-.414-.376-.692-.519-.794-.751a13.3,13.3,0,0,1-.478-1.494,7.2,7.2,0,0,1,1.41-.376c.512-.027,1.028.2,1.54.2.654,0,.812-.478.719-1.54a3.174,3.174,0,0,1-2.537.5,2.317,2.317,0,0,0-2.433.96c-.414-.514-.706-.886-1.026-1.284-.31.125-.608.249-1.146.472.93.627,1.683,1.132,2.431,1.629.032.024.017.13.032.278" transform="translate(-317.577 -82.355)" fill="#fff"/>
        <path id="Path_13628" data-name="Path 13628" d="M435.391,172.559a.884.884,0,0,0-.751-.18c-.227.056-.4.3-.571.453.65,1.063,1.169,1.889,1.823,2.9.928-.524,1.8-.992,2.571-1.471-.539-1.948-2.264-.672-3.071-1.7Z" transform="translate(-305.399 -74.33)" fill="#fff"/>
        <path id="Path_13629" data-name="Path 13629" d="M413.55,164.279c1.183-.328,2.347-.617,3.73-1.034-.094-.58-.214-1.317-.354-2.188-1.056,1.3-3.056,1.149-3.376,3.223" transform="translate(-319.449 -82.07)" fill="#fff"/>
        <path id="Path_13630" data-name="Path 13630" d="M415.5,155.605c-.283-.315-.574-.9-.849-.891-.463.015-.918.4-1.712.794.775.418,1.179.8,1.592.807.324,0,.649-.458.974-.709Z" transform="translate(-319.866 -86.413)" fill="#fff"/>
        <path id="Path_13631" data-name="Path 13631" d="M435.178,178.872a1.861,1.861,0,0,0,1.531.051,1.621,1.621,0,0,0,.736-1.228l-.9-.241C436.1,177.935,435.641,178.4,435.178,178.872Z" transform="translate(-304.639 -70.843)" fill="#fff"/>
        <path id="Path_13632" data-name="Path 13632" d="M427.328,159.287a3.242,3.242,0,0,0,.738-1.039c.061-.12.12-.241.18-.357l-.241-.167-.312.232c-.125.079-.3.162-.445.246l-.44.241-.121.381-.013.04c.222.153.58.5.654.423" transform="translate(-310.462 -84.352)" fill="#fff"/>
      </g>
    </g>
    <path id="Path_13633" data-name="Path 13633" d="M427.012,158.007h0Z" transform="translate(47.464 30.015)" fill="#fff"/>
    <path id="Path_13634" data-name="Path 13634" d="M436.792,177.871l.918.217-.2-.738Z" transform="translate(54.161 43.26)" fill="#fff"/>
    <g id="Group_3217" data-name="Group 3217" transform="translate(357.695 114.173)">
      <g id="Group_3216" data-name="Group 3216" clip-path="url(#clip-path)">
        <path id="Path_13635" data-name="Path 13635" d="M411.295,160.085l-.042-.472h-.013l-.307.084c0,.061,0,.13,0,.19s0,.118.032.147c.064.066.222.037.339.051Z" transform="translate(-321.243 -83.058)" fill="#fff"/>
        <path id="Path_13636" data-name="Path 13636" d="M410.648,162.424c-.45.746.423.492.566.788Z" transform="translate(-321.523 -81.134)" fill="#fff"/>
      </g>
    </g>
    <path id="Path_13637" data-name="Path 13637" d="M410.405,157.108l0,.005.162-.121Z" transform="translate(36.093 29.32)" fill="#fff"/>
    <path id="Path_13638" data-name="Path 13638" d="M437.77,173.239l.013-.007-.172-.138Z" transform="translate(54.722 40.346)" fill="#fff"/>
    <g id="Group_3219" data-name="Group 3219" transform="translate(357.695 114.173)">
      <g id="Group_3218" data-name="Group 3218" clip-path="url(#clip-path)">
        <path id="Path_13639" data-name="Path 13639" d="M418.889,155.23a.789.789,0,0,0-.106-.394c-.018-.047-.037-.093-.056-.135-.066.037-.135.079-.2.121s-.153.088-.246.143c.1.217.17.376.246.537.13-.088.352-.157.366-.268Z" transform="translate(-316.212 -86.422)" fill="#fff"/>
        <path id="Path_13640" data-name="Path 13640" d="M412.04,153.432c-.334-.765-.608-1.392-.913-2.092-.1-.032-.2-.069-.293-.1-1.011,1.7-.9,1.776,1.206,2.194" transform="translate(-321.733 -88.793)" fill="#fff"/>
        <path id="Path_13641" data-name="Path 13641" d="M409.455,153.347a.918.918,0,0,0,.185-.371c0-.015.013-.034.013-.047.034-.249-.125-.455-.421-.659-.074.4-.148.8-.3,1.6a3.716,3.716,0,0,0,.524-.519Z" transform="translate(-322.608 -88.086)" fill="#fff"/>
      </g>
    </g>
    <path id="Path_13642" data-name="Path 13642" d="M409.154,152.341h.007l-.118-.175Z" transform="translate(35.16 26.015)" fill="#fff"/>
    <g id="Group_3221" data-name="Group 3221" transform="translate(357.695 114.173)">
      <g id="Group_3220" data-name="Group 3220" clip-path="url(#clip-path)">
        <path id="Path_13643" data-name="Path 13643" d="M437.816,178.54s.1.061.153.093c.037-.056.093-.106.1-.167,0-.018-.1-.061-.152-.093-.037.056-.093.106-.1.167" transform="translate(-302.833 -70.213)" fill="#fff"/>
      </g>
    </g>
    <path id="Path_13644" data-name="Path 13644" d="M418.544,165.182l.037.111.157-.125Z" transform="translate(41.666 34.919)" fill="#fff"/>
    <g id="Group_3223" data-name="Group 3223" transform="translate(357.695 114.173)">
      <g id="Group_3222" data-name="Group 3222" clip-path="url(#clip-path)">
        <path id="Path_13645" data-name="Path 13645" d="M411.517,163.8l-.389-.236c-.413.259-.826.519-1.309.826.381.7-.236,1.72.9,2.133.886.325-.5,2.018,1.378,2.106-.214-.863-.185-1.781-.617-2.283a2.071,2.071,0,0,1-.413-.691,2.285,2.285,0,0,1,.45-1.855" transform="translate(-322.004 -80.35)" fill="#fff"/>
        <path id="Path_13646" data-name="Path 13646" d="M409.032,168.528c0,.2.418.4.756.7.194-.686.334-1.164.468-1.641v-.019c-.873-.3-1.225.175-1.225.95Z" transform="translate(-322.543 -77.67)" fill="#fff"/>
        <path id="Path_13647" data-name="Path 13647" d="M413.516,166l-.553-1.749c-.12-.061-.241-.116-.361-.167l.008.106.158,1.444Z" transform="translate(-320.097 -79.997)" fill="#fff"/>
      </g>
    </g>
    <path id="Path_13648" data-name="Path 13648" d="M410.034,176.311l.822-.162-.061-.192Z" transform="translate(35.838 42.306)" fill="#fff"/>
    <path id="Path_13649" data-name="Path 13649" d="M410.026,176.168v.005l.013-.005Z" transform="translate(35.833 42.45)" fill="#fff"/>
    <g id="Group_3225" data-name="Group 3225" transform="translate(357.695 114.173)">
      <g id="Group_3224" data-name="Group 3224" clip-path="url(#clip-path)">
        <path id="Path_13650" data-name="Path 13650" d="M434.684,167.519a5.866,5.866,0,0,0,1.169-1.159,1.376,1.376,0,0,0-.066-1.119.976.976,0,0,0-.9-.339c-.334.126-.551.542-.844.8a2.736,2.736,0,0,0-1.024,1.781c.106.478.212.955.291,1.442a6.9,6.9,0,0,0,.844,1.317c.206-.974.376-1.855.529-2.717Z" transform="translate(-306.121 -79.452)" fill="#fff"/>
        <path id="Path_13651" data-name="Path 13651" d="M438.34,162.714a1.646,1.646,0,0,0-.794-.923c-.881-.125-.979.553-.64,1.953.484-.58,1.508.246,1.434-1.029" transform="translate(-303.579 -81.577)" fill="#fff"/>
        <path id="Path_13652" data-name="Path 13652" d="M434.8,167.772l1.127-.334c-1.1-.746-1.08-.751-1.127.334" transform="translate(-304.895 -78.06)" fill="#fff"/>
        <path id="Path_13653" data-name="Path 13653" d="M436.828,163.167c-.408.307-.691.537-1.146.858.844.349,1.363.468,1.146-.858" transform="translate(-304.294 -80.625)" fill="#fff"/>
      </g>
    </g>
    <path id="Path_13654" data-name="Path 13654" d="M438.906,164.941l.083.148.057-.042.056-.037-.148-.2Z" transform="translate(55.608 34.674)" fill="#fff"/>
    <g id="Group_3227" data-name="Group 3227" transform="translate(357.695 114.173)">
      <g id="Group_3226" data-name="Group 3226" clip-path="url(#clip-path)">
        <path id="Path_13655" data-name="Path 13655" d="M445.312,171.143l.106-.042c-.051-.4-.111-.794-.18-1.191.018.394.061.792.069,1.2v.037Z" transform="translate(-297.751 -76.008)" fill="#fff"/>
        <path id="Path_13656" data-name="Path 13656" d="M408.257,154.136c-.645.227-1.141.408-1.474.524.037.59.1,1.178.18,1.759a7.789,7.789,0,0,0,1.3-1.045c.175-.19.008-.733,0-1.243Z" transform="translate(-324.083 -86.812)" fill="#fff"/>
      </g>
    </g>
    <path id="Path_13657" data-name="Path 13657" d="M428.451,159.221l.005-.005-.1-.162Z" transform="translate(48.382 30.732)" fill="#fff"/>
    <g id="Group_3229" data-name="Group 3229" transform="translate(357.695 114.173)">
      <g id="Group_3228" data-name="Group 3228" clip-path="url(#clip-path)">
        <path id="Path_13658" data-name="Path 13658" d="M364.464,152.476a1,1,0,0,1,.1-.8.831.831,0,0,1,.492-.473,4.19,4.19,0,0,1,1.479.283c.807.236,1.7.548,2.69.94q3.695,1.5,4.35,1.831a1.106,1.106,0,0,1,.256.155.806.806,0,0,1,.133.455,1.042,1.042,0,0,1-.093.543.363.363,0,0,1-.083.116.9.9,0,0,1-.817.347,12.134,12.134,0,0,1-2.194-.812c-1.114-.472-1.934-.8-2.463-.982l-.566-.209.728.852a17.174,17.174,0,0,0,1.619,1.69,5.237,5.237,0,0,1,.878,1.018,1.06,1.06,0,0,1,.041.782.547.547,0,0,1-.059.175c-.071.14-.367.288-.9.452a13.932,13.932,0,0,1-2.6.413,9.516,9.516,0,0,0-1.86.217c-.024.042.3.232.974.569.357.18.64.317.852.4.864.4,1.328.617,1.4.654a1.66,1.66,0,0,1,.728.546.924.924,0,0,1,.061.957.812.812,0,0,1-.8.467,6.381,6.381,0,0,1-1.661-.679,23.872,23.872,0,0,0-2.675-1.169c-.984-.359-1.656-.632-2.013-.809a2.258,2.258,0,0,1-.561-.349,1.02,1.02,0,0,1-.219-.458,1.246,1.246,0,0,1-.027-.965.908.908,0,0,1,.371-.379,12.444,12.444,0,0,1,2.143-.45q1.865-.306,3.182-.416a4.223,4.223,0,0,0,.868-.131l-.135-.143a4.821,4.821,0,0,0-.376-.458c-.182-.207-.335-.382-.465-.536-.654-.741-1.26-1.478-1.813-2.21a7.379,7.379,0,0,1-.947-1.444Z" transform="translate(-355.045 -88.826)" fill="#fff"/>
        <path id="Path_13659" data-name="Path 13659" d="M369.549,143.638a.843.843,0,0,1,.088-.529.833.833,0,0,1,.46-.27,1.157,1.157,0,0,1,.574-.04.52.52,0,0,1,.182.1,14.827,14.827,0,0,1,2.387,3q.933,1.357,2.219,3.241a10.9,10.9,0,0,1,1.321,2.2.794.794,0,0,1-.148.569.83.83,0,0,1-1.1.325.43.43,0,0,0-.064-.032.261.261,0,0,1-.066-.034,10.449,10.449,0,0,1-1.424-1.813l-1.215-1.749-1.146.233q-2.416.521-3.275.606a1.851,1.851,0,0,1-1.233-.18,1,1,0,0,1-.423-.593.72.72,0,0,1,.1-.622.366.366,0,0,1,.111-.116,7.047,7.047,0,0,1,1.976-.5,17.47,17.47,0,0,0,2.249-.445l.519-.14-1.038-1.4a5.2,5.2,0,0,1-1.058-1.809Z" transform="translate(-351.555 -94.585)" fill="#fff"/>
        <path id="Path_13660" data-name="Path 13660" d="M378.157,133.249a2.388,2.388,0,0,1,.566-.745c.024-.019.061-.047.111-.084s.093-.071.13-.1a2.45,2.45,0,0,1,.95-.5,5.323,5.323,0,0,1,1.365-.1,1.248,1.248,0,0,1,.955.322c.384.436.389.822.01,1.156a2.011,2.011,0,0,1-1.184.4,2,2,0,0,0-1.043.308,1.557,1.557,0,0,0-.376.827,3.357,3.357,0,0,0,.236,1.846A6.124,6.124,0,0,0,381,138.46a3.836,3.836,0,0,0,1.179.95,2.727,2.727,0,0,0,.95.244,2.274,2.274,0,0,0,.955-.062,2.579,2.579,0,0,0,.831-.521,2.7,2.7,0,0,0,.82-1.124,5.907,5.907,0,0,1,.831-1.835.541.541,0,0,1,.238-.116,1.043,1.043,0,0,1,.681.008.666.666,0,0,1,.33.2c.212.239.2.783-.037,1.622a5.259,5.259,0,0,1-1.526,2.574c-.032.034-.093.072-.172.135s-.14.1-.172.135a4.149,4.149,0,0,1-4.392.478,5.276,5.276,0,0,1-1.693-1.264c-.042-.045-.1-.106-.175-.182s-.131-.128-.163-.16a7.969,7.969,0,0,1-1.609-2.933,4.444,4.444,0,0,1-.222-1.686,4.828,4.828,0,0,1,.5-1.68Z" transform="translate(-344.034 -102.161)" fill="#fff"/>
        <path id="Path_13661" data-name="Path 13661" d="M387.574,128.979s.278.632.807,1.852.812,1.863.854,1.929a4.7,4.7,0,0,0,.9-.548c.6-.4.881-.664.853-.788a.262.262,0,0,0-.056-.125,7.473,7.473,0,0,0-2.254-1.809,3.9,3.9,0,0,0-1.127-.574c-.014.008,0,.032.019.069Zm-2.249-1.6a.693.693,0,0,1,.31-.487,1.792,1.792,0,0,1,1.243-.162,8.826,8.826,0,0,1,3.738,1.776,13.96,13.96,0,0,1,3.437,3.442l.28.421a2.781,2.781,0,0,1,.3.543.486.486,0,0,1-.037.357.954.954,0,0,1-.366.492.886.886,0,0,1-.738.135,1.272,1.272,0,0,1-.757-.6l-.328-.5-.465.423a11.523,11.523,0,0,1-1.2.886l-.729.487.381.575a1.332,1.332,0,0,1,.312.923.853.853,0,0,1-.362.571.972.972,0,0,1-.751.116.944.944,0,0,1-.413-.209,4.851,4.851,0,0,1-.516-.691,23.024,23.024,0,0,1-1.479-3.048q-1.969-4.655-1.86-5.442Z" transform="translate(-338.78 -105.595)" fill="#fff"/>
        <path id="Path_13662" data-name="Path 13662" d="M391.98,123.845a.807.807,0,0,1,.394-.45,2.949,2.949,0,0,1,.362-.148,37.64,37.64,0,0,0,4.193-1.786,5.7,5.7,0,0,0,.607-.325,4.652,4.652,0,0,1,.446-.241.977.977,0,0,1,.778-.024,1.011,1.011,0,0,1,.612.468.794.794,0,0,1,0,.64.833.833,0,0,1-.292.423,8.017,8.017,0,0,1-1.024.548l-1.2.585.362.588a58.56,58.56,0,0,1,2.913,5.506,9.554,9.554,0,0,1,.593,1.323.838.838,0,0,1-.49.826.857.857,0,0,1-.637.056.791.791,0,0,1-.472-.394q-.217-.341-1.193-2.241-1.413-2.686-2.018-3.77l-.7-1.22-.6.291a5.168,5.168,0,0,1-1.808.585.884.884,0,0,1-.864-.561.734.734,0,0,1,.029-.677" transform="translate(-334.286 -109.634)" fill="#fff"/>
        <path id="Path_13663" data-name="Path 13663" d="M410.224,116.617a3.235,3.235,0,0,1,1.109-.408,5.567,5.567,0,0,1,2.241-.093,3.975,3.975,0,0,1,1.151.357.842.842,0,0,1,.394.569.879.879,0,0,1-.089.669.784.784,0,0,1-.529.362,4.373,4.373,0,0,1-1.336-.084,4.366,4.366,0,0,0-1.334-.084,1.907,1.907,0,0,0-.674.362,4.091,4.091,0,0,0-1.432,3.442,3.3,3.3,0,0,0,.059.812,4.17,4.17,0,0,0,.743,1.461,2.657,2.657,0,0,0,1.363.854,3.481,3.481,0,0,0,1.764.106,1.4,1.4,0,0,0,.617-.241.435.435,0,0,0,.082-.431l-.032-.158-.148-.463-.574.172a.7.7,0,0,0-.153.045l-.135.042a.9.9,0,0,1-.687-.13.917.917,0,0,1-.413-.59.886.886,0,0,1,.542-1.061,2.018,2.018,0,0,1,.571-.2,2.989,2.989,0,0,1,1.712-.024,1.449,1.449,0,0,1,.667.571,5.971,5.971,0,0,1,.431,1.424,3.107,3.107,0,0,1,.071,1.818,3.035,3.035,0,0,1-1.569.886,3.556,3.556,0,0,1-.487.13,5.672,5.672,0,0,1-2.611-.059,4.108,4.108,0,0,1-2.992-2.343,6.077,6.077,0,0,1-.551-1.442,6.468,6.468,0,0,1,.231-3.6,5.06,5.06,0,0,1,2.013-2.677Z" transform="translate(-323.359 -112.894)" fill="#fff"/>
        <path id="Path_13664" data-name="Path 13664" d="M421.305,116.763a2.927,2.927,0,0,0-1.233-.157c-.674.051-1.034.207-1.09.472-.024.126-.019.785,0,1.971s.056,2.023.088,2.5a.47.47,0,0,0,.023.125.529.529,0,0,1,.019.1v.022a8.088,8.088,0,0,0,1.943-.175,4.187,4.187,0,0,0,.8-.386,4.067,4.067,0,0,0,1.066-.844,1.213,1.213,0,0,0,.254-.871l-.022-.275a2.8,2.8,0,0,0-1.852-2.482ZM418.749,115a5.5,5.5,0,0,1,1.294-.265,4.633,4.633,0,0,1,3.289,1.1,4.19,4.19,0,0,1,1.174,1.294,5.344,5.344,0,0,1,.472,1.782c0,.074.018.18.037.32s.029.226.034.273a3,3,0,0,1-.158,1.211,3.76,3.76,0,0,1-1.585,1.826c-.409.293-.608.468-.6.529a1.866,1.866,0,0,0,.416.659,2.15,2.15,0,0,1,.516,1,.819.819,0,0,1-.167.542.833.833,0,0,1-.664.376.86.86,0,0,1-.635-.167,7.737,7.737,0,0,1-.886-1.048,3.954,3.954,0,0,0-.533-.617.536.536,0,0,0-.381-.121,3.472,3.472,0,0,1-.691-.013l-.394-.042.17,1,.15,1-.339.394a.964.964,0,0,1-.637.418.9.9,0,0,1-.564-.185c-.214-.138-.367-.571-.47-1.3-.143-1.034-.259-2.161-.357-3.381-.12-1.558-.175-2.746-.162-3.556a4.822,4.822,0,0,1,.376-2.116,2.058,2.058,0,0,1,1.3-.918" transform="translate(-317.037 -113.796)" fill="#fff"/>
        <path id="Path_13665" data-name="Path 13665" d="M429.435,117.729s-.153.667-.463,1.966-.465,1.98-.47,2.059a4.337,4.337,0,0,0,1.053.1c.719.037,1.105,0,1.161-.121a.291.291,0,0,0,.027-.138,7.475,7.475,0,0,0-.723-2.8,4.072,4.072,0,0,0-.561-1.136c-.015,0-.024.024-.029.069Zm-.849-2.621a.651.651,0,0,1,.537-.2,1.793,1.793,0,0,1,1.1.612,8.882,8.882,0,0,1,1.934,3.659,14.078,14.078,0,0,1,.7,4.81l-.027.505a2.812,2.812,0,0,1-.079.618.487.487,0,0,1-.241.263.926.926,0,0,1-.585.177.889.889,0,0,1-.672-.334,1.309,1.309,0,0,1-.251-.933l.032-.6-.627.061a12.309,12.309,0,0,1-1.493-.008l-.873-.047-.037.687a1.318,1.318,0,0,1-.3.927.843.843,0,0,1-.635.241.971.971,0,0,1-.667-.357.938.938,0,0,1-.209-.413,4.862,4.862,0,0,1,0-.863,22.411,22.411,0,0,1,.64-3.326q1.2-4.905,1.767-5.472Z" transform="translate(-310.81 -113.671)" fill="#fff"/>
        <path id="Path_13666" data-name="Path 13666" d="M438.4,115.686a2.674,2.674,0,0,1,1.122,0,2.745,2.745,0,0,1,1.026.4,5.454,5.454,0,0,1,1.122,1.257,7.2,7.2,0,0,1,.534.858.875.875,0,0,1-.381,1.114.971.971,0,0,1-.613.143c-.268-.051-.667-.426-1.191-1.13-.362-.5-.664-.775-.9-.822-.423-.079-.8.219-1.146.886a1.514,1.514,0,0,0-.148.441c-.1.542.273,1.395,1.117,2.564a9.117,9.117,0,0,1,1.034,1.744,2.491,2.491,0,0,1,.14,1.275,2.539,2.539,0,0,1-1.968,1.931,2.955,2.955,0,0,1-1.437.088,2.851,2.851,0,0,1-1.717-.969A2.424,2.424,0,0,1,434.4,124a1.11,1.11,0,0,1,.024-.256.9.9,0,0,1,.366-.6.928.928,0,0,1,.687-.167,1,1,0,0,1,.524.376.739.739,0,0,1,.241.534c-.019.106.061.241.241.408a1.1,1.1,0,0,0,.537.3,1.34,1.34,0,0,0,.748-.121c.3-.1.463-.241.5-.421.037-.214-.13-.561-.51-1.053a9.657,9.657,0,0,1-1.633-2.68,2.889,2.889,0,0,1-.172-.794,7.024,7.024,0,0,1,.135-1.063,3.969,3.969,0,0,1,.553-1.6,3.2,3.2,0,0,1,1.757-1.174Z" transform="translate(-305.173 -113.178)" fill="#fff"/>
        <path id="Path_13667" data-name="Path 13667" d="M447.587,117.8a2.8,2.8,0,0,1,1.114.14,2.649,2.649,0,0,1,.964.527,5.588,5.588,0,0,1,.952,1.392,7.194,7.194,0,0,1,.418.92.85.85,0,0,1-.01.514.8.8,0,0,1-.51.534.987.987,0,0,1-.625.064c-.261-.083-.608-.51-1.034-1.275-.293-.542-.553-.852-.788-.927-.409-.131-.827.111-1.248.733a1.423,1.423,0,0,0-.2.416c-.167.524.088,1.42.775,2.685a9,9,0,0,1,.8,1.865,2.448,2.448,0,0,1-.029,1.28,2.543,2.543,0,0,1-2.2,1.661,2.924,2.924,0,0,1-1.437-.1,2.825,2.825,0,0,1-1.572-1.183,2.477,2.477,0,0,1-.4-1.531.862.862,0,0,1,.056-.244.92.92,0,0,1,.441-.548.948.948,0,0,1,.7-.079.985.985,0,0,1,.473.445.721.721,0,0,1,.172.561c-.032.1.029.246.185.431a1.108,1.108,0,0,0,.5.367,1.33,1.33,0,0,0,.756-.024c.31-.061.49-.18.546-.352.066-.2-.056-.576-.366-1.109a9.582,9.582,0,0,1-1.27-2.871,2.8,2.8,0,0,1-.066-.807,6.344,6.344,0,0,1,.273-1.034,3.889,3.889,0,0,1,.756-1.521,3.166,3.166,0,0,1,1.892-.933Z" transform="translate(-299.598 -111.698)" fill="#fff"/>
        <path id="Path_13668" data-name="Path 13668" d="M496.12,166.755a2.26,2.26,0,0,1,.413.839.579.579,0,0,1,.024.135,1.011,1.011,0,0,0,.032.158,2.559,2.559,0,0,1,.024,1.075,4.959,4.959,0,0,1-.521,1.267,1.24,1.24,0,0,1-.714.714c-.561.148-.908-.019-1.038-.505a2.018,2.018,0,0,1,.172-1.233,1.99,1.99,0,0,0,.19-1.072,1.547,1.547,0,0,0-.571-.706,3.359,3.359,0,0,0-1.759-.617,5.954,5.954,0,0,0-2.188.167,3.811,3.811,0,0,0-1.378.627,2.835,2.835,0,0,0-.644.741,2.368,2.368,0,0,0-.372.886,2.584,2.584,0,0,0,.093.974,2.7,2.7,0,0,0,.637,1.235,6.034,6.034,0,0,1,1.27,1.562.63.63,0,0,1,0,.264,1.064,1.064,0,0,1-.312.608.661.661,0,0,1-.323.2c-.312.084-.794-.172-1.439-.76a5.226,5.226,0,0,1-1.622-2.519c-.01-.042-.029-.116-.047-.214s-.032-.167-.046-.214a4.136,4.136,0,0,1,1.54-4.141,5.248,5.248,0,0,1,1.882-.95c.061-.015.14-.042.243-.076l.217-.069a8.039,8.039,0,0,1,3.344-.13,4.4,4.4,0,0,1,1.609.561,4.823,4.823,0,0,1,1.28,1.193Z" transform="translate(-269.896 -79.445)" fill="#fff"/>
        <path id="Path_13669" data-name="Path 13669" d="M498.7,177.14c.125.505.2.844.222,1.011.106.836-.12,1.291-.682,1.365l-.115.013a.8.8,0,0,1-.8-.349,6.72,6.72,0,0,1-.473-1.8l-.278-1.633-1.953.32q-1.928.341-1.944.367v.045c.034.214.209.992.539,2.344.069.3.106.463.111.5a.663.663,0,0,1-.143.505.852.852,0,0,1-.585.33.822.822,0,0,1-.7-.19,4.552,4.552,0,0,1-.9-2.273l-.19-.928-1.479.19.013.645c0,.125.029.381.074.778.057.441.108.767.15.979.04.2.077.436.114.728a1.527,1.527,0,0,1-.027.677.852.852,0,0,1-.389.4.993.993,0,0,1-.335.111.888.888,0,0,1-.932-.6,6.593,6.593,0,0,1-.352-1.688,9.359,9.359,0,0,1-.116-2.9l.019-.047a.985.985,0,0,1,.431-.612,21.358,21.358,0,0,1,4.114-.78,1.964,1.964,0,0,1,.339-.064l.389-.052,3.344-.473a3.313,3.313,0,0,1,1.555-.014,1.76,1.76,0,0,1,.723,1.3c0,.029,0,.074.005.14a.968.968,0,0,0,.008.162,4.256,4.256,0,0,0,.042.505,7.5,7.5,0,0,0,.2,1.016Z" transform="translate(-268.834 -73.234)" fill="#fff"/>
        <path id="Path_13670" data-name="Path 13670" d="M497.346,186.9a2.916,2.916,0,0,0,.256-1.215c0-.677-.126-1.05-.389-1.127q-.182-.051-1.961-.153c-1.189-.071-2.018-.108-2.493-.108a.485.485,0,0,0-.125.01.461.461,0,0,1-.1.008h-.022a4.436,4.436,0,0,0-.052,1.013,4.32,4.32,0,0,0,.072.94,4.206,4.206,0,0,0,.32.827,3.934,3.934,0,0,0,.755,1.127,1.221,1.221,0,0,0,.849.323h.273a2.778,2.778,0,0,0,2.62-1.646m1.959-2.408a5.507,5.507,0,0,1,.158,1.307,4.636,4.636,0,0,1-1.365,3.193,4.233,4.233,0,0,1-1.383,1.066,5.176,5.176,0,0,1-1.814.328c-.078,0-.185,0-.324.01s-.226.008-.275.008a2.857,2.857,0,0,1-1.191-.254,3.76,3.76,0,0,1-1.7-1.725c-.258-.431-.423-.645-.482-.645a1.826,1.826,0,0,0-.691.366,2.142,2.142,0,0,1-1.036.436.9.9,0,0,1-.847-.9.866.866,0,0,1,.222-.622,7.537,7.537,0,0,1,1.117-.8,3.572,3.572,0,0,0,.654-.482.531.531,0,0,0,.15-.367,3.343,3.343,0,0,1,.069-.691l.071-.389-1.013.088-1.011.066-.366-.367a.963.963,0,0,1-.367-.667.946.946,0,0,1,.231-.553c.153-.2.6-.32,1.336-.367,1.039-.059,2.177-.088,3.4-.083,1.563,0,2.751.042,3.563.12a4.738,4.738,0,0,1,2.077.548,2.062,2.062,0,0,1,.814,1.37Z" transform="translate(-268.549 -67.427)" fill="#fff"/>
        <path id="Path_13671" data-name="Path 13671" d="M498.854,192.553a.819.819,0,0,1,.148.58,2.713,2.713,0,0,1-.079.386,38.623,38.623,0,0,0-.871,4.471,5.546,5.546,0,0,0-.074.686c-.01.153-.024.32-.052.505a1.147,1.147,0,0,1-1.149.9.825.825,0,0,1-.529-.352.882.882,0,0,1-.19-.477,8.028,8.028,0,0,1,.12-1.156l.19-1.317-.691-.027a58.193,58.193,0,0,1-6.192-.677,9.241,9.241,0,0,1-1.425-.251.836.836,0,0,1-.408-.873.862.862,0,0,1,.312-.561.8.8,0,0,1,.593-.172c.27.005,1.114.1,2.529.265q3.012.341,4.252.446l1.4.106.093-.659a5.262,5.262,0,0,1,.529-1.828.883.883,0,0,1,.95-.4.757.757,0,0,1,.548.4Z" transform="translate(-268.716 -60.789)" fill="#fff"/>
        <path id="Path_13672" data-name="Path 13672" d="M496.394,202.575a1.082,1.082,0,0,1,.121.529,1.144,1.144,0,0,1-.275.455.892.892,0,0,1-.394.273,20.783,20.783,0,0,1-3.8-.45c-2.246-.366-3.883-.686-4.9-.955a2.389,2.389,0,0,1-.566-.2.877.877,0,0,1-.3-.932.8.8,0,0,1,.64-.64,10.217,10.217,0,0,1,2.332.347c.979.2,2.32.418,4.027.677,1.211.158,2.013.293,2.413.394a.978.978,0,0,1,.7.492Z" transform="translate(-269.675 -54.961)" fill="#fff"/>
        <path id="Path_13673" data-name="Path 13673" d="M494.138,213.077a5.893,5.893,0,0,1-.18,1.114,1.023,1.023,0,0,1-.436.5.911.911,0,0,1-.812.061.71.71,0,0,1-.463-.45,4.52,4.52,0,0,1,.042-1.461,12.143,12.143,0,0,1,.4-2.064l.27-.955-.362-.14c-.2-.074-.886-.254-2.059-.529a17.23,17.23,0,0,0-1.818-.389l-.01.024a10.983,10.983,0,0,0-.246,1.21,10.3,10.3,0,0,1-.514,1.99c-.206.529-.4.841-.6.928a.894.894,0,0,1-1.174-.473,1.876,1.876,0,0,1,.066-1.058,15.149,15.149,0,0,0,.416-1.86,8.944,8.944,0,0,0,.131-.908c0-.13-.034-.209-.108-.238-.056-.022-.227-.064-.514-.135s-.524-.13-.714-.189-.381-.121-.608-.209a.837.837,0,0,1-.487-.409.815.815,0,0,1-.042-.654.893.893,0,0,1,.539-.505,1.179,1.179,0,0,1,.876.019,10.123,10.123,0,0,0,1.516.371,5.329,5.329,0,0,0,1.23.163,9.285,9.285,0,0,1,2.175.426c1.317.33,2.268.6,2.862.812a3.031,3.031,0,0,1,1.344.788.8.8,0,0,1,.143.524,11.227,11.227,0,0,1-.352,1.363,14.359,14.359,0,0,0-.505,2.344Z" transform="translate(-271.031 -51.16)" fill="#fff"/>
        <path id="Path_13674" data-name="Path 13674" d="M490.912,217.558a.978.978,0,0,1,0,.542,1.027,1.027,0,0,1-.362.381.916.916,0,0,1-.445.185,20.978,20.978,0,0,1-3.614-1.267c-2.109-.844-3.641-1.511-4.577-1.993a2.182,2.182,0,0,1-.51-.317.893.893,0,0,1-.093-.979.8.8,0,0,1,.765-.482,10.311,10.311,0,0,1,2.2.844c.915.4,2.175.915,3.786,1.535a23.541,23.541,0,0,1,2.268.91.965.965,0,0,1,.58.635Z" transform="translate(-273.122 -46.072)" fill="#fff"/>
        <path id="Path_13675" data-name="Path 13675" d="M487.44,226.429c-.233.468-.4.775-.487.913-.463.706-.932.9-1.405.59l-.1-.066a.813.813,0,0,1-.381-.783,6.659,6.659,0,0,1,.812-1.678l.849-1.42-1.688-1.024c-1.124-.664-1.693-.994-1.717-.989l-.024.037c-.116.182-.492.886-1.117,2.124-.145.275-.222.423-.241.445a.679.679,0,0,1-.436.293.858.858,0,0,1-.659-.13.808.808,0,0,1-.4-.595,4.5,4.5,0,0,1,.8-2.3l.458-.826-1.247-.815-.413.5q-.119.139-.446.64c-.241.371-.416.649-.524.839s-.222.386-.379.627a1.48,1.48,0,0,1-.465.5.839.839,0,0,1-.551.047,1.039,1.039,0,0,1-.325-.13.891.891,0,0,1-.32-1.063,6.757,6.757,0,0,1,.831-1.516,9.523,9.523,0,0,1,1.8-2.281l.042-.029a1,1,0,0,1,.728-.185,21.6,21.6,0,0,1,3.636,2.077,1.6,1.6,0,0,1,.3.172l.325.214c1.809,1.151,2.76,1.752,2.852,1.813.756.5,1.151.826,1.188,1a1.744,1.744,0,0,1-.3,1.457c-.019.027-.047.059-.084.111a.678.678,0,0,0-.1.13,3.418,3.418,0,0,0-.3.408,7.306,7.306,0,0,0-.51.9Z" transform="translate(-276.013 -42.989)" fill="#fff"/>
        <path id="Path_13676" data-name="Path 13676" d="M479.7,233.186a5.17,5.17,0,0,0,1.434-.89l.532-.516-.307-.172q-1-.556-2.781-1.8t-2.6-1.948l-.608-.524-.2.339a4.611,4.611,0,0,0-.611,1.943,2.96,2.96,0,0,0,.5,1.68,6.051,6.051,0,0,0,1.193,1.36,3.338,3.338,0,0,0,.891.585,3.524,3.524,0,0,0,2.569-.066Zm3.979-1.215a3.238,3.238,0,0,1-.654,1.043,6.909,6.909,0,0,1-2.987,2.1,4.643,4.643,0,0,1-2.662.167,5.7,5.7,0,0,1-2.51-1.275,7.085,7.085,0,0,1-1.21-1.378,5.681,5.681,0,0,1-1.039-2.44,4.961,4.961,0,0,1,.473-2.473,8.449,8.449,0,0,1,1.3-2.249c.409-.477.743-.664,1-.566a23.219,23.219,0,0,1,2.13,1.68,39.208,39.208,0,0,0,5.125,3.59,6.466,6.466,0,0,1,.807.542.906.906,0,0,1,.349.529,1.731,1.731,0,0,1-.126.728Z" transform="translate(-279.019 -38.369)" fill="#fff"/>
        <path id="Path_13677" data-name="Path 13677" d="M468.12,246.216a5.439,5.439,0,0,1-.756.836,1.018,1.018,0,0,1-.635.18.9.9,0,0,1-.709-.389.73.73,0,0,1-.148-.632,4.588,4.588,0,0,1,.834-1.2,12.081,12.081,0,0,1,1.457-1.511l.746-.655-.233-.315c-.125-.172-.6-.7-1.437-1.567a17.841,17.841,0,0,0-1.312-1.317l-.019.013a11.4,11.4,0,0,0-.863.881,10.788,10.788,0,0,1-1.518,1.392,1.667,1.667,0,0,1-1.011.45.891.891,0,0,1-.728-1.034,1.856,1.856,0,0,1,.627-.852,14.562,14.562,0,0,0,1.363-1.331,6.767,6.767,0,0,0,.6-.7c.074-.108.084-.2.042-.256s-.153-.18-.357-.394-.367-.394-.5-.547c-.12-.138-.254-.31-.4-.505a.829.829,0,0,1-.185-.6.848.848,0,0,1,.32-.574.879.879,0,0,1,.729-.13,1.182,1.182,0,0,1,.728.492,10.344,10.344,0,0,0,1.072,1.141,5.466,5.466,0,0,0,.942.807,9.418,9.418,0,0,1,1.59,1.54q1.385,1.5,1.958,2.241a3.012,3.012,0,0,1,.7,1.392.8.8,0,0,1-.162.514,11.692,11.692,0,0,1-1.039.955,14.192,14.192,0,0,0-1.7,1.69Z" transform="translate(-286.429 -31.144)" fill="#fff"/>
        <path id="Path_13678" data-name="Path 13678" d="M459.685,248.92a2.617,2.617,0,0,0,.645-.158,2.117,2.117,0,0,0,.381-.357,2.089,2.089,0,0,0,.408-1.048,3.73,3.73,0,0,0-.01-1.4,4.809,4.809,0,0,0-.458-1.159,4.04,4.04,0,0,0-1.323-1.614,3.916,3.916,0,0,0-2.091-.714,1.988,1.988,0,0,0-.836.236,2.563,2.563,0,0,0-1.429,1.823,4.732,4.732,0,0,0-.061,1.188,4.187,4.187,0,0,0,.209,1.151c.005.013.024.051.042.106a1.01,1.01,0,0,0,.056.126,4.447,4.447,0,0,0,1.651,1.747,2.792,2.792,0,0,0,1.053.367,1.545,1.545,0,0,0,.91-.051,3.81,3.81,0,0,1,.852-.246m2.69.371a3.415,3.415,0,0,1-1.248,1.077,3.854,3.854,0,0,1-1.326.44,4.2,4.2,0,0,0-.96.251,2.752,2.752,0,0,1-1.8-.111,5.437,5.437,0,0,1-3.326-2.894l-.162-.307a6.809,6.809,0,0,1-.4-1.024,5.47,5.47,0,0,1-.1-1.1,4.543,4.543,0,0,1,2.458-4.5l.061-.032a3.941,3.941,0,0,1,1.563-.487,4.672,4.672,0,0,1,2.037.389,5.752,5.752,0,0,1,1.874,1.154,7.7,7.7,0,0,1,1.381,1.973,5.075,5.075,0,0,1,.381.863,6.03,6.03,0,0,1,.241,2.342,4.064,4.064,0,0,1-.662,1.961Z" transform="translate(-292.402 -27.609)" fill="#fff"/>
        <path id="Path_13679" data-name="Path 13679" d="M449.806,253.26a2.36,2.36,0,0,0,.662-.061,2.194,2.194,0,0,0,.431-.3,2.023,2.023,0,0,0,.561-.974,3.664,3.664,0,0,0,.2-1.381,5.083,5.083,0,0,0-.275-1.22,4.072,4.072,0,0,0-1.056-1.8,3.87,3.87,0,0,0-1.963-1.024,2.055,2.055,0,0,0-.863.106,2.569,2.569,0,0,0-1.688,1.582,4.541,4.541,0,0,0-.241,1.164,4.288,4.288,0,0,0,.027,1.169c.005.013.013.051.029.111a.733.733,0,0,0,.037.135,4.437,4.437,0,0,0,1.368,1.98,2.794,2.794,0,0,0,.984.524,1.527,1.527,0,0,0,.9.089,3.786,3.786,0,0,1,.886-.113Zm2.6.775a3.481,3.481,0,0,1-1.4.873,3.9,3.9,0,0,1-1.378.231,4.579,4.579,0,0,0-.989.1,2.732,2.732,0,0,1-1.762-.389,5.4,5.4,0,0,1-2.842-3.368l-.111-.325a7.378,7.378,0,0,1-.237-1.072,5.431,5.431,0,0,1,.066-1.1,4.529,4.529,0,0,1,3.112-4.067l.066-.024a3.953,3.953,0,0,1,1.617-.246,4.71,4.71,0,0,1,1.958.7,5.811,5.811,0,0,1,1.675,1.424,7.707,7.707,0,0,1,1.063,2.162,5.094,5.094,0,0,1,.241.913,5.961,5.961,0,0,1-.121,2.352,4.064,4.064,0,0,1-.955,1.838Z" transform="translate(-298.819 -24.843)" fill="#fff"/>
        <path id="Path_13680" data-name="Path 13680" d="M439.1,256.28a5.342,5.342,0,0,0,1.675.2l.733-.069-.135-.325q-.432-1.064-1.053-3.145c-.413-1.387-.682-2.434-.817-3.144l-.148-.788-.371.138a4.53,4.53,0,0,0-1.688,1.142,3,3,0,0,0-.664,1.622,6.029,6.029,0,0,0,.084,1.809,3.2,3.2,0,0,0,.334,1.011,3.532,3.532,0,0,0,2.045,1.553Zm3.868,1.535a3.2,3.2,0,0,1-1.159.408,6.852,6.852,0,0,1-3.646-.222,4.684,4.684,0,0,1-2.185-1.526,5.634,5.634,0,0,1-1.164-2.559,7.11,7.11,0,0,1-.088-1.833,5.648,5.648,0,0,1,.709-2.556,4.994,4.994,0,0,1,1.911-1.638,8.48,8.48,0,0,1,2.418-.95c.617-.116.992-.056,1.13.18a23.341,23.341,0,0,1,.617,2.645,39.6,39.6,0,0,0,1.767,6,6.186,6.186,0,0,1,.293.928.914.914,0,0,1-.056.63,1.775,1.775,0,0,1-.547.492" transform="translate(-304.96 -23.302)" fill="#fff"/>
        <path id="Path_13681" data-name="Path 13681" d="M423.056,256.8a4.032,4.032,0,0,0,.957.227,2.622,2.622,0,0,0,.575-.042.45.45,0,0,0,.153-.04.266.266,0,0,0,.074-.1.561.561,0,0,0,.042-.241c.008-.214.008-.4,0-.575q-.023-.619-.066-2.143a7.637,7.637,0,0,0-.045-1.058.3.3,0,0,0-.246-.217,2.147,2.147,0,0,0-.431-.066,4.243,4.243,0,0,0-1.309.172,2.6,2.6,0,0,0-1.043.505,1.029,1.029,0,0,0-.4.672,3.7,3.7,0,0,0,0,.389,2.426,2.426,0,0,0,1.73,2.515Zm1.889,2.037a7.881,7.881,0,0,1-1.061.069h-.071a5.427,5.427,0,0,1-1.183-.3,8.652,8.652,0,0,1-1.22-.478,3.785,3.785,0,0,1-1.466-1.72,4.942,4.942,0,0,1-.514-2.394,3.145,3.145,0,0,1,.379-1.408,3.448,3.448,0,0,1,1.661-1.457,5.966,5.966,0,0,1,2.606-.45l.8.037.047-.987a2.149,2.149,0,0,1,.328-1.277.942.942,0,0,1,.706-.291.889.889,0,0,1,.654.349,1.053,1.053,0,0,1,.214.63c.008.259-.014,1.043-.071,2.342-.074,1.624-.093,3.14-.064,4.55.013.738.013,1.233,0,1.494a1.467,1.467,0,0,1-.172.728,1.051,1.051,0,0,1-.5.381,4.687,4.687,0,0,1-1.088.17Z" transform="translate(-315.426 -22.409)" fill="#fff"/>
        <path id="Path_13682" data-name="Path 13682" d="M413.3,255.985a2.819,2.819,0,0,0,1.151.463c.662.121,1.056.061,1.178-.185.051-.115.217-.751.5-1.905s.463-1.968.546-2.436a.362.362,0,0,0,.01-.125.369.369,0,0,1,.008-.1v-.024a4.226,4.226,0,0,0-.982-.227,3.1,3.1,0,0,0-1.815.064,3.974,3.974,0,0,0-1.243.548,1.2,1.2,0,0,0-.468.78l-.051.273a2.793,2.793,0,0,0,1.159,2.871Zm2.027,2.352a5.66,5.66,0,0,1-1.318-.074,4.622,4.622,0,0,1-2.9-1.9,4.272,4.272,0,0,1-.807-1.548,5.2,5.2,0,0,1,0-1.846c.015-.074.029-.182.047-.32s.032-.227.037-.275a2.915,2.915,0,0,1,.463-1.13,3.771,3.771,0,0,1,2-1.368c.468-.182.709-.3.719-.357a1.8,1.8,0,0,0-.243-.743,2.189,2.189,0,0,1-.246-1.1.82.82,0,0,1,.3-.482.838.838,0,0,1,.736-.2.88.88,0,0,1,.571.325,7.38,7.38,0,0,1,.593,1.238,3.853,3.853,0,0,0,.357.728.532.532,0,0,0,.339.214,3.03,3.03,0,0,1,.664.19l.371.138.093-1.011.113-1.006.426-.3a.782.782,0,0,1,1.22.083c.167.185.214.645.125,1.378q-.187,1.552-.514,3.363-.419,2.31-.748,3.484a4.809,4.809,0,0,1-.9,1.948,2.078,2.078,0,0,1-1.488.561Z" transform="translate(-321.729 -23.232)" fill="#fff"/>
        <path id="Path_13683" data-name="Path 13683" d="M404.208,253.519a2.714,2.714,0,0,0,.558.355,2.022,2.022,0,0,0,.524.034,2.077,2.077,0,0,0,1.038-.428,3.719,3.719,0,0,0,1.007-.969,5.1,5.1,0,0,0,.529-1.132,4.1,4.1,0,0,0,.264-2.069,3.871,3.871,0,0,0-.923-2.008,2.089,2.089,0,0,0-.748-.445,2.564,2.564,0,0,0-2.3.217,4.653,4.653,0,0,0-.9.775,4.369,4.369,0,0,0-.7.942c0,.013-.022.051-.046.106a.8.8,0,0,0-.056.126,4.507,4.507,0,0,0-.135,2.407,2.809,2.809,0,0,0,.458,1.016,1.51,1.51,0,0,0,.664.62,3.962,3.962,0,0,1,.77.455Zm1.582,2.207a3.483,3.483,0,0,1-1.643-.167,3.969,3.969,0,0,1-1.233-.659,4.226,4.226,0,0,0-.839-.524,2.757,2.757,0,0,1-1.156-1.383,5.423,5.423,0,0,1-.185-4.4l.111-.33a7.076,7.076,0,0,1,.468-.992,6.141,6.141,0,0,1,.728-.836A4.541,4.541,0,0,1,407,245.127l.064.024a3.849,3.849,0,0,1,1.429.8,4.693,4.693,0,0,1,1.119,1.749,5.72,5.72,0,0,1,.45,2.153,7.673,7.673,0,0,1-.482,2.36,5.811,5.811,0,0,1-.367.873,5.965,5.965,0,0,1-1.535,1.786,4.1,4.1,0,0,1-1.878.866Z" transform="translate(-328.48 -24.687)" fill="#fff"/>
        <path id="Path_13684" data-name="Path 13684" d="M394.135,249.179a5.126,5.126,0,0,0,1.2,1.183l.622.394.093-.339q.313-1.107,1.1-3.13t1.28-2.984l.366-.718-.381-.116a4.588,4.588,0,0,0-2.03-.14,3.033,3.033,0,0,0-1.521.873,6.018,6.018,0,0,0-1.039,1.479,3.238,3.238,0,0,0-.362,1,3.517,3.517,0,0,0,.669,2.482Zm2.111,3.585a3.262,3.262,0,0,1-1.169-.389,6.909,6.909,0,0,1-2.741-2.413,4.659,4.659,0,0,1-.789-2.546,5.681,5.681,0,0,1,.654-2.738,7.026,7.026,0,0,1,1.053-1.5,5.665,5.665,0,0,1,2.125-1.582,4.98,4.98,0,0,1,2.514-.12,8.341,8.341,0,0,1,2.492.733c.561.283.82.566.783.839a23.4,23.4,0,0,1-1.132,2.463,40.239,40.239,0,0,0-2.286,5.826,6.376,6.376,0,0,1-.339.908.91.91,0,0,1-.431.465,1.728,1.728,0,0,1-.738.051Z" transform="translate(-334.516 -27.07)" fill="#fff"/>
        <path id="Path_13685" data-name="Path 13685" d="M389.363,247.686a.912.912,0,0,1-.654-.148.833.833,0,0,1-.339-.519.888.888,0,0,1,.111-.637q.18-.334,1.267-2.045a15.278,15.278,0,0,0,1.762-3.294,2.389,2.389,0,0,0-.27-1.916,2.66,2.66,0,0,0-.836-.89,2.474,2.474,0,0,0-2.461-.33q-1.071.4-2.947,3.071a11.815,11.815,0,0,1-1.252,1.606.868.868,0,0,1-.8.207.955.955,0,0,1-.354-.138.829.829,0,0,1-.323-.9,6.158,6.158,0,0,1,.755-1.238,22.654,22.654,0,0,1,2.645-3.285,4.275,4.275,0,0,1,5.152-.9,5.166,5.166,0,0,1,.738.431,4.334,4.334,0,0,1,1.809,2.615,4.9,4.9,0,0,1-.167,2.519,15.948,15.948,0,0,1-2.172,3.892l-1.242,1.852-.423.04Z" transform="translate(-340.884 -30.87)" fill="#fff"/>
        <path id="Path_13686" data-name="Path 13686" d="M377.345,239.456a2.354,2.354,0,0,1-.788-.505c-.024-.024-.051-.056-.093-.1s-.074-.088-.106-.12a2.487,2.487,0,0,1-.581-.91,5.36,5.36,0,0,1-.212-1.349,1.251,1.251,0,0,1,.241-.979c.4-.421.789-.455,1.151-.106a2.022,2.022,0,0,1,.5,1.146,1.979,1.979,0,0,0,.394,1.016,1.558,1.558,0,0,0,.854.3,3.373,3.373,0,0,0,1.823-.384,6.014,6.014,0,0,0,1.786-1.28,3.839,3.839,0,0,0,.853-1.252,2.89,2.89,0,0,0,.168-.97,1.981,1.981,0,0,0-.724-1.73,2.609,2.609,0,0,0-1.183-.723,6.1,6.1,0,0,1-1.9-.677.6.6,0,0,1-.135-.222,1.056,1.056,0,0,1-.045-.682.722.722,0,0,1,.172-.344c.222-.231.765-.264,1.622-.1a5.23,5.23,0,0,1,2.69,1.312c.032.032.084.083.148.157s.116.13.148.158a4.138,4.138,0,0,1,.836,4.337,5.279,5.279,0,0,1-1.119,1.794c-.04.047-.1.108-.167.19s-.12.14-.153.177a8,8,0,0,1-2.792,1.841,4.41,4.41,0,0,1-1.669.357,4.875,4.875,0,0,1-1.712-.357" transform="translate(-345.463 -35.284)" fill="#fff"/>
        <path id="Path_13687" data-name="Path 13687" d="M372.475,233.495a.822.822,0,0,1-.519-.291,3.283,3.283,0,0,1-.224-.325,38.588,38.588,0,0,0-2.615-3.73,5.458,5.458,0,0,0-.446-.529c-.106-.111-.212-.241-.329-.384a1.157,1.157,0,0,1,.148-1.457.794.794,0,0,1,.622-.133.811.811,0,0,1,.473.2,8.631,8.631,0,0,1,.751.886l.82,1.048.5-.478a60.293,60.293,0,0,1,4.783-3.993,9.386,9.386,0,0,1,1.169-.854.832.832,0,0,1,.908.312.855.855,0,0,1,.185.612.8.8,0,0,1-.286.548c-.19.19-.841.733-1.944,1.633q-2.338,1.936-3.27,2.756l-1.048.932.408.524a5.394,5.394,0,0,1,.952,1.648.887.887,0,0,1-.372.959.729.729,0,0,1-.667.116Z" transform="translate(-350.538 -39.364)" fill="#fff"/>
      </g>
    </g>
  </g>
</svg>
